<?xml version="1.0" encoding="utf-8" standalone="no"?>
<!DOCTYPE svg PUBLIC "-//W3C//DTD SVG 1.1//EN"
  "http://www.w3.org/Graphics/SVG/1.1/DTD/svg11.dtd">
<svg xmlns:xlink="http://www.w3.org/1999/xlink" width="170.07874pt" height="141.732283pt" viewBox="0 0 170.07874 141.732283" xmlns="http://www.w3.org/2000/svg" version="1.1">
 <metadata>
  <rdf:RDF xmlns:dc="http://purl.org/dc/elements/1.1/" xmlns:cc="http://creativecommons.org/ns#" xmlns:rdf="http://www.w3.org/1999/02/22-rdf-syntax-ns#">
   <cc:Work>
    <dc:type rdf:resource="http://purl.org/dc/dcmitype/StillImage"/>
    <dc:date>2024-11-20T23:51:24.018965</dc:date>
    <dc:format>image/svg+xml</dc:format>
    <dc:creator>
     <cc:Agent>
      <dc:title>Matplotlib v3.5.3, https://matplotlib.org/</dc:title>
     </cc:Agent>
    </dc:creator>
   </cc:Work>
  </rdf:RDF>
 </metadata>
 <defs>
  <style type="text/css">*{stroke-linejoin: round; stroke-linecap: butt}</style>
 </defs>
 <g id="figure_1">
  <g id="patch_1">
   <path d="M 0 141.732283 
L 170.07874 141.732283 
L 170.07874 0 
L 0 0 
z
" style="fill: #ffffff"/>
  </g>
  <g id="axes_1">
   <g id="patch_2">
    <path d="M 40.91305 105.1501 
L 167.0785 105.1501 
L 167.0785 3.00024 
L 40.91305 3.00024 
z
" style="fill: #ffffff"/>
   </g>
   <g id="matplotlib.axis_1">
    <g id="xtick_1">
     <g id="line2d_1">
      <defs>
       <path id="m9ec7629d8b" d="M 0 0 
L 0 3.5 
" style="stroke: #000000; stroke-width: 0.8"/>
      </defs>
      <g>
       <use xlink:href="#m9ec7629d8b" x="61.940625" y="105.1501" style="stroke: #000000; stroke-width: 0.8"/>
      </g>
     </g>
     <g id="text_1">
      <!-- $\mathdefault{−2}$ -->
      <g transform="translate(54.364885 120.45228)scale(0.12 -0.12)">
       <defs>
        <path id="CMSY10-0" d="M 4218 1472 
C 4326 1472 4442 1472 4442 1600 
C 4442 1728 4326 1728 4218 1728 
L 755 1728 
C 646 1728 531 1728 531 1600 
C 531 1472 646 1472 755 1472 
L 4218 1472 
z
" transform="scale(0.015625)"/>
        <path id="CMR17-32" d="M 2669 989 
L 2554 989 
C 2490 536 2438 459 2413 420 
C 2381 369 1920 369 1830 369 
L 602 369 
C 832 619 1280 1072 1824 1597 
C 2214 1967 2669 2402 2669 3035 
C 2669 3790 2067 4224 1395 4224 
C 691 4224 262 3604 262 3030 
C 262 2780 448 2748 525 2748 
C 589 2748 781 2787 781 3010 
C 781 3207 614 3264 525 3264 
C 486 3264 448 3258 422 3245 
C 544 3790 915 4058 1306 4058 
C 1862 4058 2227 3617 2227 3035 
C 2227 2479 1901 2000 1536 1584 
L 262 146 
L 262 0 
L 2515 0 
L 2669 989 
z
" transform="scale(0.015625)"/>
       </defs>
       <use xlink:href="#CMSY10-0" transform="scale(0.996264)"/>
       <use xlink:href="#CMR17-32" transform="translate(77.487468 0)scale(0.996264)"/>
      </g>
     </g>
    </g>
    <g id="xtick_2">
     <g id="line2d_2">
      <g>
       <use xlink:href="#m9ec7629d8b" x="103.995775" y="105.1501" style="stroke: #000000; stroke-width: 0.8"/>
      </g>
     </g>
     <g id="text_2">
      <!-- $\mathdefault{0}$ -->
      <g transform="translate(101.06928 120.45228)scale(0.12 -0.12)">
       <defs>
        <path id="CMR17-30" d="M 2688 2025 
C 2688 2416 2682 3080 2413 3591 
C 2176 4039 1798 4198 1466 4198 
C 1158 4198 768 4058 525 3597 
C 269 3118 243 2524 243 2025 
C 243 1661 250 1106 448 619 
C 723 -39 1216 -128 1466 -128 
C 1760 -128 2208 -7 2470 600 
C 2662 1042 2688 1559 2688 2025 
z
M 1466 -26 
C 1056 -26 813 325 723 812 
C 653 1188 653 1738 653 2096 
C 653 2588 653 2997 736 3387 
C 858 3929 1216 4096 1466 4096 
C 1728 4096 2067 3923 2189 3400 
C 2272 3036 2278 2607 2278 2096 
C 2278 1680 2278 1169 2202 792 
C 2067 95 1690 -26 1466 -26 
z
" transform="scale(0.015625)"/>
       </defs>
       <use xlink:href="#CMR17-30" transform="scale(0.996264)"/>
      </g>
     </g>
    </g>
    <g id="xtick_3">
     <g id="line2d_3">
      <g>
       <use xlink:href="#m9ec7629d8b" x="146.050925" y="105.1501" style="stroke: #000000; stroke-width: 0.8"/>
      </g>
     </g>
     <g id="text_3">
      <!-- $\mathdefault{2}$ -->
      <g transform="translate(143.12443 120.45228)scale(0.12 -0.12)">
       <use xlink:href="#CMR17-32" transform="scale(0.996264)"/>
      </g>
     </g>
    </g>
    <g id="text_4">
     <!-- $z-z_\mathrm{beads}$ [\mum] -->
     <g transform="translate(66.643552 135.743251)scale(0.12 -0.12)">
      <defs>
       <path id="CMMI12-7a" d="M 813 486 
C 1088 803 1312 1004 1632 1296 
C 2016 1632 2182 1793 2272 1891 
C 2720 2338 2944 2713 2944 2764 
C 2944 2816 2893 2816 2880 2816 
C 2835 2816 2822 2793 2790 2750 
C 2630 2494 2477 2367 2310 2367 
C 2176 2367 2106 2421 1984 2565 
C 1850 2715 1741 2816 1555 2816 
C 1088 2816 806 2257 806 2128 
C 806 2108 813 2068 870 2068 
C 922 2068 928 2091 947 2133 
C 1056 2372 1363 2414 1485 2414 
C 1619 2414 1747 2376 1882 2327 
C 2125 2240 2227 2240 2291 2240 
C 2336 2240 2362 2240 2394 2246 
C 2182 1994 1837 1683 1549 1418 
L 902 816 
C 512 415 275 33 275 -12 
C 275 -51 307 -64 346 -64 
C 384 -64 390 -57 435 14 
C 538 163 742 384 979 384 
C 1114 384 1178 342 1306 193 
C 1427 61 1536 -64 1741 -64 
C 2368 -64 2726 732 2726 876 
C 2726 903 2720 942 2656 942 
C 2605 942 2598 917 2579 855 
C 2438 488 2061 338 1811 338 
C 1677 338 1549 376 1414 425 
C 1158 512 1088 512 1005 512 
C 941 512 870 512 813 486 
z
" transform="scale(0.015625)"/>
       <path id="CMR17-62" d="M 960 4396 
L 198 4326 
L 198 4160 
C 576 4160 634 4122 634 3817 
L 634 -13 
L 749 -13 
L 934 441 
C 1120 141 1395 -64 1766 -64 
C 2406 -64 3053 500 3053 1370 
C 3053 2188 2477 2790 1830 2790 
C 1434 2790 1152 2579 960 2330 
L 960 4396 
z
M 973 2004 
C 973 2118 973 2138 1062 2272 
C 1312 2657 1670 2688 1792 2688 
C 1984 2688 2643 2585 2643 1376 
C 2643 108 1888 38 1734 38 
C 1536 38 1248 114 1043 486 
C 973 608 973 621 973 735 
L 973 2004 
z
" transform="scale(0.015625)"/>
       <path id="CMR17-65" d="M 2438 1472 
C 2464 1498 2464 1511 2464 1576 
C 2464 2238 2118 2816 1389 2816 
C 710 2816 173 2169 173 1383 
C 173 551 781 -64 1459 -64 
C 2176 -64 2458 607 2458 740 
C 2458 784 2419 784 2406 784 
C 2362 784 2355 771 2330 696 
C 2189 265 1837 51 1504 51 
C 1229 51 954 203 781 480 
C 582 803 582 1176 582 1472 
L 2438 1472 
z
M 589 1568 
C 634 2505 1126 2714 1382 2714 
C 1818 2714 2112 2297 2118 1568 
L 589 1568 
z
" transform="scale(0.015625)"/>
       <path id="CMR17-61" d="M 2304 1653 
C 2304 2072 2304 2294 2035 2543 
C 1798 2752 1523 2816 1306 2816 
C 800 2816 435 2407 435 1971 
C 435 1728 627 1728 666 1728 
C 749 1728 896 1778 896 1954 
C 896 2112 774 2181 666 2181 
C 640 2181 608 2174 589 2168 
C 723 2592 1069 2714 1293 2714 
C 1613 2714 1965 2429 1965 1885 
L 1965 1600 
C 1587 1600 1133 1549 774 1357 
C 371 1133 256 813 256 570 
C 256 77 832 -64 1171 -64 
C 1523 -64 1850 139 1990 511 
C 2003 233 2182 -18 2464 -18 
C 2598 -18 2938 70 2938 567 
L 2938 920 
L 2822 920 
L 2822 562 
C 2822 178 2650 128 2566 128 
C 2304 128 2304 458 2304 738 
L 2304 1653 
z
M 1965 870 
C 1965 317 1568 38 1216 38 
C 896 38 646 275 646 570 
C 646 761 730 1100 1101 1305 
C 1408 1478 1760 1504 1965 1504 
L 1965 870 
z
" transform="scale(0.015625)"/>
       <path id="CMR17-64" d="M 1869 4326 
L 1869 4160 
C 2246 4160 2304 4122 2304 3820 
L 2304 2345 
C 2278 2377 2016 2790 1498 2790 
C 845 2790 211 2208 211 1364 
C 211 525 806 -64 1434 -64 
C 1978 -64 2259 337 2291 380 
L 2291 -63 
L 3066 -63 
L 3066 128 
C 2688 128 2630 166 2630 473 
L 2630 4396 
L 1869 4326 
z
M 2291 755 
C 2291 563 2176 390 2029 262 
C 1811 70 1594 38 1472 38 
C 1286 38 621 134 621 1356 
C 621 2612 1363 2688 1530 2688 
C 1824 2688 2061 2522 2208 2291 
C 2291 2157 2291 2138 2291 2023 
L 2291 755 
z
" transform="scale(0.015625)"/>
       <path id="CMR17-73" d="M 1978 2697 
C 1978 2813 1971 2819 1933 2819 
C 1907 2819 1901 2813 1824 2717 
C 1805 2691 1747 2626 1728 2601 
C 1523 2819 1235 2819 1126 2819 
C 416 2819 160 2447 160 2076 
C 160 1498 813 1365 998 1325 
C 1402 1243 1542 1217 1677 1101 
C 1760 1025 1901 884 1901 654 
C 1901 384 1747 38 1158 38 
C 602 38 403 460 288 1021 
C 269 1110 269 1117 218 1117 
C 166 1117 160 1110 160 983 
L 160 63 
C 160 -51 166 -58 205 -58 
C 237 -58 243 -51 275 0 
C 314 57 410 211 448 276 
C 576 103 800 -64 1158 -64 
C 1792 -64 2131 283 2131 784 
C 2131 1112 1958 1285 1875 1362 
C 1683 1561 1459 1606 1190 1657 
C 838 1735 390 1825 390 2217 
C 390 2383 480 2737 1126 2737 
C 1811 2737 1850 2094 1862 1888 
C 1869 1856 1901 1849 1920 1849 
C 1978 1849 1978 1869 1978 1978 
L 1978 2697 
z
" transform="scale(0.015625)"/>
       <path id="CMR17-5b" d="M 1504 -1600 
L 1504 -1377 
L 902 -1377 
L 902 4544 
L 1504 4544 
L 1504 4767 
L 678 4767 
L 678 -1600 
L 1504 -1600 
z
" transform="scale(0.015625)"/>
       <path id="CMMI12-16" d="M 922 140 
C 1082 -6 1318 -64 1536 -64 
C 1946 -64 2227 208 2374 405 
C 2438 69 2707 -64 2931 -64 
C 3123 -64 3277 50 3392 277 
C 3494 493 3584 879 3584 903 
C 3584 935 3558 960 3520 960 
C 3462 960 3456 928 3430 834 
C 3334 461 3213 64 2950 64 
C 2765 64 2752 229 2752 358 
C 2752 504 2810 735 2854 926 
L 3034 1615 
C 3059 1737 3130 2023 3162 2139 
C 3200 2292 3270 2567 3270 2592 
C 3270 2688 3194 2752 3098 2752 
C 3040 2752 2906 2726 2854 2535 
L 2406 760 
C 2374 632 2374 619 2291 517 
C 2214 409 1965 64 1562 64 
C 1203 64 1088 326 1088 625 
C 1088 811 1146 1034 1171 1143 
L 1459 2293 
C 1491 2414 1542 2618 1542 2657 
C 1542 2759 1459 2816 1376 2816 
C 1318 2816 1178 2797 1126 2592 
L 198 -1107 
C 192 -1139 179 -1177 179 -1216 
C 179 -1312 256 -1376 352 -1376 
C 538 -1376 576 -1228 621 -1050 
L 922 140 
z
" transform="scale(0.015625)"/>
       <path id="CMR17-6d" d="M 4326 1933 
C 4326 2252 4269 2790 3507 2790 
C 3072 2790 2771 2496 2656 2151 
L 2650 2151 
C 2573 2676 2195 2790 1837 2790 
C 1331 2790 1069 2400 973 2144 
L 966 2144 
L 966 2790 
L 211 2720 
L 211 2554 
C 589 2554 646 2515 646 2208 
L 646 428 
C 646 184 621 153 211 153 
L 211 -13 
C 365 0 646 0 813 0 
C 979 0 1267 0 1421 -13 
L 1421 153 
C 1011 153 986 178 986 428 
L 986 1658 
C 986 2247 1344 2688 1792 2688 
C 2266 2688 2317 2266 2317 1958 
L 2317 428 
C 2317 184 2291 153 1882 153 
L 1882 -13 
C 2035 0 2317 0 2483 0 
C 2650 0 2938 0 3091 -13 
L 3091 153 
C 2682 153 2656 178 2656 428 
L 2656 1658 
C 2656 2247 3014 2688 3462 2688 
C 3936 2688 3987 2266 3987 1958 
L 3987 428 
C 3987 184 3962 153 3552 153 
L 3552 -13 
C 3706 0 3987 0 4154 0 
C 4320 0 4608 0 4762 -13 
L 4762 153 
C 4352 153 4326 178 4326 428 
L 4326 1933 
z
" transform="scale(0.015625)"/>
       <path id="CMR17-5d" d="M 915 4767 
L 90 4767 
L 90 4544 
L 691 4544 
L 691 -1377 
L 90 -1377 
L 90 -1600 
L 915 -1600 
L 915 4767 
z
" transform="scale(0.015625)"/>
      </defs>
      <use xlink:href="#CMMI12-7a" transform="scale(0.996264)"/>
      <use xlink:href="#CMSY10-0" transform="translate(71.894352 0)scale(0.996264)"/>
      <use xlink:href="#CMMI12-7a" transform="translate(171.521026 0)scale(0.996264)"/>
      <use xlink:href="#CMR17-62" transform="translate(216.83678 -14.943915)scale(0.697382)"/>
      <use xlink:href="#CMR17-65" transform="translate(254.285094 -14.943915)scale(0.697382)"/>
      <use xlink:href="#CMR17-61" transform="translate(282.624925 -14.943915)scale(0.697382)"/>
      <use xlink:href="#CMR17-64" transform="translate(314.608107 -14.943915)scale(0.697382)"/>
      <use xlink:href="#CMR17-73" transform="translate(350.234716 -14.943915)scale(0.697382)"/>
      <use xlink:href="#CMR17-5b" transform="translate(405.869636 0)scale(0.996264)"/>
      <use xlink:href="#CMMI12-16" transform="translate(430.740695 0)scale(0.996264)"/>
      <use xlink:href="#CMR17-6d" transform="translate(489.432116 0)scale(0.996264)"/>
      <use xlink:href="#CMR17-5d" transform="translate(566.351706 0)scale(0.996264)"/>
     </g>
    </g>
   </g>
   <g id="matplotlib.axis_2">
    <g id="ytick_1">
     <g id="line2d_4">
      <defs>
       <path id="m552c68475e" d="M 0 0 
L -3.5 0 
" style="stroke: #000000; stroke-width: 0.8"/>
      </defs>
      <g>
       <use xlink:href="#m552c68475e" x="40.91305" y="100.506924" style="stroke: #000000; stroke-width: 0.8"/>
      </g>
     </g>
     <g id="text_5">
      <!-- $\mathdefault{0.0}$ -->
      <g transform="translate(18.955408 104.658014)scale(0.12 -0.12)">
       <defs>
        <path id="CMMI12-3a" d="M 1178 307 
C 1178 492 1024 619 870 619 
C 685 619 557 466 557 313 
C 557 128 710 0 864 0 
C 1050 0 1178 153 1178 307 
z
" transform="scale(0.015625)"/>
       </defs>
       <use xlink:href="#CMR17-30" transform="scale(0.996264)"/>
       <use xlink:href="#CMMI12-3a" transform="translate(45.690477 0)scale(0.996264)"/>
       <use xlink:href="#CMR17-30" transform="translate(72.787654 0)scale(0.996264)"/>
      </g>
     </g>
    </g>
    <g id="ytick_2">
     <g id="line2d_5">
      <g>
       <use xlink:href="#m552c68475e" x="40.91305" y="54.07517" style="stroke: #000000; stroke-width: 0.8"/>
      </g>
     </g>
     <g id="text_6">
      <!-- $\mathdefault{0.5}$ -->
      <g transform="translate(18.955408 58.22626)scale(0.12 -0.12)">
       <defs>
        <path id="CMR17-35" d="M 730 3692 
C 794 3666 1056 3584 1325 3584 
C 1920 3584 2246 3911 2432 4100 
C 2432 4157 2432 4192 2394 4192 
C 2387 4192 2374 4192 2323 4163 
C 2099 4058 1837 3973 1517 3973 
C 1325 3973 1037 3999 723 4139 
C 653 4171 640 4171 634 4171 
C 602 4171 595 4164 595 4037 
L 595 2203 
C 595 2089 595 2057 659 2057 
C 691 2057 704 2070 736 2114 
C 941 2401 1222 2522 1542 2522 
C 1766 2522 2246 2382 2246 1289 
C 2246 1085 2246 715 2054 421 
C 1894 159 1645 25 1370 25 
C 947 25 518 320 403 814 
C 429 807 480 795 506 795 
C 589 795 749 840 749 1038 
C 749 1210 627 1280 506 1280 
C 358 1280 262 1190 262 1011 
C 262 454 704 -128 1382 -128 
C 2042 -128 2669 440 2669 1264 
C 2669 2030 2170 2624 1549 2624 
C 1222 2624 947 2503 730 2274 
L 730 3692 
z
" transform="scale(0.015625)"/>
       </defs>
       <use xlink:href="#CMR17-30" transform="scale(0.996264)"/>
       <use xlink:href="#CMMI12-3a" transform="translate(45.690477 0)scale(0.996264)"/>
       <use xlink:href="#CMR17-35" transform="translate(72.787654 0)scale(0.996264)"/>
      </g>
     </g>
    </g>
    <g id="ytick_3">
     <g id="line2d_6">
      <g>
       <use xlink:href="#m552c68475e" x="40.91305" y="7.643415" style="stroke: #000000; stroke-width: 0.8"/>
      </g>
     </g>
     <g id="text_7">
      <!-- $\mathdefault{1.0}$ -->
      <g transform="translate(18.955408 11.794505)scale(0.12 -0.12)">
       <defs>
        <path id="CMR17-31" d="M 1702 4058 
C 1702 4192 1696 4192 1606 4192 
C 1357 3916 979 3827 621 3827 
C 602 3827 570 3827 563 3808 
C 557 3795 557 3782 557 3648 
C 755 3648 1088 3686 1344 3839 
L 1344 461 
C 1344 236 1331 160 781 160 
L 589 160 
L 589 0 
C 896 0 1216 0 1523 0 
C 1830 0 2150 0 2458 0 
L 2458 160 
L 2266 160 
C 1715 160 1702 230 1702 458 
L 1702 4058 
z
" transform="scale(0.015625)"/>
       </defs>
       <use xlink:href="#CMR17-31" transform="scale(0.996264)"/>
       <use xlink:href="#CMMI12-3a" transform="translate(45.690477 0)scale(0.996264)"/>
       <use xlink:href="#CMR17-30" transform="translate(72.787654 0)scale(0.996264)"/>
      </g>
     </g>
    </g>
    <g id="text_8">
     <!-- $S_\mathrm{beads}/S_\mathrm{max}$ -->
     <g transform="translate(11.966616 82.821718)rotate(-90)scale(0.12 -0.12)">
      <defs>
       <path id="CMMI12-53" d="M 4064 4423 
C 4064 4480 4019 4480 4006 4480 
C 3981 4480 3974 4474 3898 4378 
C 3859 4333 3597 4001 3590 3995 
C 3379 4410 2957 4480 2688 4480 
C 1875 4480 1139 3743 1139 3025 
C 1139 2549 1427 2269 1741 2161 
C 1811 2135 2189 2033 2381 1989 
C 2707 1900 2790 1875 2925 1735 
C 2950 1703 3078 1557 3078 1258 
C 3078 667 2528 57 1888 57 
C 1363 57 781 280 781 991 
C 781 1112 806 1265 826 1328 
C 826 1348 832 1378 832 1391 
C 832 1417 819 1449 768 1449 
C 710 1449 704 1436 678 1328 
L 352 24 
C 352 18 326 -64 326 -71 
C 326 -128 378 -128 390 -128 
C 416 -128 422 -122 499 -26 
L 794 356 
C 947 126 1280 -128 1875 -128 
C 2701 -128 3456 666 3456 1460 
C 3456 1728 3392 1963 3149 2197 
C 3014 2331 2899 2363 2310 2516 
C 1882 2630 1824 2649 1709 2751 
C 1600 2858 1517 3011 1517 3227 
C 1517 3761 2061 4308 2669 4308 
C 3296 4308 3590 3926 3590 3323 
C 3590 3158 3558 2986 3558 2961 
C 3558 2903 3610 2903 3629 2903 
C 3686 2903 3693 2922 3718 3024 
L 4064 4423 
z
" transform="scale(0.015625)"/>
       <path id="CMMI12-3d" d="M 2746 4562 
C 2746 4569 2784 4666 2784 4678 
C 2784 4755 2720 4800 2669 4800 
C 2637 4800 2579 4800 2528 4659 
L 384 -1363 
C 384 -1370 346 -1465 346 -1478 
C 346 -1555 410 -1600 461 -1600 
C 499 -1600 557 -1593 602 -1459 
L 2746 4562 
z
" transform="scale(0.015625)"/>
       <path id="CMR17-78" d="M 1664 1477 
C 1856 1726 2074 2006 2253 2216 
C 2464 2458 2707 2560 2989 2560 
L 2989 2726 
C 2880 2726 2656 2726 2541 2726 
C 2368 2726 2170 2726 2022 2732 
L 2022 2566 
C 2112 2553 2163 2489 2163 2400 
C 2163 2285 2099 2215 2067 2171 
L 1594 1573 
L 1030 2306 
C 973 2376 973 2388 973 2420 
C 973 2497 1037 2560 1146 2560 
L 1146 2732 
C 992 2726 717 2726 557 2726 
C 384 2726 179 2726 38 2732 
L 38 2560 
C 384 2560 461 2534 614 2343 
L 1350 1395 
C 1363 1382 1395 1344 1395 1325 
C 1395 1299 838 619 768 530 
C 480 185 179 160 6 160 
L 6 0 
C 115 0 339 0 454 0 
C 582 0 864 0 979 -6 
L 979 160 
C 941 166 838 179 838 325 
C 838 440 890 510 947 586 
L 1478 1236 
L 2035 512 
C 2086 442 2163 346 2163 301 
C 2163 211 2086 160 1984 160 
L 1984 -6 
C 2138 0 2413 0 2573 0 
C 2746 0 2950 0 3091 -6 
L 3091 160 
C 2771 160 2675 172 2522 370 
L 1664 1477 
z
" transform="scale(0.015625)"/>
      </defs>
      <use xlink:href="#CMMI12-53" transform="scale(0.996264)"/>
      <use xlink:href="#CMR17-62" transform="translate(59.994488 -14.943915)scale(0.697382)"/>
      <use xlink:href="#CMR17-65" transform="translate(97.442802 -14.943915)scale(0.697382)"/>
      <use xlink:href="#CMR17-61" transform="translate(125.782633 -14.943915)scale(0.697382)"/>
      <use xlink:href="#CMR17-64" transform="translate(157.765815 -14.943915)scale(0.697382)"/>
      <use xlink:href="#CMR17-73" transform="translate(193.392424 -14.943915)scale(0.697382)"/>
      <use xlink:href="#CMMI12-3d" transform="translate(218.951378 0)scale(0.996264)"/>
      <use xlink:href="#CMMI12-53" transform="translate(267.726297 0)scale(0.996264)"/>
      <use xlink:href="#CMR17-6d" transform="translate(327.720785 -14.943915)scale(0.697382)"/>
      <use xlink:href="#CMR17-61" transform="translate(381.564251 -14.943915)scale(0.697382)"/>
      <use xlink:href="#CMR17-78" transform="translate(413.547433 -14.943915)scale(0.697382)"/>
     </g>
    </g>
   </g>
   <g id="line2d_7">
    <path d="M -1 100.200772 
L 11.474445 99.967949 
L 24.09099 99.355581 
L 30.399262 98.765564 
L 36.707535 97.718163 
L 40.91305 96.540381 
L 45.118565 94.753399 
L 47.221322 93.419328 
L 49.32408 91.917167 
L 53.529595 88.154666 
L 55.632352 85.90733 
L 59.837867 82.510518 
L 64.043382 80.638761 
L 68.248897 76.841843 
L 70.351655 74.094979 
L 74.55717 64.924874 
L 76.659927 57.815831 
L 78.762685 53.39313 
L 80.865442 47.943981 
L 82.9682 48.331451 
L 85.070957 54.664216 
L 87.173715 65.189229 
L 89.276472 72.736722 
L 91.37923 73.463851 
L 93.481987 65.805278 
L 95.584745 48.740924 
L 97.687503 27.935497 
L 99.79026 19.311044 
L 101.893018 9.090803 
L 103.995775 7.643415 
L 106.098533 9.646855 
L 108.20129 17.151034 
L 110.304048 25.438508 
L 114.509563 39.83963 
L 116.61232 45.076608 
L 118.715078 52.117427 
L 122.920593 64.613053 
L 125.02335 68.743178 
L 127.126108 74.011217 
L 129.228865 77.45638 
L 133.43438 82.720954 
L 135.537138 85.547992 
L 137.639895 87.394725 
L 139.742653 88.922868 
L 141.84541 90.176407 
L 146.050925 92.142504 
L 148.153683 92.938254 
L 154.461955 94.814486 
L 158.66747 95.520738 
L 160.770228 95.908438 
L 169.181258 96.893925 
L 171.07874 97.215518 
L 171.07874 97.215518 
" clip-path="url(#pdc0983a834)" style="fill: none; stroke: #d60000; stroke-linecap: square"/>
   </g>
   <g id="line2d_8">
    <path d="M -1 100.233104 
L 13.577202 100.093807 
L 26.193747 99.611977 
L 30.399262 99.316224 
L 36.707535 98.601049 
L 38.810292 98.174877 
L 40.91305 97.606287 
L 43.015807 97.177647 
L 45.118565 96.240819 
L 47.221322 95.441497 
L 51.426837 92.748924 
L 53.529595 91.155161 
L 55.632352 89.131423 
L 57.73511 86.858679 
L 61.940625 83.233109 
L 64.043382 82.138807 
L 68.248897 79.05274 
L 70.351655 77.200255 
L 72.454412 73.667854 
L 74.55717 69.354466 
L 76.659927 63.989859 
L 78.762685 57.743818 
L 80.865442 52.145393 
L 82.9682 50.684976 
L 85.070957 53.761384 
L 87.173715 61.737738 
L 89.276472 70.757763 
L 91.37923 80.564944 
L 93.481987 79.140787 
L 95.584745 66.486345 
L 97.687503 47.651369 
L 99.79026 30.492075 
L 101.893018 16.053826 
L 103.995775 7.643415 
L 106.098533 8.285934 
L 108.20129 11.732965 
L 112.406805 28.595613 
L 114.509563 37.354665 
L 116.61232 44.378581 
L 118.715078 50.463666 
L 120.817835 57.364325 
L 122.920593 63.155034 
L 127.126108 71.579344 
L 129.228865 74.158632 
L 133.43438 81.873034 
L 137.639895 86.097127 
L 139.742653 87.914061 
L 141.84541 89.397525 
L 143.948168 90.249464 
L 146.050925 91.481079 
L 150.25644 93.509943 
L 152.359198 94.188712 
L 158.66747 95.753096 
L 169.181258 97.183147 
L 171.07874 97.409042 
L 171.07874 97.409042 
" clip-path="url(#pdc0983a834)" style="fill: none; stroke: #8c3bff; stroke-linecap: square"/>
   </g>
   <g id="line2d_9">
    <path d="M -1 100.13974 
L 15.67996 99.802358 
L 24.09099 99.305372 
L 32.50202 98.320344 
L 38.810292 97.048999 
L 40.91305 96.343924 
L 45.118565 94.585843 
L 49.32408 92.096362 
L 51.426837 90.026115 
L 53.529595 88.295188 
L 55.632352 85.567346 
L 57.73511 83.755904 
L 59.837867 82.348201 
L 61.940625 79.951348 
L 64.043382 78.58742 
L 66.14614 76.518884 
L 70.351655 71.544878 
L 72.454412 66.236728 
L 74.55717 59.52602 
L 76.659927 53.211945 
L 78.762685 50.955148 
L 80.865442 48.467984 
L 82.9682 53.100097 
L 85.070957 59.260905 
L 87.173715 70.082238 
L 89.276472 76.767687 
L 91.37923 75.951061 
L 93.481987 68.424749 
L 97.687503 28.985804 
L 99.79026 14.796246 
L 101.893018 8.242187 
L 103.995775 7.643415 
L 106.098533 11.26515 
L 108.20129 17.964106 
L 114.509563 45.058495 
L 116.61232 51.113579 
L 118.715078 58.710264 
L 120.817835 62.273085 
L 122.920593 66.986581 
L 125.02335 72.161691 
L 129.228865 78.59097 
L 131.331623 80.388454 
L 133.43438 82.561146 
L 135.537138 85.205991 
L 137.639895 86.965648 
L 139.742653 87.9973 
L 141.84541 89.616755 
L 143.948168 90.514284 
L 146.050925 91.684385 
L 150.25644 93.18218 
L 154.461955 93.967484 
L 158.66747 94.922278 
L 164.975743 95.696549 
L 171.07874 96.402851 
L 171.07874 96.402851 
" clip-path="url(#pdc0983a834)" style="fill: none; stroke: #018700; stroke-linecap: square"/>
   </g>
   <g id="line2d_10">
    <path d="M -1 100.133995 
L 17.782717 99.794311 
L 26.193747 99.311195 
L 30.399262 98.918678 
L 36.707535 97.989126 
L 43.015807 96.240727 
L 45.118565 95.230819 
L 49.32408 92.729972 
L 51.426837 90.946135 
L 55.632352 86.414322 
L 57.73511 84.414058 
L 59.837867 82.969147 
L 66.14614 77.119499 
L 68.248897 72.844049 
L 70.351655 67.289985 
L 72.454412 62.157148 
L 76.659927 45.839386 
L 78.762685 40.854147 
L 80.865442 40.836834 
L 82.9682 46.307751 
L 85.070957 54.513415 
L 87.173715 65.032415 
L 89.276472 71.170236 
L 91.37923 68.820583 
L 93.481987 58.716057 
L 97.687503 24.657228 
L 99.79026 13.292747 
L 101.893018 7.682751 
L 103.995775 7.643415 
L 106.098533 13.875159 
L 110.304048 32.216082 
L 112.406805 39.439638 
L 114.509563 48.829736 
L 116.61232 56.430004 
L 118.715078 62.570891 
L 120.817835 67.392402 
L 122.920593 69.788035 
L 125.02335 74.168869 
L 127.126108 77.640513 
L 129.228865 79.234792 
L 131.331623 82.165622 
L 133.43438 84.367837 
L 135.537138 85.815192 
L 137.639895 87.624404 
L 139.742653 88.779988 
L 141.84541 90.098554 
L 143.948168 90.883243 
L 146.050925 91.939944 
L 148.153683 92.756763 
L 150.25644 93.299368 
L 152.359198 94.124786 
L 158.66747 95.45518 
L 160.770228 95.846337 
L 164.975743 96.377718 
L 169.181258 96.798591 
L 171.07874 96.953113 
L 171.07874 96.953113 
" clip-path="url(#pdc0983a834)" style="fill: none; stroke: #00acc6; stroke-linecap: square"/>
   </g>
   <g id="patch_3">
    <path d="M 40.91305 105.1501 
L 40.91305 3.00024 
" style="fill: none; stroke: #000000; stroke-width: 0.8; stroke-linejoin: miter; stroke-linecap: square"/>
   </g>
   <g id="patch_4">
    <path d="M 167.0785 105.1501 
L 167.0785 3.00024 
" style="fill: none; stroke: #000000; stroke-width: 0.8; stroke-linejoin: miter; stroke-linecap: square"/>
   </g>
   <g id="patch_5">
    <path d="M 40.91305 105.1501 
L 167.0785 105.1501 
" style="fill: none; stroke: #000000; stroke-width: 0.8; stroke-linejoin: miter; stroke-linecap: square"/>
   </g>
   <g id="patch_6">
    <path d="M 40.91305 3.00024 
L 167.0785 3.00024 
" style="fill: none; stroke: #000000; stroke-width: 0.8; stroke-linejoin: miter; stroke-linecap: square"/>
   </g>
  </g>
 </g>
 <defs>
  <clipPath id="pdc0983a834">
   <rect x="40.91305" y="3.00024" width="126.16545" height="102.14986"/>
  </clipPath>
 </defs>
</svg>
