<?xml version="1.0" encoding="utf-8" standalone="no"?>
<!DOCTYPE svg PUBLIC "-//W3C//DTD SVG 1.1//EN"
  "http://www.w3.org/Graphics/SVG/1.1/DTD/svg11.dtd">
<svg xmlns:xlink="http://www.w3.org/1999/xlink" width="226.771654pt" height="151.181102pt" viewBox="0 0 226.771654 151.181102" xmlns="http://www.w3.org/2000/svg" version="1.1">
 <metadata>
  <rdf:RDF xmlns:dc="http://purl.org/dc/elements/1.1/" xmlns:cc="http://creativecommons.org/ns#" xmlns:rdf="http://www.w3.org/1999/02/22-rdf-syntax-ns#">
   <cc:Work>
    <dc:type rdf:resource="http://purl.org/dc/dcmitype/StillImage"/>
    <dc:date>2025-11-23T20:06:56.978845</dc:date>
    <dc:format>image/svg+xml</dc:format>
    <dc:creator>
     <cc:Agent>
      <dc:title>Matplotlib v3.9.1, https://matplotlib.org/</dc:title>
     </cc:Agent>
    </dc:creator>
   </cc:Work>
  </rdf:RDF>
 </metadata>
 <defs>
  <style type="text/css">*{stroke-linejoin: round; stroke-linecap: butt}</style>
 </defs>
 <g id="figure_1">
  <g id="patch_1">
   <path d="M 0 151.181102 
L 226.771654 151.181102 
L 226.771654 0 
L 0 0 
z
" style="fill: #ffffff"/>
  </g>
  <g id="axes_1">
   <g id="patch_2">
    <path d="M 41.13793 108.953433 
L 216.455176 108.953433 
L 216.455176 8.189102 
L 41.13793 8.189102 
z
" style="fill: #ffffff"/>
   </g>
   <g id="matplotlib.axis_1">
    <g id="xtick_1">
     <g id="line2d_1">
      <defs>
       <path id="m6dcbcf301e" d="M 0 0 
L 0 3.5 
" style="stroke: #000000; stroke-width: 0.8"/>
      </defs>
      <g>
       <use xlink:href="#m6dcbcf301e" x="41.13793" y="108.953433" style="stroke: #000000; stroke-width: 0.8"/>
      </g>
     </g>
     <g id="text_1">
      <!-- 00 -->
      <g transform="translate(33.821692 126.331158) scale(0.15 -0.15)">
       <defs>
        <path id="CMR17-30" d="M 2688 2025 
C 2688 2416 2682 3080 2413 3591 
C 2176 4039 1798 4198 1466 4198 
C 1158 4198 768 4058 525 3597 
C 269 3118 243 2524 243 2025 
C 243 1661 250 1106 448 619 
C 723 -39 1216 -128 1466 -128 
C 1760 -128 2208 -7 2470 600 
C 2662 1042 2688 1559 2688 2025 
z
M 1466 -26 
C 1056 -26 813 325 723 812 
C 653 1188 653 1738 653 2096 
C 653 2588 653 2997 736 3387 
C 858 3929 1216 4096 1466 4096 
C 1728 4096 2067 3923 2189 3400 
C 2272 3036 2278 2607 2278 2096 
C 2278 1680 2278 1169 2202 792 
C 2067 95 1690 -26 1466 -26 
z
" transform="scale(0.015625)"/>
       </defs>
       <use xlink:href="#CMR17-30" transform="scale(0.996264)"/>
       <use xlink:href="#CMR17-30" transform="translate(45.690477 0) scale(0.996264)"/>
      </g>
     </g>
    </g>
    <g id="xtick_2">
     <g id="line2d_2">
      <g>
       <use xlink:href="#m6dcbcf301e" x="70.357471" y="108.953433" style="stroke: #000000; stroke-width: 0.8"/>
      </g>
     </g>
     <g id="text_2">
      <!-- 06 -->
      <g transform="translate(63.041233 126.331158) scale(0.15 -0.15)">
       <defs>
        <path id="CMR17-36" d="M 678 2176 
C 678 3690 1395 4032 1811 4032 
C 1946 4032 2272 4009 2400 3776 
C 2298 3776 2106 3776 2106 3553 
C 2106 3381 2246 3323 2336 3323 
C 2394 3323 2566 3348 2566 3560 
C 2566 3954 2246 4179 1805 4179 
C 1043 4179 243 3390 243 1984 
C 243 253 966 -128 1478 -128 
C 2099 -128 2688 427 2688 1283 
C 2688 2081 2170 2662 1517 2662 
C 1126 2662 838 2407 678 1960 
L 678 2176 
z
M 1478 25 
C 691 25 691 1200 691 1436 
C 691 1896 909 2560 1504 2560 
C 1613 2560 1926 2560 2138 2120 
C 2253 1870 2253 1609 2253 1289 
C 2253 944 2253 690 2118 434 
C 1978 171 1773 25 1478 25 
z
" transform="scale(0.015625)"/>
       </defs>
       <use xlink:href="#CMR17-30" transform="scale(0.996264)"/>
       <use xlink:href="#CMR17-36" transform="translate(45.690477 0) scale(0.996264)"/>
      </g>
     </g>
    </g>
    <g id="xtick_3">
     <g id="line2d_3">
      <g>
       <use xlink:href="#m6dcbcf301e" x="99.577012" y="108.953433" style="stroke: #000000; stroke-width: 0.8"/>
      </g>
     </g>
     <g id="text_3">
      <!-- 12 -->
      <g transform="translate(92.260774 126.331158) scale(0.15 -0.15)">
       <defs>
        <path id="CMR17-31" d="M 1702 4058 
C 1702 4192 1696 4192 1606 4192 
C 1357 3916 979 3827 621 3827 
C 602 3827 570 3827 563 3808 
C 557 3795 557 3782 557 3648 
C 755 3648 1088 3686 1344 3839 
L 1344 461 
C 1344 236 1331 160 781 160 
L 589 160 
L 589 0 
C 896 0 1216 0 1523 0 
C 1830 0 2150 0 2458 0 
L 2458 160 
L 2266 160 
C 1715 160 1702 230 1702 458 
L 1702 4058 
z
" transform="scale(0.015625)"/>
        <path id="CMR17-32" d="M 2669 989 
L 2554 989 
C 2490 536 2438 459 2413 420 
C 2381 369 1920 369 1830 369 
L 602 369 
C 832 619 1280 1072 1824 1597 
C 2214 1967 2669 2402 2669 3035 
C 2669 3790 2067 4224 1395 4224 
C 691 4224 262 3604 262 3030 
C 262 2780 448 2748 525 2748 
C 589 2748 781 2787 781 3010 
C 781 3207 614 3264 525 3264 
C 486 3264 448 3258 422 3245 
C 544 3790 915 4058 1306 4058 
C 1862 4058 2227 3617 2227 3035 
C 2227 2479 1901 2000 1536 1584 
L 262 146 
L 262 0 
L 2515 0 
L 2669 989 
z
" transform="scale(0.015625)"/>
       </defs>
       <use xlink:href="#CMR17-31" transform="scale(0.996264)"/>
       <use xlink:href="#CMR17-32" transform="translate(45.690477 0) scale(0.996264)"/>
      </g>
     </g>
    </g>
    <g id="xtick_4">
     <g id="line2d_4">
      <g>
       <use xlink:href="#m6dcbcf301e" x="128.796553" y="108.953433" style="stroke: #000000; stroke-width: 0.8"/>
      </g>
     </g>
     <g id="text_4">
      <!-- 18 -->
      <g transform="translate(121.480315 126.331158) scale(0.15 -0.15)">
       <defs>
        <path id="CMR17-38" d="M 1741 2264 
C 2144 2467 2554 2773 2554 3263 
C 2554 3841 1990 4179 1472 4179 
C 890 4179 378 3759 378 3180 
C 378 3021 416 2747 666 2505 
C 730 2442 998 2251 1171 2130 
C 883 1983 211 1634 211 934 
C 211 279 838 -128 1459 -128 
C 2144 -128 2720 362 2720 1010 
C 2720 1590 2330 1857 2074 2029 
L 1741 2264 
z
M 902 2822 
C 851 2854 595 3051 595 3351 
C 595 3739 998 4032 1459 4032 
C 1965 4032 2336 3676 2336 3262 
C 2336 2669 1670 2331 1638 2331 
C 1632 2331 1626 2331 1574 2370 
L 902 2822 
z
M 2080 1519 
C 2176 1449 2483 1240 2483 851 
C 2483 381 2010 25 1472 25 
C 890 25 448 438 448 940 
C 448 1443 838 1862 1280 2060 
L 2080 1519 
z
" transform="scale(0.015625)"/>
       </defs>
       <use xlink:href="#CMR17-31" transform="scale(0.996264)"/>
       <use xlink:href="#CMR17-38" transform="translate(45.690477 0) scale(0.996264)"/>
      </g>
     </g>
    </g>
    <g id="xtick_5">
     <g id="line2d_5">
      <g>
       <use xlink:href="#m6dcbcf301e" x="158.016094" y="108.953433" style="stroke: #000000; stroke-width: 0.8"/>
      </g>
     </g>
     <g id="text_5">
      <!-- 24 -->
      <g transform="translate(150.699856 126.331158) scale(0.15 -0.15)">
       <defs>
        <path id="CMR17-34" d="M 2150 4122 
C 2150 4256 2144 4256 2029 4256 
L 128 1254 
L 128 1088 
L 1779 1088 
L 1779 457 
C 1779 224 1766 160 1318 160 
L 1197 160 
L 1197 0 
C 1402 0 1747 0 1965 0 
C 2182 0 2528 0 2733 0 
L 2733 160 
L 2611 160 
C 2163 160 2150 224 2150 457 
L 2150 1088 
L 2803 1088 
L 2803 1254 
L 2150 1254 
L 2150 4122 
z
M 1798 3703 
L 1798 1254 
L 256 1254 
L 1798 3703 
z
" transform="scale(0.015625)"/>
       </defs>
       <use xlink:href="#CMR17-32" transform="scale(0.996264)"/>
       <use xlink:href="#CMR17-34" transform="translate(45.690477 0) scale(0.996264)"/>
      </g>
     </g>
    </g>
    <g id="xtick_6">
     <g id="line2d_6">
      <g>
       <use xlink:href="#m6dcbcf301e" x="187.235635" y="108.953433" style="stroke: #000000; stroke-width: 0.8"/>
      </g>
     </g>
     <g id="text_6">
      <!-- 30 -->
      <g transform="translate(179.919397 126.331158) scale(0.15 -0.15)">
       <defs>
        <path id="CMR17-33" d="M 1414 2157 
C 1984 2157 2234 1662 2234 1090 
C 2234 320 1824 25 1453 25 
C 1114 25 563 194 390 693 
C 422 680 454 680 486 680 
C 640 680 755 782 755 948 
C 755 1133 614 1216 486 1216 
C 378 1216 211 1165 211 926 
C 211 335 787 -128 1466 -128 
C 2176 -128 2720 430 2720 1085 
C 2720 1707 2208 2157 1600 2227 
C 2086 2328 2554 2756 2554 3329 
C 2554 3820 2048 4179 1472 4179 
C 890 4179 378 3829 378 3329 
C 378 3110 544 3072 627 3072 
C 762 3072 877 3155 877 3321 
C 877 3486 762 3569 627 3569 
C 602 3569 570 3569 544 3557 
C 730 3959 1235 4032 1459 4032 
C 1683 4032 2106 3925 2106 3320 
C 2106 3143 2080 2828 1862 2550 
C 1670 2304 1453 2304 1242 2284 
C 1210 2284 1062 2269 1037 2269 
C 992 2263 966 2257 966 2208 
C 966 2163 973 2157 1101 2157 
L 1414 2157 
z
" transform="scale(0.015625)"/>
       </defs>
       <use xlink:href="#CMR17-33" transform="scale(0.996264)"/>
       <use xlink:href="#CMR17-30" transform="translate(45.690477 0) scale(0.996264)"/>
      </g>
     </g>
    </g>
    <g id="xtick_7">
     <g id="line2d_7">
      <g>
       <use xlink:href="#m6dcbcf301e" x="216.455176" y="108.953433" style="stroke: #000000; stroke-width: 0.8"/>
      </g>
     </g>
     <g id="text_7">
      <!-- 36 -->
      <g transform="translate(209.138938 126.331158) scale(0.15 -0.15)">
       <use xlink:href="#CMR17-33" transform="scale(0.996264)"/>
       <use xlink:href="#CMR17-36" transform="translate(45.690477 0) scale(0.996264)"/>
      </g>
     </g>
    </g>
    <g id="text_8">
     <!-- time [h] -->
     <g transform="translate(104.002636 144.444872) scale(0.15 -0.15)">
      <defs>
       <path id="CMR17-74" d="M 966 2560 
L 1862 2560 
L 1862 2725 
L 966 2725 
L 966 3904 
L 851 3904 
C 838 3245 614 2668 70 2668 
L 70 2560 
L 627 2560 
L 627 771 
C 627 650 627 -64 1370 -64 
C 1747 -64 1965 306 1965 777 
L 1965 1140 
L 1850 1140 
L 1850 783 
C 1850 344 1677 51 1408 51 
C 1222 51 966 178 966 758 
L 966 2560 
z
" transform="scale(0.015625)"/>
       <path id="CMR17-69" d="M 992 3909 
C 992 4049 877 4170 730 4170 
C 589 4170 467 4056 467 3909 
C 467 3769 582 3648 730 3648 
C 870 3648 992 3763 992 3909 
z
M 243 2706 
L 243 2541 
C 602 2541 653 2502 653 2197 
L 653 427 
C 653 184 627 153 218 153 
L 218 -13 
C 371 0 646 0 806 0 
C 960 0 1222 0 1370 -13 
L 1370 153 
C 992 153 979 191 979 420 
L 979 2776 
L 243 2706 
z
" transform="scale(0.015625)"/>
       <path id="CMR17-6d" d="M 4326 1933 
C 4326 2252 4269 2790 3507 2790 
C 3072 2790 2771 2496 2656 2151 
L 2650 2151 
C 2573 2676 2195 2790 1837 2790 
C 1331 2790 1069 2400 973 2144 
L 966 2144 
L 966 2790 
L 211 2720 
L 211 2554 
C 589 2554 646 2515 646 2208 
L 646 428 
C 646 184 621 153 211 153 
L 211 -13 
C 365 0 646 0 813 0 
C 979 0 1267 0 1421 -13 
L 1421 153 
C 1011 153 986 178 986 428 
L 986 1658 
C 986 2247 1344 2688 1792 2688 
C 2266 2688 2317 2266 2317 1958 
L 2317 428 
C 2317 184 2291 153 1882 153 
L 1882 -13 
C 2035 0 2317 0 2483 0 
C 2650 0 2938 0 3091 -13 
L 3091 153 
C 2682 153 2656 178 2656 428 
L 2656 1658 
C 2656 2247 3014 2688 3462 2688 
C 3936 2688 3987 2266 3987 1958 
L 3987 428 
C 3987 184 3962 153 3552 153 
L 3552 -13 
C 3706 0 3987 0 4154 0 
C 4320 0 4608 0 4762 -13 
L 4762 153 
C 4352 153 4326 178 4326 428 
L 4326 1933 
z
" transform="scale(0.015625)"/>
       <path id="CMR17-65" d="M 2438 1472 
C 2464 1498 2464 1511 2464 1576 
C 2464 2238 2118 2816 1389 2816 
C 710 2816 173 2169 173 1383 
C 173 551 781 -64 1459 -64 
C 2176 -64 2458 607 2458 740 
C 2458 784 2419 784 2406 784 
C 2362 784 2355 771 2330 696 
C 2189 265 1837 51 1504 51 
C 1229 51 954 203 781 480 
C 582 803 582 1176 582 1472 
L 2438 1472 
z
M 589 1568 
C 634 2505 1126 2714 1382 2714 
C 1818 2714 2112 2297 2118 1568 
L 589 1568 
z
" transform="scale(0.015625)"/>
       <path id="CMR17-5b" d="M 1504 -1600 
L 1504 -1377 
L 902 -1377 
L 902 4544 
L 1504 4544 
L 1504 4767 
L 678 4767 
L 678 -1600 
L 1504 -1600 
z
" transform="scale(0.015625)"/>
       <path id="CMR17-68" d="M 2656 1933 
C 2656 2259 2592 2790 1837 2790 
C 1312 2790 1056 2368 979 2157 
L 973 2157 
L 973 4396 
L 211 4326 
L 211 4160 
C 589 4160 646 4122 646 3817 
L 646 426 
C 646 184 621 153 211 153 
L 211 -13 
C 365 0 646 0 813 0 
C 979 0 1267 0 1421 -13 
L 1421 153 
C 1011 153 986 178 986 428 
L 986 1658 
C 986 2247 1344 2688 1792 2688 
C 2266 2688 2317 2266 2317 1958 
L 2317 428 
C 2317 184 2291 153 1882 153 
L 1882 -13 
C 2035 0 2317 0 2483 0 
C 2650 0 2938 0 3091 -13 
L 3091 153 
C 2682 153 2656 178 2656 428 
L 2656 1933 
z
" transform="scale(0.015625)"/>
       <path id="CMR17-5d" d="M 915 4767 
L 90 4767 
L 90 4544 
L 691 4544 
L 691 -1377 
L 90 -1377 
L 90 -1600 
L 915 -1600 
L 915 4767 
z
" transform="scale(0.015625)"/>
      </defs>
      <use xlink:href="#CMR17-74" transform="scale(0.996264)"/>
      <use xlink:href="#CMR17-69" transform="translate(35.280768 0) scale(0.996264)"/>
      <use xlink:href="#CMR17-6d" transform="translate(60.151826 0) scale(0.996264)"/>
      <use xlink:href="#CMR17-65" transform="translate(137.071416 0) scale(0.996264)"/>
      <use xlink:href="#CMR17-5b" transform="translate(207.633043 0) scale(0.996264)"/>
      <use xlink:href="#CMR17-68" transform="translate(232.504101 0) scale(0.996264)"/>
      <use xlink:href="#CMR17-5d" transform="translate(283.399471 0) scale(0.996264)"/>
     </g>
    </g>
   </g>
   <g id="matplotlib.axis_2">
    <g id="ytick_1">
     <g id="line2d_8">
      <defs>
       <path id="md75838b1fb" d="M 0 0 
L -3.5 0 
" style="stroke: #000000; stroke-width: 0.8"/>
      </defs>
      <g>
       <use xlink:href="#md75838b1fb" x="41.13793" y="108.953433" style="stroke: #000000; stroke-width: 0.8"/>
      </g>
     </g>
     <g id="text_9">
      <!-- -2 -->
      <g transform="translate(21.9442 114.142295) scale(0.15 -0.15)">
       <defs>
        <path id="CMR17-2d" d="M 1632 1216 
L 1632 1496 
L 26 1496 
L 26 1216 
L 1632 1216 
z
" transform="scale(0.015625)"/>
       </defs>
       <use xlink:href="#CMR17-2d" transform="scale(0.996264)"/>
       <use xlink:href="#CMR17-32" transform="translate(30.075966 0) scale(0.996264)"/>
      </g>
     </g>
    </g>
    <g id="ytick_2">
     <g id="line2d_9">
      <g>
       <use xlink:href="#md75838b1fb" x="41.13793" y="58.571268" style="stroke: #000000; stroke-width: 0.8"/>
      </g>
     </g>
     <g id="text_10">
      <!--  0 -->
      <g transform="translate(26.821692 63.76013) scale(0.15 -0.15)">
       <use xlink:href="#CMR17-30" transform="scale(0.996264)"/>
      </g>
     </g>
    </g>
    <g id="ytick_3">
     <g id="line2d_10">
      <g>
       <use xlink:href="#md75838b1fb" x="41.13793" y="8.189102" style="stroke: #000000; stroke-width: 0.8"/>
      </g>
     </g>
     <g id="text_11">
      <!--  2 -->
      <g transform="translate(26.821692 13.377965) scale(0.15 -0.15)">
       <use xlink:href="#CMR17-32" transform="scale(0.996264)"/>
      </g>
     </g>
    </g>
    <g id="text_12">
     <!-- $\mathrm{dz [\mu m]}$ -->
     <g transform="translate(14.20821 80.450798) rotate(-90) scale(0.15 -0.15)">
      <defs>
       <path id="CMR17-64" d="M 1869 4326 
L 1869 4160 
C 2246 4160 2304 4122 2304 3820 
L 2304 2345 
C 2278 2377 2016 2790 1498 2790 
C 845 2790 211 2208 211 1364 
C 211 525 806 -64 1434 -64 
C 1978 -64 2259 337 2291 380 
L 2291 -63 
L 3066 -63 
L 3066 128 
C 2688 128 2630 166 2630 473 
L 2630 4396 
L 1869 4326 
z
M 2291 755 
C 2291 563 2176 390 2029 262 
C 1811 70 1594 38 1472 38 
C 1286 38 621 134 621 1356 
C 621 2612 1363 2688 1530 2688 
C 1824 2688 2061 2522 2208 2291 
C 2291 2157 2291 2138 2291 2023 
L 2291 755 
z
" transform="scale(0.015625)"/>
       <path id="CMR17-7a" d="M 2310 2605 
C 2362 2670 2362 2682 2362 2695 
C 2362 2752 2336 2752 2221 2752 
L 275 2752 
L 211 1760 
L 326 1760 
C 371 2381 442 2650 1178 2650 
L 1958 2650 
L 128 96 
C 128 0 134 0 269 0 
L 2291 0 
L 2381 1152 
L 2266 1152 
C 2214 442 2131 115 1350 115 
L 531 115 
L 2310 2605 
z
" transform="scale(0.015625)"/>
       <path id="CMMI12-16" d="M 922 140 
C 1082 -6 1318 -64 1536 -64 
C 1946 -64 2227 208 2374 405 
C 2438 69 2707 -64 2931 -64 
C 3123 -64 3277 50 3392 277 
C 3494 493 3584 879 3584 903 
C 3584 935 3558 960 3520 960 
C 3462 960 3456 928 3430 834 
C 3334 461 3213 64 2950 64 
C 2765 64 2752 229 2752 358 
C 2752 504 2810 735 2854 926 
L 3034 1615 
C 3059 1737 3130 2023 3162 2139 
C 3200 2292 3270 2567 3270 2592 
C 3270 2688 3194 2752 3098 2752 
C 3040 2752 2906 2726 2854 2535 
L 2406 760 
C 2374 632 2374 619 2291 517 
C 2214 409 1965 64 1562 64 
C 1203 64 1088 326 1088 625 
C 1088 811 1146 1034 1171 1143 
L 1459 2293 
C 1491 2414 1542 2618 1542 2657 
C 1542 2759 1459 2816 1376 2816 
C 1318 2816 1178 2797 1126 2592 
L 198 -1107 
C 192 -1139 179 -1177 179 -1216 
C 179 -1312 256 -1376 352 -1376 
C 538 -1376 576 -1228 621 -1050 
L 922 140 
z
" transform="scale(0.015625)"/>
      </defs>
      <use xlink:href="#CMR17-64" transform="scale(0.996264)"/>
      <use xlink:href="#CMR17-7a" transform="translate(50.89537 0) scale(0.996264)"/>
      <use xlink:href="#CMR17-5b" transform="translate(91.38103 0) scale(0.996264)"/>
      <use xlink:href="#CMMI12-16" transform="translate(116.252089 0) scale(0.996264)"/>
      <use xlink:href="#CMR17-6d" transform="translate(174.94351 0) scale(0.996264)"/>
      <use xlink:href="#CMR17-5d" transform="translate(251.8631 0) scale(0.996264)"/>
     </g>
    </g>
   </g>
   <g id="line2d_11">
    <path d="M 41.13793 61.090376 
L 41.946878 53.533051 
L 42.759885 63.609484 
L 43.572892 66.128592 
L 44.384546 66.128592 
L 45.197552 61.090376 
L 46.819507 61.090376 
L 47.629808 53.533051 
L 48.442815 68.647701 
L 49.251763 53.533051 
L 50.063417 51.013943 
L 50.876424 63.609484 
L 51.685372 53.533051 
L 52.498379 66.128592 
L 53.311386 45.975726 
L 54.121687 61.090376 
L 54.933341 48.494835 
L 55.746348 61.090376 
L 56.556649 63.609484 
L 57.368303 61.090376 
L 58.178604 61.090376 
L 58.99161 58.571268 
L 59.801912 58.571268 
L 60.614918 63.609484 
L 62.239579 63.609484 
L 63.048527 61.090376 
L 63.861534 63.609484 
L 64.670482 61.090376 
L 66.29379 61.090376 
L 67.10815 58.571268 
L 67.921156 61.090376 
L 68.730105 66.128592 
L 69.541759 51.013943 
L 70.356118 63.609484 
L 71.163714 61.090376 
L 71.97672 53.533051 
L 72.785669 61.090376 
L 73.597323 66.128592 
L 74.410329 61.090376 
L 75.220631 61.090376 
L 76.032284 63.609484 
L 76.843938 56.052159 
L 77.658298 61.090376 
L 78.468599 58.571268 
L 79.2789 63.609484 
L 80.091907 56.052159 
L 80.904913 61.090376 
L 81.713862 53.533051 
L 82.526869 66.128592 
L 83.338522 51.013943 
L 84.147471 63.609484 
L 84.96183 56.052159 
L 85.770779 58.571268 
L 86.582433 53.533051 
L 87.394087 63.609484 
L 88.20574 56.052159 
L 89.018747 56.052159 
L 89.830401 53.533051 
L 90.640702 56.052159 
L 92.262657 56.052159 
L 93.074311 53.533051 
L 94.697619 58.571268 
L 95.510626 56.052159 
L 96.320927 58.571268 
L 97.133934 56.052159 
L 98.757241 66.128592 
L 99.567543 63.609484 
L 100.383255 63.609484 
L 101.192203 66.128592 
L 102.003857 66.128592 
L 102.814158 61.090376 
L 104.438819 66.128592 
L 106.063479 66.128592 
L 106.873781 61.090376 
L 107.686787 68.647701 
L 108.498441 71.166809 
L 109.308742 61.090376 
L 110.120396 61.090376 
L 110.93205 66.128592 
L 112.556711 66.128592 
L 113.369717 68.647701 
L 114.180019 58.571268 
L 114.991672 63.609484 
L 115.803326 61.090376 
L 116.61498 66.128592 
L 117.426634 66.128592 
L 118.238288 63.609484 
L 119.052648 63.609484 
L 119.862949 61.090376 
L 120.674603 61.090376 
L 121.484904 63.609484 
L 122.29791 61.090376 
L 123.109564 66.128592 
L 123.921218 56.052159 
L 124.732872 58.571268 
L 125.544526 63.609484 
L 127.982193 63.609484 
L 128.793847 53.533051 
L 129.608207 66.128592 
L 130.421213 53.533051 
L 131.23422 66.128592 
L 132.047227 61.090376 
L 132.857528 63.609484 
L 133.669182 61.090376 
L 134.47813 66.128592 
L 135.288431 61.090376 
L 136.104144 61.090376 
L 136.913092 58.571268 
L 137.723393 61.090376 
L 139.348054 61.090376 
L 140.163766 56.052159 
L 140.974067 56.052159 
L 141.784368 58.571268 
L 142.601433 58.571268 
L 143.406323 56.052159 
L 144.21933 58.571268 
L 145.026926 58.571268 
L 145.83858 56.052159 
L 146.651586 63.609484 
L 147.46324 56.052159 
L 148.2776 53.533051 
L 149.90226 53.533051 
L 150.715267 61.090376 
L 151.524215 58.571268 
L 152.333164 61.090376 
L 153.143465 58.571268 
L 153.955119 61.090376 
L 154.768125 56.052159 
L 155.579779 63.609484 
L 156.391433 63.609484 
L 157.201734 51.013943 
L 158.016094 66.128592 
L 158.826395 61.090376 
L 159.636696 53.533051 
L 160.451056 53.533051 
L 161.260004 63.609484 
L 162.070305 58.571268 
L 162.883312 63.609484 
L 163.693613 56.052159 
L 164.505267 66.128592 
L 165.319626 58.571268 
L 166.128575 68.647701 
L 166.940229 63.609484 
L 167.751882 68.647701 
L 168.564889 56.052159 
L 169.376543 63.609484 
L 170.190903 58.571268 
L 171.002556 66.128592 
L 171.812858 61.090376 
L 172.624512 61.090376 
L 173.436165 58.571268 
L 174.245114 63.609484 
L 175.869774 63.609484 
L 176.680076 61.090376 
L 177.491729 56.052159 
L 178.306089 53.533051 
L 179.113685 56.052159 
L 180.741051 56.052159 
L 181.549999 61.090376 
L 182.361653 48.494835 
L 183.176012 61.090376 
L 183.987666 53.533051 
L 184.797967 68.647701 
L 185.609621 51.013943 
L 186.41857 45.975726 
L 187.230224 61.090376 
L 188.04323 53.533051 
L 188.853532 56.052159 
L 189.663833 66.128592 
L 190.475487 51.013943 
L 191.287141 61.090376 
L 192.098794 56.052159 
L 192.910448 61.090376 
L 193.722102 56.052159 
L 194.533756 58.571268 
L 195.34541 56.052159 
L 196.968718 56.052159 
L 197.781725 63.609484 
L 198.590673 63.609484 
L 199.400974 56.052159 
L 201.837289 63.609484 
L 202.64759 61.090376 
L 203.459244 61.090376 
L 204.270898 63.609484 
L 205.083904 68.647701 
L 205.895558 66.128592 
L 207.517513 66.128592 
L 209.142174 56.052159 
L 209.953828 53.533051 
L 210.764129 56.052159 
L 211.575783 53.533051 
L 212.386084 56.052159 
L 213.197738 63.609484 
L 214.01345 63.609484 
L 214.823751 66.128592 
L 215.634053 61.090376 
L 216.447059 66.128592 
L 217.261419 61.090376 
L 218.883374 56.052159 
L 219.69638 66.128592 
L 220.503976 58.571268 
L 221.318335 56.052159 
L 222.128637 61.090376 
L 222.940291 58.571268 
L 223.750592 63.609484 
L 224.563598 61.090376 
L 225.376605 56.052159 
L 226.188259 61.090376 
L 227.771654 61.090376 
L 227.771654 61.090376 
" clip-path="url(#pa34e8b8c3f)" style="fill: none; stroke: #d60000; stroke-opacity: 0.5; stroke-width: 2; stroke-linecap: square"/>
   </g>
   <g id="line2d_12">
    <path d="M 41.13793 58.571268 
L 41.946878 61.090376 
L 42.759885 56.052159 
L 43.572892 56.052159 
L 44.384546 66.128592 
L 45.197552 63.609484 
L 46.006501 66.128592 
L 46.819507 61.090376 
L 47.629808 58.571268 
L 48.442815 51.013943 
L 49.251763 53.533051 
L 50.063417 61.090376 
L 50.876424 56.052159 
L 51.685372 61.090376 
L 52.498379 53.533051 
L 53.311386 63.609484 
L 54.121687 58.571268 
L 54.933341 63.609484 
L 55.746348 53.533051 
L 56.556649 63.609484 
L 57.368303 63.609484 
L 58.178604 58.571268 
L 58.99161 61.090376 
L 59.801912 61.090376 
L 60.614918 63.609484 
L 61.426572 56.052159 
L 62.239579 61.090376 
L 63.861534 61.090376 
L 64.670482 63.609484 
L 65.484842 61.090376 
L 67.10815 61.090376 
L 67.921156 58.571268 
L 68.730105 63.609484 
L 69.541759 66.128592 
L 70.356118 51.013943 
L 71.163714 63.609484 
L 71.97672 56.052159 
L 72.785669 63.609484 
L 73.597323 58.571268 
L 74.410329 66.128592 
L 75.220631 63.609484 
L 76.032284 56.052159 
L 76.843938 61.090376 
L 77.658298 58.571268 
L 78.468599 63.609484 
L 79.2789 58.571268 
L 80.091907 51.013943 
L 80.904913 58.571268 
L 81.713862 58.571268 
L 82.526869 63.609484 
L 83.338522 53.533051 
L 84.147471 63.609484 
L 84.96183 56.052159 
L 86.582433 56.052159 
L 87.394087 61.090376 
L 89.018747 56.052159 
L 89.830401 56.052159 
L 90.640702 58.571268 
L 91.452356 56.052159 
L 93.887318 56.052159 
L 94.697619 58.571268 
L 97.133934 58.571268 
L 98.757241 63.609484 
L 102.003857 63.609484 
L 102.814158 61.090376 
L 103.628518 61.090376 
L 104.438819 63.609484 
L 106.063479 63.609484 
L 106.873781 61.090376 
L 107.686787 63.609484 
L 108.498441 63.609484 
L 109.308742 53.533051 
L 110.93205 58.571268 
L 111.74641 63.609484 
L 113.369717 68.647701 
L 114.180019 58.571268 
L 114.991672 61.090376 
L 115.803326 58.571268 
L 116.61498 66.128592 
L 117.426634 66.128592 
L 119.052648 61.090376 
L 119.862949 56.052159 
L 120.674603 63.609484 
L 121.484904 61.090376 
L 122.29791 61.090376 
L 123.109564 63.609484 
L 123.921218 58.571268 
L 124.732872 58.571268 
L 125.544526 63.609484 
L 127.170539 58.571268 
L 127.982193 61.090376 
L 128.793847 61.090376 
L 129.608207 58.571268 
L 130.421213 66.128592 
L 131.23422 66.128592 
L 132.047227 61.090376 
L 132.857528 61.090376 
L 133.669182 66.128592 
L 134.47813 66.128592 
L 135.288431 53.533051 
L 136.104144 63.609484 
L 136.913092 58.571268 
L 139.348054 58.571268 
L 140.163766 53.533051 
L 140.974067 58.571268 
L 141.784368 56.052159 
L 142.601433 61.090376 
L 143.406323 53.533051 
L 145.026926 58.571268 
L 145.83858 58.571268 
L 146.651586 56.052159 
L 147.46324 63.609484 
L 148.2776 61.090376 
L 149.089253 53.533051 
L 150.715267 53.533051 
L 151.524215 58.571268 
L 152.333164 58.571268 
L 153.143465 56.052159 
L 153.955119 61.090376 
L 155.579779 56.052159 
L 156.391433 58.571268 
L 157.201734 51.013943 
L 158.016094 66.128592 
L 158.826395 61.090376 
L 160.451056 56.052159 
L 161.260004 56.052159 
L 162.070305 53.533051 
L 162.883312 66.128592 
L 163.693613 61.090376 
L 164.505267 61.090376 
L 165.319626 58.571268 
L 166.128575 63.609484 
L 166.940229 61.090376 
L 167.751882 63.609484 
L 168.564889 58.571268 
L 169.376543 66.128592 
L 170.190903 53.533051 
L 171.002556 63.609484 
L 171.812858 63.609484 
L 172.624512 66.128592 
L 173.436165 66.128592 
L 174.245114 63.609484 
L 175.056768 63.609484 
L 176.680076 58.571268 
L 177.491729 51.013943 
L 178.306089 61.090376 
L 179.113685 53.533051 
L 179.926691 63.609484 
L 180.741051 51.013943 
L 181.549999 63.609484 
L 182.361653 53.533051 
L 183.176012 51.013943 
L 183.987666 63.609484 
L 184.797967 53.533051 
L 185.609621 51.013943 
L 186.41857 61.090376 
L 187.230224 53.533051 
L 188.04323 61.090376 
L 188.853532 58.571268 
L 189.663833 58.571268 
L 190.475487 56.052159 
L 192.098794 61.090376 
L 192.910448 56.052159 
L 193.722102 61.090376 
L 194.533756 56.052159 
L 195.34541 63.609484 
L 196.158417 58.571268 
L 196.968718 58.571268 
L 197.781725 56.052159 
L 198.590673 58.571268 
L 199.400974 53.533051 
L 200.215334 51.013943 
L 201.837289 66.128592 
L 202.64759 56.052159 
L 203.459244 63.609484 
L 204.270898 61.090376 
L 205.083904 61.090376 
L 205.895558 63.609484 
L 207.517513 63.609484 
L 208.329167 58.571268 
L 209.142174 56.052159 
L 209.953828 58.571268 
L 210.764129 56.052159 
L 212.386084 56.052159 
L 213.197738 61.090376 
L 214.01345 63.609484 
L 214.823751 63.609484 
L 215.634053 56.052159 
L 216.447059 63.609484 
L 217.261419 63.609484 
L 218.074425 56.052159 
L 218.883374 53.533051 
L 219.69638 63.609484 
L 220.503976 53.533051 
L 221.318335 61.090376 
L 222.940291 61.090376 
L 223.750592 58.571268 
L 224.563598 58.571268 
L 225.376605 56.052159 
L 226.999913 61.090376 
L 227.771654 61.090376 
L 227.771654 61.090376 
" clip-path="url(#pa34e8b8c3f)" style="fill: none; stroke: #8c3bff; stroke-opacity: 0.5; stroke-width: 2; stroke-linecap: square"/>
   </g>
   <g id="line2d_13">
    <path d="M 41.13793 66.128592 
L 41.946878 58.571268 
L 42.759885 56.052159 
L 43.572892 63.609484 
L 44.384546 58.571268 
L 46.819507 58.571268 
L 47.629808 56.052159 
L 48.442815 58.571268 
L 49.251763 56.052159 
L 50.063417 61.090376 
L 50.876424 56.052159 
L 51.685372 58.571268 
L 52.498379 53.533051 
L 53.311386 58.571268 
L 54.121687 51.013943 
L 54.933341 58.571268 
L 56.556649 68.647701 
L 57.368303 53.533051 
L 58.178604 61.090376 
L 58.99161 61.090376 
L 59.801912 58.571268 
L 61.426572 63.609484 
L 62.239579 56.052159 
L 63.048527 63.609484 
L 64.670482 58.571268 
L 67.10815 66.128592 
L 67.921156 61.090376 
L 70.356118 61.090376 
L 71.163714 63.609484 
L 71.97672 58.571268 
L 72.785669 61.090376 
L 73.597323 66.128592 
L 74.410329 63.609484 
L 75.220631 63.609484 
L 76.032284 51.013943 
L 76.843938 63.609484 
L 77.658298 53.533051 
L 78.468599 63.609484 
L 79.2789 53.533051 
L 80.091907 63.609484 
L 80.904913 58.571268 
L 82.526869 63.609484 
L 83.338522 58.571268 
L 84.147471 66.128592 
L 84.96183 58.571268 
L 86.582433 58.571268 
L 87.394087 66.128592 
L 88.20574 58.571268 
L 89.830401 58.571268 
L 90.640702 61.090376 
L 91.452356 61.090376 
L 92.262657 58.571268 
L 93.887318 58.571268 
L 95.510626 63.609484 
L 96.320927 63.609484 
L 97.133934 61.090376 
L 99.567543 68.647701 
L 101.192203 68.647701 
L 102.003857 71.166809 
L 103.628518 66.128592 
L 106.873781 66.128592 
L 107.686787 63.609484 
L 108.498441 66.128592 
L 109.308742 58.571268 
L 110.93205 63.609484 
L 111.74641 68.647701 
L 113.369717 68.647701 
L 114.180019 61.090376 
L 114.991672 61.090376 
L 115.803326 76.205025 
L 116.61498 66.128592 
L 119.052648 73.685917 
L 119.862949 58.571268 
L 120.674603 71.166809 
L 121.484904 66.128592 
L 122.29791 68.647701 
L 123.109564 68.647701 
L 123.921218 58.571268 
L 124.732872 61.090376 
L 125.544526 66.128592 
L 126.358886 66.128592 
L 127.170539 63.609484 
L 127.982193 66.128592 
L 128.793847 61.090376 
L 129.608207 68.647701 
L 130.421213 63.609484 
L 132.857528 71.166809 
L 133.669182 58.571268 
L 134.47813 68.647701 
L 135.288431 61.090376 
L 136.104144 71.166809 
L 136.913092 71.166809 
L 137.723393 63.609484 
L 138.539105 61.090376 
L 140.163766 61.090376 
L 140.974067 63.609484 
L 141.784368 63.609484 
L 143.406323 58.571268 
L 144.21933 58.571268 
L 145.026926 63.609484 
L 146.651586 58.571268 
L 147.46324 66.128592 
L 148.2776 61.090376 
L 149.089253 63.609484 
L 149.90226 56.052159 
L 150.715267 56.052159 
L 151.524215 63.609484 
L 152.333164 66.128592 
L 153.143465 66.128592 
L 153.955119 61.090376 
L 154.768125 61.090376 
L 155.579779 66.128592 
L 156.391433 61.090376 
L 157.201734 61.090376 
L 158.016094 68.647701 
L 158.826395 68.647701 
L 159.636696 58.571268 
L 160.451056 68.647701 
L 161.260004 61.090376 
L 162.070305 61.090376 
L 162.883312 68.647701 
L 163.693613 58.571268 
L 164.505267 71.166809 
L 165.319626 61.090376 
L 166.940229 71.166809 
L 167.751882 61.090376 
L 168.564889 66.128592 
L 169.376543 61.090376 
L 170.190903 66.128592 
L 171.002556 63.609484 
L 172.624512 73.685917 
L 173.436165 68.647701 
L 174.245114 73.685917 
L 175.056768 68.647701 
L 175.869774 66.128592 
L 176.680076 68.647701 
L 177.491729 58.571268 
L 178.306089 61.090376 
L 179.113685 58.571268 
L 179.926691 71.166809 
L 180.741051 56.052159 
L 181.549999 68.647701 
L 182.361653 58.571268 
L 183.176012 61.090376 
L 183.987666 58.571268 
L 184.797967 63.609484 
L 185.609621 61.090376 
L 187.230224 61.090376 
L 188.04323 66.128592 
L 188.853532 63.609484 
L 189.663833 58.571268 
L 190.475487 68.647701 
L 191.287141 61.090376 
L 192.098794 73.685917 
L 192.910448 61.090376 
L 193.722102 71.166809 
L 194.533756 63.609484 
L 195.34541 68.647701 
L 196.158417 68.647701 
L 197.781725 58.571268 
L 198.590673 61.090376 
L 200.215334 61.090376 
L 201.025635 68.647701 
L 201.837289 73.685917 
L 202.64759 68.647701 
L 203.459244 61.090376 
L 204.270898 68.647701 
L 205.083904 71.166809 
L 206.705859 71.166809 
L 207.517513 68.647701 
L 208.329167 63.609484 
L 209.142174 61.090376 
L 209.953828 63.609484 
L 210.764129 63.609484 
L 211.575783 61.090376 
L 212.386084 63.609484 
L 213.197738 71.166809 
L 214.823751 71.166809 
L 215.634053 61.090376 
L 216.447059 66.128592 
L 217.261419 61.090376 
L 218.074425 66.128592 
L 218.883374 58.571268 
L 219.69638 76.205025 
L 220.503976 66.128592 
L 221.318335 61.090376 
L 222.128637 66.128592 
L 222.940291 66.128592 
L 223.750592 63.609484 
L 224.563598 63.609484 
L 225.376605 61.090376 
L 226.188259 66.128592 
L 226.999913 63.609484 
L 227.771654 58.819023 
L 227.771654 58.819023 
" clip-path="url(#pa34e8b8c3f)" style="fill: none; stroke: #018700; stroke-opacity: 0.5; stroke-width: 2; stroke-linecap: square"/>
   </g>
   <g id="line2d_14">
    <path d="M 41.13793 58.571268 
L 41.946878 56.052159 
L 42.759885 56.052159 
L 43.572892 48.494835 
L 44.384546 53.533051 
L 45.197552 56.052159 
L 46.819507 56.052159 
L 47.629808 45.975726 
L 48.442815 40.93751 
L 49.251763 56.052159 
L 50.063417 48.494835 
L 51.685372 53.533051 
L 52.498379 48.494835 
L 53.311386 56.052159 
L 54.121687 51.013943 
L 54.933341 56.052159 
L 55.746348 58.571268 
L 56.556649 58.571268 
L 58.178604 53.533051 
L 58.99161 53.533051 
L 60.614918 48.494835 
L 62.239579 58.571268 
L 63.048527 56.052159 
L 63.861534 58.571268 
L 65.484842 53.533051 
L 66.29379 58.571268 
L 67.10815 53.533051 
L 67.921156 58.571268 
L 68.730105 48.494835 
L 69.541759 56.052159 
L 70.356118 48.494835 
L 71.163714 56.052159 
L 71.97672 45.975726 
L 72.785669 53.533051 
L 73.597323 56.052159 
L 74.410329 56.052159 
L 75.220631 58.571268 
L 76.843938 58.571268 
L 77.658298 61.090376 
L 78.468599 51.013943 
L 80.091907 61.090376 
L 81.713862 51.013943 
L 82.526869 53.533051 
L 84.147471 53.533051 
L 84.96183 51.013943 
L 85.770779 56.052159 
L 87.394087 56.052159 
L 88.20574 53.533051 
L 89.018747 56.052159 
L 89.830401 53.533051 
L 90.640702 56.052159 
L 91.452356 53.533051 
L 97.133934 53.533051 
L 97.944235 56.052159 
L 98.757241 61.090376 
L 101.192203 61.090376 
L 102.003857 63.609484 
L 102.814158 61.090376 
L 104.438819 66.128592 
L 106.063479 61.090376 
L 106.873781 61.090376 
L 107.686787 58.571268 
L 108.498441 63.609484 
L 109.308742 53.533051 
L 110.120396 58.571268 
L 110.93205 61.090376 
L 112.556711 61.090376 
L 113.369717 66.128592 
L 114.180019 58.571268 
L 114.991672 53.533051 
L 115.803326 63.609484 
L 116.61498 58.571268 
L 117.426634 63.609484 
L 118.238288 61.090376 
L 119.052648 63.609484 
L 119.862949 56.052159 
L 120.674603 61.090376 
L 121.484904 58.571268 
L 122.29791 61.090376 
L 123.921218 56.052159 
L 124.732872 56.052159 
L 126.358886 61.090376 
L 127.982193 61.090376 
L 128.793847 51.013943 
L 129.608207 61.090376 
L 130.421213 56.052159 
L 131.23422 61.090376 
L 132.047227 58.571268 
L 132.857528 66.128592 
L 133.669182 51.013943 
L 134.47813 58.571268 
L 135.288431 53.533051 
L 136.104144 61.090376 
L 136.913092 61.090376 
L 137.723393 56.052159 
L 138.539105 56.052159 
L 139.348054 51.013943 
L 140.163766 58.571268 
L 140.974067 53.533051 
L 141.784368 51.013943 
L 142.601433 53.533051 
L 143.406323 48.494835 
L 144.21933 58.571268 
L 145.026926 56.052159 
L 145.83858 56.052159 
L 146.651586 63.609484 
L 147.46324 53.533051 
L 149.089253 53.533051 
L 149.90226 58.571268 
L 151.524215 53.533051 
L 152.333164 61.090376 
L 153.143465 58.571268 
L 153.955119 61.090376 
L 154.768125 56.052159 
L 155.579779 61.090376 
L 156.391433 58.571268 
L 157.201734 53.533051 
L 158.016094 58.571268 
L 158.826395 53.533051 
L 159.636696 63.609484 
L 160.451056 58.571268 
L 161.260004 58.571268 
L 162.070305 56.052159 
L 162.883312 61.090376 
L 163.693613 56.052159 
L 164.505267 61.090376 
L 165.319626 53.533051 
L 166.940229 63.609484 
L 167.751882 53.533051 
L 168.564889 66.128592 
L 169.376543 51.013943 
L 170.190903 63.609484 
L 171.002556 56.052159 
L 171.812858 63.609484 
L 172.624512 61.090376 
L 173.436165 53.533051 
L 174.245114 61.090376 
L 175.056768 61.090376 
L 175.869774 58.571268 
L 176.680076 58.571268 
L 177.491729 51.013943 
L 178.306089 53.533051 
L 179.113685 48.494835 
L 179.926691 61.090376 
L 180.741051 48.494835 
L 181.549999 58.571268 
L 182.361653 45.975726 
L 183.176012 56.052159 
L 183.987666 51.013943 
L 184.797967 58.571268 
L 185.609621 51.013943 
L 186.41857 61.090376 
L 187.230224 53.533051 
L 188.853532 53.533051 
L 189.663833 58.571268 
L 190.475487 53.533051 
L 191.287141 58.571268 
L 192.910448 53.533051 
L 193.722102 58.571268 
L 194.533756 56.052159 
L 195.34541 63.609484 
L 196.158417 61.090376 
L 196.968718 61.090376 
L 197.781725 53.533051 
L 198.590673 56.052159 
L 200.215334 51.013943 
L 201.025635 63.609484 
L 201.837289 66.128592 
L 202.64759 58.571268 
L 203.459244 56.052159 
L 204.270898 61.090376 
L 205.083904 63.609484 
L 205.895558 63.609484 
L 206.705859 61.090376 
L 207.517513 61.090376 
L 208.329167 58.571268 
L 209.142174 58.571268 
L 209.953828 56.052159 
L 212.386084 56.052159 
L 213.197738 61.090376 
L 214.823751 61.090376 
L 215.634053 58.571268 
L 216.447059 63.609484 
L 217.261419 61.090376 
L 218.074425 56.052159 
L 218.883374 56.052159 
L 219.69638 66.128592 
L 220.503976 58.571268 
L 221.318335 53.533051 
L 222.128637 61.090376 
L 223.750592 56.052159 
L 224.563598 56.052159 
L 225.376605 58.571268 
L 226.999913 58.571268 
L 227.771654 60.966498 
L 227.771654 60.966498 
" clip-path="url(#pa34e8b8c3f)" style="fill: none; stroke: #00acc6; stroke-opacity: 0.5; stroke-width: 2; stroke-linecap: square"/>
   </g>
   <g id="line2d_15">
    <path d="M 41.13793 68.647701 
L 42.759885 58.571268 
L 43.572892 66.128592 
L 46.819507 66.128592 
L 47.629808 63.609484 
L 48.442815 58.571268 
L 49.251763 58.571268 
L 50.063417 66.128592 
L 50.876424 61.090376 
L 51.685372 66.128592 
L 52.498379 61.090376 
L 53.311386 68.647701 
L 54.121687 58.571268 
L 54.933341 68.647701 
L 55.746348 68.647701 
L 56.556649 66.128592 
L 57.368303 71.166809 
L 58.178604 68.647701 
L 58.99161 68.647701 
L 59.801912 61.090376 
L 61.426572 66.128592 
L 62.239579 63.609484 
L 63.048527 63.609484 
L 63.861534 68.647701 
L 64.670482 61.090376 
L 66.29379 66.128592 
L 67.10815 63.609484 
L 67.921156 66.128592 
L 68.730105 66.128592 
L 69.541759 63.609484 
L 70.356118 68.647701 
L 71.163714 63.609484 
L 71.97672 73.685917 
L 72.785669 61.090376 
L 73.597323 68.647701 
L 74.410329 68.647701 
L 76.032284 73.685917 
L 76.843938 58.571268 
L 77.658298 68.647701 
L 78.468599 61.090376 
L 79.2789 66.128592 
L 80.091907 58.571268 
L 80.904913 68.647701 
L 81.713862 61.090376 
L 82.526869 68.647701 
L 83.338522 61.090376 
L 84.147471 71.166809 
L 84.96183 61.090376 
L 85.770779 68.647701 
L 86.582433 63.609484 
L 87.394087 61.090376 
L 88.20574 68.647701 
L 89.018747 66.128592 
L 89.830401 61.090376 
L 90.640702 66.128592 
L 91.452356 61.090376 
L 93.887318 61.090376 
L 94.697619 63.609484 
L 95.510626 63.609484 
L 96.320927 61.090376 
L 97.944235 66.128592 
L 98.757241 71.166809 
L 99.567543 73.685917 
L 100.383255 73.685917 
L 101.192203 71.166809 
L 102.003857 73.685917 
L 102.814158 73.685917 
L 103.628518 68.647701 
L 105.24912 78.724134 
L 106.063479 76.205025 
L 106.873781 78.724134 
L 107.686787 73.685917 
L 108.498441 73.685917 
L 109.308742 63.609484 
L 110.120396 63.609484 
L 110.93205 66.128592 
L 111.74641 71.166809 
L 112.556711 73.685917 
L 113.369717 71.166809 
L 114.180019 61.090376 
L 114.991672 63.609484 
L 115.803326 68.647701 
L 116.61498 71.166809 
L 117.426634 71.166809 
L 118.238288 68.647701 
L 119.052648 73.685917 
L 119.862949 68.647701 
L 120.674603 68.647701 
L 121.484904 76.205025 
L 122.29791 73.685917 
L 123.109564 76.205025 
L 123.921218 63.609484 
L 125.544526 68.647701 
L 126.358886 76.205025 
L 127.170539 71.166809 
L 127.982193 71.166809 
L 128.793847 66.128592 
L 129.608207 66.128592 
L 130.421213 68.647701 
L 131.23422 68.647701 
L 132.047227 63.609484 
L 132.857528 66.128592 
L 133.669182 66.128592 
L 134.47813 71.166809 
L 135.288431 68.647701 
L 136.104144 78.724134 
L 136.913092 71.166809 
L 138.539105 66.128592 
L 140.974067 66.128592 
L 142.601433 61.090376 
L 143.406323 71.166809 
L 145.026926 66.128592 
L 145.83858 68.647701 
L 146.651586 73.685917 
L 147.46324 71.166809 
L 148.2776 61.090376 
L 149.089253 63.609484 
L 149.90226 61.090376 
L 150.715267 61.090376 
L 151.524215 68.647701 
L 152.333164 63.609484 
L 153.143465 71.166809 
L 153.955119 66.128592 
L 154.768125 66.128592 
L 155.579779 73.685917 
L 156.391433 66.128592 
L 157.201734 76.205025 
L 158.016094 63.609484 
L 158.826395 63.609484 
L 159.636696 68.647701 
L 160.451056 61.090376 
L 162.070305 66.128592 
L 162.883312 76.205025 
L 163.693613 68.647701 
L 164.505267 76.205025 
L 165.319626 66.128592 
L 166.128575 76.205025 
L 166.940229 76.205025 
L 167.751882 68.647701 
L 168.564889 81.243242 
L 169.376543 71.166809 
L 170.190903 76.205025 
L 171.002556 63.609484 
L 171.812858 68.647701 
L 172.624512 71.166809 
L 173.436165 61.090376 
L 174.245114 63.609484 
L 176.680076 63.609484 
L 177.491729 61.090376 
L 178.306089 66.128592 
L 179.113685 61.090376 
L 179.926691 66.128592 
L 180.741051 61.090376 
L 181.549999 71.166809 
L 182.361653 61.090376 
L 183.176012 66.128592 
L 183.987666 63.609484 
L 184.797967 71.166809 
L 185.609621 66.128592 
L 186.41857 76.205025 
L 188.04323 61.090376 
L 188.853532 63.609484 
L 189.663833 71.166809 
L 190.475487 66.128592 
L 191.287141 73.685917 
L 192.098794 61.090376 
L 192.910448 71.166809 
L 193.722102 63.609484 
L 194.533756 68.647701 
L 195.34541 63.609484 
L 196.968718 63.609484 
L 197.781725 66.128592 
L 199.400974 66.128592 
L 200.215334 63.609484 
L 201.025635 68.647701 
L 201.837289 68.647701 
L 202.64759 66.128592 
L 203.459244 76.205025 
L 204.270898 63.609484 
L 205.083904 76.205025 
L 205.895558 78.724134 
L 206.705859 78.724134 
L 207.517513 76.205025 
L 209.142174 66.128592 
L 209.953828 66.128592 
L 210.764129 76.205025 
L 211.575783 71.166809 
L 212.386084 73.685917 
L 213.197738 83.76235 
L 214.01345 71.166809 
L 214.823751 81.243242 
L 215.634053 71.166809 
L 216.447059 83.76235 
L 217.261419 71.166809 
L 218.074425 71.166809 
L 218.883374 68.647701 
L 219.69638 73.685917 
L 220.503976 66.128592 
L 221.318335 63.609484 
L 222.128637 66.128592 
L 222.940291 63.609484 
L 223.750592 68.647701 
L 224.563598 68.647701 
L 226.188259 73.685917 
L 226.999913 71.166809 
L 227.771654 63.981117 
L 227.771654 63.981117 
" clip-path="url(#pa34e8b8c3f)" style="fill: none; stroke: #97ff00; stroke-opacity: 0.5; stroke-width: 2; stroke-linecap: square"/>
   </g>
   <g id="line2d_16">
    <path d="M 41.13793 56.052159 
L 41.946878 48.494835 
L 42.759885 51.013943 
L 43.572892 63.609484 
L 44.384546 56.052159 
L 45.197552 56.052159 
L 46.006501 53.533051 
L 46.819507 53.533051 
L 47.629808 51.013943 
L 49.251763 40.93751 
L 50.063417 53.533051 
L 50.876424 45.975726 
L 51.685372 53.533051 
L 53.311386 48.494835 
L 54.121687 56.052159 
L 54.933341 53.533051 
L 55.746348 56.052159 
L 56.556649 56.052159 
L 57.368303 51.013943 
L 58.178604 51.013943 
L 58.99161 56.052159 
L 59.801912 53.533051 
L 60.614918 56.052159 
L 61.426572 53.533051 
L 62.239579 58.571268 
L 63.048527 58.571268 
L 63.861534 61.090376 
L 64.670482 61.090376 
L 65.484842 48.494835 
L 66.29379 53.533051 
L 67.10815 56.052159 
L 67.921156 53.533051 
L 68.730105 56.052159 
L 69.541759 53.533051 
L 70.356118 53.533051 
L 71.163714 58.571268 
L 74.410329 58.571268 
L 75.220631 53.533051 
L 76.032284 58.571268 
L 76.843938 48.494835 
L 77.658298 56.052159 
L 78.468599 56.052159 
L 79.2789 45.975726 
L 80.091907 53.533051 
L 80.904913 58.571268 
L 81.713862 48.494835 
L 82.526869 58.571268 
L 83.338522 53.533051 
L 84.147471 58.571268 
L 84.96183 53.533051 
L 85.770779 53.533051 
L 86.582433 58.571268 
L 87.394087 53.533051 
L 88.20574 56.052159 
L 89.018747 53.533051 
L 89.830401 53.533051 
L 90.640702 56.052159 
L 91.452356 51.013943 
L 93.074311 51.013943 
L 93.887318 48.494835 
L 94.697619 48.494835 
L 95.510626 53.533051 
L 96.320927 45.975726 
L 97.944235 51.013943 
L 98.757241 56.052159 
L 102.814158 56.052159 
L 103.628518 58.571268 
L 104.438819 58.571268 
L 105.24912 56.052159 
L 106.063479 56.052159 
L 106.873781 58.571268 
L 108.498441 58.571268 
L 109.308742 56.052159 
L 110.120396 58.571268 
L 110.93205 58.571268 
L 111.74641 61.090376 
L 112.556711 61.090376 
L 113.369717 58.571268 
L 114.180019 51.013943 
L 114.991672 51.013943 
L 115.803326 63.609484 
L 116.61498 58.571268 
L 117.426634 58.571268 
L 118.238288 56.052159 
L 119.052648 61.090376 
L 119.862949 61.090376 
L 120.674603 51.013943 
L 121.484904 56.052159 
L 123.109564 61.090376 
L 123.921218 53.533051 
L 124.732872 51.013943 
L 125.544526 61.090376 
L 126.358886 58.571268 
L 127.170539 61.090376 
L 127.982193 56.052159 
L 128.793847 58.571268 
L 129.608207 53.533051 
L 130.421213 58.571268 
L 131.23422 61.090376 
L 132.047227 51.013943 
L 133.669182 61.090376 
L 134.47813 48.494835 
L 135.288431 51.013943 
L 136.104144 61.090376 
L 136.913092 56.052159 
L 137.723393 63.609484 
L 138.539105 53.533051 
L 139.348054 53.533051 
L 140.163766 58.571268 
L 140.974067 53.533051 
L 142.601433 53.533051 
L 143.406323 51.013943 
L 144.21933 51.013943 
L 145.026926 48.494835 
L 145.83858 56.052159 
L 146.651586 51.013943 
L 147.46324 53.533051 
L 148.2776 53.533051 
L 149.089253 56.052159 
L 149.90226 45.975726 
L 150.715267 53.533051 
L 151.524215 45.975726 
L 152.333164 63.609484 
L 153.143465 51.013943 
L 153.955119 45.975726 
L 154.768125 58.571268 
L 155.579779 53.533051 
L 156.391433 58.571268 
L 157.201734 56.052159 
L 158.016094 58.571268 
L 158.826395 56.052159 
L 159.636696 61.090376 
L 160.451056 58.571268 
L 161.260004 51.013943 
L 162.070305 48.494835 
L 162.883312 61.090376 
L 163.693613 45.975726 
L 164.505267 58.571268 
L 165.319626 53.533051 
L 166.128575 61.090376 
L 166.940229 61.090376 
L 167.751882 53.533051 
L 168.564889 63.609484 
L 169.376543 56.052159 
L 170.190903 61.090376 
L 171.002556 56.052159 
L 172.624512 61.090376 
L 173.436165 56.052159 
L 174.245114 58.571268 
L 175.869774 58.571268 
L 177.491729 48.494835 
L 178.306089 56.052159 
L 179.113685 43.456618 
L 179.926691 56.052159 
L 180.741051 48.494835 
L 181.549999 56.052159 
L 183.176012 51.013943 
L 183.987666 58.571268 
L 184.797967 51.013943 
L 185.609621 58.571268 
L 186.41857 51.013943 
L 187.230224 53.533051 
L 188.04323 48.494835 
L 188.853532 48.494835 
L 189.663833 58.571268 
L 190.475487 48.494835 
L 191.287141 53.533051 
L 192.098794 61.090376 
L 192.910448 48.494835 
L 193.722102 58.571268 
L 194.533756 48.494835 
L 195.34541 56.052159 
L 196.158417 58.571268 
L 196.968718 51.013943 
L 197.781725 51.013943 
L 198.590673 56.052159 
L 199.400974 53.533051 
L 200.215334 48.494835 
L 201.025635 56.052159 
L 201.837289 53.533051 
L 202.64759 53.533051 
L 203.459244 61.090376 
L 204.270898 58.571268 
L 205.895558 63.609484 
L 206.705859 61.090376 
L 207.517513 61.090376 
L 209.142174 51.013943 
L 210.764129 51.013943 
L 211.575783 48.494835 
L 212.386084 53.533051 
L 213.197738 61.090376 
L 214.01345 63.609484 
L 214.823751 63.609484 
L 215.634053 58.571268 
L 216.447059 61.090376 
L 217.261419 56.052159 
L 218.074425 53.533051 
L 218.883374 56.052159 
L 219.69638 61.090376 
L 220.503976 51.013943 
L 221.318335 56.052159 
L 222.128637 58.571268 
L 222.940291 48.494835 
L 223.750592 53.533051 
L 224.563598 56.052159 
L 225.376605 53.533051 
L 226.188259 58.571268 
L 226.999913 53.533051 
L 227.771654 51.13782 
L 227.771654 51.13782 
" clip-path="url(#pa34e8b8c3f)" style="fill: none; stroke: #ff7ed1; stroke-opacity: 0.5; stroke-width: 2; stroke-linecap: square"/>
   </g>
   <g id="patch_3">
    <path d="M 41.13793 108.953433 
L 41.13793 8.189102 
" style="fill: none; stroke: #000000; stroke-width: 0.8; stroke-linejoin: miter; stroke-linecap: square"/>
   </g>
   <g id="patch_4">
    <path d="M 216.455176 108.953433 
L 216.455176 8.189102 
" style="fill: none; stroke: #000000; stroke-width: 0.8; stroke-linejoin: miter; stroke-linecap: square"/>
   </g>
   <g id="patch_5">
    <path d="M 41.13793 108.953433 
L 216.455176 108.953433 
" style="fill: none; stroke: #000000; stroke-width: 0.8; stroke-linejoin: miter; stroke-linecap: square"/>
   </g>
   <g id="patch_6">
    <path d="M 41.13793 8.189102 
L 216.455176 8.189102 
" style="fill: none; stroke: #000000; stroke-width: 0.8; stroke-linejoin: miter; stroke-linecap: square"/>
   </g>
  </g>
 </g>
 <defs>
  <clipPath id="pa34e8b8c3f">
   <rect x="41.13793" y="8.189102" width="175.317246" height="100.76433"/>
  </clipPath>
 </defs>
</svg>
