<?xml version="1.0" encoding="utf-8" standalone="no"?>
<!DOCTYPE svg PUBLIC "-//W3C//DTD SVG 1.1//EN"
  "http://www.w3.org/Graphics/SVG/1.1/DTD/svg11.dtd">
<svg xmlns:xlink="http://www.w3.org/1999/xlink" width="226.771654pt" height="151.181102pt" viewBox="0 0 226.771654 151.181102" xmlns="http://www.w3.org/2000/svg" version="1.1">
 <metadata>
  <rdf:RDF xmlns:dc="http://purl.org/dc/elements/1.1/" xmlns:cc="http://creativecommons.org/ns#" xmlns:rdf="http://www.w3.org/1999/02/22-rdf-syntax-ns#">
   <cc:Work>
    <dc:type rdf:resource="http://purl.org/dc/dcmitype/StillImage"/>
    <dc:date>2025-11-23T20:12:43.361275</dc:date>
    <dc:format>image/svg+xml</dc:format>
    <dc:creator>
     <cc:Agent>
      <dc:title>Matplotlib v3.9.1, https://matplotlib.org/</dc:title>
     </cc:Agent>
    </dc:creator>
   </cc:Work>
  </rdf:RDF>
 </metadata>
 <defs>
  <style type="text/css">*{stroke-linejoin: round; stroke-linecap: butt}</style>
 </defs>
 <g id="figure_1">
  <g id="patch_1">
   <path d="M 0 151.181102 
L 226.771654 151.181102 
L 226.771654 0 
L 0 0 
z
" style="fill: #ffffff"/>
  </g>
  <g id="axes_1">
   <g id="patch_2">
    <path d="M 41.13793 108.953433 
L 216.455176 108.953433 
L 216.455176 8.189102 
L 41.13793 8.189102 
z
" style="fill: #ffffff"/>
   </g>
   <g id="matplotlib.axis_1">
    <g id="xtick_1">
     <g id="line2d_1">
      <defs>
       <path id="m0dadfc92e9" d="M 0 0 
L 0 3.5 
" style="stroke: #000000; stroke-width: 0.8"/>
      </defs>
      <g>
       <use xlink:href="#m0dadfc92e9" x="41.13793" y="108.953433" style="stroke: #000000; stroke-width: 0.8"/>
      </g>
     </g>
     <g id="text_1">
      <!-- 00 -->
      <g transform="translate(33.821692 126.331158) scale(0.15 -0.15)">
       <defs>
        <path id="CMR17-30" d="M 2688 2025 
C 2688 2416 2682 3080 2413 3591 
C 2176 4039 1798 4198 1466 4198 
C 1158 4198 768 4058 525 3597 
C 269 3118 243 2524 243 2025 
C 243 1661 250 1106 448 619 
C 723 -39 1216 -128 1466 -128 
C 1760 -128 2208 -7 2470 600 
C 2662 1042 2688 1559 2688 2025 
z
M 1466 -26 
C 1056 -26 813 325 723 812 
C 653 1188 653 1738 653 2096 
C 653 2588 653 2997 736 3387 
C 858 3929 1216 4096 1466 4096 
C 1728 4096 2067 3923 2189 3400 
C 2272 3036 2278 2607 2278 2096 
C 2278 1680 2278 1169 2202 792 
C 2067 95 1690 -26 1466 -26 
z
" transform="scale(0.015625)"/>
       </defs>
       <use xlink:href="#CMR17-30" transform="scale(0.996264)"/>
       <use xlink:href="#CMR17-30" transform="translate(45.690477 0) scale(0.996264)"/>
      </g>
     </g>
    </g>
    <g id="xtick_2">
     <g id="line2d_2">
      <g>
       <use xlink:href="#m0dadfc92e9" x="70.357471" y="108.953433" style="stroke: #000000; stroke-width: 0.8"/>
      </g>
     </g>
     <g id="text_2">
      <!-- 06 -->
      <g transform="translate(63.041233 126.331158) scale(0.15 -0.15)">
       <defs>
        <path id="CMR17-36" d="M 678 2176 
C 678 3690 1395 4032 1811 4032 
C 1946 4032 2272 4009 2400 3776 
C 2298 3776 2106 3776 2106 3553 
C 2106 3381 2246 3323 2336 3323 
C 2394 3323 2566 3348 2566 3560 
C 2566 3954 2246 4179 1805 4179 
C 1043 4179 243 3390 243 1984 
C 243 253 966 -128 1478 -128 
C 2099 -128 2688 427 2688 1283 
C 2688 2081 2170 2662 1517 2662 
C 1126 2662 838 2407 678 1960 
L 678 2176 
z
M 1478 25 
C 691 25 691 1200 691 1436 
C 691 1896 909 2560 1504 2560 
C 1613 2560 1926 2560 2138 2120 
C 2253 1870 2253 1609 2253 1289 
C 2253 944 2253 690 2118 434 
C 1978 171 1773 25 1478 25 
z
" transform="scale(0.015625)"/>
       </defs>
       <use xlink:href="#CMR17-30" transform="scale(0.996264)"/>
       <use xlink:href="#CMR17-36" transform="translate(45.690477 0) scale(0.996264)"/>
      </g>
     </g>
    </g>
    <g id="xtick_3">
     <g id="line2d_3">
      <g>
       <use xlink:href="#m0dadfc92e9" x="99.577012" y="108.953433" style="stroke: #000000; stroke-width: 0.8"/>
      </g>
     </g>
     <g id="text_3">
      <!-- 12 -->
      <g transform="translate(92.260774 126.331158) scale(0.15 -0.15)">
       <defs>
        <path id="CMR17-31" d="M 1702 4058 
C 1702 4192 1696 4192 1606 4192 
C 1357 3916 979 3827 621 3827 
C 602 3827 570 3827 563 3808 
C 557 3795 557 3782 557 3648 
C 755 3648 1088 3686 1344 3839 
L 1344 461 
C 1344 236 1331 160 781 160 
L 589 160 
L 589 0 
C 896 0 1216 0 1523 0 
C 1830 0 2150 0 2458 0 
L 2458 160 
L 2266 160 
C 1715 160 1702 230 1702 458 
L 1702 4058 
z
" transform="scale(0.015625)"/>
        <path id="CMR17-32" d="M 2669 989 
L 2554 989 
C 2490 536 2438 459 2413 420 
C 2381 369 1920 369 1830 369 
L 602 369 
C 832 619 1280 1072 1824 1597 
C 2214 1967 2669 2402 2669 3035 
C 2669 3790 2067 4224 1395 4224 
C 691 4224 262 3604 262 3030 
C 262 2780 448 2748 525 2748 
C 589 2748 781 2787 781 3010 
C 781 3207 614 3264 525 3264 
C 486 3264 448 3258 422 3245 
C 544 3790 915 4058 1306 4058 
C 1862 4058 2227 3617 2227 3035 
C 2227 2479 1901 2000 1536 1584 
L 262 146 
L 262 0 
L 2515 0 
L 2669 989 
z
" transform="scale(0.015625)"/>
       </defs>
       <use xlink:href="#CMR17-31" transform="scale(0.996264)"/>
       <use xlink:href="#CMR17-32" transform="translate(45.690477 0) scale(0.996264)"/>
      </g>
     </g>
    </g>
    <g id="xtick_4">
     <g id="line2d_4">
      <g>
       <use xlink:href="#m0dadfc92e9" x="128.796553" y="108.953433" style="stroke: #000000; stroke-width: 0.8"/>
      </g>
     </g>
     <g id="text_4">
      <!-- 18 -->
      <g transform="translate(121.480315 126.331158) scale(0.15 -0.15)">
       <defs>
        <path id="CMR17-38" d="M 1741 2264 
C 2144 2467 2554 2773 2554 3263 
C 2554 3841 1990 4179 1472 4179 
C 890 4179 378 3759 378 3180 
C 378 3021 416 2747 666 2505 
C 730 2442 998 2251 1171 2130 
C 883 1983 211 1634 211 934 
C 211 279 838 -128 1459 -128 
C 2144 -128 2720 362 2720 1010 
C 2720 1590 2330 1857 2074 2029 
L 1741 2264 
z
M 902 2822 
C 851 2854 595 3051 595 3351 
C 595 3739 998 4032 1459 4032 
C 1965 4032 2336 3676 2336 3262 
C 2336 2669 1670 2331 1638 2331 
C 1632 2331 1626 2331 1574 2370 
L 902 2822 
z
M 2080 1519 
C 2176 1449 2483 1240 2483 851 
C 2483 381 2010 25 1472 25 
C 890 25 448 438 448 940 
C 448 1443 838 1862 1280 2060 
L 2080 1519 
z
" transform="scale(0.015625)"/>
       </defs>
       <use xlink:href="#CMR17-31" transform="scale(0.996264)"/>
       <use xlink:href="#CMR17-38" transform="translate(45.690477 0) scale(0.996264)"/>
      </g>
     </g>
    </g>
    <g id="xtick_5">
     <g id="line2d_5">
      <g>
       <use xlink:href="#m0dadfc92e9" x="158.016094" y="108.953433" style="stroke: #000000; stroke-width: 0.8"/>
      </g>
     </g>
     <g id="text_5">
      <!-- 24 -->
      <g transform="translate(150.699856 126.331158) scale(0.15 -0.15)">
       <defs>
        <path id="CMR17-34" d="M 2150 4122 
C 2150 4256 2144 4256 2029 4256 
L 128 1254 
L 128 1088 
L 1779 1088 
L 1779 457 
C 1779 224 1766 160 1318 160 
L 1197 160 
L 1197 0 
C 1402 0 1747 0 1965 0 
C 2182 0 2528 0 2733 0 
L 2733 160 
L 2611 160 
C 2163 160 2150 224 2150 457 
L 2150 1088 
L 2803 1088 
L 2803 1254 
L 2150 1254 
L 2150 4122 
z
M 1798 3703 
L 1798 1254 
L 256 1254 
L 1798 3703 
z
" transform="scale(0.015625)"/>
       </defs>
       <use xlink:href="#CMR17-32" transform="scale(0.996264)"/>
       <use xlink:href="#CMR17-34" transform="translate(45.690477 0) scale(0.996264)"/>
      </g>
     </g>
    </g>
    <g id="xtick_6">
     <g id="line2d_6">
      <g>
       <use xlink:href="#m0dadfc92e9" x="187.235635" y="108.953433" style="stroke: #000000; stroke-width: 0.8"/>
      </g>
     </g>
     <g id="text_6">
      <!-- 30 -->
      <g transform="translate(179.919397 126.331158) scale(0.15 -0.15)">
       <defs>
        <path id="CMR17-33" d="M 1414 2157 
C 1984 2157 2234 1662 2234 1090 
C 2234 320 1824 25 1453 25 
C 1114 25 563 194 390 693 
C 422 680 454 680 486 680 
C 640 680 755 782 755 948 
C 755 1133 614 1216 486 1216 
C 378 1216 211 1165 211 926 
C 211 335 787 -128 1466 -128 
C 2176 -128 2720 430 2720 1085 
C 2720 1707 2208 2157 1600 2227 
C 2086 2328 2554 2756 2554 3329 
C 2554 3820 2048 4179 1472 4179 
C 890 4179 378 3829 378 3329 
C 378 3110 544 3072 627 3072 
C 762 3072 877 3155 877 3321 
C 877 3486 762 3569 627 3569 
C 602 3569 570 3569 544 3557 
C 730 3959 1235 4032 1459 4032 
C 1683 4032 2106 3925 2106 3320 
C 2106 3143 2080 2828 1862 2550 
C 1670 2304 1453 2304 1242 2284 
C 1210 2284 1062 2269 1037 2269 
C 992 2263 966 2257 966 2208 
C 966 2163 973 2157 1101 2157 
L 1414 2157 
z
" transform="scale(0.015625)"/>
       </defs>
       <use xlink:href="#CMR17-33" transform="scale(0.996264)"/>
       <use xlink:href="#CMR17-30" transform="translate(45.690477 0) scale(0.996264)"/>
      </g>
     </g>
    </g>
    <g id="xtick_7">
     <g id="line2d_7">
      <g>
       <use xlink:href="#m0dadfc92e9" x="216.455176" y="108.953433" style="stroke: #000000; stroke-width: 0.8"/>
      </g>
     </g>
     <g id="text_7">
      <!-- 36 -->
      <g transform="translate(209.138938 126.331158) scale(0.15 -0.15)">
       <use xlink:href="#CMR17-33" transform="scale(0.996264)"/>
       <use xlink:href="#CMR17-36" transform="translate(45.690477 0) scale(0.996264)"/>
      </g>
     </g>
    </g>
    <g id="text_8">
     <!-- time [h] -->
     <g transform="translate(104.002636 144.444872) scale(0.15 -0.15)">
      <defs>
       <path id="CMR17-74" d="M 966 2560 
L 1862 2560 
L 1862 2725 
L 966 2725 
L 966 3904 
L 851 3904 
C 838 3245 614 2668 70 2668 
L 70 2560 
L 627 2560 
L 627 771 
C 627 650 627 -64 1370 -64 
C 1747 -64 1965 306 1965 777 
L 1965 1140 
L 1850 1140 
L 1850 783 
C 1850 344 1677 51 1408 51 
C 1222 51 966 178 966 758 
L 966 2560 
z
" transform="scale(0.015625)"/>
       <path id="CMR17-69" d="M 992 3909 
C 992 4049 877 4170 730 4170 
C 589 4170 467 4056 467 3909 
C 467 3769 582 3648 730 3648 
C 870 3648 992 3763 992 3909 
z
M 243 2706 
L 243 2541 
C 602 2541 653 2502 653 2197 
L 653 427 
C 653 184 627 153 218 153 
L 218 -13 
C 371 0 646 0 806 0 
C 960 0 1222 0 1370 -13 
L 1370 153 
C 992 153 979 191 979 420 
L 979 2776 
L 243 2706 
z
" transform="scale(0.015625)"/>
       <path id="CMR17-6d" d="M 4326 1933 
C 4326 2252 4269 2790 3507 2790 
C 3072 2790 2771 2496 2656 2151 
L 2650 2151 
C 2573 2676 2195 2790 1837 2790 
C 1331 2790 1069 2400 973 2144 
L 966 2144 
L 966 2790 
L 211 2720 
L 211 2554 
C 589 2554 646 2515 646 2208 
L 646 428 
C 646 184 621 153 211 153 
L 211 -13 
C 365 0 646 0 813 0 
C 979 0 1267 0 1421 -13 
L 1421 153 
C 1011 153 986 178 986 428 
L 986 1658 
C 986 2247 1344 2688 1792 2688 
C 2266 2688 2317 2266 2317 1958 
L 2317 428 
C 2317 184 2291 153 1882 153 
L 1882 -13 
C 2035 0 2317 0 2483 0 
C 2650 0 2938 0 3091 -13 
L 3091 153 
C 2682 153 2656 178 2656 428 
L 2656 1658 
C 2656 2247 3014 2688 3462 2688 
C 3936 2688 3987 2266 3987 1958 
L 3987 428 
C 3987 184 3962 153 3552 153 
L 3552 -13 
C 3706 0 3987 0 4154 0 
C 4320 0 4608 0 4762 -13 
L 4762 153 
C 4352 153 4326 178 4326 428 
L 4326 1933 
z
" transform="scale(0.015625)"/>
       <path id="CMR17-65" d="M 2438 1472 
C 2464 1498 2464 1511 2464 1576 
C 2464 2238 2118 2816 1389 2816 
C 710 2816 173 2169 173 1383 
C 173 551 781 -64 1459 -64 
C 2176 -64 2458 607 2458 740 
C 2458 784 2419 784 2406 784 
C 2362 784 2355 771 2330 696 
C 2189 265 1837 51 1504 51 
C 1229 51 954 203 781 480 
C 582 803 582 1176 582 1472 
L 2438 1472 
z
M 589 1568 
C 634 2505 1126 2714 1382 2714 
C 1818 2714 2112 2297 2118 1568 
L 589 1568 
z
" transform="scale(0.015625)"/>
       <path id="CMR17-5b" d="M 1504 -1600 
L 1504 -1377 
L 902 -1377 
L 902 4544 
L 1504 4544 
L 1504 4767 
L 678 4767 
L 678 -1600 
L 1504 -1600 
z
" transform="scale(0.015625)"/>
       <path id="CMR17-68" d="M 2656 1933 
C 2656 2259 2592 2790 1837 2790 
C 1312 2790 1056 2368 979 2157 
L 973 2157 
L 973 4396 
L 211 4326 
L 211 4160 
C 589 4160 646 4122 646 3817 
L 646 426 
C 646 184 621 153 211 153 
L 211 -13 
C 365 0 646 0 813 0 
C 979 0 1267 0 1421 -13 
L 1421 153 
C 1011 153 986 178 986 428 
L 986 1658 
C 986 2247 1344 2688 1792 2688 
C 2266 2688 2317 2266 2317 1958 
L 2317 428 
C 2317 184 2291 153 1882 153 
L 1882 -13 
C 2035 0 2317 0 2483 0 
C 2650 0 2938 0 3091 -13 
L 3091 153 
C 2682 153 2656 178 2656 428 
L 2656 1933 
z
" transform="scale(0.015625)"/>
       <path id="CMR17-5d" d="M 915 4767 
L 90 4767 
L 90 4544 
L 691 4544 
L 691 -1377 
L 90 -1377 
L 90 -1600 
L 915 -1600 
L 915 4767 
z
" transform="scale(0.015625)"/>
      </defs>
      <use xlink:href="#CMR17-74" transform="scale(0.996264)"/>
      <use xlink:href="#CMR17-69" transform="translate(35.280768 0) scale(0.996264)"/>
      <use xlink:href="#CMR17-6d" transform="translate(60.151826 0) scale(0.996264)"/>
      <use xlink:href="#CMR17-65" transform="translate(137.071416 0) scale(0.996264)"/>
      <use xlink:href="#CMR17-5b" transform="translate(207.633043 0) scale(0.996264)"/>
      <use xlink:href="#CMR17-68" transform="translate(232.504101 0) scale(0.996264)"/>
      <use xlink:href="#CMR17-5d" transform="translate(283.399471 0) scale(0.996264)"/>
     </g>
    </g>
   </g>
   <g id="matplotlib.axis_2">
    <g id="ytick_1">
     <g id="line2d_8">
      <defs>
       <path id="maf571523b8" d="M 0 0 
L -3.5 0 
" style="stroke: #000000; stroke-width: 0.8"/>
      </defs>
      <g>
       <use xlink:href="#maf571523b8" x="41.13793" y="108.953433" style="stroke: #000000; stroke-width: 0.8"/>
      </g>
     </g>
     <g id="text_9">
      <!-- -2 -->
      <g transform="translate(21.9442 114.142295) scale(0.15 -0.15)">
       <defs>
        <path id="CMR17-2d" d="M 1632 1216 
L 1632 1496 
L 26 1496 
L 26 1216 
L 1632 1216 
z
" transform="scale(0.015625)"/>
       </defs>
       <use xlink:href="#CMR17-2d" transform="scale(0.996264)"/>
       <use xlink:href="#CMR17-32" transform="translate(30.075966 0) scale(0.996264)"/>
      </g>
     </g>
    </g>
    <g id="ytick_2">
     <g id="line2d_9">
      <g>
       <use xlink:href="#maf571523b8" x="41.13793" y="58.571268" style="stroke: #000000; stroke-width: 0.8"/>
      </g>
     </g>
     <g id="text_10">
      <!--  0 -->
      <g transform="translate(26.821692 63.76013) scale(0.15 -0.15)">
       <use xlink:href="#CMR17-30" transform="scale(0.996264)"/>
      </g>
     </g>
    </g>
    <g id="ytick_3">
     <g id="line2d_10">
      <g>
       <use xlink:href="#maf571523b8" x="41.13793" y="8.189102" style="stroke: #000000; stroke-width: 0.8"/>
      </g>
     </g>
     <g id="text_11">
      <!--  2 -->
      <g transform="translate(26.821692 13.377965) scale(0.15 -0.15)">
       <use xlink:href="#CMR17-32" transform="scale(0.996264)"/>
      </g>
     </g>
    </g>
    <g id="text_12">
     <!-- $\mathrm{dz [\mu m]}$ -->
     <g transform="translate(14.20821 80.450798) rotate(-90) scale(0.15 -0.15)">
      <defs>
       <path id="CMR17-64" d="M 1869 4326 
L 1869 4160 
C 2246 4160 2304 4122 2304 3820 
L 2304 2345 
C 2278 2377 2016 2790 1498 2790 
C 845 2790 211 2208 211 1364 
C 211 525 806 -64 1434 -64 
C 1978 -64 2259 337 2291 380 
L 2291 -63 
L 3066 -63 
L 3066 128 
C 2688 128 2630 166 2630 473 
L 2630 4396 
L 1869 4326 
z
M 2291 755 
C 2291 563 2176 390 2029 262 
C 1811 70 1594 38 1472 38 
C 1286 38 621 134 621 1356 
C 621 2612 1363 2688 1530 2688 
C 1824 2688 2061 2522 2208 2291 
C 2291 2157 2291 2138 2291 2023 
L 2291 755 
z
" transform="scale(0.015625)"/>
       <path id="CMR17-7a" d="M 2310 2605 
C 2362 2670 2362 2682 2362 2695 
C 2362 2752 2336 2752 2221 2752 
L 275 2752 
L 211 1760 
L 326 1760 
C 371 2381 442 2650 1178 2650 
L 1958 2650 
L 128 96 
C 128 0 134 0 269 0 
L 2291 0 
L 2381 1152 
L 2266 1152 
C 2214 442 2131 115 1350 115 
L 531 115 
L 2310 2605 
z
" transform="scale(0.015625)"/>
       <path id="CMMI12-16" d="M 922 140 
C 1082 -6 1318 -64 1536 -64 
C 1946 -64 2227 208 2374 405 
C 2438 69 2707 -64 2931 -64 
C 3123 -64 3277 50 3392 277 
C 3494 493 3584 879 3584 903 
C 3584 935 3558 960 3520 960 
C 3462 960 3456 928 3430 834 
C 3334 461 3213 64 2950 64 
C 2765 64 2752 229 2752 358 
C 2752 504 2810 735 2854 926 
L 3034 1615 
C 3059 1737 3130 2023 3162 2139 
C 3200 2292 3270 2567 3270 2592 
C 3270 2688 3194 2752 3098 2752 
C 3040 2752 2906 2726 2854 2535 
L 2406 760 
C 2374 632 2374 619 2291 517 
C 2214 409 1965 64 1562 64 
C 1203 64 1088 326 1088 625 
C 1088 811 1146 1034 1171 1143 
L 1459 2293 
C 1491 2414 1542 2618 1542 2657 
C 1542 2759 1459 2816 1376 2816 
C 1318 2816 1178 2797 1126 2592 
L 198 -1107 
C 192 -1139 179 -1177 179 -1216 
C 179 -1312 256 -1376 352 -1376 
C 538 -1376 576 -1228 621 -1050 
L 922 140 
z
" transform="scale(0.015625)"/>
      </defs>
      <use xlink:href="#CMR17-64" transform="scale(0.996264)"/>
      <use xlink:href="#CMR17-7a" transform="translate(50.89537 0) scale(0.996264)"/>
      <use xlink:href="#CMR17-5b" transform="translate(91.38103 0) scale(0.996264)"/>
      <use xlink:href="#CMMI12-16" transform="translate(116.252089 0) scale(0.996264)"/>
      <use xlink:href="#CMR17-6d" transform="translate(174.94351 0) scale(0.996264)"/>
      <use xlink:href="#CMR17-5d" transform="translate(251.8631 0) scale(0.996264)"/>
     </g>
    </g>
   </g>
   <g id="line2d_11">
    <path d="M 41.13793 83.76235 
L 41.950937 56.052159 
L 42.753121 48.494835 
L 43.563422 43.456618 
L 45.18673 28.341968 
L 46.002442 23.303752 
L 46.812743 20.784644 
L 47.628456 23.303752 
L 50.063417 23.303752 
L 50.875071 25.82286 
L 52.499732 25.82286 
L 53.310033 28.341968 
L 54.125745 28.341968 
L 54.937399 23.303752 
L 57.373714 23.303752 
L 58.185368 20.784644 
L 60.623035 20.784644 
L 61.434689 23.303752 
L 62.24499 28.341968 
L 63.056644 25.82286 
L 64.679952 40.93751 
L 67.114913 48.494835 
L 67.92792 53.533051 
L 68.740927 56.052159 
L 69.552581 56.052159 
L 70.365587 53.533051 
L 71.178594 56.052159 
L 71.990248 53.533051 
L 74.426562 53.533051 
L 75.238216 45.975726 
L 76.04987 48.494835 
L 76.861524 38.418401 
L 77.675884 35.899293 
L 78.487538 30.861077 
L 79.299191 33.380185 
L 80.112198 28.341968 
L 80.925205 28.341968 
L 81.738211 25.82286 
L 84.174526 33.380185 
L 84.98618 40.93751 
L 85.800539 45.975726 
L 86.612193 43.456618 
L 89.049861 58.571268 
L 90.673168 63.609484 
L 91.487528 68.647701 
L 92.299182 68.647701 
L 93.110836 66.128592 
L 93.923842 68.647701 
L 97.174516 68.647701 
L 97.984817 66.128592 
L 98.796471 66.128592 
L 99.609478 71.166809 
L 100.421132 61.090376 
L 101.234139 58.571268 
L 102.045792 61.090376 
L 102.858799 61.090376 
L 103.6691 56.052159 
L 104.480754 56.052159 
L 106.105415 51.013943 
L 106.918421 53.533051 
L 107.731428 48.494835 
L 108.541729 45.975726 
L 109.354736 45.975726 
L 110.167743 48.494835 
L 110.979397 48.494835 
L 111.79105 45.975726 
L 114.228718 45.975726 
L 115.853378 51.013943 
L 116.666385 48.494835 
L 117.479392 56.052159 
L 118.292398 58.571268 
L 119.918412 58.571268 
L 120.731418 66.128592 
L 121.544425 71.166809 
L 122.358784 71.166809 
L 123.171791 73.685917 
L 123.984798 71.166809 
L 126.423818 78.724134 
L 127.236825 76.205025 
L 128.865543 81.243242 
L 129.677197 78.724134 
L 130.488851 81.243242 
L 131.303211 78.724134 
L 133.746289 86.281458 
L 134.559296 81.243242 
L 136.181251 81.243242 
L 136.998316 83.76235 
L 138.621623 78.724134 
L 139.43463 83.76235 
L 141.875003 76.205025 
L 142.689362 78.724134 
L 143.499663 76.205025 
L 144.314023 81.243242 
L 145.124324 76.205025 
L 145.935978 76.205025 
L 146.747632 73.685917 
L 147.559286 81.243242 
L 148.374998 71.166809 
L 149.183946 73.685917 
L 149.992895 73.685917 
L 150.804549 68.647701 
L 151.618908 66.128592 
L 152.426504 68.647701 
L 153.243569 68.647701 
L 154.05387 66.128592 
L 155.679883 76.205025 
L 156.490184 68.647701 
L 157.29778 68.647701 
L 158.117551 73.685917 
L 158.925146 71.166809 
L 159.739506 66.128592 
L 160.549807 71.166809 
L 161.360108 71.166809 
L 162.17582 68.647701 
L 162.984768 71.166809 
L 163.79507 66.128592 
L 164.612135 66.128592 
L 165.425141 68.647701 
L 166.232737 66.128592 
L 167.045744 61.090376 
L 167.854692 68.647701 
L 168.669051 66.128592 
L 169.482058 66.128592 
L 170.293712 63.609484 
L 171.104013 66.128592 
L 171.912962 63.609484 
L 173.537622 63.609484 
L 175.158224 53.533051 
L 175.968526 51.013943 
L 176.778827 51.013943 
L 178.398076 45.975726 
L 179.211083 45.975726 
L 180.021384 43.456618 
L 181.644692 43.456618 
L 182.456346 45.975726 
L 183.268 43.456618 
L 184.081007 45.975726 
L 184.895366 51.013943 
L 185.70702 51.013943 
L 186.520027 48.494835 
L 187.330328 48.494835 
L 188.141982 43.456618 
L 188.953636 48.494835 
L 189.766642 43.456618 
L 190.578296 45.975726 
L 192.202957 56.052159 
L 193.014611 56.052159 
L 193.827617 63.609484 
L 194.639271 66.128592 
L 195.452278 71.166809 
L 196.263932 68.647701 
L 197.076938 73.685917 
L 197.889945 71.166809 
L 198.701599 73.685917 
L 199.515958 81.243242 
L 200.327612 78.724134 
L 201.139266 86.281458 
L 201.952273 83.76235 
L 202.766632 83.76235 
L 203.576934 78.724134 
L 204.38994 83.76235 
L 206.014601 83.76235 
L 206.827608 78.724134 
L 207.639261 81.243242 
L 210.076929 81.243242 
L 210.888583 83.76235 
L 212.51189 78.724134 
L 213.324897 78.724134 
L 214.136551 76.205025 
L 214.948205 68.647701 
L 215.758506 68.647701 
L 216.572866 66.128592 
L 217.385872 68.647701 
L 218.197526 63.609484 
L 219.007827 61.090376 
L 219.820834 63.609484 
L 220.633841 58.571268 
L 221.444142 61.090376 
L 223.881809 53.533051 
L 224.694816 53.533051 
L 225.511881 56.052159 
L 227.771654 56.052159 
L 227.771654 56.052159 
" clip-path="url(#p0921e4fd2e)" style="fill: none; stroke: #d60000; stroke-opacity: 0.5; stroke-width: 2; stroke-linecap: square"/>
   </g>
   <g id="line2d_12">
    <path d="M 41.13793 73.685917 
L 41.950937 48.494835 
L 42.753121 43.456618 
L 43.563422 45.975726 
L 45.18673 35.899293 
L 46.812743 30.861077 
L 47.628456 30.861077 
L 48.44011 28.341968 
L 49.253116 28.341968 
L 50.063417 30.861077 
L 51.686725 25.82286 
L 52.499732 28.341968 
L 53.310033 25.82286 
L 54.125745 28.341968 
L 54.937399 25.82286 
L 55.749053 28.341968 
L 56.559354 23.303752 
L 57.373714 28.341968 
L 58.185368 30.861077 
L 61.434689 30.861077 
L 62.24499 38.418401 
L 63.056644 33.380185 
L 63.868298 38.418401 
L 64.679952 40.93751 
L 67.114913 40.93751 
L 67.92792 43.456618 
L 68.740927 40.93751 
L 69.552581 43.456618 
L 71.178594 43.456618 
L 71.990248 38.418401 
L 72.801902 40.93751 
L 73.614909 38.418401 
L 74.426562 38.418401 
L 75.238216 30.861077 
L 76.04987 33.380185 
L 76.861524 25.82286 
L 77.675884 28.341968 
L 78.487538 25.82286 
L 79.299191 25.82286 
L 80.925205 30.861077 
L 81.738211 28.341968 
L 82.553924 30.861077 
L 83.364225 30.861077 
L 84.174526 35.899293 
L 84.98618 35.899293 
L 85.800539 43.456618 
L 86.612193 38.418401 
L 90.673168 38.418401 
L 91.487528 43.456618 
L 95.549856 43.456618 
L 96.362862 40.93751 
L 97.174516 40.93751 
L 97.984817 35.899293 
L 98.796471 38.418401 
L 99.609478 38.418401 
L 100.421132 35.899293 
L 101.234139 35.899293 
L 102.045792 33.380185 
L 102.858799 33.380185 
L 103.6691 28.341968 
L 104.480754 30.861077 
L 105.292408 28.341968 
L 106.918421 28.341968 
L 107.731428 23.303752 
L 108.541729 25.82286 
L 109.354736 25.82286 
L 110.167743 28.341968 
L 115.040372 28.341968 
L 115.853378 30.861077 
L 116.666385 30.861077 
L 118.292398 35.899293 
L 119.104052 33.380185 
L 119.918412 33.380185 
L 120.731418 38.418401 
L 121.544425 40.93751 
L 122.358784 38.418401 
L 123.171791 43.456618 
L 123.984798 38.418401 
L 124.799157 40.93751 
L 125.610811 38.418401 
L 126.423818 38.418401 
L 127.236825 35.899293 
L 128.048478 40.93751 
L 129.677197 35.899293 
L 130.488851 38.418401 
L 132.934635 38.418401 
L 133.746289 43.456618 
L 134.559296 40.93751 
L 135.372302 40.93751 
L 136.181251 43.456618 
L 136.998316 43.456618 
L 137.811322 38.418401 
L 138.621623 38.418401 
L 139.43463 40.93751 
L 141.060643 35.899293 
L 141.875003 35.899293 
L 142.689362 38.418401 
L 143.499663 35.899293 
L 144.314023 45.975726 
L 145.124324 35.899293 
L 146.747632 35.899293 
L 147.559286 38.418401 
L 148.374998 30.861077 
L 149.183946 33.380185 
L 149.992895 38.418401 
L 150.804549 30.861077 
L 151.618908 30.861077 
L 152.426504 40.93751 
L 154.05387 30.861077 
L 154.868229 33.380185 
L 156.490184 33.380185 
L 157.29778 28.341968 
L 158.117551 33.380185 
L 158.925146 33.380185 
L 159.739506 30.861077 
L 160.549807 35.899293 
L 161.360108 33.380185 
L 163.79507 33.380185 
L 164.612135 30.861077 
L 167.045744 30.861077 
L 167.854692 38.418401 
L 168.669051 38.418401 
L 169.482058 30.861077 
L 170.293712 28.341968 
L 171.104013 33.380185 
L 171.912962 30.861077 
L 173.537622 30.861077 
L 175.968526 23.303752 
L 176.778827 25.82286 
L 178.398076 25.82286 
L 180.021384 30.861077 
L 180.834391 28.341968 
L 182.456346 33.380185 
L 183.268 30.861077 
L 184.081007 30.861077 
L 186.520027 23.303752 
L 187.330328 25.82286 
L 188.141982 25.82286 
L 188.953636 30.861077 
L 189.766642 28.341968 
L 191.391303 33.380185 
L 192.202957 38.418401 
L 193.014611 33.380185 
L 193.827617 38.418401 
L 195.452278 43.456618 
L 196.263932 35.899293 
L 197.076938 38.418401 
L 197.889945 33.380185 
L 200.327612 40.93751 
L 201.139266 45.975726 
L 201.952273 45.975726 
L 202.766632 43.456618 
L 203.576934 38.418401 
L 204.38994 43.456618 
L 205.202947 38.418401 
L 206.014601 38.418401 
L 206.827608 33.380185 
L 207.639261 38.418401 
L 208.452268 35.899293 
L 209.263922 38.418401 
L 210.076929 33.380185 
L 211.698884 33.380185 
L 212.51189 30.861077 
L 213.324897 35.899293 
L 214.948205 25.82286 
L 215.758506 30.861077 
L 216.572866 25.82286 
L 217.385872 28.341968 
L 218.197526 28.341968 
L 219.007827 25.82286 
L 219.820834 25.82286 
L 220.633841 23.303752 
L 221.444142 28.341968 
L 223.070155 23.303752 
L 223.881809 25.82286 
L 224.694816 25.82286 
L 225.511881 28.341968 
L 227.129777 28.341968 
L 227.771654 30.330827 
L 227.771654 30.330827 
" clip-path="url(#p0921e4fd2e)" style="fill: none; stroke: #8c3bff; stroke-opacity: 0.5; stroke-width: 2; stroke-linecap: square"/>
   </g>
   <g id="line2d_13">
    <path d="M 41.13793 73.685917 
L 41.950937 38.418401 
L 42.753121 33.380185 
L 43.563422 38.418401 
L 44.376429 30.861077 
L 45.18673 33.380185 
L 46.002442 38.418401 
L 46.812743 35.899293 
L 47.628456 38.418401 
L 48.44011 35.899293 
L 49.253116 35.899293 
L 50.063417 40.93751 
L 50.875071 35.899293 
L 52.499732 35.899293 
L 53.310033 33.380185 
L 54.125745 35.899293 
L 55.749053 35.899293 
L 56.559354 33.380185 
L 57.373714 35.899293 
L 58.185368 35.899293 
L 58.998374 38.418401 
L 61.434689 30.861077 
L 62.24499 33.380185 
L 63.056644 28.341968 
L 63.868298 28.341968 
L 64.679952 30.861077 
L 67.114913 30.861077 
L 67.92792 33.380185 
L 68.740927 25.82286 
L 70.365587 30.861077 
L 73.614909 30.861077 
L 74.426562 35.899293 
L 75.238216 33.380185 
L 77.675884 33.380185 
L 78.487538 35.899293 
L 79.299191 33.380185 
L 80.925205 33.380185 
L 81.738211 30.861077 
L 82.553924 33.380185 
L 83.364225 33.380185 
L 84.174526 30.861077 
L 84.98618 30.861077 
L 85.800539 33.380185 
L 86.612193 28.341968 
L 87.4252 25.82286 
L 88.236854 25.82286 
L 89.049861 28.341968 
L 89.861514 28.341968 
L 90.673168 25.82286 
L 91.487528 25.82286 
L 92.299182 30.861077 
L 93.110836 28.341968 
L 93.923842 28.341968 
L 95.549856 33.380185 
L 96.362862 30.861077 
L 97.984817 30.861077 
L 98.796471 35.899293 
L 99.609478 33.380185 
L 101.234139 33.380185 
L 102.045792 35.899293 
L 102.858799 35.899293 
L 103.6691 33.380185 
L 104.480754 33.380185 
L 106.105415 38.418401 
L 107.731428 33.380185 
L 109.354736 33.380185 
L 110.167743 35.899293 
L 110.979397 33.380185 
L 111.79105 33.380185 
L 112.602704 30.861077 
L 113.415711 30.861077 
L 114.228718 28.341968 
L 117.479392 28.341968 
L 118.292398 25.82286 
L 119.104052 25.82286 
L 119.918412 28.341968 
L 122.358784 28.341968 
L 123.171791 30.861077 
L 123.984798 28.341968 
L 124.799157 28.341968 
L 125.610811 25.82286 
L 126.423818 30.861077 
L 127.236825 28.341968 
L 128.048478 28.341968 
L 128.865543 23.303752 
L 129.677197 23.303752 
L 130.488851 25.82286 
L 131.303211 23.303752 
L 132.118923 23.303752 
L 133.746289 28.341968 
L 134.559296 25.82286 
L 135.372302 25.82286 
L 136.998316 30.861077 
L 138.621623 25.82286 
L 139.43463 33.380185 
L 140.24899 28.341968 
L 141.060643 28.341968 
L 141.875003 25.82286 
L 143.499663 30.861077 
L 144.314023 40.93751 
L 145.124324 30.861077 
L 145.935978 33.380185 
L 147.559286 33.380185 
L 148.374998 30.861077 
L 149.183946 35.899293 
L 149.992895 33.380185 
L 151.618908 33.380185 
L 152.426504 40.93751 
L 154.05387 30.861077 
L 154.868229 35.899293 
L 155.679883 30.861077 
L 156.490184 33.380185 
L 157.29778 33.380185 
L 158.117551 30.861077 
L 158.925146 33.380185 
L 159.739506 33.380185 
L 160.549807 35.899293 
L 161.360108 33.380185 
L 162.17582 35.899293 
L 162.984768 33.380185 
L 167.045744 33.380185 
L 168.669051 38.418401 
L 169.482058 33.380185 
L 170.293712 30.861077 
L 171.104013 33.380185 
L 171.912962 33.380185 
L 172.72191 35.899293 
L 173.537622 33.380185 
L 178.398076 33.380185 
L 179.211083 35.899293 
L 180.021384 35.899293 
L 180.834391 30.861077 
L 182.456346 30.861077 
L 184.081007 35.899293 
L 184.895366 35.899293 
L 186.520027 30.861077 
L 187.330328 30.861077 
L 188.141982 33.380185 
L 188.953636 33.380185 
L 189.766642 30.861077 
L 190.578296 30.861077 
L 191.391303 25.82286 
L 192.202957 28.341968 
L 193.014611 25.82286 
L 193.827617 28.341968 
L 195.452278 28.341968 
L 196.263932 23.303752 
L 197.076938 25.82286 
L 197.889945 15.746427 
L 198.701599 23.303752 
L 200.327612 23.303752 
L 201.139266 30.861077 
L 202.766632 25.82286 
L 204.38994 30.861077 
L 205.202947 25.82286 
L 206.014601 28.341968 
L 206.827608 25.82286 
L 207.639261 28.341968 
L 208.452268 28.341968 
L 209.263922 30.861077 
L 210.076929 30.861077 
L 210.888583 28.341968 
L 211.698884 35.899293 
L 212.51189 30.861077 
L 213.324897 35.899293 
L 214.136551 33.380185 
L 215.758506 33.380185 
L 216.572866 30.861077 
L 217.385872 35.899293 
L 218.197526 33.380185 
L 219.820834 33.380185 
L 220.633841 30.861077 
L 221.444142 35.899293 
L 222.257148 33.380185 
L 223.070155 28.341968 
L 223.881809 28.341968 
L 225.511881 33.380185 
L 226.319476 33.380185 
L 227.129777 30.861077 
L 227.771654 30.861077 
L 227.771654 30.861077 
" clip-path="url(#p0921e4fd2e)" style="fill: none; stroke: #018700; stroke-opacity: 0.5; stroke-width: 2; stroke-linecap: square"/>
   </g>
   <g id="line2d_14">
    <path d="M 41.13793 73.685917 
L 41.950937 35.899293 
L 42.753121 28.341968 
L 43.563422 33.380185 
L 44.376429 30.861077 
L 45.18673 25.82286 
L 46.002442 33.380185 
L 46.812743 30.861077 
L 47.628456 38.418401 
L 48.44011 35.899293 
L 49.253116 35.899293 
L 50.063417 38.418401 
L 50.875071 35.899293 
L 52.499732 35.899293 
L 53.310033 33.380185 
L 54.125745 35.899293 
L 55.749053 35.899293 
L 56.559354 33.380185 
L 58.185368 33.380185 
L 58.998374 38.418401 
L 59.810028 30.861077 
L 61.434689 25.82286 
L 62.24499 28.341968 
L 63.056644 23.303752 
L 63.868298 25.82286 
L 65.492958 25.82286 
L 66.30326 23.303752 
L 67.114913 23.303752 
L 67.92792 20.784644 
L 68.740927 23.303752 
L 70.365587 23.303752 
L 71.178594 25.82286 
L 72.801902 25.82286 
L 73.614909 30.861077 
L 74.426562 33.380185 
L 80.925205 33.380185 
L 81.738211 25.82286 
L 82.553924 30.861077 
L 83.364225 25.82286 
L 84.174526 23.303752 
L 84.98618 25.82286 
L 85.800539 30.861077 
L 87.4252 20.784644 
L 88.236854 18.265535 
L 89.049861 18.265535 
L 90.673168 23.303752 
L 91.487528 20.784644 
L 92.299182 25.82286 
L 93.110836 23.303752 
L 93.923842 23.303752 
L 94.736849 28.341968 
L 95.549856 30.861077 
L 96.362862 25.82286 
L 97.174516 28.341968 
L 97.984817 28.341968 
L 98.796471 33.380185 
L 101.234139 33.380185 
L 102.045792 35.899293 
L 103.6691 35.899293 
L 104.480754 33.380185 
L 106.105415 38.418401 
L 106.918421 33.380185 
L 107.731428 30.861077 
L 108.541729 33.380185 
L 109.354736 30.861077 
L 110.167743 33.380185 
L 111.79105 28.341968 
L 113.415711 28.341968 
L 114.228718 25.82286 
L 115.040372 20.784644 
L 115.853378 20.784644 
L 116.666385 23.303752 
L 118.292398 23.303752 
L 119.104052 20.784644 
L 119.918412 20.784644 
L 121.544425 25.82286 
L 122.358784 23.303752 
L 123.171791 30.861077 
L 123.984798 23.303752 
L 125.610811 18.265535 
L 126.423818 23.303752 
L 127.236825 23.303752 
L 128.048478 18.265535 
L 128.865543 18.265535 
L 129.677197 15.746427 
L 131.303211 20.784644 
L 132.118923 18.265535 
L 132.934635 20.784644 
L 133.746289 25.82286 
L 134.559296 20.784644 
L 135.372302 20.784644 
L 136.181251 23.303752 
L 137.811322 23.303752 
L 138.621623 25.82286 
L 141.060643 25.82286 
L 141.875003 23.303752 
L 143.499663 28.341968 
L 144.314023 38.418401 
L 145.124324 28.341968 
L 146.747632 33.380185 
L 147.559286 33.380185 
L 148.374998 30.861077 
L 149.992895 35.899293 
L 150.804549 30.861077 
L 151.618908 33.380185 
L 152.426504 40.93751 
L 153.243569 33.380185 
L 154.05387 30.861077 
L 154.868229 35.899293 
L 155.679883 30.861077 
L 156.490184 33.380185 
L 157.29778 33.380185 
L 158.117551 30.861077 
L 158.925146 33.380185 
L 159.739506 30.861077 
L 160.549807 33.380185 
L 161.360108 33.380185 
L 162.17582 35.899293 
L 162.984768 33.380185 
L 167.045744 33.380185 
L 167.854692 35.899293 
L 168.669051 35.899293 
L 169.482058 33.380185 
L 170.293712 35.899293 
L 171.104013 33.380185 
L 171.912962 33.380185 
L 172.72191 35.899293 
L 173.537622 33.380185 
L 175.158224 33.380185 
L 175.968526 30.861077 
L 176.778827 30.861077 
L 177.587775 33.380185 
L 178.398076 30.861077 
L 179.211083 30.861077 
L 180.021384 35.899293 
L 181.644692 25.82286 
L 182.456346 25.82286 
L 183.268 28.341968 
L 184.081007 33.380185 
L 184.895366 35.899293 
L 185.70702 30.861077 
L 186.520027 30.861077 
L 187.330328 28.341968 
L 188.141982 30.861077 
L 188.953636 30.861077 
L 189.766642 28.341968 
L 190.578296 23.303752 
L 191.391303 20.784644 
L 192.202957 30.861077 
L 193.014611 18.265535 
L 195.452278 25.82286 
L 196.263932 18.265535 
L 197.076938 20.784644 
L 197.889945 13.227319 
L 198.701599 15.746427 
L 199.515958 20.784644 
L 201.139266 25.82286 
L 201.952273 23.303752 
L 202.766632 23.303752 
L 203.576934 25.82286 
L 204.38994 25.82286 
L 205.202947 23.303752 
L 206.014601 25.82286 
L 206.827608 23.303752 
L 209.263922 30.861077 
L 210.076929 28.341968 
L 210.888583 28.341968 
L 211.698884 35.899293 
L 212.51189 30.861077 
L 213.324897 33.380185 
L 214.948205 33.380185 
L 215.758506 35.899293 
L 216.572866 30.861077 
L 217.385872 33.380185 
L 219.820834 33.380185 
L 220.633841 30.861077 
L 221.444142 33.380185 
L 222.257148 30.861077 
L 223.070155 25.82286 
L 223.881809 28.341968 
L 224.694816 28.341968 
L 225.511881 30.861077 
L 226.319476 30.861077 
L 227.129777 25.82286 
L 227.771654 27.811719 
L 227.771654 27.811719 
" clip-path="url(#p0921e4fd2e)" style="fill: none; stroke: #00acc6; stroke-opacity: 0.5; stroke-width: 2; stroke-linecap: square"/>
   </g>
   <g id="line2d_15">
    <path d="M 41.13793 78.724134 
L 41.950937 56.052159 
L 42.753121 48.494835 
L 43.563422 51.013943 
L 45.18673 40.93751 
L 46.812743 35.899293 
L 48.44011 35.899293 
L 49.253116 33.380185 
L 50.063417 35.899293 
L 50.875071 33.380185 
L 52.499732 33.380185 
L 53.310033 30.861077 
L 54.125745 30.861077 
L 54.937399 33.380185 
L 55.749053 33.380185 
L 56.559354 30.861077 
L 57.373714 30.861077 
L 58.998374 40.93751 
L 59.810028 33.380185 
L 61.434689 38.418401 
L 62.24499 43.456618 
L 63.056644 40.93751 
L 64.679952 45.975726 
L 65.492958 45.975726 
L 66.30326 43.456618 
L 67.114913 43.456618 
L 67.92792 45.975726 
L 68.740927 45.975726 
L 69.552581 48.494835 
L 71.990248 40.93751 
L 72.801902 43.456618 
L 73.614909 40.93751 
L 74.426562 43.456618 
L 76.04987 33.380185 
L 76.861524 33.380185 
L 77.675884 30.861077 
L 79.299191 30.861077 
L 80.925205 35.899293 
L 81.738211 33.380185 
L 82.553924 38.418401 
L 84.174526 38.418401 
L 84.98618 43.456618 
L 85.800539 51.013943 
L 86.612193 43.456618 
L 91.487528 43.456618 
L 92.299182 48.494835 
L 93.110836 45.975726 
L 93.923842 48.494835 
L 95.549856 43.456618 
L 97.984817 43.456618 
L 98.796471 40.93751 
L 99.609478 43.456618 
L 100.421132 43.456618 
L 101.234139 38.418401 
L 102.858799 38.418401 
L 103.6691 33.380185 
L 105.292408 33.380185 
L 106.105415 35.899293 
L 106.918421 33.380185 
L 107.731428 28.341968 
L 108.541729 30.861077 
L 109.354736 30.861077 
L 110.167743 33.380185 
L 115.040372 33.380185 
L 115.853378 35.899293 
L 116.666385 35.899293 
L 118.292398 40.93751 
L 119.104052 40.93751 
L 119.918412 38.418401 
L 120.731418 43.456618 
L 121.544425 45.975726 
L 122.358784 45.975726 
L 123.171791 48.494835 
L 123.984798 43.456618 
L 125.610811 43.456618 
L 126.423818 45.975726 
L 127.236825 43.456618 
L 128.048478 45.975726 
L 128.865543 40.93751 
L 129.677197 38.418401 
L 131.303211 43.456618 
L 132.934635 43.456618 
L 133.746289 48.494835 
L 135.372302 43.456618 
L 136.998316 48.494835 
L 137.811322 40.93751 
L 138.621623 48.494835 
L 139.43463 43.456618 
L 140.24899 40.93751 
L 141.060643 40.93751 
L 141.875003 38.418401 
L 142.689362 40.93751 
L 143.499663 40.93751 
L 144.314023 51.013943 
L 145.124324 40.93751 
L 145.935978 38.418401 
L 147.559286 43.456618 
L 148.374998 38.418401 
L 149.992895 38.418401 
L 150.804549 33.380185 
L 151.618908 35.899293 
L 152.426504 45.975726 
L 153.243569 38.418401 
L 154.05387 33.380185 
L 154.868229 38.418401 
L 155.679883 35.899293 
L 156.490184 35.899293 
L 157.29778 38.418401 
L 162.984768 38.418401 
L 163.79507 35.899293 
L 164.612135 38.418401 
L 165.425141 38.418401 
L 167.045744 33.380185 
L 167.854692 38.418401 
L 168.669051 40.93751 
L 169.482058 35.899293 
L 170.293712 38.418401 
L 171.104013 35.899293 
L 171.912962 35.899293 
L 172.72191 33.380185 
L 173.537622 35.899293 
L 175.158224 30.861077 
L 176.778827 30.861077 
L 177.587775 33.380185 
L 178.398076 33.380185 
L 180.021384 38.418401 
L 180.834391 33.380185 
L 181.644692 35.899293 
L 184.081007 35.899293 
L 185.70702 30.861077 
L 186.520027 30.861077 
L 187.330328 28.341968 
L 188.141982 33.380185 
L 188.953636 35.899293 
L 189.766642 33.380185 
L 190.578296 35.899293 
L 191.391303 35.899293 
L 192.202957 45.975726 
L 193.014611 38.418401 
L 193.827617 40.93751 
L 194.639271 45.975726 
L 195.452278 48.494835 
L 196.263932 40.93751 
L 197.076938 40.93751 
L 197.889945 38.418401 
L 200.327612 45.975726 
L 201.139266 51.013943 
L 202.766632 45.975726 
L 203.576934 48.494835 
L 204.38994 48.494835 
L 205.202947 40.93751 
L 206.014601 43.456618 
L 206.827608 35.899293 
L 207.639261 40.93751 
L 208.452268 43.456618 
L 210.076929 38.418401 
L 210.888583 38.418401 
L 211.698884 40.93751 
L 212.51189 35.899293 
L 213.324897 38.418401 
L 214.136551 38.418401 
L 214.948205 33.380185 
L 215.758506 33.380185 
L 216.572866 28.341968 
L 217.385872 33.380185 
L 218.197526 30.861077 
L 219.007827 33.380185 
L 219.820834 33.380185 
L 220.633841 30.861077 
L 221.444142 33.380185 
L 222.257148 33.380185 
L 223.070155 28.341968 
L 224.694816 33.380185 
L 227.129777 33.380185 
L 227.771654 35.369044 
L 227.771654 35.369044 
" clip-path="url(#p0921e4fd2e)" style="fill: none; stroke: #97ff00; stroke-opacity: 0.5; stroke-width: 2; stroke-linecap: square"/>
   </g>
   <g id="line2d_16">
    <path d="M 41.13793 86.281458 
L 41.950937 58.571268 
L 42.753121 48.494835 
L 43.563422 35.899293 
L 44.376429 28.341968 
L 45.18673 18.265535 
L 46.002442 15.746427 
L 46.812743 15.746427 
L 47.628456 20.784644 
L 49.253116 20.784644 
L 50.063417 30.861077 
L 50.875071 28.341968 
L 51.686725 28.341968 
L 52.499732 25.82286 
L 54.125745 25.82286 
L 54.937399 23.303752 
L 55.749053 25.82286 
L 56.559354 23.303752 
L 57.373714 18.265535 
L 58.185368 18.265535 
L 58.998374 25.82286 
L 59.810028 15.746427 
L 61.434689 15.746427 
L 62.24499 25.82286 
L 63.056644 18.265535 
L 63.868298 25.82286 
L 64.679952 30.861077 
L 66.30326 35.899293 
L 67.92792 45.975726 
L 68.740927 45.975726 
L 70.365587 51.013943 
L 71.990248 51.013943 
L 72.801902 48.494835 
L 74.426562 48.494835 
L 75.238216 40.93751 
L 76.04987 40.93751 
L 76.861524 38.418401 
L 77.675884 28.341968 
L 78.487538 23.303752 
L 79.299191 25.82286 
L 80.112198 23.303752 
L 81.738211 13.227319 
L 82.553924 15.746427 
L 83.364225 15.746427 
L 84.174526 18.265535 
L 84.98618 25.82286 
L 85.800539 30.861077 
L 86.612193 25.82286 
L 87.4252 30.861077 
L 88.236854 38.418401 
L 89.049861 38.418401 
L 90.673168 43.456618 
L 91.487528 48.494835 
L 92.299182 51.013943 
L 93.110836 48.494835 
L 94.736849 53.533051 
L 95.549856 53.533051 
L 96.362862 48.494835 
L 97.174516 51.013943 
L 97.984817 45.975726 
L 98.796471 51.013943 
L 99.609478 48.494835 
L 100.421132 48.494835 
L 101.234139 45.975726 
L 102.858799 45.975726 
L 103.6691 35.899293 
L 104.480754 33.380185 
L 106.105415 33.380185 
L 106.918421 28.341968 
L 107.731428 20.784644 
L 108.541729 20.784644 
L 109.354736 18.265535 
L 111.79105 18.265535 
L 112.602704 13.227319 
L 115.040372 13.227319 
L 115.853378 15.746427 
L 116.666385 15.746427 
L 118.292398 20.784644 
L 119.104052 20.784644 
L 119.918412 18.265535 
L 120.731418 23.303752 
L 121.544425 30.861077 
L 122.358784 30.861077 
L 123.171791 33.380185 
L 123.984798 30.861077 
L 124.799157 33.380185 
L 125.610811 33.380185 
L 126.423818 35.899293 
L 127.236825 33.380185 
L 128.048478 40.93751 
L 128.865543 40.93751 
L 129.677197 38.418401 
L 130.488851 40.93751 
L 131.303211 45.975726 
L 132.118923 45.975726 
L 132.934635 48.494835 
L 133.746289 53.533051 
L 134.559296 48.494835 
L 135.372302 51.013943 
L 136.181251 51.013943 
L 136.998316 53.533051 
L 137.811322 51.013943 
L 138.621623 56.052159 
L 139.43463 51.013943 
L 141.060643 45.975726 
L 141.875003 48.494835 
L 142.689362 43.456618 
L 143.499663 48.494835 
L 144.314023 61.090376 
L 145.124324 48.494835 
L 145.935978 48.494835 
L 146.747632 45.975726 
L 147.559286 51.013943 
L 148.374998 43.456618 
L 149.992895 48.494835 
L 150.804549 40.93751 
L 151.618908 43.456618 
L 152.426504 56.052159 
L 153.243569 48.494835 
L 154.05387 43.456618 
L 154.868229 48.494835 
L 155.679883 43.456618 
L 156.490184 45.975726 
L 157.29778 43.456618 
L 158.925146 48.494835 
L 159.739506 43.456618 
L 160.549807 48.494835 
L 161.360108 43.456618 
L 162.17582 45.975726 
L 162.984768 45.975726 
L 164.612135 40.93751 
L 165.425141 43.456618 
L 166.232737 40.93751 
L 167.045744 43.456618 
L 167.854692 48.494835 
L 168.669051 48.494835 
L 169.482058 40.93751 
L 170.293712 48.494835 
L 171.104013 43.456618 
L 171.912962 43.456618 
L 172.72191 40.93751 
L 173.537622 40.93751 
L 175.158224 30.861077 
L 175.968526 28.341968 
L 177.587775 28.341968 
L 178.398076 20.784644 
L 179.211083 20.784644 
L 180.021384 23.303752 
L 180.834391 15.746427 
L 181.644692 18.265535 
L 182.456346 15.746427 
L 183.268 15.746427 
L 184.081007 20.784644 
L 184.895366 30.861077 
L 185.70702 23.303752 
L 186.520027 23.303752 
L 187.330328 18.265535 
L 188.141982 15.746427 
L 188.953636 18.265535 
L 189.766642 13.227319 
L 190.578296 13.227319 
L 191.391303 15.746427 
L 192.202957 25.82286 
L 193.014611 20.784644 
L 195.452278 35.899293 
L 196.263932 33.380185 
L 197.076938 38.418401 
L 197.889945 35.899293 
L 199.515958 45.975726 
L 200.327612 45.975726 
L 201.139266 56.052159 
L 201.952273 51.013943 
L 202.766632 51.013943 
L 204.38994 56.052159 
L 205.202947 51.013943 
L 206.014601 53.533051 
L 206.827608 48.494835 
L 207.639261 48.494835 
L 208.452268 51.013943 
L 210.076929 45.975726 
L 210.888583 45.975726 
L 211.698884 48.494835 
L 212.51189 43.456618 
L 213.324897 48.494835 
L 214.136551 45.975726 
L 214.948205 38.418401 
L 215.758506 38.418401 
L 216.572866 30.861077 
L 217.385872 33.380185 
L 218.197526 28.341968 
L 219.007827 30.861077 
L 220.633841 25.82286 
L 222.257148 25.82286 
L 223.070155 23.303752 
L 224.694816 13.227319 
L 225.511881 18.265535 
L 226.319476 18.265535 
L 227.129777 15.746427 
L 227.771654 17.735286 
L 227.771654 17.735286 
" clip-path="url(#p0921e4fd2e)" style="fill: none; stroke: #ff7ed1; stroke-opacity: 0.5; stroke-width: 2; stroke-linecap: square"/>
   </g>
   <g id="line2d_17">
    <path d="M 41.13793 76.205025 
L 41.950937 35.899293 
L 42.753121 13.227319 
L 43.563422 8.189102 
L 46.812743 8.189102 
L 47.628456 18.265535 
L 48.44011 15.746427 
L 49.253116 15.746427 
L 50.063417 28.341968 
L 50.875071 23.303752 
L 51.686725 23.303752 
L 52.499732 20.784644 
L 53.310033 25.82286 
L 54.125745 25.82286 
L 56.559354 18.265535 
L 58.185368 18.265535 
L 58.998374 20.784644 
L 60.623035 10.708211 
L 61.434689 8.189102 
L 62.24499 10.708211 
L 63.056644 8.189102 
L 67.114913 8.189102 
L 68.740927 18.265535 
L 69.552581 15.746427 
L 70.365587 23.303752 
L 71.178594 28.341968 
L 71.990248 30.861077 
L 72.801902 30.861077 
L 73.614909 33.380185 
L 74.426562 38.418401 
L 75.238216 35.899293 
L 76.04987 35.899293 
L 76.861524 33.380185 
L 77.675884 28.341968 
L 78.487538 25.82286 
L 79.299191 20.784644 
L 80.112198 20.784644 
L 80.925205 15.746427 
L 81.738211 8.189102 
L 82.553924 10.708211 
L 83.364225 8.189102 
L 84.98618 8.189102 
L 85.800539 13.227319 
L 86.612193 8.189102 
L 89.861514 8.189102 
L 92.299182 23.303752 
L 93.110836 18.265535 
L 93.923842 25.82286 
L 94.736849 30.861077 
L 95.549856 38.418401 
L 96.362862 30.861077 
L 97.174516 35.899293 
L 97.984817 38.418401 
L 98.796471 38.418401 
L 99.609478 35.899293 
L 100.421132 40.93751 
L 101.234139 38.418401 
L 102.045792 40.93751 
L 104.480754 33.380185 
L 105.292408 33.380185 
L 106.105415 35.899293 
L 106.918421 28.341968 
L 107.731428 18.265535 
L 108.541729 20.784644 
L 109.354736 15.746427 
L 110.979397 20.784644 
L 111.79105 13.227319 
L 112.602704 10.708211 
L 113.415711 13.227319 
L 114.228718 8.189102 
L 122.358784 8.189102 
L 123.171791 13.227319 
L 123.984798 8.189102 
L 127.236825 8.189102 
L 128.048478 10.708211 
L 128.865543 10.708211 
L 129.677197 8.189102 
L 131.303211 13.227319 
L 132.118923 18.265535 
L 132.934635 15.746427 
L 133.746289 20.784644 
L 134.559296 23.303752 
L 136.181251 23.303752 
L 136.998316 28.341968 
L 137.811322 28.341968 
L 138.621623 33.380185 
L 140.24899 33.380185 
L 141.060643 35.899293 
L 141.875003 33.380185 
L 142.689362 35.899293 
L 143.499663 35.899293 
L 144.314023 48.494835 
L 145.124324 35.899293 
L 147.559286 43.456618 
L 148.374998 35.899293 
L 149.183946 40.93751 
L 149.992895 40.93751 
L 150.804549 35.899293 
L 151.618908 38.418401 
L 152.426504 51.013943 
L 153.243569 40.93751 
L 154.05387 38.418401 
L 154.868229 48.494835 
L 155.679883 40.93751 
L 157.29778 40.93751 
L 158.117551 38.418401 
L 158.925146 40.93751 
L 159.739506 40.93751 
L 160.549807 43.456618 
L 161.360108 40.93751 
L 162.17582 43.456618 
L 162.984768 40.93751 
L 164.612135 40.93751 
L 165.425141 38.418401 
L 167.045744 38.418401 
L 167.854692 40.93751 
L 168.669051 40.93751 
L 169.482058 38.418401 
L 170.293712 43.456618 
L 171.104013 40.93751 
L 171.912962 40.93751 
L 172.72191 38.418401 
L 173.537622 38.418401 
L 175.968526 30.861077 
L 176.778827 30.861077 
L 178.398076 20.784644 
L 179.211083 20.784644 
L 180.021384 23.303752 
L 180.834391 15.746427 
L 181.644692 13.227319 
L 182.456346 13.227319 
L 183.268 10.708211 
L 184.081007 23.303752 
L 184.895366 33.380185 
L 185.70702 25.82286 
L 186.520027 20.784644 
L 188.141982 15.746427 
L 188.953636 15.746427 
L 189.766642 10.708211 
L 190.578296 10.708211 
L 191.391303 8.189102 
L 192.202957 15.746427 
L 193.014611 8.189102 
L 193.827617 8.189102 
L 194.639271 10.708211 
L 195.452278 10.708211 
L 196.263932 8.189102 
L 198.701599 8.189102 
L 199.515958 15.746427 
L 200.327612 15.746427 
L 201.139266 25.82286 
L 201.952273 25.82286 
L 202.766632 23.303752 
L 203.576934 28.341968 
L 204.38994 30.861077 
L 205.202947 30.861077 
L 206.014601 33.380185 
L 206.827608 33.380185 
L 209.263922 40.93751 
L 210.076929 38.418401 
L 210.888583 38.418401 
L 211.698884 43.456618 
L 212.51189 40.93751 
L 214.136551 40.93751 
L 214.948205 35.899293 
L 215.758506 38.418401 
L 216.572866 33.380185 
L 217.385872 35.899293 
L 218.197526 30.861077 
L 219.007827 35.899293 
L 220.633841 25.82286 
L 221.444142 25.82286 
L 222.257148 28.341968 
L 223.070155 20.784644 
L 223.881809 20.784644 
L 224.694816 18.265535 
L 225.511881 20.784644 
L 226.319476 18.265535 
L 227.129777 18.265535 
L 227.771654 16.276677 
L 227.771654 16.276677 
" clip-path="url(#p0921e4fd2e)" style="fill: none; stroke: #6b004f; stroke-opacity: 0.5; stroke-width: 2; stroke-linecap: square"/>
   </g>
   <g id="patch_3">
    <path d="M 41.13793 108.953433 
L 41.13793 8.189102 
" style="fill: none; stroke: #000000; stroke-width: 0.8; stroke-linejoin: miter; stroke-linecap: square"/>
   </g>
   <g id="patch_4">
    <path d="M 216.455176 108.953433 
L 216.455176 8.189102 
" style="fill: none; stroke: #000000; stroke-width: 0.8; stroke-linejoin: miter; stroke-linecap: square"/>
   </g>
   <g id="patch_5">
    <path d="M 41.13793 108.953433 
L 216.455176 108.953433 
" style="fill: none; stroke: #000000; stroke-width: 0.8; stroke-linejoin: miter; stroke-linecap: square"/>
   </g>
   <g id="patch_6">
    <path d="M 41.13793 8.189102 
L 216.455176 8.189102 
" style="fill: none; stroke: #000000; stroke-width: 0.8; stroke-linejoin: miter; stroke-linecap: square"/>
   </g>
  </g>
 </g>
 <defs>
  <clipPath id="p0921e4fd2e">
   <rect x="41.13793" y="8.189102" width="175.317246" height="100.76433"/>
  </clipPath>
 </defs>
</svg>
