<?xml version="1.0" encoding="utf-8" standalone="no"?>
<!DOCTYPE svg PUBLIC "-//W3C//DTD SVG 1.1//EN"
  "http://www.w3.org/Graphics/SVG/1.1/DTD/svg11.dtd">
<svg xmlns:xlink="http://www.w3.org/1999/xlink" width="141.732283pt" height="151.181102pt" viewBox="0 0 141.732283 151.181102" xmlns="http://www.w3.org/2000/svg" version="1.1">
 <metadata>
  <rdf:RDF xmlns:dc="http://purl.org/dc/elements/1.1/" xmlns:cc="http://creativecommons.org/ns#" xmlns:rdf="http://www.w3.org/1999/02/22-rdf-syntax-ns#">
   <cc:Work>
    <dc:type rdf:resource="http://purl.org/dc/dcmitype/StillImage"/>
    <dc:date>2024-11-29T23:11:44.214100</dc:date>
    <dc:format>image/svg+xml</dc:format>
    <dc:creator>
     <cc:Agent>
      <dc:title>Matplotlib v3.5.3, https://matplotlib.org/</dc:title>
     </cc:Agent>
    </dc:creator>
   </cc:Work>
  </rdf:RDF>
 </metadata>
 <defs>
  <style type="text/css">*{stroke-linejoin: round; stroke-linecap: butt}</style>
 </defs>
 <g id="figure_1">
  <g id="patch_1">
   <path d="M 0 151.181102 
L 141.732283 151.181102 
L 141.732283 0 
L 0 0 
z
" style="fill: #ffffff"/>
  </g>
  <g id="axes_1">
   <g id="patch_2">
    <path d="M 40.91305 114.598919 
L 138.732043 114.598919 
L 138.732043 3.00024 
L 40.91305 3.00024 
z
" style="fill: #ffffff"/>
   </g>
   <g id="matplotlib.axis_1">
    <g id="xtick_1">
     <g id="line2d_1">
      <defs>
       <path id="m9f17afc8f5" d="M 0 0 
L 0 3.5 
" style="stroke: #000000; stroke-width: 0.8"/>
      </defs>
      <g>
       <use xlink:href="#m9f17afc8f5" x="61.699586" y="114.598919" style="stroke: #000000; stroke-width: 0.8"/>
      </g>
     </g>
     <g id="text_1">
      <!-- $\mathdefault{−1}$ -->
      <g transform="translate(54.123846 129.901098)scale(0.12 -0.12)">
       <defs>
        <path id="CMSY10-0" d="M 4218 1472 
C 4326 1472 4442 1472 4442 1600 
C 4442 1728 4326 1728 4218 1728 
L 755 1728 
C 646 1728 531 1728 531 1600 
C 531 1472 646 1472 755 1472 
L 4218 1472 
z
" transform="scale(0.015625)"/>
        <path id="CMR17-31" d="M 1702 4058 
C 1702 4192 1696 4192 1606 4192 
C 1357 3916 979 3827 621 3827 
C 602 3827 570 3827 563 3808 
C 557 3795 557 3782 557 3648 
C 755 3648 1088 3686 1344 3839 
L 1344 461 
C 1344 236 1331 160 781 160 
L 589 160 
L 589 0 
C 896 0 1216 0 1523 0 
C 1830 0 2150 0 2458 0 
L 2458 160 
L 2266 160 
C 1715 160 1702 230 1702 458 
L 1702 4058 
z
" transform="scale(0.015625)"/>
       </defs>
       <use xlink:href="#CMSY10-0" transform="scale(0.996264)"/>
       <use xlink:href="#CMR17-31" transform="translate(77.487468 0)scale(0.996264)"/>
      </g>
     </g>
    </g>
    <g id="xtick_2">
     <g id="line2d_2">
      <g>
       <use xlink:href="#m9f17afc8f5" x="102.4575" y="114.598919" style="stroke: #000000; stroke-width: 0.8"/>
      </g>
     </g>
     <g id="text_2">
      <!-- $\mathdefault{0}$ -->
      <g transform="translate(99.531005 129.901098)scale(0.12 -0.12)">
       <defs>
        <path id="CMR17-30" d="M 2688 2025 
C 2688 2416 2682 3080 2413 3591 
C 2176 4039 1798 4198 1466 4198 
C 1158 4198 768 4058 525 3597 
C 269 3118 243 2524 243 2025 
C 243 1661 250 1106 448 619 
C 723 -39 1216 -128 1466 -128 
C 1760 -128 2208 -7 2470 600 
C 2662 1042 2688 1559 2688 2025 
z
M 1466 -26 
C 1056 -26 813 325 723 812 
C 653 1188 653 1738 653 2096 
C 653 2588 653 2997 736 3387 
C 858 3929 1216 4096 1466 4096 
C 1728 4096 2067 3923 2189 3400 
C 2272 3036 2278 2607 2278 2096 
C 2278 1680 2278 1169 2202 792 
C 2067 95 1690 -26 1466 -26 
z
" transform="scale(0.015625)"/>
       </defs>
       <use xlink:href="#CMR17-30" transform="scale(0.996264)"/>
      </g>
     </g>
    </g>
    <g id="text_3">
     <!-- $\Delta z_\mathrm{focus}(t)$ [\mum] -->
     <g transform="translate(52.276683 145.19207)scale(0.12 -0.12)">
      <defs>
       <path id="CMR17-1" d="M 2598 4403 
C 2547 4512 2522 4512 2470 4512 
C 2394 4512 2387 4499 2342 4409 
L 269 109 
C 262 96 237 38 237 32 
C 237 6 243 0 358 0 
L 4576 0 
C 4691 0 4698 6 4698 32 
C 4698 38 4672 96 4666 109 
L 2598 4403 
z
M 2310 4038 
L 4083 358 
L 531 358 
L 2310 4038 
z
" transform="scale(0.015625)"/>
       <path id="CMMI12-7a" d="M 813 486 
C 1088 803 1312 1004 1632 1296 
C 2016 1632 2182 1793 2272 1891 
C 2720 2338 2944 2713 2944 2764 
C 2944 2816 2893 2816 2880 2816 
C 2835 2816 2822 2793 2790 2750 
C 2630 2494 2477 2367 2310 2367 
C 2176 2367 2106 2421 1984 2565 
C 1850 2715 1741 2816 1555 2816 
C 1088 2816 806 2257 806 2128 
C 806 2108 813 2068 870 2068 
C 922 2068 928 2091 947 2133 
C 1056 2372 1363 2414 1485 2414 
C 1619 2414 1747 2376 1882 2327 
C 2125 2240 2227 2240 2291 2240 
C 2336 2240 2362 2240 2394 2246 
C 2182 1994 1837 1683 1549 1418 
L 902 816 
C 512 415 275 33 275 -12 
C 275 -51 307 -64 346 -64 
C 384 -64 390 -57 435 14 
C 538 163 742 384 979 384 
C 1114 384 1178 342 1306 193 
C 1427 61 1536 -64 1741 -64 
C 2368 -64 2726 732 2726 876 
C 2726 903 2720 942 2656 942 
C 2605 942 2598 917 2579 855 
C 2438 488 2061 338 1811 338 
C 1677 338 1549 376 1414 425 
C 1158 512 1088 512 1005 512 
C 941 512 870 512 813 486 
z
" transform="scale(0.015625)"/>
       <path id="CMR17-66" d="M 979 2560 
L 1709 2560 
L 1709 2725 
L 966 2725 
L 966 3494 
C 966 4022 1235 4352 1510 4352 
C 1594 4352 1690 4327 1754 4282 
C 1702 4269 1568 4225 1568 4067 
C 1568 3901 1696 3850 1786 3850 
C 1875 3850 2003 3901 2003 4067 
C 2003 4308 1773 4454 1517 4454 
C 1152 4454 653 4156 653 3481 
L 653 2725 
L 141 2725 
L 141 2560 
L 653 2560 
L 653 427 
C 653 184 627 153 218 153 
L 218 -13 
C 371 0 666 0 832 0 
C 1018 0 1344 0 1517 -13 
L 1517 153 
C 1056 153 979 153 979 439 
L 979 2560 
z
" transform="scale(0.015625)"/>
       <path id="CMR17-6f" d="M 2758 1356 
C 2758 2176 2163 2816 1466 2816 
C 768 2816 173 2176 173 1356 
C 173 551 768 -64 1466 -64 
C 2163 -64 2758 551 2758 1356 
z
M 1466 51 
C 1165 51 909 230 762 480 
C 602 767 582 1126 582 1408 
C 582 1677 595 2010 762 2298 
C 890 2509 1139 2714 1466 2714 
C 1754 2714 1997 2554 2150 2330 
C 2349 2029 2349 1607 2349 1408 
C 2349 1158 2336 775 2163 467 
C 1984 173 1709 51 1466 51 
z
" transform="scale(0.015625)"/>
       <path id="CMR17-63" d="M 2234 2240 
C 2112 2240 1933 2240 1933 2017 
C 1933 1838 2080 1787 2163 1787 
C 2208 1787 2394 1807 2394 2024 
C 2394 2467 1958 2803 1466 2803 
C 787 2803 211 2178 211 1363 
C 211 516 813 -64 1466 -64 
C 2259 -64 2458 677 2458 748 
C 2458 774 2451 793 2406 793 
C 2362 793 2355 787 2330 703 
C 2163 180 1798 51 1523 51 
C 1114 51 621 427 621 1369 
C 621 2338 1094 2688 1472 2688 
C 1722 2688 2093 2573 2234 2240 
z
" transform="scale(0.015625)"/>
       <path id="CMR17-75" d="M 1882 2693 
L 1882 2528 
C 2259 2528 2317 2489 2317 2186 
L 2317 1032 
C 2317 500 2029 38 1555 38 
C 1030 38 986 348 986 678 
L 986 2763 
L 211 2693 
L 211 2528 
C 467 2528 640 2528 646 2274 
L 646 1058 
C 646 633 646 361 813 183 
C 896 101 1056 -64 1517 -64 
C 2061 -64 2272 377 2323 506 
L 2330 506 
L 2330 -63 
L 3091 -63 
L 3091 128 
C 2714 128 2656 166 2656 473 
L 2656 2763 
L 1882 2693 
z
" transform="scale(0.015625)"/>
       <path id="CMR17-73" d="M 1978 2697 
C 1978 2813 1971 2819 1933 2819 
C 1907 2819 1901 2813 1824 2717 
C 1805 2691 1747 2626 1728 2601 
C 1523 2819 1235 2819 1126 2819 
C 416 2819 160 2447 160 2076 
C 160 1498 813 1365 998 1325 
C 1402 1243 1542 1217 1677 1101 
C 1760 1025 1901 884 1901 654 
C 1901 384 1747 38 1158 38 
C 602 38 403 460 288 1021 
C 269 1110 269 1117 218 1117 
C 166 1117 160 1110 160 983 
L 160 63 
C 160 -51 166 -58 205 -58 
C 237 -58 243 -51 275 0 
C 314 57 410 211 448 276 
C 576 103 800 -64 1158 -64 
C 1792 -64 2131 283 2131 784 
C 2131 1112 1958 1285 1875 1362 
C 1683 1561 1459 1606 1190 1657 
C 838 1735 390 1825 390 2217 
C 390 2383 480 2737 1126 2737 
C 1811 2737 1850 2094 1862 1888 
C 1869 1856 1901 1849 1920 1849 
C 1978 1849 1978 1869 1978 1978 
L 1978 2697 
z
" transform="scale(0.015625)"/>
       <path id="CMR17-28" d="M 1958 -1561 
C 1958 -1555 1958 -1542 1939 -1523 
C 1645 -1224 858 -407 858 1581 
C 858 3569 1632 4379 1946 4697 
C 1946 4704 1958 4717 1958 4736 
C 1958 4755 1939 4768 1914 4768 
C 1843 4768 1299 4296 986 3594 
C 666 2887 576 2199 576 1588 
C 576 1128 621 351 1005 -471 
C 1312 -1135 1837 -1600 1914 -1600 
C 1946 -1600 1958 -1587 1958 -1561 
z
" transform="scale(0.015625)"/>
       <path id="CMMI12-74" d="M 1286 2566 
L 1875 2566 
C 1997 2566 2061 2566 2061 2681 
C 2061 2752 2022 2752 1894 2752 
L 1331 2752 
L 1568 3692 
C 1594 3781 1594 3794 1594 3840 
C 1594 3943 1510 4000 1427 4000 
C 1376 4000 1229 3981 1178 3775 
L 928 2752 
L 326 2752 
C 198 2752 141 2752 141 2630 
C 141 2566 186 2566 307 2566 
L 877 2566 
L 454 881 
C 403 658 384 594 384 511 
C 384 211 595 -64 954 -64 
C 1600 -64 1946 868 1946 912 
C 1946 951 1920 970 1882 970 
C 1869 970 1843 970 1830 944 
C 1824 938 1818 931 1773 829 
C 1638 511 1344 64 973 64 
C 781 64 768 224 768 364 
C 768 370 768 492 787 568 
L 1286 2566 
z
" transform="scale(0.015625)"/>
       <path id="CMR17-29" d="M 1683 1581 
C 1683 2040 1638 2817 1254 3639 
C 947 4303 422 4768 346 4768 
C 326 4768 301 4761 301 4729 
C 301 4717 307 4710 314 4697 
C 621 4378 1402 3568 1402 1584 
C 1402 -407 627 -1217 314 -1537 
C 307 -1549 301 -1556 301 -1568 
C 301 -1600 326 -1600 346 -1600 
C 416 -1600 960 -1128 1274 -426 
C 1594 281 1683 969 1683 1581 
z
" transform="scale(0.015625)"/>
       <path id="CMR17-5b" d="M 1504 -1600 
L 1504 -1377 
L 902 -1377 
L 902 4544 
L 1504 4544 
L 1504 4767 
L 678 4767 
L 678 -1600 
L 1504 -1600 
z
" transform="scale(0.015625)"/>
       <path id="CMMI12-16" d="M 922 140 
C 1082 -6 1318 -64 1536 -64 
C 1946 -64 2227 208 2374 405 
C 2438 69 2707 -64 2931 -64 
C 3123 -64 3277 50 3392 277 
C 3494 493 3584 879 3584 903 
C 3584 935 3558 960 3520 960 
C 3462 960 3456 928 3430 834 
C 3334 461 3213 64 2950 64 
C 2765 64 2752 229 2752 358 
C 2752 504 2810 735 2854 926 
L 3034 1615 
C 3059 1737 3130 2023 3162 2139 
C 3200 2292 3270 2567 3270 2592 
C 3270 2688 3194 2752 3098 2752 
C 3040 2752 2906 2726 2854 2535 
L 2406 760 
C 2374 632 2374 619 2291 517 
C 2214 409 1965 64 1562 64 
C 1203 64 1088 326 1088 625 
C 1088 811 1146 1034 1171 1143 
L 1459 2293 
C 1491 2414 1542 2618 1542 2657 
C 1542 2759 1459 2816 1376 2816 
C 1318 2816 1178 2797 1126 2592 
L 198 -1107 
C 192 -1139 179 -1177 179 -1216 
C 179 -1312 256 -1376 352 -1376 
C 538 -1376 576 -1228 621 -1050 
L 922 140 
z
" transform="scale(0.015625)"/>
       <path id="CMR17-6d" d="M 4326 1933 
C 4326 2252 4269 2790 3507 2790 
C 3072 2790 2771 2496 2656 2151 
L 2650 2151 
C 2573 2676 2195 2790 1837 2790 
C 1331 2790 1069 2400 973 2144 
L 966 2144 
L 966 2790 
L 211 2720 
L 211 2554 
C 589 2554 646 2515 646 2208 
L 646 428 
C 646 184 621 153 211 153 
L 211 -13 
C 365 0 646 0 813 0 
C 979 0 1267 0 1421 -13 
L 1421 153 
C 1011 153 986 178 986 428 
L 986 1658 
C 986 2247 1344 2688 1792 2688 
C 2266 2688 2317 2266 2317 1958 
L 2317 428 
C 2317 184 2291 153 1882 153 
L 1882 -13 
C 2035 0 2317 0 2483 0 
C 2650 0 2938 0 3091 -13 
L 3091 153 
C 2682 153 2656 178 2656 428 
L 2656 1658 
C 2656 2247 3014 2688 3462 2688 
C 3936 2688 3987 2266 3987 1958 
L 3987 428 
C 3987 184 3962 153 3552 153 
L 3552 -13 
C 3706 0 3987 0 4154 0 
C 4320 0 4608 0 4762 -13 
L 4762 153 
C 4352 153 4326 178 4326 428 
L 4326 1933 
z
" transform="scale(0.015625)"/>
       <path id="CMR17-5d" d="M 915 4767 
L 90 4767 
L 90 4544 
L 691 4544 
L 691 -1377 
L 90 -1377 
L 90 -1600 
L 915 -1600 
L 915 4767 
z
" transform="scale(0.015625)"/>
      </defs>
      <use xlink:href="#CMR17-1" transform="scale(0.996264)"/>
      <use xlink:href="#CMMI12-7a" transform="translate(76.91959 0)scale(0.996264)"/>
      <use xlink:href="#CMR17-66" transform="translate(122.235343 -14.943915)scale(0.697382)"/>
      <use xlink:href="#CMR17-6f" transform="translate(141.466707 -14.943915)scale(0.697382)"/>
      <use xlink:href="#CMR17-63" transform="translate(175.271595 -14.943915)scale(0.697382)"/>
      <use xlink:href="#CMR17-75" transform="translate(203.611427 -14.943915)scale(0.697382)"/>
      <use xlink:href="#CMR17-73" transform="translate(239.238035 -14.943915)scale(0.697382)"/>
      <use xlink:href="#CMR17-28" transform="translate(264.796989 0)scale(0.996264)"/>
      <use xlink:href="#CMMI12-74" transform="translate(300.077757 0)scale(0.996264)"/>
      <use xlink:href="#CMR17-29" transform="translate(335.304087 0)scale(0.996264)"/>
      <use xlink:href="#CMR17-5b" transform="translate(400.660821 0)scale(0.996264)"/>
      <use xlink:href="#CMMI12-16" transform="translate(425.53188 0)scale(0.996264)"/>
      <use xlink:href="#CMR17-6d" transform="translate(484.223301 0)scale(0.996264)"/>
      <use xlink:href="#CMR17-5d" transform="translate(561.142891 0)scale(0.996264)"/>
     </g>
    </g>
   </g>
   <g id="matplotlib.axis_2">
    <g id="ytick_1">
     <g id="line2d_3">
      <defs>
       <path id="m4681c2c3f1" d="M 0 0 
L -3.5 0 
" style="stroke: #000000; stroke-width: 0.8"/>
      </defs>
      <g>
       <use xlink:href="#m4681c2c3f1" x="40.91305" y="109.526251" style="stroke: #000000; stroke-width: 0.8"/>
      </g>
     </g>
     <g id="text_4">
      <!-- $\mathdefault{0.0}$ -->
      <g transform="translate(18.955408 113.677341)scale(0.12 -0.12)">
       <defs>
        <path id="CMMI12-3a" d="M 1178 307 
C 1178 492 1024 619 870 619 
C 685 619 557 466 557 313 
C 557 128 710 0 864 0 
C 1050 0 1178 153 1178 307 
z
" transform="scale(0.015625)"/>
       </defs>
       <use xlink:href="#CMR17-30" transform="scale(0.996264)"/>
       <use xlink:href="#CMMI12-3a" transform="translate(45.690477 0)scale(0.996264)"/>
       <use xlink:href="#CMR17-30" transform="translate(72.787654 0)scale(0.996264)"/>
      </g>
     </g>
    </g>
    <g id="ytick_2">
     <g id="line2d_4">
      <g>
       <use xlink:href="#m4681c2c3f1" x="40.91305" y="58.799579" style="stroke: #000000; stroke-width: 0.8"/>
      </g>
     </g>
     <g id="text_5">
      <!-- $\mathdefault{0.5}$ -->
      <g transform="translate(18.955408 62.950669)scale(0.12 -0.12)">
       <defs>
        <path id="CMR17-35" d="M 730 3692 
C 794 3666 1056 3584 1325 3584 
C 1920 3584 2246 3911 2432 4100 
C 2432 4157 2432 4192 2394 4192 
C 2387 4192 2374 4192 2323 4163 
C 2099 4058 1837 3973 1517 3973 
C 1325 3973 1037 3999 723 4139 
C 653 4171 640 4171 634 4171 
C 602 4171 595 4164 595 4037 
L 595 2203 
C 595 2089 595 2057 659 2057 
C 691 2057 704 2070 736 2114 
C 941 2401 1222 2522 1542 2522 
C 1766 2522 2246 2382 2246 1289 
C 2246 1085 2246 715 2054 421 
C 1894 159 1645 25 1370 25 
C 947 25 518 320 403 814 
C 429 807 480 795 506 795 
C 589 795 749 840 749 1038 
C 749 1210 627 1280 506 1280 
C 358 1280 262 1190 262 1011 
C 262 454 704 -128 1382 -128 
C 2042 -128 2669 440 2669 1264 
C 2669 2030 2170 2624 1549 2624 
C 1222 2624 947 2503 730 2274 
L 730 3692 
z
" transform="scale(0.015625)"/>
       </defs>
       <use xlink:href="#CMR17-30" transform="scale(0.996264)"/>
       <use xlink:href="#CMMI12-3a" transform="translate(45.690477 0)scale(0.996264)"/>
       <use xlink:href="#CMR17-35" transform="translate(72.787654 0)scale(0.996264)"/>
      </g>
     </g>
    </g>
    <g id="ytick_3">
     <g id="line2d_5">
      <g>
       <use xlink:href="#m4681c2c3f1" x="40.91305" y="8.072907" style="stroke: #000000; stroke-width: 0.8"/>
      </g>
     </g>
     <g id="text_6">
      <!-- $\mathdefault{1.0}$ -->
      <g transform="translate(18.955408 12.223997)scale(0.12 -0.12)">
       <use xlink:href="#CMR17-31" transform="scale(0.996264)"/>
       <use xlink:href="#CMMI12-3a" transform="translate(45.690477 0)scale(0.996264)"/>
       <use xlink:href="#CMR17-30" transform="translate(72.787654 0)scale(0.996264)"/>
      </g>
     </g>
    </g>
    <g id="text_7">
     <!-- $P/P_\mathrm{max}$ -->
     <g transform="translate(11.966616 77.639376)rotate(-90)scale(0.12 -0.12)">
      <defs>
       <path id="CMMI12-50" d="M 1894 2023 
L 2970 2023 
C 3853 2023 4736 2673 4736 3401 
C 4736 3898 4314 4352 3507 4352 
L 1530 4352 
C 1408 4352 1350 4352 1350 4231 
C 1350 4167 1408 4167 1504 4167 
C 1894 4167 1894 4116 1894 4046 
C 1894 4034 1894 3995 1869 3899 
L 1005 472 
C 947 249 934 185 486 185 
C 365 185 301 185 301 70 
C 301 0 358 0 397 0 
C 518 0 646 0 768 0 
L 1517 0 
C 1638 0 1773 0 1894 0 
C 1946 0 2016 0 2016 121 
C 2016 185 1958 185 1862 185 
C 1478 185 1472 230 1472 293 
C 1472 325 1478 369 1485 401 
L 1894 2023 
z
M 2355 3930 
C 2413 4167 2438 4167 2688 4167 
L 3322 4167 
C 3802 4167 4198 4013 4198 3535 
C 4198 3369 4115 2827 3821 2534 
C 3712 2419 3405 2176 2822 2176 
L 1920 2176 
L 2355 3930 
z
" transform="scale(0.015625)"/>
       <path id="CMMI12-3d" d="M 2746 4562 
C 2746 4569 2784 4666 2784 4678 
C 2784 4755 2720 4800 2669 4800 
C 2637 4800 2579 4800 2528 4659 
L 384 -1363 
C 384 -1370 346 -1465 346 -1478 
C 346 -1555 410 -1600 461 -1600 
C 499 -1600 557 -1593 602 -1459 
L 2746 4562 
z
" transform="scale(0.015625)"/>
       <path id="CMR17-61" d="M 2304 1653 
C 2304 2072 2304 2294 2035 2543 
C 1798 2752 1523 2816 1306 2816 
C 800 2816 435 2407 435 1971 
C 435 1728 627 1728 666 1728 
C 749 1728 896 1778 896 1954 
C 896 2112 774 2181 666 2181 
C 640 2181 608 2174 589 2168 
C 723 2592 1069 2714 1293 2714 
C 1613 2714 1965 2429 1965 1885 
L 1965 1600 
C 1587 1600 1133 1549 774 1357 
C 371 1133 256 813 256 570 
C 256 77 832 -64 1171 -64 
C 1523 -64 1850 139 1990 511 
C 2003 233 2182 -18 2464 -18 
C 2598 -18 2938 70 2938 567 
L 2938 920 
L 2822 920 
L 2822 562 
C 2822 178 2650 128 2566 128 
C 2304 128 2304 458 2304 738 
L 2304 1653 
z
M 1965 870 
C 1965 317 1568 38 1216 38 
C 896 38 646 275 646 570 
C 646 761 730 1100 1101 1305 
C 1408 1478 1760 1504 1965 1504 
L 1965 870 
z
" transform="scale(0.015625)"/>
       <path id="CMR17-78" d="M 1664 1477 
C 1856 1726 2074 2006 2253 2216 
C 2464 2458 2707 2560 2989 2560 
L 2989 2726 
C 2880 2726 2656 2726 2541 2726 
C 2368 2726 2170 2726 2022 2732 
L 2022 2566 
C 2112 2553 2163 2489 2163 2400 
C 2163 2285 2099 2215 2067 2171 
L 1594 1573 
L 1030 2306 
C 973 2376 973 2388 973 2420 
C 973 2497 1037 2560 1146 2560 
L 1146 2732 
C 992 2726 717 2726 557 2726 
C 384 2726 179 2726 38 2732 
L 38 2560 
C 384 2560 461 2534 614 2343 
L 1350 1395 
C 1363 1382 1395 1344 1395 1325 
C 1395 1299 838 619 768 530 
C 480 185 179 160 6 160 
L 6 0 
C 115 0 339 0 454 0 
C 582 0 864 0 979 -6 
L 979 160 
C 941 166 838 179 838 325 
C 838 440 890 510 947 586 
L 1478 1236 
L 2035 512 
C 2086 442 2163 346 2163 301 
C 2163 211 2086 160 1984 160 
L 1984 -6 
C 2138 0 2413 0 2573 0 
C 2746 0 2950 0 3091 -6 
L 3091 160 
C 2771 160 2675 172 2522 370 
L 1664 1477 
z
" transform="scale(0.015625)"/>
      </defs>
      <use xlink:href="#CMMI12-50" transform="scale(0.996264)"/>
      <use xlink:href="#CMMI12-3d" transform="translate(71.006385 0)scale(0.996264)"/>
      <use xlink:href="#CMMI12-50" transform="translate(119.781304 0)scale(0.996264)"/>
      <use xlink:href="#CMR17-6d" transform="translate(182.658536 -14.943915)scale(0.697382)"/>
      <use xlink:href="#CMR17-61" transform="translate(236.502003 -14.943915)scale(0.697382)"/>
      <use xlink:href="#CMR17-78" transform="translate(268.485185 -14.943915)scale(0.697382)"/>
     </g>
    </g>
   </g>
   <g id="line2d_6">
    <path d="M 40.91305 109.526251 
L 44.988841 109.526251 
L 49.064633 109.526251 
L 53.140424 109.526251 
L 57.216215 94.606642 
L 61.292007 88.638798 
L 65.367798 104.553048 
L 69.44359 108.531611 
L 73.519381 107.53697 
L 77.595172 107.53697 
L 81.670964 104.553048 
L 85.746755 102.563767 
L 89.822547 93.612001 
L 93.898338 67.751345 
L 97.974129 43.87997 
L 102.049921 10.062188 
L 106.125712 8.072907 
L 110.201504 52.831736 
L 114.277295 76.703111 
L 118.353086 98.585205 
L 122.428878 102.563767 
L 126.504669 105.547689 
L 130.580461 109.526251 
L 134.656252 108.531611 
L 138.732043 107.53697 
" clip-path="url(#p018995699a)" style="fill: none; stroke: #d60000; stroke-linecap: square"/>
   </g>
   <g id="line2d_7">
    <path d="M 40.91305 109.526251 
L 44.988841 109.526251 
L 49.064633 109.526251 
L 53.140424 107.390392 
L 57.216215 93.507302 
L 61.292007 94.575232 
L 65.367798 108.458322 
L 69.44359 105.254532 
L 73.519381 102.050742 
L 77.595172 109.526251 
L 81.670964 105.254532 
L 85.746755 102.050742 
L 89.822547 87.099723 
L 93.898338 76.420423 
L 97.974129 24.091856 
L 102.049921 8.072907 
L 106.125712 31.567366 
L 110.201504 16.616347 
L 114.277295 76.420423 
L 118.353086 92.439372 
L 122.428878 99.914882 
L 126.504669 109.526251 
L 130.580461 109.526251 
L 134.656252 109.526251 
L 138.732043 108.458322 
" clip-path="url(#p018995699a)" style="fill: none; stroke: #8c3bff; stroke-linecap: square"/>
   </g>
   <g id="line2d_8">
    <path d="M 40.91305 109.526251 
L 44.988841 109.526251 
L 49.064633 109.526251 
L 53.140424 109.526251 
L 57.216215 104.004981 
L 61.292007 99.864028 
L 65.367798 108.836093 
L 69.44359 108.145934 
L 73.519381 108.836093 
L 77.595172 106.075457 
L 81.670964 106.075457 
L 85.746755 106.765616 
L 89.822547 101.934505 
L 93.898338 94.342758 
L 97.974129 59.834818 
L 102.049921 8.072907 
L 106.125712 19.805607 
L 110.201504 79.849423 
L 114.277295 91.582123 
L 118.353086 106.075457 
L 122.428878 109.526251 
L 126.504669 109.526251 
L 130.580461 108.836093 
L 134.656252 108.836093 
L 138.732043 108.836093 
" clip-path="url(#p018995699a)" style="fill: none; stroke: #018700; stroke-linecap: square"/>
   </g>
   <g id="line2d_9">
    <path d="M 40.91305 109.526251 
L 44.988841 109.526251 
L 49.064633 109.526251 
L 53.140424 109.526251 
L 57.216215 103.010899 
L 61.292007 100.218605 
L 65.367798 107.664722 
L 69.44359 107.664722 
L 73.519381 108.595487 
L 77.595172 107.664722 
L 81.670964 103.010899 
L 85.746755 97.426311 
L 89.822547 97.426311 
L 93.898338 68.572608 
L 97.974129 26.6882 
L 102.049921 22.034377 
L 106.125712 8.072907 
L 110.201504 59.264962 
L 114.277295 76.94949 
L 118.353086 102.080134 
L 122.428878 105.803193 
L 126.504669 107.664722 
L 130.580461 108.595487 
L 134.656252 108.595487 
L 138.732043 109.526251 
" clip-path="url(#p018995699a)" style="fill: none; stroke: #00acc6; stroke-linecap: square"/>
   </g>
   <g id="line2d_10">
    <path d="M 40.91305 109.526251 
L 44.988841 109.526251 
L 49.064633 109.526251 
L 53.140424 108.521763 
L 57.216215 97.472389 
L 61.292007 101.490343 
L 65.367798 107.517274 
L 69.44359 109.526251 
L 73.519381 107.517274 
L 77.595172 106.512786 
L 81.670964 106.512786 
L 85.746755 100.485854 
L 89.822547 89.43648 
L 93.898338 65.328755 
L 97.974129 24.144724 
L 102.049921 8.072907 
L 106.125712 18.117793 
L 110.201504 37.203075 
L 114.277295 80.396083 
L 118.353086 98.476877 
L 122.428878 106.512786 
L 126.504669 108.521763 
L 130.580461 108.521763 
L 134.656252 109.526251 
L 138.732043 108.521763 
" clip-path="url(#p018995699a)" style="fill: none; stroke: #97ff00; stroke-linecap: square"/>
   </g>
   <g id="line2d_11">
    <path d="M 40.91305 109.526251 
L 44.988841 109.526251 
L 49.064633 109.526251 
L 53.140424 108.097331 
L 57.216215 103.09611 
L 61.292007 107.382871 
L 65.367798 108.097331 
L 69.44359 109.526251 
L 73.519381 109.526251 
L 77.595172 108.097331 
L 81.670964 106.668411 
L 85.746755 106.668411 
L 89.822547 93.808128 
L 93.898338 93.093668 
L 97.974129 33.793473 
L 102.049921 8.072907 
L 106.125712 44.510376 
L 110.201504 70.945402 
L 114.277295 91.664747 
L 118.353086 105.23949 
L 122.428878 109.526251 
L 126.504669 108.811791 
L 130.580461 108.811791 
L 134.656252 109.526251 
L 138.732043 108.097331 
" clip-path="url(#p018995699a)" style="fill: none; stroke: #ff7ed1; stroke-linecap: square"/>
   </g>
   <g id="line2d_12">
    <path d="M 40.91305 109.526251 
L 44.988841 109.526251 
L 49.064633 109.526251 
L 53.140424 108.739791 
L 57.216215 107.166871 
L 61.292007 100.875191 
L 65.367798 108.739791 
L 69.44359 109.526251 
L 73.519381 108.739791 
L 77.595172 108.739791 
L 81.670964 107.166871 
L 85.746755 103.234571 
L 89.822547 95.369971 
L 93.898338 75.70847 
L 97.974129 46.609449 
L 102.049921 11.218747 
L 106.125712 8.072907 
L 110.201504 69.41679 
L 114.277295 96.942891 
L 118.353086 107.953331 
L 122.428878 107.166871 
L 126.504669 107.953331 
L 130.580461 109.526251 
L 134.656252 109.526251 
L 138.732043 109.526251 
" clip-path="url(#p018995699a)" style="fill: none; stroke: #6b004f; stroke-linecap: square"/>
   </g>
   <g id="line2d_13">
    <path d="M 40.91305 109.526251 
L 44.988841 109.526251 
L 49.064633 109.526251 
L 53.140424 109.526251 
L 57.216215 105.56323 
L 61.292007 99.222396 
L 65.367798 108.733647 
L 69.44359 107.148439 
L 73.519381 106.355834 
L 77.595172 107.148439 
L 81.670964 107.941043 
L 85.746755 104.770626 
L 89.822547 99.222396 
L 93.898338 75.444269 
L 97.974129 43.740099 
L 102.049921 8.072907 
L 106.125712 25.510201 
L 110.201504 64.347809 
L 114.277295 96.051979 
L 118.353086 101.600209 
L 122.428878 107.941043 
L 126.504669 108.733647 
L 130.580461 109.526251 
L 134.656252 108.733647 
L 138.732043 108.733647 
" clip-path="url(#p018995699a)" style="fill: none; stroke: #ffa52f; stroke-linecap: square"/>
   </g>
   <g id="line2d_14">
    <path d="M 40.91305 109.526251 
L 44.988841 109.526251 
L 49.064633 109.526251 
L 53.140424 107.39786 
L 57.216215 104.560004 
L 61.292007 108.107324 
L 65.367798 109.526251 
L 69.44359 109.526251 
L 73.519381 108.816788 
L 77.595172 107.39786 
L 81.670964 108.107324 
L 85.746755 103.141076 
L 89.822547 97.465364 
L 93.898338 84.695013 
L 97.974129 44.965032 
L 102.049921 8.072907 
L 106.125712 35.032537 
L 110.201504 71.215198 
L 114.277295 97.465364 
L 118.353086 103.85054 
L 122.428878 109.526251 
L 126.504669 109.526251 
L 130.580461 109.526251 
L 134.656252 109.526251 
L 138.732043 108.816788 
" clip-path="url(#p018995699a)" style="fill: none; stroke: #573b00; stroke-linecap: square"/>
   </g>
   <g id="line2d_15">
    <path d="M 40.91305 109.526251 
L 44.988841 109.526251 
L 49.064633 109.526251 
L 53.140424 108.569144 
L 57.216215 107.612037 
L 61.292007 100.912288 
L 65.367798 107.612037 
L 69.44359 107.612037 
L 73.519381 107.612037 
L 77.595172 108.569144 
L 81.670964 106.65493 
L 85.746755 98.998074 
L 89.822547 84.641469 
L 93.898338 70.284864 
L 97.974129 29.129262 
L 102.049921 14.772656 
L 106.125712 8.072907 
L 110.201504 42.52876 
L 114.277295 86.555683 
L 118.353086 98.040967 
L 122.428878 107.612037 
L 126.504669 109.526251 
L 130.580461 109.526251 
L 134.656252 109.526251 
L 138.732043 109.526251 
" clip-path="url(#p018995699a)" style="fill: none; stroke: #005659; stroke-linecap: square"/>
   </g>
   <g id="line2d_16">
    <path d="M 40.91305 109.526251 
L 44.988841 109.526251 
L 49.064633 109.526251 
L 53.140424 108.673702 
L 57.216215 105.263506 
L 61.292007 104.410957 
L 65.367798 107.821153 
L 69.44359 108.673702 
L 73.519381 108.673702 
L 77.595172 106.968604 
L 81.670964 102.705859 
L 85.746755 103.558408 
L 89.822547 83.949778 
L 93.898338 67.751345 
L 97.974129 40.469773 
L 102.049921 8.072907 
L 106.125712 23.418791 
L 110.201504 66.898796 
L 114.277295 90.770171 
L 118.353086 103.558408 
L 122.428878 106.116055 
L 126.504669 108.673702 
L 130.580461 109.526251 
L 134.656252 109.526251 
L 138.732043 109.526251 
" clip-path="url(#p018995699a)" style="fill: none; stroke: #0000dd; stroke-linecap: square"/>
   </g>
   <g id="line2d_17">
    <path d="M 40.91305 109.526251 
L 44.988841 109.526251 
L 49.064633 109.526251 
L 53.140424 108.521763 
L 57.216215 101.490343 
L 61.292007 106.512786 
L 65.367798 109.526251 
L 69.44359 109.526251 
L 73.519381 108.521763 
L 77.595172 108.521763 
L 81.670964 107.517274 
L 85.746755 91.445457 
L 89.822547 78.387106 
L 93.898338 49.256938 
L 97.974129 8.072907 
L 102.049921 19.122281 
L 106.125712 21.131258 
L 110.201504 50.261427 
L 114.277295 91.445457 
L 118.353086 100.485854 
L 122.428878 106.512786 
L 126.504669 107.517274 
L 130.580461 108.521763 
L 134.656252 108.521763 
L 138.732043 108.521763 
" clip-path="url(#p018995699a)" style="fill: none; stroke: #00fdcf; stroke-linecap: square"/>
   </g>
   <g id="line2d_18">
    <path d="M 40.91305 109.526251 
L 44.988841 109.526251 
L 49.064633 109.526251 
L 53.140424 108.845357 
L 57.216215 106.802672 
L 61.292007 105.440882 
L 65.367798 108.164462 
L 69.44359 109.526251 
L 73.519381 109.526251 
L 77.595172 109.526251 
L 81.670964 108.845357 
L 85.746755 108.164462 
L 89.822547 98.631933 
L 93.898338 77.52419 
L 97.974129 35.989599 
L 102.049921 8.072907 
L 106.125712 39.394074 
L 110.201504 80.928664 
L 114.277295 102.717302 
L 118.353086 106.802672 
L 122.428878 108.845357 
L 126.504669 109.526251 
L 130.580461 109.526251 
L 134.656252 108.845357 
L 138.732043 108.845357 
" clip-path="url(#p018995699a)" style="fill: none; stroke: #a17569; stroke-linecap: square"/>
   </g>
   <g id="line2d_19">
    <path d="M 40.91305 109.526251 
L 44.988841 109.526251 
L 49.064633 109.526251 
L 53.140424 109.526251 
L 57.216215 104.956281 
L 61.292007 105.870275 
L 65.367798 108.612257 
L 69.44359 108.612257 
L 73.519381 109.526251 
L 77.595172 107.698263 
L 81.670964 102.214299 
L 85.746755 95.81634 
L 89.822547 84.848411 
L 93.898338 55.6006 
L 97.974129 22.696813 
L 102.049921 8.072907 
L 106.125712 28.180777 
L 110.201504 68.396517 
L 114.277295 88.504387 
L 118.353086 103.128293 
L 122.428878 105.870275 
L 126.504669 108.612257 
L 130.580461 108.612257 
L 134.656252 109.526251 
L 138.732043 108.612257 
" clip-path="url(#p018995699a)" style="fill: none; stroke: #bcb6ff; stroke-linecap: square"/>
   </g>
   <g id="line2d_20">
    <path d="M 40.91305 109.526251 
L 44.988841 109.526251 
L 49.064633 109.526251 
L 53.140424 108.831366 
L 57.216215 107.441594 
L 61.292007 105.356936 
L 65.367798 109.526251 
L 69.44359 109.526251 
L 73.519381 109.526251 
L 77.595172 108.831366 
L 81.670964 109.526251 
L 85.746755 101.18762 
L 89.822547 99.797849 
L 93.898338 79.646157 
L 97.974129 26.834827 
L 102.049921 8.072907 
L 106.125712 40.03766 
L 110.201504 83.815472 
L 114.277295 101.882506 
L 118.353086 107.441594 
L 122.428878 108.831366 
L 126.504669 109.526251 
L 130.580461 109.526251 
L 134.656252 109.526251 
L 138.732043 108.13648 
" clip-path="url(#p018995699a)" style="fill: none; stroke: #95b577; stroke-linecap: square"/>
   </g>
   <g id="line2d_21">
    <path d="M 40.91305 109.526251 
L 44.988841 109.526251 
L 49.064633 109.526251 
L 53.140424 109.526251 
L 57.216215 106.470428 
L 61.292007 105.859263 
L 65.367798 108.915087 
L 69.44359 109.526251 
L 73.519381 109.526251 
L 77.595172 109.526251 
L 81.670964 108.303922 
L 85.746755 108.303922 
L 89.822547 102.803439 
L 93.898338 91.802474 
L 97.974129 38.631143 
L 102.049921 8.072907 
L 106.125712 40.464638 
L 110.201504 85.690827 
L 114.277295 106.470428 
L 118.353086 108.915087 
L 122.428878 108.915087 
L 126.504669 109.526251 
L 130.580461 109.526251 
L 134.656252 109.526251 
L 138.732043 109.526251 
" clip-path="url(#p018995699a)" style="fill: none; stroke: #bf03b8; stroke-linecap: square"/>
   </g>
   <g id="patch_3">
    <path d="M 40.91305 114.598919 
L 40.91305 3.00024 
" style="fill: none; stroke: #000000; stroke-width: 0.8; stroke-linejoin: miter; stroke-linecap: square"/>
   </g>
   <g id="patch_4">
    <path d="M 138.732043 114.598919 
L 138.732043 3.00024 
" style="fill: none; stroke: #000000; stroke-width: 0.8; stroke-linejoin: miter; stroke-linecap: square"/>
   </g>
   <g id="patch_5">
    <path d="M 40.91305 114.598919 
L 138.732043 114.598919 
" style="fill: none; stroke: #000000; stroke-width: 0.8; stroke-linejoin: miter; stroke-linecap: square"/>
   </g>
   <g id="patch_6">
    <path d="M 40.91305 3.00024 
L 138.732043 3.00024 
" style="fill: none; stroke: #000000; stroke-width: 0.8; stroke-linejoin: miter; stroke-linecap: square"/>
   </g>
  </g>
 </g>
 <defs>
  <clipPath id="p018995699a">
   <rect x="40.91305" y="3.00024" width="97.818994" height="111.598679"/>
  </clipPath>
 </defs>
</svg>
