<?xml version="1.0" encoding="utf-8" standalone="no"?>
<!DOCTYPE svg PUBLIC "-//W3C//DTD SVG 1.1//EN"
  "http://www.w3.org/Graphics/SVG/1.1/DTD/svg11.dtd">
<svg xmlns:xlink="http://www.w3.org/1999/xlink" width="226.771654pt" height="151.181102pt" viewBox="0 0 226.771654 151.181102" xmlns="http://www.w3.org/2000/svg" version="1.1">
 <metadata>
  <rdf:RDF xmlns:dc="http://purl.org/dc/elements/1.1/" xmlns:cc="http://creativecommons.org/ns#" xmlns:rdf="http://www.w3.org/1999/02/22-rdf-syntax-ns#">
   <cc:Work>
    <dc:type rdf:resource="http://purl.org/dc/dcmitype/StillImage"/>
    <dc:date>2025-11-23T19:55:53.878324</dc:date>
    <dc:format>image/svg+xml</dc:format>
    <dc:creator>
     <cc:Agent>
      <dc:title>Matplotlib v3.9.1, https://matplotlib.org/</dc:title>
     </cc:Agent>
    </dc:creator>
   </cc:Work>
  </rdf:RDF>
 </metadata>
 <defs>
  <style type="text/css">*{stroke-linejoin: round; stroke-linecap: butt}</style>
 </defs>
 <g id="figure_1">
  <g id="patch_1">
   <path d="M 0 151.181102 
L 226.771654 151.181102 
L 226.771654 0 
L 0 0 
z
" style="fill: #ffffff"/>
  </g>
  <g id="axes_1">
   <g id="patch_2">
    <path d="M 41.13793 108.953433 
L 216.455176 108.953433 
L 216.455176 8.189102 
L 41.13793 8.189102 
z
" style="fill: #ffffff"/>
   </g>
   <g id="matplotlib.axis_1">
    <g id="xtick_1">
     <g id="line2d_1">
      <defs>
       <path id="m52cf88c3f4" d="M 0 0 
L 0 3.5 
" style="stroke: #000000; stroke-width: 0.8"/>
      </defs>
      <g>
       <use xlink:href="#m52cf88c3f4" x="41.13793" y="108.953433" style="stroke: #000000; stroke-width: 0.8"/>
      </g>
     </g>
     <g id="text_1">
      <!-- 00 -->
      <g transform="translate(33.821692 126.331158) scale(0.15 -0.15)">
       <defs>
        <path id="CMR17-30" d="M 2688 2025 
C 2688 2416 2682 3080 2413 3591 
C 2176 4039 1798 4198 1466 4198 
C 1158 4198 768 4058 525 3597 
C 269 3118 243 2524 243 2025 
C 243 1661 250 1106 448 619 
C 723 -39 1216 -128 1466 -128 
C 1760 -128 2208 -7 2470 600 
C 2662 1042 2688 1559 2688 2025 
z
M 1466 -26 
C 1056 -26 813 325 723 812 
C 653 1188 653 1738 653 2096 
C 653 2588 653 2997 736 3387 
C 858 3929 1216 4096 1466 4096 
C 1728 4096 2067 3923 2189 3400 
C 2272 3036 2278 2607 2278 2096 
C 2278 1680 2278 1169 2202 792 
C 2067 95 1690 -26 1466 -26 
z
" transform="scale(0.015625)"/>
       </defs>
       <use xlink:href="#CMR17-30" transform="scale(0.996264)"/>
       <use xlink:href="#CMR17-30" transform="translate(45.690477 0) scale(0.996264)"/>
      </g>
     </g>
    </g>
    <g id="xtick_2">
     <g id="line2d_2">
      <g>
       <use xlink:href="#m52cf88c3f4" x="70.357471" y="108.953433" style="stroke: #000000; stroke-width: 0.8"/>
      </g>
     </g>
     <g id="text_2">
      <!-- 06 -->
      <g transform="translate(63.041233 126.331158) scale(0.15 -0.15)">
       <defs>
        <path id="CMR17-36" d="M 678 2176 
C 678 3690 1395 4032 1811 4032 
C 1946 4032 2272 4009 2400 3776 
C 2298 3776 2106 3776 2106 3553 
C 2106 3381 2246 3323 2336 3323 
C 2394 3323 2566 3348 2566 3560 
C 2566 3954 2246 4179 1805 4179 
C 1043 4179 243 3390 243 1984 
C 243 253 966 -128 1478 -128 
C 2099 -128 2688 427 2688 1283 
C 2688 2081 2170 2662 1517 2662 
C 1126 2662 838 2407 678 1960 
L 678 2176 
z
M 1478 25 
C 691 25 691 1200 691 1436 
C 691 1896 909 2560 1504 2560 
C 1613 2560 1926 2560 2138 2120 
C 2253 1870 2253 1609 2253 1289 
C 2253 944 2253 690 2118 434 
C 1978 171 1773 25 1478 25 
z
" transform="scale(0.015625)"/>
       </defs>
       <use xlink:href="#CMR17-30" transform="scale(0.996264)"/>
       <use xlink:href="#CMR17-36" transform="translate(45.690477 0) scale(0.996264)"/>
      </g>
     </g>
    </g>
    <g id="xtick_3">
     <g id="line2d_3">
      <g>
       <use xlink:href="#m52cf88c3f4" x="99.577012" y="108.953433" style="stroke: #000000; stroke-width: 0.8"/>
      </g>
     </g>
     <g id="text_3">
      <!-- 12 -->
      <g transform="translate(92.260774 126.331158) scale(0.15 -0.15)">
       <defs>
        <path id="CMR17-31" d="M 1702 4058 
C 1702 4192 1696 4192 1606 4192 
C 1357 3916 979 3827 621 3827 
C 602 3827 570 3827 563 3808 
C 557 3795 557 3782 557 3648 
C 755 3648 1088 3686 1344 3839 
L 1344 461 
C 1344 236 1331 160 781 160 
L 589 160 
L 589 0 
C 896 0 1216 0 1523 0 
C 1830 0 2150 0 2458 0 
L 2458 160 
L 2266 160 
C 1715 160 1702 230 1702 458 
L 1702 4058 
z
" transform="scale(0.015625)"/>
        <path id="CMR17-32" d="M 2669 989 
L 2554 989 
C 2490 536 2438 459 2413 420 
C 2381 369 1920 369 1830 369 
L 602 369 
C 832 619 1280 1072 1824 1597 
C 2214 1967 2669 2402 2669 3035 
C 2669 3790 2067 4224 1395 4224 
C 691 4224 262 3604 262 3030 
C 262 2780 448 2748 525 2748 
C 589 2748 781 2787 781 3010 
C 781 3207 614 3264 525 3264 
C 486 3264 448 3258 422 3245 
C 544 3790 915 4058 1306 4058 
C 1862 4058 2227 3617 2227 3035 
C 2227 2479 1901 2000 1536 1584 
L 262 146 
L 262 0 
L 2515 0 
L 2669 989 
z
" transform="scale(0.015625)"/>
       </defs>
       <use xlink:href="#CMR17-31" transform="scale(0.996264)"/>
       <use xlink:href="#CMR17-32" transform="translate(45.690477 0) scale(0.996264)"/>
      </g>
     </g>
    </g>
    <g id="xtick_4">
     <g id="line2d_4">
      <g>
       <use xlink:href="#m52cf88c3f4" x="128.796553" y="108.953433" style="stroke: #000000; stroke-width: 0.8"/>
      </g>
     </g>
     <g id="text_4">
      <!-- 18 -->
      <g transform="translate(121.480315 126.331158) scale(0.15 -0.15)">
       <defs>
        <path id="CMR17-38" d="M 1741 2264 
C 2144 2467 2554 2773 2554 3263 
C 2554 3841 1990 4179 1472 4179 
C 890 4179 378 3759 378 3180 
C 378 3021 416 2747 666 2505 
C 730 2442 998 2251 1171 2130 
C 883 1983 211 1634 211 934 
C 211 279 838 -128 1459 -128 
C 2144 -128 2720 362 2720 1010 
C 2720 1590 2330 1857 2074 2029 
L 1741 2264 
z
M 902 2822 
C 851 2854 595 3051 595 3351 
C 595 3739 998 4032 1459 4032 
C 1965 4032 2336 3676 2336 3262 
C 2336 2669 1670 2331 1638 2331 
C 1632 2331 1626 2331 1574 2370 
L 902 2822 
z
M 2080 1519 
C 2176 1449 2483 1240 2483 851 
C 2483 381 2010 25 1472 25 
C 890 25 448 438 448 940 
C 448 1443 838 1862 1280 2060 
L 2080 1519 
z
" transform="scale(0.015625)"/>
       </defs>
       <use xlink:href="#CMR17-31" transform="scale(0.996264)"/>
       <use xlink:href="#CMR17-38" transform="translate(45.690477 0) scale(0.996264)"/>
      </g>
     </g>
    </g>
    <g id="xtick_5">
     <g id="line2d_5">
      <g>
       <use xlink:href="#m52cf88c3f4" x="158.016094" y="108.953433" style="stroke: #000000; stroke-width: 0.8"/>
      </g>
     </g>
     <g id="text_5">
      <!-- 24 -->
      <g transform="translate(150.699856 126.331158) scale(0.15 -0.15)">
       <defs>
        <path id="CMR17-34" d="M 2150 4122 
C 2150 4256 2144 4256 2029 4256 
L 128 1254 
L 128 1088 
L 1779 1088 
L 1779 457 
C 1779 224 1766 160 1318 160 
L 1197 160 
L 1197 0 
C 1402 0 1747 0 1965 0 
C 2182 0 2528 0 2733 0 
L 2733 160 
L 2611 160 
C 2163 160 2150 224 2150 457 
L 2150 1088 
L 2803 1088 
L 2803 1254 
L 2150 1254 
L 2150 4122 
z
M 1798 3703 
L 1798 1254 
L 256 1254 
L 1798 3703 
z
" transform="scale(0.015625)"/>
       </defs>
       <use xlink:href="#CMR17-32" transform="scale(0.996264)"/>
       <use xlink:href="#CMR17-34" transform="translate(45.690477 0) scale(0.996264)"/>
      </g>
     </g>
    </g>
    <g id="xtick_6">
     <g id="line2d_6">
      <g>
       <use xlink:href="#m52cf88c3f4" x="187.235635" y="108.953433" style="stroke: #000000; stroke-width: 0.8"/>
      </g>
     </g>
     <g id="text_6">
      <!-- 30 -->
      <g transform="translate(179.919397 126.331158) scale(0.15 -0.15)">
       <defs>
        <path id="CMR17-33" d="M 1414 2157 
C 1984 2157 2234 1662 2234 1090 
C 2234 320 1824 25 1453 25 
C 1114 25 563 194 390 693 
C 422 680 454 680 486 680 
C 640 680 755 782 755 948 
C 755 1133 614 1216 486 1216 
C 378 1216 211 1165 211 926 
C 211 335 787 -128 1466 -128 
C 2176 -128 2720 430 2720 1085 
C 2720 1707 2208 2157 1600 2227 
C 2086 2328 2554 2756 2554 3329 
C 2554 3820 2048 4179 1472 4179 
C 890 4179 378 3829 378 3329 
C 378 3110 544 3072 627 3072 
C 762 3072 877 3155 877 3321 
C 877 3486 762 3569 627 3569 
C 602 3569 570 3569 544 3557 
C 730 3959 1235 4032 1459 4032 
C 1683 4032 2106 3925 2106 3320 
C 2106 3143 2080 2828 1862 2550 
C 1670 2304 1453 2304 1242 2284 
C 1210 2284 1062 2269 1037 2269 
C 992 2263 966 2257 966 2208 
C 966 2163 973 2157 1101 2157 
L 1414 2157 
z
" transform="scale(0.015625)"/>
       </defs>
       <use xlink:href="#CMR17-33" transform="scale(0.996264)"/>
       <use xlink:href="#CMR17-30" transform="translate(45.690477 0) scale(0.996264)"/>
      </g>
     </g>
    </g>
    <g id="xtick_7">
     <g id="line2d_7">
      <g>
       <use xlink:href="#m52cf88c3f4" x="216.455176" y="108.953433" style="stroke: #000000; stroke-width: 0.8"/>
      </g>
     </g>
     <g id="text_7">
      <!-- 36 -->
      <g transform="translate(209.138938 126.331158) scale(0.15 -0.15)">
       <use xlink:href="#CMR17-33" transform="scale(0.996264)"/>
       <use xlink:href="#CMR17-36" transform="translate(45.690477 0) scale(0.996264)"/>
      </g>
     </g>
    </g>
    <g id="text_8">
     <!-- time [h] -->
     <g transform="translate(104.002636 144.444872) scale(0.15 -0.15)">
      <defs>
       <path id="CMR17-74" d="M 966 2560 
L 1862 2560 
L 1862 2725 
L 966 2725 
L 966 3904 
L 851 3904 
C 838 3245 614 2668 70 2668 
L 70 2560 
L 627 2560 
L 627 771 
C 627 650 627 -64 1370 -64 
C 1747 -64 1965 306 1965 777 
L 1965 1140 
L 1850 1140 
L 1850 783 
C 1850 344 1677 51 1408 51 
C 1222 51 966 178 966 758 
L 966 2560 
z
" transform="scale(0.015625)"/>
       <path id="CMR17-69" d="M 992 3909 
C 992 4049 877 4170 730 4170 
C 589 4170 467 4056 467 3909 
C 467 3769 582 3648 730 3648 
C 870 3648 992 3763 992 3909 
z
M 243 2706 
L 243 2541 
C 602 2541 653 2502 653 2197 
L 653 427 
C 653 184 627 153 218 153 
L 218 -13 
C 371 0 646 0 806 0 
C 960 0 1222 0 1370 -13 
L 1370 153 
C 992 153 979 191 979 420 
L 979 2776 
L 243 2706 
z
" transform="scale(0.015625)"/>
       <path id="CMR17-6d" d="M 4326 1933 
C 4326 2252 4269 2790 3507 2790 
C 3072 2790 2771 2496 2656 2151 
L 2650 2151 
C 2573 2676 2195 2790 1837 2790 
C 1331 2790 1069 2400 973 2144 
L 966 2144 
L 966 2790 
L 211 2720 
L 211 2554 
C 589 2554 646 2515 646 2208 
L 646 428 
C 646 184 621 153 211 153 
L 211 -13 
C 365 0 646 0 813 0 
C 979 0 1267 0 1421 -13 
L 1421 153 
C 1011 153 986 178 986 428 
L 986 1658 
C 986 2247 1344 2688 1792 2688 
C 2266 2688 2317 2266 2317 1958 
L 2317 428 
C 2317 184 2291 153 1882 153 
L 1882 -13 
C 2035 0 2317 0 2483 0 
C 2650 0 2938 0 3091 -13 
L 3091 153 
C 2682 153 2656 178 2656 428 
L 2656 1658 
C 2656 2247 3014 2688 3462 2688 
C 3936 2688 3987 2266 3987 1958 
L 3987 428 
C 3987 184 3962 153 3552 153 
L 3552 -13 
C 3706 0 3987 0 4154 0 
C 4320 0 4608 0 4762 -13 
L 4762 153 
C 4352 153 4326 178 4326 428 
L 4326 1933 
z
" transform="scale(0.015625)"/>
       <path id="CMR17-65" d="M 2438 1472 
C 2464 1498 2464 1511 2464 1576 
C 2464 2238 2118 2816 1389 2816 
C 710 2816 173 2169 173 1383 
C 173 551 781 -64 1459 -64 
C 2176 -64 2458 607 2458 740 
C 2458 784 2419 784 2406 784 
C 2362 784 2355 771 2330 696 
C 2189 265 1837 51 1504 51 
C 1229 51 954 203 781 480 
C 582 803 582 1176 582 1472 
L 2438 1472 
z
M 589 1568 
C 634 2505 1126 2714 1382 2714 
C 1818 2714 2112 2297 2118 1568 
L 589 1568 
z
" transform="scale(0.015625)"/>
       <path id="CMR17-5b" d="M 1504 -1600 
L 1504 -1377 
L 902 -1377 
L 902 4544 
L 1504 4544 
L 1504 4767 
L 678 4767 
L 678 -1600 
L 1504 -1600 
z
" transform="scale(0.015625)"/>
       <path id="CMR17-68" d="M 2656 1933 
C 2656 2259 2592 2790 1837 2790 
C 1312 2790 1056 2368 979 2157 
L 973 2157 
L 973 4396 
L 211 4326 
L 211 4160 
C 589 4160 646 4122 646 3817 
L 646 426 
C 646 184 621 153 211 153 
L 211 -13 
C 365 0 646 0 813 0 
C 979 0 1267 0 1421 -13 
L 1421 153 
C 1011 153 986 178 986 428 
L 986 1658 
C 986 2247 1344 2688 1792 2688 
C 2266 2688 2317 2266 2317 1958 
L 2317 428 
C 2317 184 2291 153 1882 153 
L 1882 -13 
C 2035 0 2317 0 2483 0 
C 2650 0 2938 0 3091 -13 
L 3091 153 
C 2682 153 2656 178 2656 428 
L 2656 1933 
z
" transform="scale(0.015625)"/>
       <path id="CMR17-5d" d="M 915 4767 
L 90 4767 
L 90 4544 
L 691 4544 
L 691 -1377 
L 90 -1377 
L 90 -1600 
L 915 -1600 
L 915 4767 
z
" transform="scale(0.015625)"/>
      </defs>
      <use xlink:href="#CMR17-74" transform="scale(0.996264)"/>
      <use xlink:href="#CMR17-69" transform="translate(35.280768 0) scale(0.996264)"/>
      <use xlink:href="#CMR17-6d" transform="translate(60.151826 0) scale(0.996264)"/>
      <use xlink:href="#CMR17-65" transform="translate(137.071416 0) scale(0.996264)"/>
      <use xlink:href="#CMR17-5b" transform="translate(207.633043 0) scale(0.996264)"/>
      <use xlink:href="#CMR17-68" transform="translate(232.504101 0) scale(0.996264)"/>
      <use xlink:href="#CMR17-5d" transform="translate(283.399471 0) scale(0.996264)"/>
     </g>
    </g>
   </g>
   <g id="matplotlib.axis_2">
    <g id="ytick_1">
     <g id="line2d_8">
      <defs>
       <path id="m5b7ecd93d5" d="M 0 0 
L -3.5 0 
" style="stroke: #000000; stroke-width: 0.8"/>
      </defs>
      <g>
       <use xlink:href="#m5b7ecd93d5" x="41.13793" y="108.953433" style="stroke: #000000; stroke-width: 0.8"/>
      </g>
     </g>
     <g id="text_9">
      <!-- -5 -->
      <g transform="translate(21.9442 114.142295) scale(0.15 -0.15)">
       <defs>
        <path id="CMR17-2d" d="M 1632 1216 
L 1632 1496 
L 26 1496 
L 26 1216 
L 1632 1216 
z
" transform="scale(0.015625)"/>
        <path id="CMR17-35" d="M 730 3692 
C 794 3666 1056 3584 1325 3584 
C 1920 3584 2246 3911 2432 4100 
C 2432 4157 2432 4192 2394 4192 
C 2387 4192 2374 4192 2323 4163 
C 2099 4058 1837 3973 1517 3973 
C 1325 3973 1037 3999 723 4139 
C 653 4171 640 4171 634 4171 
C 602 4171 595 4164 595 4037 
L 595 2203 
C 595 2089 595 2057 659 2057 
C 691 2057 704 2070 736 2114 
C 941 2401 1222 2522 1542 2522 
C 1766 2522 2246 2382 2246 1289 
C 2246 1085 2246 715 2054 421 
C 1894 159 1645 25 1370 25 
C 947 25 518 320 403 814 
C 429 807 480 795 506 795 
C 589 795 749 840 749 1038 
C 749 1210 627 1280 506 1280 
C 358 1280 262 1190 262 1011 
C 262 454 704 -128 1382 -128 
C 2042 -128 2669 440 2669 1264 
C 2669 2030 2170 2624 1549 2624 
C 1222 2624 947 2503 730 2274 
L 730 3692 
z
" transform="scale(0.015625)"/>
       </defs>
       <use xlink:href="#CMR17-2d" transform="scale(0.996264)"/>
       <use xlink:href="#CMR17-35" transform="translate(30.075966 0) scale(0.996264)"/>
      </g>
     </g>
    </g>
    <g id="ytick_2">
     <g id="line2d_9">
      <g>
       <use xlink:href="#m5b7ecd93d5" x="41.13793" y="58.571268" style="stroke: #000000; stroke-width: 0.8"/>
      </g>
     </g>
     <g id="text_10">
      <!--  0 -->
      <g transform="translate(26.821692 63.76013) scale(0.15 -0.15)">
       <use xlink:href="#CMR17-30" transform="scale(0.996264)"/>
      </g>
     </g>
    </g>
    <g id="ytick_3">
     <g id="line2d_10">
      <g>
       <use xlink:href="#m5b7ecd93d5" x="41.13793" y="8.189102" style="stroke: #000000; stroke-width: 0.8"/>
      </g>
     </g>
     <g id="text_11">
      <!--  5 -->
      <g transform="translate(26.821692 13.377965) scale(0.15 -0.15)">
       <use xlink:href="#CMR17-35" transform="scale(0.996264)"/>
      </g>
     </g>
    </g>
    <g id="text_12">
     <!-- $\mathrm{dz [\mu m]}$ -->
     <g transform="translate(14.20821 80.450798) rotate(-90) scale(0.15 -0.15)">
      <defs>
       <path id="CMR17-64" d="M 1869 4326 
L 1869 4160 
C 2246 4160 2304 4122 2304 3820 
L 2304 2345 
C 2278 2377 2016 2790 1498 2790 
C 845 2790 211 2208 211 1364 
C 211 525 806 -64 1434 -64 
C 1978 -64 2259 337 2291 380 
L 2291 -63 
L 3066 -63 
L 3066 128 
C 2688 128 2630 166 2630 473 
L 2630 4396 
L 1869 4326 
z
M 2291 755 
C 2291 563 2176 390 2029 262 
C 1811 70 1594 38 1472 38 
C 1286 38 621 134 621 1356 
C 621 2612 1363 2688 1530 2688 
C 1824 2688 2061 2522 2208 2291 
C 2291 2157 2291 2138 2291 2023 
L 2291 755 
z
" transform="scale(0.015625)"/>
       <path id="CMR17-7a" d="M 2310 2605 
C 2362 2670 2362 2682 2362 2695 
C 2362 2752 2336 2752 2221 2752 
L 275 2752 
L 211 1760 
L 326 1760 
C 371 2381 442 2650 1178 2650 
L 1958 2650 
L 128 96 
C 128 0 134 0 269 0 
L 2291 0 
L 2381 1152 
L 2266 1152 
C 2214 442 2131 115 1350 115 
L 531 115 
L 2310 2605 
z
" transform="scale(0.015625)"/>
       <path id="CMMI12-16" d="M 922 140 
C 1082 -6 1318 -64 1536 -64 
C 1946 -64 2227 208 2374 405 
C 2438 69 2707 -64 2931 -64 
C 3123 -64 3277 50 3392 277 
C 3494 493 3584 879 3584 903 
C 3584 935 3558 960 3520 960 
C 3462 960 3456 928 3430 834 
C 3334 461 3213 64 2950 64 
C 2765 64 2752 229 2752 358 
C 2752 504 2810 735 2854 926 
L 3034 1615 
C 3059 1737 3130 2023 3162 2139 
C 3200 2292 3270 2567 3270 2592 
C 3270 2688 3194 2752 3098 2752 
C 3040 2752 2906 2726 2854 2535 
L 2406 760 
C 2374 632 2374 619 2291 517 
C 2214 409 1965 64 1562 64 
C 1203 64 1088 326 1088 625 
C 1088 811 1146 1034 1171 1143 
L 1459 2293 
C 1491 2414 1542 2618 1542 2657 
C 1542 2759 1459 2816 1376 2816 
C 1318 2816 1178 2797 1126 2592 
L 198 -1107 
C 192 -1139 179 -1177 179 -1216 
C 179 -1312 256 -1376 352 -1376 
C 538 -1376 576 -1228 621 -1050 
L 922 140 
z
" transform="scale(0.015625)"/>
      </defs>
      <use xlink:href="#CMR17-64" transform="scale(0.996264)"/>
      <use xlink:href="#CMR17-7a" transform="translate(50.89537 0) scale(0.996264)"/>
      <use xlink:href="#CMR17-5b" transform="translate(91.38103 0) scale(0.996264)"/>
      <use xlink:href="#CMMI12-16" transform="translate(116.252089 0) scale(0.996264)"/>
      <use xlink:href="#CMR17-6d" transform="translate(174.94351 0) scale(0.996264)"/>
      <use xlink:href="#CMR17-5d" transform="translate(251.8631 0) scale(0.996264)"/>
     </g>
    </g>
   </g>
   <g id="line2d_11">
    <path d="M 41.13793 53.533051 
L 41.945525 63.609484 
L 42.757179 63.609484 
L 43.570186 58.571268 
L 44.383193 63.609484 
L 46.82086 63.609484 
L 47.629808 68.647701 
L 48.446873 68.647701 
L 49.254469 63.609484 
L 50.071534 68.647701 
L 53.312739 68.647701 
L 54.124392 73.685917 
L 54.933341 68.647701 
L 58.184015 68.647701 
L 58.992963 78.724134 
L 59.80597 73.685917 
L 70.350707 73.685917 
L 71.982131 63.609484 
L 72.787022 68.647701 
L 73.601381 68.647701 
L 74.410329 63.609484 
L 76.033637 63.609484 
L 76.845291 58.571268 
L 79.280253 58.571268 
L 80.090554 63.609484 
L 80.904913 58.571268 
L 82.526869 58.571268 
L 83.338522 53.533051 
L 84.150176 58.571268 
L 89.018747 58.571268 
L 89.831754 63.609484 
L 91.455062 63.609484 
L 92.266716 58.571268 
L 93.890023 58.571268 
L 94.701677 53.533051 
L 98.759947 53.533051 
L 99.572954 63.609484 
L 102.816864 63.609484 
L 103.627165 68.647701 
L 110.123102 68.647701 
L 110.934756 63.609484 
L 114.994378 63.609484 
L 115.803326 58.571268 
L 118.238288 58.571268 
L 119.051295 53.533051 
L 122.299263 53.533051 
L 123.11227 58.571268 
L 124.734225 48.494835 
L 125.548584 53.533051 
L 126.360238 53.533051 
L 127.174598 48.494835 
L 127.983546 53.533051 
L 128.796553 48.494835 
L 129.606854 48.494835 
L 130.419861 53.533051 
L 131.232867 48.494835 
L 132.047227 53.533051 
L 133.669182 53.533051 
L 134.482188 58.571268 
L 135.289784 53.533051 
L 136.921208 53.533051 
L 137.728804 48.494835 
L 139.350759 48.494835 
L 140.162413 43.456618 
L 140.976773 43.456618 
L 141.787074 48.494835 
L 143.409029 48.494835 
L 144.220683 43.456618 
L 145.030984 53.533051 
L 148.284363 53.533051 
L 149.093312 58.571268 
L 156.396844 58.571268 
L 157.20444 53.533051 
L 158.017447 58.571268 
L 158.827748 53.533051 
L 162.071658 53.533051 
L 162.88737 48.494835 
L 163.697671 48.494835 
L 164.509325 53.533051 
L 165.325037 53.533051 
L 166.13128 48.494835 
L 166.944287 48.494835 
L 167.753235 43.456618 
L 168.566242 48.494835 
L 169.380601 43.456618 
L 170.188197 48.494835 
L 171.001204 43.456618 
L 171.810152 48.494835 
L 172.624512 43.456618 
L 173.434813 43.456618 
L 174.247819 38.418401 
L 175.05812 43.456618 
L 175.869774 38.418401 
L 176.682781 38.418401 
L 177.494435 43.456618 
L 182.3603 43.456618 
L 183.176012 38.418401 
L 189.669244 38.418401 
L 190.48225 33.380185 
L 192.104205 33.380185 
L 192.919918 38.418401 
L 193.723455 28.341968 
L 194.537814 33.380185 
L 196.971423 33.380185 
L 197.78443 28.341968 
L 198.594731 33.380185 
L 200.215334 33.380185 
L 201.026988 28.341968 
L 201.838641 33.380185 
L 202.653001 28.341968 
L 203.464655 38.418401 
L 204.273603 33.380185 
L 205.895558 33.380185 
L 206.708565 38.418401 
L 209.953828 38.418401 
L 210.76954 43.456618 
L 216.448412 43.456618 
L 217.264124 38.418401 
L 218.07172 38.418401 
L 218.883374 43.456618 
L 219.695028 43.456618 
L 220.505329 38.418401 
L 223.756003 38.418401 
L 224.567657 33.380185 
L 226.189612 43.456618 
L 226.999913 38.418401 
L 227.771654 38.418401 
L 227.771654 38.418401 
" clip-path="url(#p6a10f3ab2e)" style="fill: none; stroke: #d60000; stroke-opacity: 0.5; stroke-width: 2; stroke-linecap: square"/>
   </g>
   <g id="line2d_12">
    <path d="M 41.13793 58.571268 
L 42.757179 68.647701 
L 43.570186 63.609484 
L 44.383193 63.609484 
L 45.197552 68.647701 
L 46.007853 63.609484 
L 46.82086 68.647701 
L 47.629808 68.647701 
L 48.446873 73.685917 
L 49.254469 68.647701 
L 50.071534 73.685917 
L 50.877777 73.685917 
L 51.689431 78.724134 
L 52.501085 73.685917 
L 53.312739 73.685917 
L 54.124392 78.724134 
L 54.933341 73.685917 
L 58.184015 73.685917 
L 58.992963 78.724134 
L 59.80597 73.685917 
L 60.616271 78.724134 
L 63.052586 78.724134 
L 63.868298 73.685917 
L 65.483489 73.685917 
L 66.297848 78.724134 
L 67.10815 73.685917 
L 67.918451 78.724134 
L 68.728752 78.724134 
L 69.540406 73.685917 
L 70.350707 73.685917 
L 71.166419 68.647701 
L 75.223336 68.647701 
L 76.033637 63.609484 
L 79.280253 63.609484 
L 80.090554 68.647701 
L 80.904913 63.609484 
L 85.773484 63.609484 
L 86.583785 68.647701 
L 87.398145 63.609484 
L 88.208446 68.647701 
L 89.831754 68.647701 
L 90.643408 73.685917 
L 91.455062 73.685917 
L 92.266716 68.647701 
L 93.890023 68.647701 
L 95.513331 58.571268 
L 96.326338 63.609484 
L 98.759947 63.609484 
L 99.572954 68.647701 
L 100.384607 68.647701 
L 101.193556 73.685917 
L 102.816864 73.685917 
L 103.627165 78.724134 
L 104.440172 78.724134 
L 105.251825 73.685917 
L 107.68814 73.685917 
L 108.499794 78.724134 
L 109.310095 78.724134 
L 110.123102 73.685917 
L 112.558063 73.685917 
L 113.369717 68.647701 
L 114.181371 68.647701 
L 114.994378 73.685917 
L 115.803326 68.647701 
L 117.427987 68.647701 
L 118.238288 63.609484 
L 119.051295 63.609484 
L 119.864301 58.571268 
L 120.675955 63.609484 
L 122.299263 63.609484 
L 123.11227 68.647701 
L 123.921218 63.609484 
L 127.174598 63.609484 
L 127.983546 68.647701 
L 128.796553 63.609484 
L 129.606854 63.609484 
L 130.419861 68.647701 
L 132.858881 68.647701 
L 133.669182 73.685917 
L 135.289784 73.685917 
L 136.105496 68.647701 
L 139.350759 68.647701 
L 140.162413 58.571268 
L 141.787074 68.647701 
L 142.60008 63.609484 
L 143.409029 68.647701 
L 144.220683 63.609484 
L 145.030984 73.685917 
L 145.846696 68.647701 
L 146.65835 73.685917 
L 148.284363 73.685917 
L 149.093312 78.724134 
L 152.339927 78.724134 
L 153.151581 73.685917 
L 153.96053 78.724134 
L 155.583838 78.724134 
L 156.396844 73.685917 
L 159.638049 73.685917 
L 160.446997 68.647701 
L 162.88737 68.647701 
L 163.697671 73.685917 
L 164.509325 68.647701 
L 165.325037 68.647701 
L 166.13128 63.609484 
L 171.810152 63.609484 
L 172.624512 58.571268 
L 173.434813 63.609484 
L 174.247819 63.609484 
L 175.05812 68.647701 
L 175.869774 63.609484 
L 176.682781 63.609484 
L 177.494435 68.647701 
L 179.11639 68.647701 
L 179.932102 63.609484 
L 180.745109 68.647701 
L 182.3603 68.647701 
L 183.176012 63.609484 
L 184.79932 63.609484 
L 185.610974 68.647701 
L 186.419923 63.609484 
L 188.047289 63.609484 
L 188.856237 68.647701 
L 189.669244 63.609484 
L 192.919918 63.609484 
L 193.723455 58.571268 
L 194.537814 63.609484 
L 195.349468 63.609484 
L 196.15977 58.571268 
L 196.971423 63.609484 
L 197.78443 58.571268 
L 198.594731 63.609484 
L 199.405032 63.609484 
L 200.215334 68.647701 
L 201.026988 63.609484 
L 201.838641 68.647701 
L 202.653001 63.609484 
L 203.464655 73.685917 
L 204.273603 68.647701 
L 205.895558 68.647701 
L 206.708565 73.685917 
L 209.953828 73.685917 
L 210.76954 78.724134 
L 216.448412 78.724134 
L 217.264124 73.685917 
L 221.321041 73.685917 
L 222.134048 68.647701 
L 222.944349 68.647701 
L 223.756003 73.685917 
L 224.567657 63.609484 
L 226.189612 73.685917 
L 227.771654 73.685917 
L 227.771654 73.685917 
" clip-path="url(#p6a10f3ab2e)" style="fill: none; stroke: #8c3bff; stroke-opacity: 0.5; stroke-width: 2; stroke-linecap: square"/>
   </g>
   <g id="line2d_13">
    <path d="M 41.13793 58.571268 
L 42.757179 68.647701 
L 43.570186 63.609484 
L 44.383193 63.609484 
L 45.197552 68.647701 
L 46.007853 68.647701 
L 46.82086 73.685917 
L 48.446873 73.685917 
L 49.254469 68.647701 
L 50.071534 73.685917 
L 50.877777 73.685917 
L 51.689431 78.724134 
L 52.501085 73.685917 
L 54.933341 73.685917 
L 55.749053 68.647701 
L 56.558001 73.685917 
L 57.373714 68.647701 
L 58.184015 68.647701 
L 58.992963 73.685917 
L 59.80597 68.647701 
L 63.052586 68.647701 
L 63.868298 63.609484 
L 64.673188 68.647701 
L 65.483489 63.609484 
L 66.297848 68.647701 
L 67.10815 63.609484 
L 67.918451 68.647701 
L 68.728752 68.647701 
L 69.540406 63.609484 
L 70.350707 63.609484 
L 71.166419 58.571268 
L 75.223336 58.571268 
L 76.033637 53.533051 
L 76.845291 53.533051 
L 77.658298 58.571268 
L 78.468599 58.571268 
L 79.280253 53.533051 
L 80.090554 63.609484 
L 80.904913 58.571268 
L 81.716567 58.571268 
L 82.526869 63.609484 
L 85.773484 63.609484 
L 86.583785 68.647701 
L 87.398145 63.609484 
L 88.208446 68.647701 
L 91.455062 68.647701 
L 92.266716 63.609484 
L 94.701677 63.609484 
L 95.513331 58.571268 
L 97.948293 58.571268 
L 99.572954 68.647701 
L 100.384607 63.609484 
L 101.193556 68.647701 
L 104.440172 68.647701 
L 105.251825 63.609484 
L 106.066185 68.647701 
L 106.875133 63.609484 
L 110.934756 63.609484 
L 111.747762 58.571268 
L 114.994378 58.571268 
L 115.803326 53.533051 
L 116.617686 53.533051 
L 117.427987 58.571268 
L 118.238288 53.533051 
L 119.051295 58.571268 
L 119.864301 53.533051 
L 121.486257 63.609484 
L 122.299263 58.571268 
L 123.11227 63.609484 
L 123.921218 58.571268 
L 124.734225 63.609484 
L 127.174598 63.609484 
L 127.983546 68.647701 
L 128.796553 68.647701 
L 129.606854 63.609484 
L 130.419861 68.647701 
L 134.482188 68.647701 
L 135.289784 73.685917 
L 136.105496 68.647701 
L 136.921208 73.685917 
L 137.728804 68.647701 
L 139.350759 68.647701 
L 140.162413 58.571268 
L 140.976773 58.571268 
L 141.787074 68.647701 
L 143.409029 68.647701 
L 144.220683 63.609484 
L 145.030984 73.685917 
L 145.846696 68.647701 
L 146.65835 68.647701 
L 147.470004 73.685917 
L 148.284363 68.647701 
L 149.093312 73.685917 
L 149.903613 73.685917 
L 150.715267 68.647701 
L 153.151581 68.647701 
L 153.96053 63.609484 
L 154.770831 68.647701 
L 155.583838 68.647701 
L 156.396844 63.609484 
L 159.638049 63.609484 
L 160.446997 58.571268 
L 162.88737 58.571268 
L 163.697671 63.609484 
L 164.509325 58.571268 
L 169.380601 58.571268 
L 170.188197 63.609484 
L 171.001204 58.571268 
L 171.810152 63.609484 
L 172.624512 58.571268 
L 173.434813 63.609484 
L 174.247819 63.609484 
L 175.05812 68.647701 
L 175.869774 63.609484 
L 176.682781 53.533051 
L 177.494435 53.533051 
L 178.306089 58.571268 
L 179.11639 53.533051 
L 180.745109 53.533051 
L 181.556763 58.571268 
L 182.3603 53.533051 
L 183.986314 53.533051 
L 184.79932 58.571268 
L 185.610974 53.533051 
L 188.047289 53.533051 
L 188.856237 58.571268 
L 189.669244 58.571268 
L 190.48225 53.533051 
L 191.291199 58.571268 
L 192.919918 58.571268 
L 193.723455 53.533051 
L 194.537814 63.609484 
L 195.349468 63.609484 
L 196.15977 58.571268 
L 196.971423 63.609484 
L 197.78443 58.571268 
L 198.594731 68.647701 
L 200.215334 68.647701 
L 201.026988 63.609484 
L 201.838641 68.647701 
L 202.653001 68.647701 
L 203.464655 73.685917 
L 204.273603 68.647701 
L 205.895558 68.647701 
L 206.708565 73.685917 
L 207.518866 68.647701 
L 208.333226 73.685917 
L 209.143527 73.685917 
L 209.953828 68.647701 
L 210.76954 73.685917 
L 212.390142 73.685917 
L 213.203149 68.647701 
L 215.636758 68.647701 
L 216.448412 63.609484 
L 217.264124 63.609484 
L 218.07172 58.571268 
L 218.883374 63.609484 
L 220.505329 63.609484 
L 221.321041 58.571268 
L 222.134048 63.609484 
L 222.944349 58.571268 
L 223.756003 58.571268 
L 224.567657 53.533051 
L 225.382016 58.571268 
L 227.771654 58.571268 
L 227.771654 58.571268 
" clip-path="url(#p6a10f3ab2e)" style="fill: none; stroke: #018700; stroke-opacity: 0.5; stroke-width: 2; stroke-linecap: square"/>
   </g>
   <g id="line2d_14">
    <path d="M 41.13793 53.533051 
L 41.945525 63.609484 
L 42.757179 68.647701 
L 43.570186 58.571268 
L 44.383193 63.609484 
L 46.007853 63.609484 
L 46.82086 68.647701 
L 50.071534 68.647701 
L 51.689431 78.724134 
L 52.501085 68.647701 
L 53.312739 68.647701 
L 54.124392 73.685917 
L 55.749053 63.609484 
L 57.373714 63.609484 
L 58.184015 58.571268 
L 58.992963 63.609484 
L 60.616271 63.609484 
L 61.429278 58.571268 
L 62.239579 63.609484 
L 63.052586 58.571268 
L 63.868298 63.609484 
L 68.728752 63.609484 
L 69.540406 58.571268 
L 73.601381 58.571268 
L 74.410329 63.609484 
L 75.223336 63.609484 
L 76.033637 58.571268 
L 77.658298 58.571268 
L 78.468599 63.609484 
L 79.280253 58.571268 
L 80.090554 63.609484 
L 80.904913 63.609484 
L 81.716567 58.571268 
L 82.526869 63.609484 
L 83.338522 58.571268 
L 84.150176 63.609484 
L 84.960478 63.609484 
L 85.773484 58.571268 
L 86.583785 63.609484 
L 87.398145 58.571268 
L 88.208446 63.609484 
L 89.018747 63.609484 
L 89.831754 68.647701 
L 91.455062 58.571268 
L 93.890023 58.571268 
L 95.513331 48.494835 
L 96.326338 53.533051 
L 97.136639 53.533051 
L 97.948293 48.494835 
L 99.572954 58.571268 
L 100.384607 53.533051 
L 101.193556 58.571268 
L 102.007915 53.533051 
L 102.816864 58.571268 
L 104.440172 58.571268 
L 105.251825 53.533051 
L 106.066185 58.571268 
L 106.875133 58.571268 
L 107.68814 53.533051 
L 108.499794 58.571268 
L 114.994378 58.571268 
L 115.803326 53.533051 
L 117.427987 63.609484 
L 118.238288 58.571268 
L 120.675955 58.571268 
L 121.486257 63.609484 
L 122.299263 58.571268 
L 123.11227 63.609484 
L 123.921218 58.571268 
L 129.606854 58.571268 
L 130.419861 63.609484 
L 131.232867 58.571268 
L 132.858881 58.571268 
L 133.669182 63.609484 
L 136.921208 63.609484 
L 137.728804 68.647701 
L 138.541811 63.609484 
L 139.350759 68.647701 
L 140.162413 58.571268 
L 140.976773 58.571268 
L 141.787074 63.609484 
L 143.409029 63.609484 
L 144.220683 58.571268 
L 145.030984 63.609484 
L 149.903613 63.609484 
L 150.715267 58.571268 
L 151.522862 63.609484 
L 152.339927 58.571268 
L 153.151581 63.609484 
L 156.396844 63.609484 
L 157.20444 53.533051 
L 158.017447 53.533051 
L 158.827748 58.571268 
L 160.446997 58.571268 
L 161.260004 53.533051 
L 162.071658 58.571268 
L 162.88737 58.571268 
L 163.697671 63.609484 
L 164.509325 63.609484 
L 165.325037 58.571268 
L 167.753235 58.571268 
L 168.566242 63.609484 
L 169.380601 58.571268 
L 170.188197 63.609484 
L 171.001204 58.571268 
L 171.810152 63.609484 
L 172.624512 58.571268 
L 174.247819 58.571268 
L 175.05812 63.609484 
L 176.682781 53.533051 
L 180.745109 53.533051 
L 181.556763 58.571268 
L 182.3603 53.533051 
L 183.986314 53.533051 
L 184.79932 58.571268 
L 185.610974 58.571268 
L 186.419923 53.533051 
L 187.230224 58.571268 
L 188.856237 58.571268 
L 189.669244 63.609484 
L 190.48225 53.533051 
L 191.291199 58.571268 
L 192.104205 58.571268 
L 192.919918 63.609484 
L 193.723455 53.533051 
L 194.537814 63.609484 
L 195.349468 58.571268 
L 198.594731 58.571268 
L 199.405032 63.609484 
L 200.215334 63.609484 
L 201.026988 58.571268 
L 201.838641 63.609484 
L 202.653001 58.571268 
L 203.464655 63.609484 
L 206.708565 63.609484 
L 207.518866 58.571268 
L 208.333226 63.609484 
L 209.143527 63.609484 
L 209.953828 58.571268 
L 210.76954 58.571268 
L 211.578488 63.609484 
L 212.390142 63.609484 
L 213.203149 58.571268 
L 217.264124 58.571268 
L 218.07172 53.533051 
L 218.883374 58.571268 
L 221.321041 58.571268 
L 222.134048 63.609484 
L 222.944349 58.571268 
L 223.756003 63.609484 
L 224.567657 58.571268 
L 225.382016 58.571268 
L 226.189612 53.533051 
L 227.771654 53.533051 
L 227.771654 53.533051 
" clip-path="url(#p6a10f3ab2e)" style="fill: none; stroke: #00acc6; stroke-opacity: 0.5; stroke-width: 2; stroke-linecap: square"/>
   </g>
   <g id="line2d_15">
    <path d="M 41.13793 58.571268 
L 41.945525 63.609484 
L 42.757179 73.685917 
L 43.570186 63.609484 
L 44.383193 63.609484 
L 45.197552 68.647701 
L 46.007853 68.647701 
L 46.82086 73.685917 
L 48.446873 73.685917 
L 49.254469 68.647701 
L 50.071534 73.685917 
L 50.877777 73.685917 
L 51.689431 78.724134 
L 52.501085 73.685917 
L 54.933341 73.685917 
L 55.749053 68.647701 
L 57.373714 68.647701 
L 58.184015 63.609484 
L 58.992963 68.647701 
L 59.80597 63.609484 
L 63.868298 63.609484 
L 64.673188 58.571268 
L 65.483489 58.571268 
L 66.297848 63.609484 
L 68.728752 63.609484 
L 69.540406 58.571268 
L 70.350707 58.571268 
L 71.166419 53.533051 
L 71.982131 53.533051 
L 72.787022 58.571268 
L 77.658298 58.571268 
L 78.468599 63.609484 
L 79.280253 58.571268 
L 80.090554 63.609484 
L 81.716567 63.609484 
L 82.526869 68.647701 
L 83.338522 63.609484 
L 85.773484 63.609484 
L 86.583785 68.647701 
L 87.398145 63.609484 
L 88.208446 68.647701 
L 89.018747 68.647701 
L 89.831754 73.685917 
L 91.455062 63.609484 
L 93.890023 63.609484 
L 95.513331 53.533051 
L 96.326338 58.571268 
L 98.759947 58.571268 
L 99.572954 63.609484 
L 102.816864 63.609484 
L 103.627165 68.647701 
L 104.440172 58.571268 
L 105.251825 58.571268 
L 106.066185 63.609484 
L 106.875133 58.571268 
L 109.310095 58.571268 
L 110.123102 53.533051 
L 112.558063 53.533051 
L 113.369717 58.571268 
L 114.994378 58.571268 
L 115.803326 53.533051 
L 116.617686 58.571268 
L 117.427987 58.571268 
L 118.238288 53.533051 
L 119.051295 58.571268 
L 120.675955 58.571268 
L 121.486257 63.609484 
L 122.299263 58.571268 
L 123.11227 63.609484 
L 134.482188 63.609484 
L 135.289784 68.647701 
L 136.105496 63.609484 
L 136.921208 63.609484 
L 137.728804 68.647701 
L 139.350759 68.647701 
L 140.162413 58.571268 
L 141.787074 68.647701 
L 142.60008 63.609484 
L 143.409029 68.647701 
L 144.220683 63.609484 
L 145.030984 68.647701 
L 145.846696 63.609484 
L 146.65835 68.647701 
L 148.284363 68.647701 
L 149.093312 63.609484 
L 152.339927 63.609484 
L 153.151581 58.571268 
L 153.96053 58.571268 
L 154.770831 63.609484 
L 155.583838 58.571268 
L 156.396844 58.571268 
L 157.20444 53.533051 
L 162.88737 53.533051 
L 163.697671 58.571268 
L 171.001204 58.571268 
L 171.810152 63.609484 
L 172.624512 58.571268 
L 173.434813 63.609484 
L 174.247819 58.571268 
L 175.05812 63.609484 
L 175.869774 63.609484 
L 176.682781 48.494835 
L 177.494435 53.533051 
L 178.306089 53.533051 
L 179.11639 48.494835 
L 179.932102 48.494835 
L 180.745109 53.533051 
L 183.986314 53.533051 
L 184.79932 58.571268 
L 185.610974 53.533051 
L 187.230224 53.533051 
L 188.047289 58.571268 
L 188.856237 53.533051 
L 189.669244 58.571268 
L 190.48225 53.533051 
L 191.291199 58.571268 
L 192.919918 58.571268 
L 193.723455 53.533051 
L 194.537814 63.609484 
L 196.15977 53.533051 
L 196.971423 63.609484 
L 197.78443 58.571268 
L 198.594731 63.609484 
L 200.215334 63.609484 
L 201.026988 58.571268 
L 201.838641 63.609484 
L 202.653001 58.571268 
L 203.464655 68.647701 
L 204.273603 63.609484 
L 205.085257 68.647701 
L 205.895558 63.609484 
L 206.708565 68.647701 
L 207.518866 63.609484 
L 208.333226 68.647701 
L 209.143527 68.647701 
L 209.953828 63.609484 
L 212.390142 63.609484 
L 213.203149 58.571268 
L 216.448412 58.571268 
L 217.264124 53.533051 
L 218.883374 53.533051 
L 219.695028 58.571268 
L 220.505329 58.571268 
L 221.321041 53.533051 
L 222.134048 58.571268 
L 222.944349 53.533051 
L 223.756003 58.571268 
L 224.567657 53.533051 
L 225.382016 58.571268 
L 226.999913 48.494835 
L 227.771654 48.494835 
L 227.771654 48.494835 
" clip-path="url(#p6a10f3ab2e)" style="fill: none; stroke: #97ff00; stroke-opacity: 0.5; stroke-width: 2; stroke-linecap: square"/>
   </g>
   <g id="line2d_16">
    <path d="M 41.13793 58.571268 
L 41.945525 63.609484 
L 42.757179 73.685917 
L 43.570186 63.609484 
L 44.383193 63.609484 
L 45.197552 73.685917 
L 46.007853 68.647701 
L 46.82086 73.685917 
L 50.071534 73.685917 
L 51.689431 83.76235 
L 52.501085 78.724134 
L 55.749053 78.724134 
L 56.558001 73.685917 
L 58.184015 73.685917 
L 58.992963 78.724134 
L 59.80597 73.685917 
L 60.616271 73.685917 
L 61.429278 68.647701 
L 62.239579 73.685917 
L 63.052586 68.647701 
L 63.868298 73.685917 
L 64.673188 68.647701 
L 65.483489 68.647701 
L 66.297848 73.685917 
L 68.728752 73.685917 
L 69.540406 68.647701 
L 70.350707 68.647701 
L 71.982131 58.571268 
L 72.787022 58.571268 
L 73.601381 63.609484 
L 75.223336 63.609484 
L 76.033637 58.571268 
L 77.658298 58.571268 
L 78.468599 63.609484 
L 79.280253 58.571268 
L 80.090554 63.609484 
L 80.904913 63.609484 
L 81.716567 58.571268 
L 82.526869 63.609484 
L 85.773484 63.609484 
L 86.583785 73.685917 
L 87.398145 63.609484 
L 88.208446 68.647701 
L 89.018747 68.647701 
L 89.831754 73.685917 
L 90.643408 73.685917 
L 91.455062 68.647701 
L 93.890023 68.647701 
L 95.513331 58.571268 
L 96.326338 63.609484 
L 97.948293 63.609484 
L 98.759947 68.647701 
L 100.384607 68.647701 
L 101.193556 73.685917 
L 102.007915 68.647701 
L 103.627165 78.724134 
L 104.440172 73.685917 
L 106.066185 73.685917 
L 106.875133 68.647701 
L 110.123102 68.647701 
L 110.934756 63.609484 
L 114.994378 63.609484 
L 115.803326 58.571268 
L 116.617686 63.609484 
L 118.238288 53.533051 
L 119.051295 53.533051 
L 119.864301 58.571268 
L 120.675955 58.571268 
L 121.486257 63.609484 
L 122.299263 58.571268 
L 123.11227 63.609484 
L 123.921218 58.571268 
L 124.734225 63.609484 
L 127.174598 63.609484 
L 127.983546 68.647701 
L 132.858881 68.647701 
L 133.669182 73.685917 
L 136.105496 73.685917 
L 136.921208 68.647701 
L 139.350759 68.647701 
L 140.162413 58.571268 
L 140.976773 58.571268 
L 141.787074 68.647701 
L 142.60008 63.609484 
L 143.409029 73.685917 
L 144.220683 63.609484 
L 145.030984 73.685917 
L 151.522862 73.685917 
L 152.339927 68.647701 
L 153.96053 68.647701 
L 154.770831 73.685917 
L 155.583838 68.647701 
L 156.396844 68.647701 
L 157.20444 58.571268 
L 160.446997 58.571268 
L 161.260004 53.533051 
L 162.88737 53.533051 
L 163.697671 58.571268 
L 164.509325 53.533051 
L 167.753235 53.533051 
L 168.566242 58.571268 
L 169.380601 53.533051 
L 170.188197 58.571268 
L 171.001204 58.571268 
L 171.810152 63.609484 
L 172.624512 58.571268 
L 173.434813 63.609484 
L 174.247819 58.571268 
L 175.05812 68.647701 
L 175.869774 63.609484 
L 176.682781 48.494835 
L 177.494435 53.533051 
L 178.306089 53.533051 
L 179.11639 48.494835 
L 179.932102 48.494835 
L 180.745109 53.533051 
L 182.3603 53.533051 
L 183.176012 48.494835 
L 183.986314 53.533051 
L 188.047289 53.533051 
L 188.856237 58.571268 
L 189.669244 58.571268 
L 190.48225 53.533051 
L 192.104205 53.533051 
L 192.919918 58.571268 
L 193.723455 53.533051 
L 194.537814 63.609484 
L 196.15977 53.533051 
L 196.971423 63.609484 
L 197.78443 58.571268 
L 198.594731 63.609484 
L 199.405032 63.609484 
L 200.215334 68.647701 
L 201.026988 58.571268 
L 201.838641 68.647701 
L 202.653001 63.609484 
L 203.464655 73.685917 
L 204.273603 68.647701 
L 205.085257 73.685917 
L 205.895558 68.647701 
L 206.708565 78.724134 
L 207.518866 73.685917 
L 212.390142 73.685917 
L 213.203149 68.647701 
L 216.448412 68.647701 
L 217.264124 63.609484 
L 218.07172 63.609484 
L 218.883374 68.647701 
L 219.695028 63.609484 
L 220.505329 68.647701 
L 221.321041 58.571268 
L 222.134048 63.609484 
L 222.944349 58.571268 
L 223.756003 63.609484 
L 224.567657 53.533051 
L 225.382016 58.571268 
L 227.771654 58.571268 
L 227.771654 58.571268 
" clip-path="url(#p6a10f3ab2e)" style="fill: none; stroke: #ff7ed1; stroke-opacity: 0.5; stroke-width: 2; stroke-linecap: square"/>
   </g>
   <g id="patch_3">
    <path d="M 41.13793 108.953433 
L 41.13793 8.189102 
" style="fill: none; stroke: #000000; stroke-width: 0.8; stroke-linejoin: miter; stroke-linecap: square"/>
   </g>
   <g id="patch_4">
    <path d="M 216.455176 108.953433 
L 216.455176 8.189102 
" style="fill: none; stroke: #000000; stroke-width: 0.8; stroke-linejoin: miter; stroke-linecap: square"/>
   </g>
   <g id="patch_5">
    <path d="M 41.13793 108.953433 
L 216.455176 108.953433 
" style="fill: none; stroke: #000000; stroke-width: 0.8; stroke-linejoin: miter; stroke-linecap: square"/>
   </g>
   <g id="patch_6">
    <path d="M 41.13793 8.189102 
L 216.455176 8.189102 
" style="fill: none; stroke: #000000; stroke-width: 0.8; stroke-linejoin: miter; stroke-linecap: square"/>
   </g>
  </g>
 </g>
 <defs>
  <clipPath id="p6a10f3ab2e">
   <rect x="41.13793" y="8.189102" width="175.317246" height="100.76433"/>
  </clipPath>
 </defs>
</svg>
