<?xml version="1.0" encoding="utf-8" standalone="no"?>
<!DOCTYPE svg PUBLIC "-//W3C//DTD SVG 1.1//EN"
  "http://www.w3.org/Graphics/SVG/1.1/DTD/svg11.dtd">
<svg xmlns:xlink="http://www.w3.org/1999/xlink" width="226.771654pt" height="151.181102pt" viewBox="0 0 226.771654 151.181102" xmlns="http://www.w3.org/2000/svg" version="1.1">
 <metadata>
  <rdf:RDF xmlns:dc="http://purl.org/dc/elements/1.1/" xmlns:cc="http://creativecommons.org/ns#" xmlns:rdf="http://www.w3.org/1999/02/22-rdf-syntax-ns#">
   <cc:Work>
    <dc:type rdf:resource="http://purl.org/dc/dcmitype/StillImage"/>
    <dc:date>2025-11-23T19:55:57.739734</dc:date>
    <dc:format>image/svg+xml</dc:format>
    <dc:creator>
     <cc:Agent>
      <dc:title>Matplotlib v3.9.1, https://matplotlib.org/</dc:title>
     </cc:Agent>
    </dc:creator>
   </cc:Work>
  </rdf:RDF>
 </metadata>
 <defs>
  <style type="text/css">*{stroke-linejoin: round; stroke-linecap: butt}</style>
 </defs>
 <g id="figure_1">
  <g id="patch_1">
   <path d="M 0 151.181102 
L 226.771654 151.181102 
L 226.771654 0 
L 0 0 
z
" style="fill: #ffffff"/>
  </g>
  <g id="axes_1">
   <g id="patch_2">
    <path d="M 41.13793 108.953433 
L 216.455176 108.953433 
L 216.455176 8.189102 
L 41.13793 8.189102 
z
" style="fill: #ffffff"/>
   </g>
   <g id="matplotlib.axis_1">
    <g id="xtick_1">
     <g id="line2d_1">
      <defs>
       <path id="mde2f7e169c" d="M 0 0 
L 0 3.5 
" style="stroke: #000000; stroke-width: 0.8"/>
      </defs>
      <g>
       <use xlink:href="#mde2f7e169c" x="41.13793" y="108.953433" style="stroke: #000000; stroke-width: 0.8"/>
      </g>
     </g>
     <g id="text_1">
      <!-- 00 -->
      <g transform="translate(33.821692 126.331158) scale(0.15 -0.15)">
       <defs>
        <path id="CMR17-30" d="M 2688 2025 
C 2688 2416 2682 3080 2413 3591 
C 2176 4039 1798 4198 1466 4198 
C 1158 4198 768 4058 525 3597 
C 269 3118 243 2524 243 2025 
C 243 1661 250 1106 448 619 
C 723 -39 1216 -128 1466 -128 
C 1760 -128 2208 -7 2470 600 
C 2662 1042 2688 1559 2688 2025 
z
M 1466 -26 
C 1056 -26 813 325 723 812 
C 653 1188 653 1738 653 2096 
C 653 2588 653 2997 736 3387 
C 858 3929 1216 4096 1466 4096 
C 1728 4096 2067 3923 2189 3400 
C 2272 3036 2278 2607 2278 2096 
C 2278 1680 2278 1169 2202 792 
C 2067 95 1690 -26 1466 -26 
z
" transform="scale(0.015625)"/>
       </defs>
       <use xlink:href="#CMR17-30" transform="scale(0.996264)"/>
       <use xlink:href="#CMR17-30" transform="translate(45.690477 0) scale(0.996264)"/>
      </g>
     </g>
    </g>
    <g id="xtick_2">
     <g id="line2d_2">
      <g>
       <use xlink:href="#mde2f7e169c" x="70.357471" y="108.953433" style="stroke: #000000; stroke-width: 0.8"/>
      </g>
     </g>
     <g id="text_2">
      <!-- 06 -->
      <g transform="translate(63.041233 126.331158) scale(0.15 -0.15)">
       <defs>
        <path id="CMR17-36" d="M 678 2176 
C 678 3690 1395 4032 1811 4032 
C 1946 4032 2272 4009 2400 3776 
C 2298 3776 2106 3776 2106 3553 
C 2106 3381 2246 3323 2336 3323 
C 2394 3323 2566 3348 2566 3560 
C 2566 3954 2246 4179 1805 4179 
C 1043 4179 243 3390 243 1984 
C 243 253 966 -128 1478 -128 
C 2099 -128 2688 427 2688 1283 
C 2688 2081 2170 2662 1517 2662 
C 1126 2662 838 2407 678 1960 
L 678 2176 
z
M 1478 25 
C 691 25 691 1200 691 1436 
C 691 1896 909 2560 1504 2560 
C 1613 2560 1926 2560 2138 2120 
C 2253 1870 2253 1609 2253 1289 
C 2253 944 2253 690 2118 434 
C 1978 171 1773 25 1478 25 
z
" transform="scale(0.015625)"/>
       </defs>
       <use xlink:href="#CMR17-30" transform="scale(0.996264)"/>
       <use xlink:href="#CMR17-36" transform="translate(45.690477 0) scale(0.996264)"/>
      </g>
     </g>
    </g>
    <g id="xtick_3">
     <g id="line2d_3">
      <g>
       <use xlink:href="#mde2f7e169c" x="99.577012" y="108.953433" style="stroke: #000000; stroke-width: 0.8"/>
      </g>
     </g>
     <g id="text_3">
      <!-- 12 -->
      <g transform="translate(92.260774 126.331158) scale(0.15 -0.15)">
       <defs>
        <path id="CMR17-31" d="M 1702 4058 
C 1702 4192 1696 4192 1606 4192 
C 1357 3916 979 3827 621 3827 
C 602 3827 570 3827 563 3808 
C 557 3795 557 3782 557 3648 
C 755 3648 1088 3686 1344 3839 
L 1344 461 
C 1344 236 1331 160 781 160 
L 589 160 
L 589 0 
C 896 0 1216 0 1523 0 
C 1830 0 2150 0 2458 0 
L 2458 160 
L 2266 160 
C 1715 160 1702 230 1702 458 
L 1702 4058 
z
" transform="scale(0.015625)"/>
        <path id="CMR17-32" d="M 2669 989 
L 2554 989 
C 2490 536 2438 459 2413 420 
C 2381 369 1920 369 1830 369 
L 602 369 
C 832 619 1280 1072 1824 1597 
C 2214 1967 2669 2402 2669 3035 
C 2669 3790 2067 4224 1395 4224 
C 691 4224 262 3604 262 3030 
C 262 2780 448 2748 525 2748 
C 589 2748 781 2787 781 3010 
C 781 3207 614 3264 525 3264 
C 486 3264 448 3258 422 3245 
C 544 3790 915 4058 1306 4058 
C 1862 4058 2227 3617 2227 3035 
C 2227 2479 1901 2000 1536 1584 
L 262 146 
L 262 0 
L 2515 0 
L 2669 989 
z
" transform="scale(0.015625)"/>
       </defs>
       <use xlink:href="#CMR17-31" transform="scale(0.996264)"/>
       <use xlink:href="#CMR17-32" transform="translate(45.690477 0) scale(0.996264)"/>
      </g>
     </g>
    </g>
    <g id="xtick_4">
     <g id="line2d_4">
      <g>
       <use xlink:href="#mde2f7e169c" x="128.796553" y="108.953433" style="stroke: #000000; stroke-width: 0.8"/>
      </g>
     </g>
     <g id="text_4">
      <!-- 18 -->
      <g transform="translate(121.480315 126.331158) scale(0.15 -0.15)">
       <defs>
        <path id="CMR17-38" d="M 1741 2264 
C 2144 2467 2554 2773 2554 3263 
C 2554 3841 1990 4179 1472 4179 
C 890 4179 378 3759 378 3180 
C 378 3021 416 2747 666 2505 
C 730 2442 998 2251 1171 2130 
C 883 1983 211 1634 211 934 
C 211 279 838 -128 1459 -128 
C 2144 -128 2720 362 2720 1010 
C 2720 1590 2330 1857 2074 2029 
L 1741 2264 
z
M 902 2822 
C 851 2854 595 3051 595 3351 
C 595 3739 998 4032 1459 4032 
C 1965 4032 2336 3676 2336 3262 
C 2336 2669 1670 2331 1638 2331 
C 1632 2331 1626 2331 1574 2370 
L 902 2822 
z
M 2080 1519 
C 2176 1449 2483 1240 2483 851 
C 2483 381 2010 25 1472 25 
C 890 25 448 438 448 940 
C 448 1443 838 1862 1280 2060 
L 2080 1519 
z
" transform="scale(0.015625)"/>
       </defs>
       <use xlink:href="#CMR17-31" transform="scale(0.996264)"/>
       <use xlink:href="#CMR17-38" transform="translate(45.690477 0) scale(0.996264)"/>
      </g>
     </g>
    </g>
    <g id="xtick_5">
     <g id="line2d_5">
      <g>
       <use xlink:href="#mde2f7e169c" x="158.016094" y="108.953433" style="stroke: #000000; stroke-width: 0.8"/>
      </g>
     </g>
     <g id="text_5">
      <!-- 24 -->
      <g transform="translate(150.699856 126.331158) scale(0.15 -0.15)">
       <defs>
        <path id="CMR17-34" d="M 2150 4122 
C 2150 4256 2144 4256 2029 4256 
L 128 1254 
L 128 1088 
L 1779 1088 
L 1779 457 
C 1779 224 1766 160 1318 160 
L 1197 160 
L 1197 0 
C 1402 0 1747 0 1965 0 
C 2182 0 2528 0 2733 0 
L 2733 160 
L 2611 160 
C 2163 160 2150 224 2150 457 
L 2150 1088 
L 2803 1088 
L 2803 1254 
L 2150 1254 
L 2150 4122 
z
M 1798 3703 
L 1798 1254 
L 256 1254 
L 1798 3703 
z
" transform="scale(0.015625)"/>
       </defs>
       <use xlink:href="#CMR17-32" transform="scale(0.996264)"/>
       <use xlink:href="#CMR17-34" transform="translate(45.690477 0) scale(0.996264)"/>
      </g>
     </g>
    </g>
    <g id="xtick_6">
     <g id="line2d_6">
      <g>
       <use xlink:href="#mde2f7e169c" x="187.235635" y="108.953433" style="stroke: #000000; stroke-width: 0.8"/>
      </g>
     </g>
     <g id="text_6">
      <!-- 30 -->
      <g transform="translate(179.919397 126.331158) scale(0.15 -0.15)">
       <defs>
        <path id="CMR17-33" d="M 1414 2157 
C 1984 2157 2234 1662 2234 1090 
C 2234 320 1824 25 1453 25 
C 1114 25 563 194 390 693 
C 422 680 454 680 486 680 
C 640 680 755 782 755 948 
C 755 1133 614 1216 486 1216 
C 378 1216 211 1165 211 926 
C 211 335 787 -128 1466 -128 
C 2176 -128 2720 430 2720 1085 
C 2720 1707 2208 2157 1600 2227 
C 2086 2328 2554 2756 2554 3329 
C 2554 3820 2048 4179 1472 4179 
C 890 4179 378 3829 378 3329 
C 378 3110 544 3072 627 3072 
C 762 3072 877 3155 877 3321 
C 877 3486 762 3569 627 3569 
C 602 3569 570 3569 544 3557 
C 730 3959 1235 4032 1459 4032 
C 1683 4032 2106 3925 2106 3320 
C 2106 3143 2080 2828 1862 2550 
C 1670 2304 1453 2304 1242 2284 
C 1210 2284 1062 2269 1037 2269 
C 992 2263 966 2257 966 2208 
C 966 2163 973 2157 1101 2157 
L 1414 2157 
z
" transform="scale(0.015625)"/>
       </defs>
       <use xlink:href="#CMR17-33" transform="scale(0.996264)"/>
       <use xlink:href="#CMR17-30" transform="translate(45.690477 0) scale(0.996264)"/>
      </g>
     </g>
    </g>
    <g id="xtick_7">
     <g id="line2d_7">
      <g>
       <use xlink:href="#mde2f7e169c" x="216.455176" y="108.953433" style="stroke: #000000; stroke-width: 0.8"/>
      </g>
     </g>
     <g id="text_7">
      <!-- 36 -->
      <g transform="translate(209.138938 126.331158) scale(0.15 -0.15)">
       <use xlink:href="#CMR17-33" transform="scale(0.996264)"/>
       <use xlink:href="#CMR17-36" transform="translate(45.690477 0) scale(0.996264)"/>
      </g>
     </g>
    </g>
    <g id="text_8">
     <!-- time [h] -->
     <g transform="translate(104.002636 144.444872) scale(0.15 -0.15)">
      <defs>
       <path id="CMR17-74" d="M 966 2560 
L 1862 2560 
L 1862 2725 
L 966 2725 
L 966 3904 
L 851 3904 
C 838 3245 614 2668 70 2668 
L 70 2560 
L 627 2560 
L 627 771 
C 627 650 627 -64 1370 -64 
C 1747 -64 1965 306 1965 777 
L 1965 1140 
L 1850 1140 
L 1850 783 
C 1850 344 1677 51 1408 51 
C 1222 51 966 178 966 758 
L 966 2560 
z
" transform="scale(0.015625)"/>
       <path id="CMR17-69" d="M 992 3909 
C 992 4049 877 4170 730 4170 
C 589 4170 467 4056 467 3909 
C 467 3769 582 3648 730 3648 
C 870 3648 992 3763 992 3909 
z
M 243 2706 
L 243 2541 
C 602 2541 653 2502 653 2197 
L 653 427 
C 653 184 627 153 218 153 
L 218 -13 
C 371 0 646 0 806 0 
C 960 0 1222 0 1370 -13 
L 1370 153 
C 992 153 979 191 979 420 
L 979 2776 
L 243 2706 
z
" transform="scale(0.015625)"/>
       <path id="CMR17-6d" d="M 4326 1933 
C 4326 2252 4269 2790 3507 2790 
C 3072 2790 2771 2496 2656 2151 
L 2650 2151 
C 2573 2676 2195 2790 1837 2790 
C 1331 2790 1069 2400 973 2144 
L 966 2144 
L 966 2790 
L 211 2720 
L 211 2554 
C 589 2554 646 2515 646 2208 
L 646 428 
C 646 184 621 153 211 153 
L 211 -13 
C 365 0 646 0 813 0 
C 979 0 1267 0 1421 -13 
L 1421 153 
C 1011 153 986 178 986 428 
L 986 1658 
C 986 2247 1344 2688 1792 2688 
C 2266 2688 2317 2266 2317 1958 
L 2317 428 
C 2317 184 2291 153 1882 153 
L 1882 -13 
C 2035 0 2317 0 2483 0 
C 2650 0 2938 0 3091 -13 
L 3091 153 
C 2682 153 2656 178 2656 428 
L 2656 1658 
C 2656 2247 3014 2688 3462 2688 
C 3936 2688 3987 2266 3987 1958 
L 3987 428 
C 3987 184 3962 153 3552 153 
L 3552 -13 
C 3706 0 3987 0 4154 0 
C 4320 0 4608 0 4762 -13 
L 4762 153 
C 4352 153 4326 178 4326 428 
L 4326 1933 
z
" transform="scale(0.015625)"/>
       <path id="CMR17-65" d="M 2438 1472 
C 2464 1498 2464 1511 2464 1576 
C 2464 2238 2118 2816 1389 2816 
C 710 2816 173 2169 173 1383 
C 173 551 781 -64 1459 -64 
C 2176 -64 2458 607 2458 740 
C 2458 784 2419 784 2406 784 
C 2362 784 2355 771 2330 696 
C 2189 265 1837 51 1504 51 
C 1229 51 954 203 781 480 
C 582 803 582 1176 582 1472 
L 2438 1472 
z
M 589 1568 
C 634 2505 1126 2714 1382 2714 
C 1818 2714 2112 2297 2118 1568 
L 589 1568 
z
" transform="scale(0.015625)"/>
       <path id="CMR17-5b" d="M 1504 -1600 
L 1504 -1377 
L 902 -1377 
L 902 4544 
L 1504 4544 
L 1504 4767 
L 678 4767 
L 678 -1600 
L 1504 -1600 
z
" transform="scale(0.015625)"/>
       <path id="CMR17-68" d="M 2656 1933 
C 2656 2259 2592 2790 1837 2790 
C 1312 2790 1056 2368 979 2157 
L 973 2157 
L 973 4396 
L 211 4326 
L 211 4160 
C 589 4160 646 4122 646 3817 
L 646 426 
C 646 184 621 153 211 153 
L 211 -13 
C 365 0 646 0 813 0 
C 979 0 1267 0 1421 -13 
L 1421 153 
C 1011 153 986 178 986 428 
L 986 1658 
C 986 2247 1344 2688 1792 2688 
C 2266 2688 2317 2266 2317 1958 
L 2317 428 
C 2317 184 2291 153 1882 153 
L 1882 -13 
C 2035 0 2317 0 2483 0 
C 2650 0 2938 0 3091 -13 
L 3091 153 
C 2682 153 2656 178 2656 428 
L 2656 1933 
z
" transform="scale(0.015625)"/>
       <path id="CMR17-5d" d="M 915 4767 
L 90 4767 
L 90 4544 
L 691 4544 
L 691 -1377 
L 90 -1377 
L 90 -1600 
L 915 -1600 
L 915 4767 
z
" transform="scale(0.015625)"/>
      </defs>
      <use xlink:href="#CMR17-74" transform="scale(0.996264)"/>
      <use xlink:href="#CMR17-69" transform="translate(35.280768 0) scale(0.996264)"/>
      <use xlink:href="#CMR17-6d" transform="translate(60.151826 0) scale(0.996264)"/>
      <use xlink:href="#CMR17-65" transform="translate(137.071416 0) scale(0.996264)"/>
      <use xlink:href="#CMR17-5b" transform="translate(207.633043 0) scale(0.996264)"/>
      <use xlink:href="#CMR17-68" transform="translate(232.504101 0) scale(0.996264)"/>
      <use xlink:href="#CMR17-5d" transform="translate(283.399471 0) scale(0.996264)"/>
     </g>
    </g>
   </g>
   <g id="matplotlib.axis_2">
    <g id="ytick_1">
     <g id="line2d_8">
      <defs>
       <path id="m407ebc565c" d="M 0 0 
L -3.5 0 
" style="stroke: #000000; stroke-width: 0.8"/>
      </defs>
      <g>
       <use xlink:href="#m407ebc565c" x="41.13793" y="108.953433" style="stroke: #000000; stroke-width: 0.8"/>
      </g>
     </g>
     <g id="text_9">
      <!-- -5 -->
      <g transform="translate(21.9442 114.142295) scale(0.15 -0.15)">
       <defs>
        <path id="CMR17-2d" d="M 1632 1216 
L 1632 1496 
L 26 1496 
L 26 1216 
L 1632 1216 
z
" transform="scale(0.015625)"/>
        <path id="CMR17-35" d="M 730 3692 
C 794 3666 1056 3584 1325 3584 
C 1920 3584 2246 3911 2432 4100 
C 2432 4157 2432 4192 2394 4192 
C 2387 4192 2374 4192 2323 4163 
C 2099 4058 1837 3973 1517 3973 
C 1325 3973 1037 3999 723 4139 
C 653 4171 640 4171 634 4171 
C 602 4171 595 4164 595 4037 
L 595 2203 
C 595 2089 595 2057 659 2057 
C 691 2057 704 2070 736 2114 
C 941 2401 1222 2522 1542 2522 
C 1766 2522 2246 2382 2246 1289 
C 2246 1085 2246 715 2054 421 
C 1894 159 1645 25 1370 25 
C 947 25 518 320 403 814 
C 429 807 480 795 506 795 
C 589 795 749 840 749 1038 
C 749 1210 627 1280 506 1280 
C 358 1280 262 1190 262 1011 
C 262 454 704 -128 1382 -128 
C 2042 -128 2669 440 2669 1264 
C 2669 2030 2170 2624 1549 2624 
C 1222 2624 947 2503 730 2274 
L 730 3692 
z
" transform="scale(0.015625)"/>
       </defs>
       <use xlink:href="#CMR17-2d" transform="scale(0.996264)"/>
       <use xlink:href="#CMR17-35" transform="translate(30.075966 0) scale(0.996264)"/>
      </g>
     </g>
    </g>
    <g id="ytick_2">
     <g id="line2d_9">
      <g>
       <use xlink:href="#m407ebc565c" x="41.13793" y="58.571268" style="stroke: #000000; stroke-width: 0.8"/>
      </g>
     </g>
     <g id="text_10">
      <!--  0 -->
      <g transform="translate(26.821692 63.76013) scale(0.15 -0.15)">
       <use xlink:href="#CMR17-30" transform="scale(0.996264)"/>
      </g>
     </g>
    </g>
    <g id="ytick_3">
     <g id="line2d_10">
      <g>
       <use xlink:href="#m407ebc565c" x="41.13793" y="8.189102" style="stroke: #000000; stroke-width: 0.8"/>
      </g>
     </g>
     <g id="text_11">
      <!--  5 -->
      <g transform="translate(26.821692 13.377965) scale(0.15 -0.15)">
       <use xlink:href="#CMR17-35" transform="scale(0.996264)"/>
      </g>
     </g>
    </g>
    <g id="text_12">
     <!-- $\mathrm{dz [\mu m]}$ -->
     <g transform="translate(14.20821 80.450798) rotate(-90) scale(0.15 -0.15)">
      <defs>
       <path id="CMR17-64" d="M 1869 4326 
L 1869 4160 
C 2246 4160 2304 4122 2304 3820 
L 2304 2345 
C 2278 2377 2016 2790 1498 2790 
C 845 2790 211 2208 211 1364 
C 211 525 806 -64 1434 -64 
C 1978 -64 2259 337 2291 380 
L 2291 -63 
L 3066 -63 
L 3066 128 
C 2688 128 2630 166 2630 473 
L 2630 4396 
L 1869 4326 
z
M 2291 755 
C 2291 563 2176 390 2029 262 
C 1811 70 1594 38 1472 38 
C 1286 38 621 134 621 1356 
C 621 2612 1363 2688 1530 2688 
C 1824 2688 2061 2522 2208 2291 
C 2291 2157 2291 2138 2291 2023 
L 2291 755 
z
" transform="scale(0.015625)"/>
       <path id="CMR17-7a" d="M 2310 2605 
C 2362 2670 2362 2682 2362 2695 
C 2362 2752 2336 2752 2221 2752 
L 275 2752 
L 211 1760 
L 326 1760 
C 371 2381 442 2650 1178 2650 
L 1958 2650 
L 128 96 
C 128 0 134 0 269 0 
L 2291 0 
L 2381 1152 
L 2266 1152 
C 2214 442 2131 115 1350 115 
L 531 115 
L 2310 2605 
z
" transform="scale(0.015625)"/>
       <path id="CMMI12-16" d="M 922 140 
C 1082 -6 1318 -64 1536 -64 
C 1946 -64 2227 208 2374 405 
C 2438 69 2707 -64 2931 -64 
C 3123 -64 3277 50 3392 277 
C 3494 493 3584 879 3584 903 
C 3584 935 3558 960 3520 960 
C 3462 960 3456 928 3430 834 
C 3334 461 3213 64 2950 64 
C 2765 64 2752 229 2752 358 
C 2752 504 2810 735 2854 926 
L 3034 1615 
C 3059 1737 3130 2023 3162 2139 
C 3200 2292 3270 2567 3270 2592 
C 3270 2688 3194 2752 3098 2752 
C 3040 2752 2906 2726 2854 2535 
L 2406 760 
C 2374 632 2374 619 2291 517 
C 2214 409 1965 64 1562 64 
C 1203 64 1088 326 1088 625 
C 1088 811 1146 1034 1171 1143 
L 1459 2293 
C 1491 2414 1542 2618 1542 2657 
C 1542 2759 1459 2816 1376 2816 
C 1318 2816 1178 2797 1126 2592 
L 198 -1107 
C 192 -1139 179 -1177 179 -1216 
C 179 -1312 256 -1376 352 -1376 
C 538 -1376 576 -1228 621 -1050 
L 922 140 
z
" transform="scale(0.015625)"/>
      </defs>
      <use xlink:href="#CMR17-64" transform="scale(0.996264)"/>
      <use xlink:href="#CMR17-7a" transform="translate(50.89537 0) scale(0.996264)"/>
      <use xlink:href="#CMR17-5b" transform="translate(91.38103 0) scale(0.996264)"/>
      <use xlink:href="#CMMI12-16" transform="translate(116.252089 0) scale(0.996264)"/>
      <use xlink:href="#CMR17-6d" transform="translate(174.94351 0) scale(0.996264)"/>
      <use xlink:href="#CMR17-5d" transform="translate(251.8631 0) scale(0.996264)"/>
     </g>
    </g>
   </g>
   <g id="line2d_11">
    <path d="M 41.13793 48.494835 
L 42.761238 38.418401 
L 43.571539 38.418401 
L 45.194847 28.341968 
L 46.006501 33.380185 
L 46.819507 28.341968 
L 47.628456 33.380185 
L 48.438757 33.380185 
L 50.062065 23.303752 
L 50.873719 23.303752 
L 51.690784 28.341968 
L 56.555296 28.341968 
L 57.368303 58.571268 
L 58.179957 58.571268 
L 58.997022 63.609484 
L 62.238226 63.609484 
L 63.048527 58.571268 
L 65.484842 58.571268 
L 66.295143 53.533051 
L 67.105444 53.533051 
L 67.919804 48.494835 
L 68.730105 48.494835 
L 69.543111 53.533051 
L 70.356118 48.494835 
L 71.165066 53.533051 
L 71.979426 48.494835 
L 73.601381 48.494835 
L 74.413035 43.456618 
L 76.036343 43.456618 
L 76.847997 38.418401 
L 77.659651 38.418401 
L 78.472657 33.380185 
L 80.910324 33.380185 
L 81.719273 28.341968 
L 82.53228 28.341968 
L 83.343933 23.303752 
L 84.967241 23.303752 
L 85.778895 28.341968 
L 87.402203 28.341968 
L 88.212504 33.380185 
L 89.833107 53.533051 
L 90.643408 53.533051 
L 91.456414 58.571268 
L 93.081075 48.494835 
L 93.892729 48.494835 
L 94.704383 43.456618 
L 96.326338 43.456618 
L 97.139345 33.380185 
L 98.762652 33.380185 
L 99.575659 28.341968 
L 102.016032 28.341968 
L 102.823627 33.380185 
L 105.262647 33.380185 
L 106.081065 38.418401 
L 106.891366 48.494835 
L 110.136629 48.494835 
L 110.945578 43.456618 
L 111.758584 43.456618 
L 112.568885 48.494835 
L 116.631213 48.494835 
L 117.44422 43.456618 
L 118.254521 48.494835 
L 119.876476 48.494835 
L 120.684072 43.456618 
L 123.121739 43.456618 
L 123.93204 48.494835 
L 124.745047 43.456618 
L 125.553995 43.456618 
L 126.364297 48.494835 
L 127.174598 43.456618 
L 128.797906 43.456618 
L 132.857528 68.647701 
L 133.667829 68.647701 
L 134.479483 73.685917 
L 135.29249 73.685917 
L 136.104144 78.724134 
L 138.537753 78.724134 
L 139.349406 83.76235 
L 140.159708 78.724134 
L 140.972714 78.724134 
L 141.781663 73.685917 
L 142.593317 73.685917 
L 144.216624 53.533051 
L 145.846696 43.456618 
L 146.656997 43.456618 
L 147.468651 48.494835 
L 149.091959 48.494835 
L 149.904966 43.456618 
L 153.148876 43.456618 
L 153.956471 48.494835 
L 155.579779 48.494835 
L 156.39008 43.456618 
L 157.201734 48.494835 
L 158.014741 43.456618 
L 163.696318 43.456618 
L 164.509325 38.418401 
L 165.318273 38.418401 
L 166.132633 43.456618 
L 166.944287 43.456618 
L 167.757294 53.533051 
L 170.18955 53.533051 
L 171.001204 58.571268 
L 180.739698 58.571268 
L 181.554057 53.533051 
L 182.361653 58.571268 
L 183.17466 68.647701 
L 184.796615 68.647701 
L 185.609621 63.609484 
L 187.232929 63.609484 
L 188.044583 58.571268 
L 189.666538 58.571268 
L 190.479545 53.533051 
L 192.104205 53.533051 
L 192.917212 58.571268 
L 196.166533 58.571268 
L 196.97954 68.647701 
L 200.22345 68.647701 
L 201.029693 73.685917 
L 202.653001 63.609484 
L 203.466008 63.609484 
L 204.279014 58.571268 
L 205.089315 63.609484 
L 209.959239 63.609484 
L 210.773598 68.647701 
L 211.585252 63.609484 
L 212.398259 68.647701 
L 213.20856 58.571268 
L 214.020214 68.647701 
L 214.833221 58.571268 
L 215.644875 63.609484 
L 216.455176 58.571268 
L 217.270888 63.609484 
L 218.082542 63.609484 
L 218.89149 58.571268 
L 219.704497 63.609484 
L 220.517504 58.571268 
L 221.327805 63.609484 
L 222.140811 53.533051 
L 222.951113 53.533051 
L 223.764119 48.494835 
L 225.386074 48.494835 
L 226.196375 38.418401 
L 227.009382 48.494835 
L 227.771654 39.03147 
L 227.771654 39.03147 
" clip-path="url(#pd31b90e826)" style="fill: none; stroke: #d60000; stroke-opacity: 0.5; stroke-width: 2; stroke-linecap: square"/>
   </g>
   <g id="line2d_12">
    <path d="M 41.13793 78.724134 
L 41.948231 73.685917 
L 44.38184 73.685917 
L 45.194847 68.647701 
L 46.006501 73.685917 
L 48.438757 73.685917 
L 49.250411 68.647701 
L 54.931988 68.647701 
L 55.749053 63.609484 
L 56.555296 68.647701 
L 57.368303 88.800567 
L 58.179957 93.838783 
L 60.616271 93.838783 
L 61.425219 88.800567 
L 62.238226 93.838783 
L 63.048527 88.800567 
L 65.484842 88.800567 
L 66.295143 83.76235 
L 67.105444 83.76235 
L 67.919804 78.724134 
L 68.730105 78.724134 
L 69.543111 83.76235 
L 72.788374 83.76235 
L 73.601381 88.800567 
L 75.221983 78.724134 
L 76.036343 83.76235 
L 76.847997 73.685917 
L 77.659651 73.685917 
L 78.472657 68.647701 
L 79.287017 73.685917 
L 83.343933 73.685917 
L 84.154235 68.647701 
L 86.587844 68.647701 
L 87.402203 63.609484 
L 88.212504 68.647701 
L 89.021453 78.724134 
L 90.643408 88.800567 
L 91.456414 88.800567 
L 92.269421 83.76235 
L 93.081075 83.76235 
L 94.704383 73.685917 
L 96.326338 73.685917 
L 97.139345 68.647701 
L 98.762652 68.647701 
L 99.575659 63.609484 
L 102.016032 63.609484 
L 102.823627 68.647701 
L 106.081065 68.647701 
L 107.704373 78.724134 
L 110.945578 78.724134 
L 111.758584 83.76235 
L 113.381892 83.76235 
L 114.193546 88.800567 
L 117.44422 88.800567 
L 118.254521 93.838783 
L 119.066175 93.838783 
L 119.876476 83.76235 
L 120.684072 83.76235 
L 121.497079 78.724134 
L 126.364297 78.724134 
L 127.174598 73.685917 
L 127.988957 73.685917 
L 129.613618 83.76235 
L 130.422566 83.76235 
L 132.857528 98.877 
L 133.667829 98.877 
L 134.479483 103.915216 
L 135.29249 103.915216 
L 136.104144 108.953433 
L 140.972714 108.953433 
L 143.406323 93.838783 
L 144.216624 78.724134 
L 145.030984 78.724134 
L 145.846696 73.685917 
L 146.656997 78.724134 
L 148.280305 78.724134 
L 149.091959 83.76235 
L 152.338575 83.76235 
L 153.148876 88.800567 
L 158.825042 88.800567 
L 159.635343 83.76235 
L 163.696318 83.76235 
L 164.509325 78.724134 
L 166.132633 78.724134 
L 166.944287 83.76235 
L 171.001204 83.76235 
L 171.812858 88.800567 
L 175.062179 88.800567 
L 175.869774 93.838783 
L 178.306089 93.838783 
L 179.120448 98.877 
L 181.554057 98.877 
L 183.17466 108.953433 
L 187.232929 108.953433 
L 188.044583 103.915216 
L 189.666538 103.915216 
L 190.479545 98.877 
L 191.292552 98.877 
L 192.104205 93.838783 
L 193.727513 103.915216 
L 195.349468 103.915216 
L 196.166533 98.877 
L 197.789841 108.953433 
L 198.59879 98.877 
L 199.406385 103.915216 
L 200.22345 98.877 
L 201.844052 98.877 
L 202.653001 93.838783 
L 203.466008 93.838783 
L 204.279014 88.800567 
L 205.903675 88.800567 
L 206.712623 93.838783 
L 207.52563 88.800567 
L 208.335931 98.877 
L 209.148938 93.838783 
L 209.959239 98.877 
L 212.398259 98.877 
L 213.20856 93.838783 
L 214.020214 98.877 
L 214.833221 93.838783 
L 216.455176 93.838783 
L 218.082542 103.915216 
L 218.89149 98.877 
L 219.704497 98.877 
L 220.517504 93.838783 
L 221.327805 98.877 
L 222.140811 88.800567 
L 224.57442 88.800567 
L 226.196375 78.724134 
L 227.009382 83.76235 
L 227.771654 79.030668 
L 227.771654 79.030668 
" clip-path="url(#pd31b90e826)" style="fill: none; stroke: #8c3bff; stroke-opacity: 0.5; stroke-width: 2; stroke-linecap: square"/>
   </g>
   <g id="line2d_13">
    <path d="M 41.13793 73.685917 
L 41.948231 73.685917 
L 42.761238 68.647701 
L 44.38184 68.647701 
L 45.194847 63.609484 
L 46.006501 68.647701 
L 46.819507 63.609484 
L 47.628456 68.647701 
L 48.438757 63.609484 
L 51.690784 63.609484 
L 52.498379 68.647701 
L 56.555296 68.647701 
L 57.368303 93.838783 
L 58.179957 93.838783 
L 58.997022 103.915216 
L 59.80597 103.915216 
L 60.616271 98.877 
L 63.048527 98.877 
L 63.860181 93.838783 
L 64.670482 98.877 
L 65.484842 98.877 
L 67.919804 83.76235 
L 72.788374 83.76235 
L 75.221983 68.647701 
L 76.036343 73.685917 
L 76.847997 68.647701 
L 77.659651 68.647701 
L 78.472657 63.609484 
L 79.287017 68.647701 
L 80.097318 63.609484 
L 87.402203 63.609484 
L 90.643408 83.76235 
L 92.269421 83.76235 
L 93.081075 78.724134 
L 93.892729 78.724134 
L 94.704383 73.685917 
L 96.326338 73.685917 
L 97.139345 68.647701 
L 98.762652 68.647701 
L 99.575659 63.609484 
L 102.016032 63.609484 
L 102.823627 68.647701 
L 105.262647 68.647701 
L 106.891366 78.724134 
L 107.704373 78.724134 
L 108.511969 83.76235 
L 115.816854 83.76235 
L 117.44422 73.685917 
L 118.254521 78.724134 
L 119.066175 78.724134 
L 119.876476 73.685917 
L 120.684072 78.724134 
L 123.93204 78.724134 
L 124.745047 83.76235 
L 126.364297 83.76235 
L 127.174598 78.724134 
L 127.988957 78.724134 
L 129.613618 88.800567 
L 131.23422 88.800567 
L 132.857528 98.877 
L 133.667829 93.838783 
L 135.29249 103.915216 
L 138.537753 103.915216 
L 139.349406 108.953433 
L 140.972714 98.877 
L 141.781663 98.877 
L 145.030984 78.724134 
L 145.846696 78.724134 
L 146.656997 83.76235 
L 149.091959 83.76235 
L 149.904966 78.724134 
L 155.579779 78.724134 
L 156.39008 73.685917 
L 157.201734 78.724134 
L 158.014741 78.724134 
L 158.825042 73.685917 
L 162.884665 73.685917 
L 163.696318 78.724134 
L 165.318273 78.724134 
L 167.757294 93.838783 
L 168.567595 93.838783 
L 169.379249 98.877 
L 173.437518 98.877 
L 174.247819 103.915216 
L 175.062179 98.877 
L 175.869774 103.915216 
L 176.684134 98.877 
L 178.306089 98.877 
L 179.120448 93.838783 
L 180.739698 93.838783 
L 181.554057 88.800567 
L 183.17466 108.953433 
L 188.044583 108.953433 
L 188.856237 103.915216 
L 189.666538 103.915216 
L 190.479545 98.877 
L 191.292552 103.915216 
L 192.917212 93.838783 
L 196.97954 93.838783 
L 197.789841 103.915216 
L 198.59879 98.877 
L 201.844052 98.877 
L 202.653001 93.838783 
L 203.466008 98.877 
L 204.279014 93.838783 
L 207.52563 93.838783 
L 208.335931 98.877 
L 218.082542 98.877 
L 218.89149 93.838783 
L 219.704497 98.877 
L 220.517504 93.838783 
L 221.327805 98.877 
L 222.140811 93.838783 
L 225.386074 93.838783 
L 226.196375 88.800567 
L 227.771654 88.800567 
L 227.771654 88.800567 
" clip-path="url(#pd31b90e826)" style="fill: none; stroke: #018700; stroke-opacity: 0.5; stroke-width: 2; stroke-linecap: square"/>
   </g>
   <g id="line2d_14">
    <path d="M 41.13793 73.685917 
L 42.761238 73.685917 
L 43.571539 68.647701 
L 46.819507 68.647701 
L 47.628456 73.685917 
L 48.438757 68.647701 
L 50.873719 68.647701 
L 51.690784 73.685917 
L 54.120334 73.685917 
L 54.931988 78.724134 
L 56.555296 78.724134 
L 57.368303 108.953433 
L 58.179957 93.838783 
L 58.997022 108.953433 
L 63.048527 108.953433 
L 63.860181 103.915216 
L 64.670482 108.953433 
L 65.484842 108.953433 
L 67.919804 93.838783 
L 68.730105 93.838783 
L 70.356118 83.76235 
L 71.165066 88.800567 
L 71.979426 83.76235 
L 73.601381 83.76235 
L 75.221983 73.685917 
L 77.659651 73.685917 
L 78.472657 68.647701 
L 79.287017 68.647701 
L 80.097318 73.685917 
L 80.910324 73.685917 
L 81.719273 68.647701 
L 82.53228 68.647701 
L 83.343933 73.685917 
L 88.212504 73.685917 
L 89.021453 88.800567 
L 89.833107 93.838783 
L 92.269421 93.838783 
L 93.081075 88.800567 
L 93.892729 88.800567 
L 94.704383 83.76235 
L 95.516037 83.76235 
L 96.326338 78.724134 
L 97.139345 78.724134 
L 97.952351 73.685917 
L 101.203025 73.685917 
L 102.016032 78.724134 
L 104.448288 78.724134 
L 105.262647 83.76235 
L 106.081065 83.76235 
L 106.891366 88.800567 
L 107.704373 88.800567 
L 108.511969 83.76235 
L 109.323623 83.76235 
L 110.136629 78.724134 
L 115.009258 78.724134 
L 115.816854 83.76235 
L 117.44422 83.76235 
L 118.254521 88.800567 
L 120.684072 88.800567 
L 121.497079 93.838783 
L 127.988957 93.838783 
L 129.613618 103.915216 
L 131.23422 103.915216 
L 132.045874 108.953433 
L 142.593317 108.953433 
L 145.030984 93.838783 
L 146.656997 93.838783 
L 148.280305 83.76235 
L 149.091959 83.76235 
L 149.904966 78.724134 
L 152.338575 78.724134 
L 153.148876 83.76235 
L 161.260004 83.76235 
L 162.073011 88.800567 
L 165.318273 88.800567 
L 166.132633 98.877 
L 166.944287 98.877 
L 167.757294 103.915216 
L 168.567595 98.877 
L 169.379249 103.915216 
L 170.18955 98.877 
L 172.624512 98.877 
L 173.437518 93.838783 
L 176.684134 93.838783 
L 177.497141 88.800567 
L 179.929397 88.800567 
L 180.739698 83.76235 
L 182.361653 93.838783 
L 183.17466 108.953433 
L 183.986314 108.953433 
L 184.796615 103.915216 
L 185.609621 108.953433 
L 186.421275 103.915216 
L 188.044583 103.915216 
L 190.479545 88.800567 
L 191.292552 93.838783 
L 192.104205 88.800567 
L 192.917212 88.800567 
L 193.727513 93.838783 
L 196.166533 93.838783 
L 196.97954 103.915216 
L 197.789841 108.953433 
L 201.844052 108.953433 
L 202.653001 103.915216 
L 203.466008 108.953433 
L 204.279014 103.915216 
L 207.52563 103.915216 
L 208.335931 108.953433 
L 219.704497 108.953433 
L 220.517504 103.915216 
L 221.327805 108.953433 
L 222.140811 103.915216 
L 222.951113 103.915216 
L 223.764119 98.877 
L 225.386074 98.877 
L 226.196375 93.838783 
L 227.009382 93.838783 
L 227.771654 89.107101 
L 227.771654 89.107101 
" clip-path="url(#pd31b90e826)" style="fill: none; stroke: #00acc6; stroke-opacity: 0.5; stroke-width: 2; stroke-linecap: square"/>
   </g>
   <g id="line2d_15">
    <path d="M 41.13793 78.724134 
L 42.761238 78.724134 
L 43.571539 73.685917 
L 44.38184 73.685917 
L 45.194847 68.647701 
L 46.006501 73.685917 
L 46.819507 68.647701 
L 47.628456 73.685917 
L 48.438757 68.647701 
L 49.250411 68.647701 
L 50.062065 63.609484 
L 50.873719 63.609484 
L 51.690784 68.647701 
L 56.555296 68.647701 
L 57.368303 93.838783 
L 58.179957 98.877 
L 58.997022 108.953433 
L 60.616271 108.953433 
L 61.425219 103.915216 
L 62.238226 108.953433 
L 63.048527 108.953433 
L 63.860181 103.915216 
L 64.670482 108.953433 
L 65.484842 108.953433 
L 66.295143 103.915216 
L 67.105444 103.915216 
L 67.919804 98.877 
L 68.730105 98.877 
L 70.356118 88.800567 
L 71.165066 88.800567 
L 71.979426 93.838783 
L 72.788374 88.800567 
L 73.601381 88.800567 
L 74.413035 83.76235 
L 76.036343 83.76235 
L 76.847997 78.724134 
L 77.659651 78.724134 
L 78.472657 73.685917 
L 79.287017 73.685917 
L 80.097318 68.647701 
L 82.53228 68.647701 
L 83.343933 63.609484 
L 84.967241 63.609484 
L 85.778895 68.647701 
L 86.587844 63.609484 
L 87.402203 73.685917 
L 88.212504 73.685917 
L 89.021453 78.724134 
L 93.081075 78.724134 
L 93.892729 73.685917 
L 94.704383 73.685917 
L 95.516037 68.647701 
L 101.203025 68.647701 
L 102.016032 73.685917 
L 105.262647 73.685917 
L 106.081065 78.724134 
L 106.891366 88.800567 
L 109.323623 88.800567 
L 110.136629 83.76235 
L 110.945578 88.800567 
L 113.381892 88.800567 
L 114.193546 83.76235 
L 115.816854 83.76235 
L 116.631213 78.724134 
L 121.497079 78.724134 
L 123.121739 88.800567 
L 127.174598 88.800567 
L 127.988957 83.76235 
L 129.613618 93.838783 
L 131.23422 93.838783 
L 132.045874 98.877 
L 134.479483 98.877 
L 136.104144 108.953433 
L 136.91715 103.915216 
L 138.537753 103.915216 
L 139.349406 108.953433 
L 140.159708 103.915216 
L 140.972714 103.915216 
L 144.216624 83.76235 
L 145.846696 83.76235 
L 146.656997 93.838783 
L 147.468651 88.800567 
L 148.280305 88.800567 
L 149.091959 83.76235 
L 149.904966 83.76235 
L 150.713914 78.724134 
L 155.579779 78.724134 
L 156.39008 73.685917 
L 157.201734 78.724134 
L 163.696318 78.724134 
L 164.509325 83.76235 
L 166.132633 83.76235 
L 168.567595 98.877 
L 170.18955 98.877 
L 171.001204 103.915216 
L 172.624512 103.915216 
L 173.437518 98.877 
L 176.684134 98.877 
L 177.497141 93.838783 
L 179.929397 93.838783 
L 180.739698 88.800567 
L 181.554057 88.800567 
L 182.361653 98.877 
L 183.986314 108.953433 
L 184.796615 103.915216 
L 187.232929 103.915216 
L 188.856237 93.838783 
L 189.666538 93.838783 
L 190.479545 88.800567 
L 196.166533 88.800567 
L 198.59879 103.915216 
L 199.406385 103.915216 
L 200.22345 108.953433 
L 201.029693 108.953433 
L 201.844052 103.915216 
L 203.466008 103.915216 
L 204.279014 98.877 
L 209.148938 98.877 
L 209.959239 103.915216 
L 214.020214 103.915216 
L 214.833221 98.877 
L 215.644875 103.915216 
L 216.455176 98.877 
L 217.270888 103.915216 
L 218.082542 103.915216 
L 218.89149 98.877 
L 219.704497 98.877 
L 220.517504 93.838783 
L 221.327805 98.877 
L 222.140811 93.838783 
L 222.951113 93.838783 
L 223.764119 88.800567 
L 224.57442 93.838783 
L 225.386074 93.838783 
L 226.196375 88.800567 
L 227.009382 88.800567 
L 227.771654 84.068885 
L 227.771654 84.068885 
" clip-path="url(#pd31b90e826)" style="fill: none; stroke: #97ff00; stroke-opacity: 0.5; stroke-width: 2; stroke-linecap: square"/>
   </g>
   <g id="line2d_16">
    <path d="M 41.13793 58.571268 
L 42.761238 58.571268 
L 43.571539 53.533051 
L 44.38184 53.533051 
L 45.194847 48.494835 
L 46.819507 58.571268 
L 48.438757 58.571268 
L 50.062065 48.494835 
L 50.873719 53.533051 
L 51.690784 53.533051 
L 52.498379 63.609484 
L 53.312739 58.571268 
L 54.120334 58.571268 
L 54.931988 53.533051 
L 55.749053 58.571268 
L 56.555296 58.571268 
L 57.368303 78.724134 
L 58.179957 68.647701 
L 58.997022 73.685917 
L 65.484842 73.685917 
L 66.295143 68.647701 
L 67.105444 68.647701 
L 67.919804 63.609484 
L 73.601381 63.609484 
L 74.413035 58.571268 
L 76.036343 58.571268 
L 76.847997 53.533051 
L 79.287017 53.533051 
L 80.097318 48.494835 
L 80.910324 53.533051 
L 82.53228 53.533051 
L 84.154235 43.456618 
L 84.967241 48.494835 
L 86.587844 48.494835 
L 87.402203 53.533051 
L 88.212504 48.494835 
L 89.021453 63.609484 
L 90.643408 63.609484 
L 91.456414 68.647701 
L 93.081075 58.571268 
L 93.892729 58.571268 
L 94.704383 48.494835 
L 97.952351 48.494835 
L 98.762652 53.533051 
L 99.575659 48.494835 
L 100.388666 48.494835 
L 102.016032 58.571268 
L 102.823627 53.533051 
L 103.636634 53.533051 
L 104.448288 58.571268 
L 106.081065 58.571268 
L 106.891366 63.609484 
L 112.568885 63.609484 
L 113.381892 68.647701 
L 115.009258 68.647701 
L 115.816854 73.685917 
L 116.631213 68.647701 
L 117.44422 73.685917 
L 118.254521 73.685917 
L 119.066175 68.647701 
L 124.745047 68.647701 
L 125.553995 63.609484 
L 126.364297 68.647701 
L 127.174598 68.647701 
L 127.988957 63.609484 
L 128.797906 68.647701 
L 129.613618 78.724134 
L 130.422566 78.724134 
L 131.23422 83.76235 
L 132.045874 83.76235 
L 132.857528 88.800567 
L 133.667829 88.800567 
L 134.479483 93.838783 
L 135.29249 93.838783 
L 136.104144 98.877 
L 138.537753 98.877 
L 139.349406 103.915216 
L 140.159708 98.877 
L 140.972714 98.877 
L 141.781663 88.800567 
L 143.406323 78.724134 
L 144.216624 68.647701 
L 149.904966 68.647701 
L 150.713914 73.685917 
L 151.525568 68.647701 
L 153.148876 78.724134 
L 153.956471 73.685917 
L 154.769478 78.724134 
L 156.39008 68.647701 
L 158.014741 78.724134 
L 158.825042 73.685917 
L 171.812858 73.685917 
L 172.624512 78.724134 
L 175.062179 78.724134 
L 175.869774 83.76235 
L 176.684134 78.724134 
L 177.497141 83.76235 
L 179.120448 83.76235 
L 179.929397 78.724134 
L 180.739698 78.724134 
L 181.554057 83.76235 
L 182.361653 93.838783 
L 183.17466 98.877 
L 185.609621 98.877 
L 186.421275 93.838783 
L 188.044583 93.838783 
L 188.856237 88.800567 
L 189.666538 88.800567 
L 190.479545 83.76235 
L 191.292552 83.76235 
L 192.104205 88.800567 
L 193.727513 88.800567 
L 194.541873 93.838783 
L 195.349468 88.800567 
L 196.166533 93.838783 
L 197.789841 93.838783 
L 198.59879 88.800567 
L 199.406385 88.800567 
L 200.22345 83.76235 
L 201.029693 88.800567 
L 202.653001 78.724134 
L 209.148938 78.724134 
L 209.959239 83.76235 
L 214.020214 83.76235 
L 214.833221 78.724134 
L 215.644875 78.724134 
L 216.455176 83.76235 
L 218.082542 83.76235 
L 218.89149 73.685917 
L 219.704497 78.724134 
L 220.517504 73.685917 
L 221.327805 78.724134 
L 222.140811 73.685917 
L 222.951113 73.685917 
L 223.764119 68.647701 
L 227.009382 68.647701 
L 227.771654 63.916018 
L 227.771654 63.916018 
" clip-path="url(#pd31b90e826)" style="fill: none; stroke: #ff7ed1; stroke-opacity: 0.5; stroke-width: 2; stroke-linecap: square"/>
   </g>
   <g id="patch_3">
    <path d="M 41.13793 108.953433 
L 41.13793 8.189102 
" style="fill: none; stroke: #000000; stroke-width: 0.8; stroke-linejoin: miter; stroke-linecap: square"/>
   </g>
   <g id="patch_4">
    <path d="M 216.455176 108.953433 
L 216.455176 8.189102 
" style="fill: none; stroke: #000000; stroke-width: 0.8; stroke-linejoin: miter; stroke-linecap: square"/>
   </g>
   <g id="patch_5">
    <path d="M 41.13793 108.953433 
L 216.455176 108.953433 
" style="fill: none; stroke: #000000; stroke-width: 0.8; stroke-linejoin: miter; stroke-linecap: square"/>
   </g>
   <g id="patch_6">
    <path d="M 41.13793 8.189102 
L 216.455176 8.189102 
" style="fill: none; stroke: #000000; stroke-width: 0.8; stroke-linejoin: miter; stroke-linecap: square"/>
   </g>
  </g>
 </g>
 <defs>
  <clipPath id="pd31b90e826">
   <rect x="41.13793" y="8.189102" width="175.317246" height="100.76433"/>
  </clipPath>
 </defs>
</svg>
