<?xml version="1.0" encoding="utf-8" standalone="no"?>
<!DOCTYPE svg PUBLIC "-//W3C//DTD SVG 1.1//EN"
  "http://www.w3.org/Graphics/SVG/1.1/DTD/svg11.dtd">
<svg xmlns:xlink="http://www.w3.org/1999/xlink" width="198.425197pt" height="151.181102pt" viewBox="0 0 198.425197 151.181102" xmlns="http://www.w3.org/2000/svg" version="1.1">
 <metadata>
  <rdf:RDF xmlns:dc="http://purl.org/dc/elements/1.1/" xmlns:cc="http://creativecommons.org/ns#" xmlns:rdf="http://www.w3.org/1999/02/22-rdf-syntax-ns#">
   <cc:Work>
    <dc:type rdf:resource="http://purl.org/dc/dcmitype/StillImage"/>
    <dc:date>2024-11-19T22:40:33.855982</dc:date>
    <dc:format>image/svg+xml</dc:format>
    <dc:creator>
     <cc:Agent>
      <dc:title>Matplotlib v3.5.3, https://matplotlib.org/</dc:title>
     </cc:Agent>
    </dc:creator>
   </cc:Work>
  </rdf:RDF>
 </metadata>
 <defs>
  <style type="text/css">*{stroke-linejoin: round; stroke-linecap: butt}</style>
 </defs>
 <g id="figure_1">
  <g id="patch_1">
   <path d="M 0 151.181102 
L 198.425197 151.181102 
L 198.425197 0 
L 0 0 
z
" style="fill: #ffffff"/>
  </g>
  <g id="axes_1">
   <g id="patch_2">
    <path d="M 44.815043 114.598919 
L 135.926852 114.598919 
L 135.926852 9.017435 
L 44.815043 9.017435 
z
" style="fill: #ffffff"/>
   </g>
   <g id="matplotlib.axis_1">
    <g id="xtick_1">
     <g id="line2d_1">
      <defs>
       <path id="m1a3f35028d" d="M 0 0 
L 0 3.5 
" style="stroke: #000000; stroke-width: 0.8"/>
      </defs>
      <g>
       <use xlink:href="#m1a3f35028d" x="44.815043" y="114.598919" style="stroke: #000000; stroke-width: 0.8"/>
      </g>
     </g>
     <g id="text_1">
      <!-- 00 -->
      <g transform="translate(38.962053 129.901098)scale(0.12 -0.12)">
       <defs>
        <path id="CMR17-30" d="M 2688 2025 
C 2688 2416 2682 3080 2413 3591 
C 2176 4039 1798 4198 1466 4198 
C 1158 4198 768 4058 525 3597 
C 269 3118 243 2524 243 2025 
C 243 1661 250 1106 448 619 
C 723 -39 1216 -128 1466 -128 
C 1760 -128 2208 -7 2470 600 
C 2662 1042 2688 1559 2688 2025 
z
M 1466 -26 
C 1056 -26 813 325 723 812 
C 653 1188 653 1738 653 2096 
C 653 2588 653 2997 736 3387 
C 858 3929 1216 4096 1466 4096 
C 1728 4096 2067 3923 2189 3400 
C 2272 3036 2278 2607 2278 2096 
C 2278 1680 2278 1169 2202 792 
C 2067 95 1690 -26 1466 -26 
z
" transform="scale(0.015625)"/>
       </defs>
       <use xlink:href="#CMR17-30" transform="scale(0.996264)"/>
       <use xlink:href="#CMR17-30" transform="translate(45.690477 0)scale(0.996264)"/>
      </g>
     </g>
    </g>
    <g id="xtick_2">
     <g id="line2d_2">
      <g>
       <use xlink:href="#m1a3f35028d" x="58.655201" y="114.598919" style="stroke: #000000; stroke-width: 0.8"/>
      </g>
     </g>
     <g id="text_2">
      <!-- 06 -->
      <g transform="translate(52.802211 129.901098)scale(0.12 -0.12)">
       <defs>
        <path id="CMR17-36" d="M 678 2176 
C 678 3690 1395 4032 1811 4032 
C 1946 4032 2272 4009 2400 3776 
C 2298 3776 2106 3776 2106 3553 
C 2106 3381 2246 3323 2336 3323 
C 2394 3323 2566 3348 2566 3560 
C 2566 3954 2246 4179 1805 4179 
C 1043 4179 243 3390 243 1984 
C 243 253 966 -128 1478 -128 
C 2099 -128 2688 427 2688 1283 
C 2688 2081 2170 2662 1517 2662 
C 1126 2662 838 2407 678 1960 
L 678 2176 
z
M 1478 25 
C 691 25 691 1200 691 1436 
C 691 1896 909 2560 1504 2560 
C 1613 2560 1926 2560 2138 2120 
C 2253 1870 2253 1609 2253 1289 
C 2253 944 2253 690 2118 434 
C 1978 171 1773 25 1478 25 
z
" transform="scale(0.015625)"/>
       </defs>
       <use xlink:href="#CMR17-30" transform="scale(0.996264)"/>
       <use xlink:href="#CMR17-36" transform="translate(45.690477 0)scale(0.996264)"/>
      </g>
     </g>
    </g>
    <g id="xtick_3">
     <g id="line2d_3">
      <g>
       <use xlink:href="#m1a3f35028d" x="72.495359" y="114.598919" style="stroke: #000000; stroke-width: 0.8"/>
      </g>
     </g>
     <g id="text_3">
      <!-- 12 -->
      <g transform="translate(66.642369 129.901098)scale(0.12 -0.12)">
       <defs>
        <path id="CMR17-31" d="M 1702 4058 
C 1702 4192 1696 4192 1606 4192 
C 1357 3916 979 3827 621 3827 
C 602 3827 570 3827 563 3808 
C 557 3795 557 3782 557 3648 
C 755 3648 1088 3686 1344 3839 
L 1344 461 
C 1344 236 1331 160 781 160 
L 589 160 
L 589 0 
C 896 0 1216 0 1523 0 
C 1830 0 2150 0 2458 0 
L 2458 160 
L 2266 160 
C 1715 160 1702 230 1702 458 
L 1702 4058 
z
" transform="scale(0.015625)"/>
        <path id="CMR17-32" d="M 2669 989 
L 2554 989 
C 2490 536 2438 459 2413 420 
C 2381 369 1920 369 1830 369 
L 602 369 
C 832 619 1280 1072 1824 1597 
C 2214 1967 2669 2402 2669 3035 
C 2669 3790 2067 4224 1395 4224 
C 691 4224 262 3604 262 3030 
C 262 2780 448 2748 525 2748 
C 589 2748 781 2787 781 3010 
C 781 3207 614 3264 525 3264 
C 486 3264 448 3258 422 3245 
C 544 3790 915 4058 1306 4058 
C 1862 4058 2227 3617 2227 3035 
C 2227 2479 1901 2000 1536 1584 
L 262 146 
L 262 0 
L 2515 0 
L 2669 989 
z
" transform="scale(0.015625)"/>
       </defs>
       <use xlink:href="#CMR17-31" transform="scale(0.996264)"/>
       <use xlink:href="#CMR17-32" transform="translate(45.690477 0)scale(0.996264)"/>
      </g>
     </g>
    </g>
    <g id="xtick_4">
     <g id="line2d_4">
      <g>
       <use xlink:href="#m1a3f35028d" x="86.335517" y="114.598919" style="stroke: #000000; stroke-width: 0.8"/>
      </g>
     </g>
     <g id="text_4">
      <!-- 18 -->
      <g transform="translate(80.482526 129.901098)scale(0.12 -0.12)">
       <defs>
        <path id="CMR17-38" d="M 1741 2264 
C 2144 2467 2554 2773 2554 3263 
C 2554 3841 1990 4179 1472 4179 
C 890 4179 378 3759 378 3180 
C 378 3021 416 2747 666 2505 
C 730 2442 998 2251 1171 2130 
C 883 1983 211 1634 211 934 
C 211 279 838 -128 1459 -128 
C 2144 -128 2720 362 2720 1010 
C 2720 1590 2330 1857 2074 2029 
L 1741 2264 
z
M 902 2822 
C 851 2854 595 3051 595 3351 
C 595 3739 998 4032 1459 4032 
C 1965 4032 2336 3676 2336 3262 
C 2336 2669 1670 2331 1638 2331 
C 1632 2331 1626 2331 1574 2370 
L 902 2822 
z
M 2080 1519 
C 2176 1449 2483 1240 2483 851 
C 2483 381 2010 25 1472 25 
C 890 25 448 438 448 940 
C 448 1443 838 1862 1280 2060 
L 2080 1519 
z
" transform="scale(0.015625)"/>
       </defs>
       <use xlink:href="#CMR17-31" transform="scale(0.996264)"/>
       <use xlink:href="#CMR17-38" transform="translate(45.690477 0)scale(0.996264)"/>
      </g>
     </g>
    </g>
    <g id="xtick_5">
     <g id="line2d_5">
      <g>
       <use xlink:href="#m1a3f35028d" x="100.175674" y="114.598919" style="stroke: #000000; stroke-width: 0.8"/>
      </g>
     </g>
     <g id="text_5">
      <!-- 24 -->
      <g transform="translate(94.322684 129.901098)scale(0.12 -0.12)">
       <defs>
        <path id="CMR17-34" d="M 2150 4122 
C 2150 4256 2144 4256 2029 4256 
L 128 1254 
L 128 1088 
L 1779 1088 
L 1779 457 
C 1779 224 1766 160 1318 160 
L 1197 160 
L 1197 0 
C 1402 0 1747 0 1965 0 
C 2182 0 2528 0 2733 0 
L 2733 160 
L 2611 160 
C 2163 160 2150 224 2150 457 
L 2150 1088 
L 2803 1088 
L 2803 1254 
L 2150 1254 
L 2150 4122 
z
M 1798 3703 
L 1798 1254 
L 256 1254 
L 1798 3703 
z
" transform="scale(0.015625)"/>
       </defs>
       <use xlink:href="#CMR17-32" transform="scale(0.996264)"/>
       <use xlink:href="#CMR17-34" transform="translate(45.690477 0)scale(0.996264)"/>
      </g>
     </g>
    </g>
    <g id="xtick_6">
     <g id="line2d_6">
      <g>
       <use xlink:href="#m1a3f35028d" x="114.015832" y="114.598919" style="stroke: #000000; stroke-width: 0.8"/>
      </g>
     </g>
     <g id="text_6">
      <!-- 30 -->
      <g transform="translate(108.162842 129.901098)scale(0.12 -0.12)">
       <defs>
        <path id="CMR17-33" d="M 1414 2157 
C 1984 2157 2234 1662 2234 1090 
C 2234 320 1824 25 1453 25 
C 1114 25 563 194 390 693 
C 422 680 454 680 486 680 
C 640 680 755 782 755 948 
C 755 1133 614 1216 486 1216 
C 378 1216 211 1165 211 926 
C 211 335 787 -128 1466 -128 
C 2176 -128 2720 430 2720 1085 
C 2720 1707 2208 2157 1600 2227 
C 2086 2328 2554 2756 2554 3329 
C 2554 3820 2048 4179 1472 4179 
C 890 4179 378 3829 378 3329 
C 378 3110 544 3072 627 3072 
C 762 3072 877 3155 877 3321 
C 877 3486 762 3569 627 3569 
C 602 3569 570 3569 544 3557 
C 730 3959 1235 4032 1459 4032 
C 1683 4032 2106 3925 2106 3320 
C 2106 3143 2080 2828 1862 2550 
C 1670 2304 1453 2304 1242 2284 
C 1210 2284 1062 2269 1037 2269 
C 992 2263 966 2257 966 2208 
C 966 2163 973 2157 1101 2157 
L 1414 2157 
z
" transform="scale(0.015625)"/>
       </defs>
       <use xlink:href="#CMR17-33" transform="scale(0.996264)"/>
       <use xlink:href="#CMR17-30" transform="translate(45.690477 0)scale(0.996264)"/>
      </g>
     </g>
    </g>
    <g id="xtick_7">
     <g id="line2d_7">
      <g>
       <use xlink:href="#m1a3f35028d" x="127.85599" y="114.598919" style="stroke: #000000; stroke-width: 0.8"/>
      </g>
     </g>
     <g id="text_7">
      <!-- 36 -->
      <g transform="translate(122.002999 129.901098)scale(0.12 -0.12)">
       <use xlink:href="#CMR17-33" transform="scale(0.996264)"/>
       <use xlink:href="#CMR17-36" transform="translate(45.690477 0)scale(0.996264)"/>
      </g>
     </g>
    </g>
    <g id="text_8">
     <!-- time [h] -->
     <g transform="translate(70.535814 145.19207)scale(0.12 -0.12)">
      <defs>
       <path id="CMR17-74" d="M 966 2560 
L 1862 2560 
L 1862 2725 
L 966 2725 
L 966 3904 
L 851 3904 
C 838 3245 614 2668 70 2668 
L 70 2560 
L 627 2560 
L 627 771 
C 627 650 627 -64 1370 -64 
C 1747 -64 1965 306 1965 777 
L 1965 1140 
L 1850 1140 
L 1850 783 
C 1850 344 1677 51 1408 51 
C 1222 51 966 178 966 758 
L 966 2560 
z
" transform="scale(0.015625)"/>
       <path id="CMR17-69" d="M 992 3909 
C 992 4049 877 4170 730 4170 
C 589 4170 467 4056 467 3909 
C 467 3769 582 3648 730 3648 
C 870 3648 992 3763 992 3909 
z
M 243 2706 
L 243 2541 
C 602 2541 653 2502 653 2197 
L 653 427 
C 653 184 627 153 218 153 
L 218 -13 
C 371 0 646 0 806 0 
C 960 0 1222 0 1370 -13 
L 1370 153 
C 992 153 979 191 979 420 
L 979 2776 
L 243 2706 
z
" transform="scale(0.015625)"/>
       <path id="CMR17-6d" d="M 4326 1933 
C 4326 2252 4269 2790 3507 2790 
C 3072 2790 2771 2496 2656 2151 
L 2650 2151 
C 2573 2676 2195 2790 1837 2790 
C 1331 2790 1069 2400 973 2144 
L 966 2144 
L 966 2790 
L 211 2720 
L 211 2554 
C 589 2554 646 2515 646 2208 
L 646 428 
C 646 184 621 153 211 153 
L 211 -13 
C 365 0 646 0 813 0 
C 979 0 1267 0 1421 -13 
L 1421 153 
C 1011 153 986 178 986 428 
L 986 1658 
C 986 2247 1344 2688 1792 2688 
C 2266 2688 2317 2266 2317 1958 
L 2317 428 
C 2317 184 2291 153 1882 153 
L 1882 -13 
C 2035 0 2317 0 2483 0 
C 2650 0 2938 0 3091 -13 
L 3091 153 
C 2682 153 2656 178 2656 428 
L 2656 1658 
C 2656 2247 3014 2688 3462 2688 
C 3936 2688 3987 2266 3987 1958 
L 3987 428 
C 3987 184 3962 153 3552 153 
L 3552 -13 
C 3706 0 3987 0 4154 0 
C 4320 0 4608 0 4762 -13 
L 4762 153 
C 4352 153 4326 178 4326 428 
L 4326 1933 
z
" transform="scale(0.015625)"/>
       <path id="CMR17-65" d="M 2438 1472 
C 2464 1498 2464 1511 2464 1576 
C 2464 2238 2118 2816 1389 2816 
C 710 2816 173 2169 173 1383 
C 173 551 781 -64 1459 -64 
C 2176 -64 2458 607 2458 740 
C 2458 784 2419 784 2406 784 
C 2362 784 2355 771 2330 696 
C 2189 265 1837 51 1504 51 
C 1229 51 954 203 781 480 
C 582 803 582 1176 582 1472 
L 2438 1472 
z
M 589 1568 
C 634 2505 1126 2714 1382 2714 
C 1818 2714 2112 2297 2118 1568 
L 589 1568 
z
" transform="scale(0.015625)"/>
       <path id="CMR17-5b" d="M 1504 -1600 
L 1504 -1377 
L 902 -1377 
L 902 4544 
L 1504 4544 
L 1504 4767 
L 678 4767 
L 678 -1600 
L 1504 -1600 
z
" transform="scale(0.015625)"/>
       <path id="CMR17-68" d="M 2656 1933 
C 2656 2259 2592 2790 1837 2790 
C 1312 2790 1056 2368 979 2157 
L 973 2157 
L 973 4396 
L 211 4326 
L 211 4160 
C 589 4160 646 4122 646 3817 
L 646 426 
C 646 184 621 153 211 153 
L 211 -13 
C 365 0 646 0 813 0 
C 979 0 1267 0 1421 -13 
L 1421 153 
C 1011 153 986 178 986 428 
L 986 1658 
C 986 2247 1344 2688 1792 2688 
C 2266 2688 2317 2266 2317 1958 
L 2317 428 
C 2317 184 2291 153 1882 153 
L 1882 -13 
C 2035 0 2317 0 2483 0 
C 2650 0 2938 0 3091 -13 
L 3091 153 
C 2682 153 2656 178 2656 428 
L 2656 1933 
z
" transform="scale(0.015625)"/>
       <path id="CMR17-5d" d="M 915 4767 
L 90 4767 
L 90 4544 
L 691 4544 
L 691 -1377 
L 90 -1377 
L 90 -1600 
L 915 -1600 
L 915 4767 
z
" transform="scale(0.015625)"/>
      </defs>
      <use xlink:href="#CMR17-74" transform="scale(0.996264)"/>
      <use xlink:href="#CMR17-69" transform="translate(35.280768 0)scale(0.996264)"/>
      <use xlink:href="#CMR17-6d" transform="translate(60.151826 0)scale(0.996264)"/>
      <use xlink:href="#CMR17-65" transform="translate(137.071416 0)scale(0.996264)"/>
      <use xlink:href="#CMR17-5b" transform="translate(207.633043 0)scale(0.996264)"/>
      <use xlink:href="#CMR17-68" transform="translate(232.504101 0)scale(0.996264)"/>
      <use xlink:href="#CMR17-5d" transform="translate(283.399471 0)scale(0.996264)"/>
     </g>
    </g>
   </g>
   <g id="matplotlib.axis_2">
    <g id="ytick_1">
     <g id="line2d_8">
      <defs>
       <path id="mb1578dd0f2" d="M 0 0 
L -3.5 0 
" style="stroke: #000000; stroke-width: 0.8"/>
      </defs>
      <g>
       <use xlink:href="#mb1578dd0f2" x="44.815043" y="105.800462" style="stroke: #000000; stroke-width: 0.8"/>
      </g>
     </g>
     <g id="text_9">
      <!-- -2.5 -->
      <g transform="translate(18.955408 109.951552)scale(0.12 -0.12)">
       <defs>
        <path id="CMR17-2d" d="M 1632 1216 
L 1632 1496 
L 26 1496 
L 26 1216 
L 1632 1216 
z
" transform="scale(0.015625)"/>
        <path id="CMR17-2e" d="M 1062 261 
C 1062 420 934 522 800 522 
C 672 522 538 420 538 261 
C 538 102 666 0 800 0 
C 928 0 1062 102 1062 261 
z
" transform="scale(0.015625)"/>
        <path id="CMR17-35" d="M 730 3692 
C 794 3666 1056 3584 1325 3584 
C 1920 3584 2246 3911 2432 4100 
C 2432 4157 2432 4192 2394 4192 
C 2387 4192 2374 4192 2323 4163 
C 2099 4058 1837 3973 1517 3973 
C 1325 3973 1037 3999 723 4139 
C 653 4171 640 4171 634 4171 
C 602 4171 595 4164 595 4037 
L 595 2203 
C 595 2089 595 2057 659 2057 
C 691 2057 704 2070 736 2114 
C 941 2401 1222 2522 1542 2522 
C 1766 2522 2246 2382 2246 1289 
C 2246 1085 2246 715 2054 421 
C 1894 159 1645 25 1370 25 
C 947 25 518 320 403 814 
C 429 807 480 795 506 795 
C 589 795 749 840 749 1038 
C 749 1210 627 1280 506 1280 
C 358 1280 262 1190 262 1011 
C 262 454 704 -128 1382 -128 
C 2042 -128 2669 440 2669 1264 
C 2669 2030 2170 2624 1549 2624 
C 1222 2624 947 2503 730 2274 
L 730 3692 
z
" transform="scale(0.015625)"/>
       </defs>
       <use xlink:href="#CMR17-2d" transform="scale(0.996264)"/>
       <use xlink:href="#CMR17-32" transform="translate(30.075966 0)scale(0.996264)"/>
       <use xlink:href="#CMR17-2e" transform="translate(75.766443 0)scale(0.996264)"/>
       <use xlink:href="#CMR17-35" transform="translate(100.637502 0)scale(0.996264)"/>
      </g>
     </g>
    </g>
    <g id="ytick_2">
     <g id="line2d_9">
      <g>
       <use xlink:href="#mb1578dd0f2" x="44.815043" y="61.808177" style="stroke: #000000; stroke-width: 0.8"/>
      </g>
     </g>
     <g id="text_10">
      <!--  0 -->
      <g transform="translate(31.962053 65.959267)scale(0.12 -0.12)">
       <use xlink:href="#CMR17-30" transform="scale(0.996264)"/>
      </g>
     </g>
    </g>
    <g id="ytick_3">
     <g id="line2d_10">
      <g>
       <use xlink:href="#mb1578dd0f2" x="44.815043" y="17.815892" style="stroke: #000000; stroke-width: 0.8"/>
      </g>
     </g>
     <g id="text_11">
      <!-- 2.5 -->
      <g transform="translate(22.857402 21.966982)scale(0.12 -0.12)">
       <use xlink:href="#CMR17-32" transform="scale(0.996264)"/>
       <use xlink:href="#CMR17-2e" transform="translate(45.690477 0)scale(0.996264)"/>
       <use xlink:href="#CMR17-35" transform="translate(70.561536 0)scale(0.996264)"/>
      </g>
     </g>
    </g>
    <g id="text_12">
     <!-- $\mathrm{dz [\mu m]}$ -->
     <g transform="translate(11.966616 79.311805)rotate(-90)scale(0.12 -0.12)">
      <defs>
       <path id="CMR17-64" d="M 1869 4326 
L 1869 4160 
C 2246 4160 2304 4122 2304 3820 
L 2304 2345 
C 2278 2377 2016 2790 1498 2790 
C 845 2790 211 2208 211 1364 
C 211 525 806 -64 1434 -64 
C 1978 -64 2259 337 2291 380 
L 2291 -63 
L 3066 -63 
L 3066 128 
C 2688 128 2630 166 2630 473 
L 2630 4396 
L 1869 4326 
z
M 2291 755 
C 2291 563 2176 390 2029 262 
C 1811 70 1594 38 1472 38 
C 1286 38 621 134 621 1356 
C 621 2612 1363 2688 1530 2688 
C 1824 2688 2061 2522 2208 2291 
C 2291 2157 2291 2138 2291 2023 
L 2291 755 
z
" transform="scale(0.015625)"/>
       <path id="CMR17-7a" d="M 2310 2605 
C 2362 2670 2362 2682 2362 2695 
C 2362 2752 2336 2752 2221 2752 
L 275 2752 
L 211 1760 
L 326 1760 
C 371 2381 442 2650 1178 2650 
L 1958 2650 
L 128 96 
C 128 0 134 0 269 0 
L 2291 0 
L 2381 1152 
L 2266 1152 
C 2214 442 2131 115 1350 115 
L 531 115 
L 2310 2605 
z
" transform="scale(0.015625)"/>
       <path id="CMMI12-16" d="M 922 140 
C 1082 -6 1318 -64 1536 -64 
C 1946 -64 2227 208 2374 405 
C 2438 69 2707 -64 2931 -64 
C 3123 -64 3277 50 3392 277 
C 3494 493 3584 879 3584 903 
C 3584 935 3558 960 3520 960 
C 3462 960 3456 928 3430 834 
C 3334 461 3213 64 2950 64 
C 2765 64 2752 229 2752 358 
C 2752 504 2810 735 2854 926 
L 3034 1615 
C 3059 1737 3130 2023 3162 2139 
C 3200 2292 3270 2567 3270 2592 
C 3270 2688 3194 2752 3098 2752 
C 3040 2752 2906 2726 2854 2535 
L 2406 760 
C 2374 632 2374 619 2291 517 
C 2214 409 1965 64 1562 64 
C 1203 64 1088 326 1088 625 
C 1088 811 1146 1034 1171 1143 
L 1459 2293 
C 1491 2414 1542 2618 1542 2657 
C 1542 2759 1459 2816 1376 2816 
C 1318 2816 1178 2797 1126 2592 
L 198 -1107 
C 192 -1139 179 -1177 179 -1216 
C 179 -1312 256 -1376 352 -1376 
C 538 -1376 576 -1228 621 -1050 
L 922 140 
z
" transform="scale(0.015625)"/>
      </defs>
      <use xlink:href="#CMR17-64" transform="scale(0.996264)"/>
      <use xlink:href="#CMR17-7a" transform="translate(50.89537 0)scale(0.996264)"/>
      <use xlink:href="#CMR17-5b" transform="translate(91.38103 0)scale(0.996264)"/>
      <use xlink:href="#CMMI12-16" transform="translate(116.252089 0)scale(0.996264)"/>
      <use xlink:href="#CMR17-6d" transform="translate(174.94351 0)scale(0.996264)"/>
      <use xlink:href="#CMR17-5d" transform="translate(251.8631 0)scale(0.996264)"/>
     </g>
    </g>
   </g>
   <g id="line2d_11">
    <path d="M 44.815043 53.00972 
L 45.19757 70.606634 
L 45.582019 70.606634 
L 45.967108 61.808177 
L 46.352198 70.606634 
L 47.506826 70.606634 
L 47.889993 79.405091 
L 48.277005 79.405091 
L 48.659532 70.606634 
L 49.046543 79.405091 
L 50.581776 79.405091 
L 50.966225 88.203548 
L 51.349392 79.405091 
L 52.889109 79.405091 
L 53.272277 97.002005 
L 53.657366 88.203548 
L 58.651997 88.203548 
L 59.424739 70.606634 
L 59.805985 79.405091 
L 60.191715 79.405091 
L 60.574882 70.606634 
L 61.34378 70.606634 
L 61.728229 61.808177 
L 62.881575 61.808177 
L 63.265383 70.606634 
L 63.651114 61.808177 
L 64.41937 61.808177 
L 64.803819 53.00972 
L 65.188268 61.808177 
L 67.49432 61.808177 
L 67.87941 70.606634 
L 68.648308 70.606634 
L 69.032756 61.808177 
L 69.801654 61.808177 
L 70.186103 53.00972 
L 72.108347 53.00972 
L 72.493437 70.606634 
L 74.02995 70.606634 
L 74.413758 79.405091 
L 77.490631 79.405091 
L 77.875079 70.606634 
L 79.797964 70.606634 
L 80.181132 61.808177 
L 81.334478 61.808177 
L 81.719568 53.00972 
L 83.258004 53.00972 
L 83.643093 61.808177 
L 84.41135 44.211263 
L 84.79708 53.00972 
L 85.181529 53.00972 
L 85.56726 44.211263 
L 85.950427 53.00972 
L 86.335517 44.211263 
L 86.719325 44.211263 
L 87.104414 53.00972 
L 87.489504 44.211263 
L 87.875234 53.00972 
L 88.643491 53.00972 
L 89.028581 61.808177 
L 89.411107 53.00972 
L 90.183849 53.00972 
L 90.566376 44.211263 
L 91.334633 44.211263 
L 91.719082 35.412806 
L 92.104812 35.412806 
L 92.48862 44.211263 
L 93.256877 44.211263 
L 93.641326 35.412806 
L 94.025134 53.00972 
L 95.566133 53.00972 
L 95.9493 61.808177 
L 99.408699 61.808177 
L 99.791225 53.00972 
L 100.176315 61.808177 
L 100.560123 53.00972 
L 102.096637 53.00972 
L 102.483008 44.211263 
L 102.866816 44.211263 
L 103.251265 53.00972 
L 103.637636 53.00972 
L 104.019522 44.211263 
L 104.404611 44.211263 
L 104.787779 35.412806 
L 105.172868 44.211263 
L 105.558599 35.412806 
L 105.941125 44.211263 
L 106.326215 35.412806 
L 106.709382 44.211263 
L 107.095112 35.412806 
L 107.47892 35.412806 
L 107.86401 26.614349 
L 108.247818 35.412806 
L 108.632267 26.614349 
L 109.017356 26.614349 
L 109.401805 35.412806 
L 111.706576 35.412806 
L 112.092947 26.614349 
L 115.168538 26.614349 
L 115.553627 17.815892 
L 116.321884 17.815892 
L 116.708255 26.614349 
L 117.08886 9.017435 
L 117.47459 17.815892 
L 118.627296 17.815892 
L 119.012385 9.017435 
L 119.396193 17.815892 
L 120.163809 17.815892 
L 120.548258 9.017435 
L 120.932707 17.815892 
L 121.318437 9.017435 
L 121.702886 26.614349 
L 122.086054 17.815892 
L 122.85431 17.815892 
L 123.2394 26.614349 
L 124.776555 26.614349 
L 125.162926 35.412806 
L 127.852786 35.412806 
L 128.239157 26.614349 
L 128.621684 26.614349 
L 129.006132 35.412806 
L 129.390581 35.412806 
L 129.774389 26.614349 
L 131.314107 26.614349 
L 131.698556 17.815892 
L 132.466813 35.412806 
L 132.850621 26.614349 
L 134.773506 26.614349 
L 135.157954 17.815892 
L 135.926852 35.412806 
L 135.926852 35.412806 
" clip-path="url(#paf4e74d58c)" style="fill: none; stroke: #d60000; stroke-opacity: 0.7; stroke-width: 2; stroke-linecap: square"/>
   </g>
   <g id="line2d_12">
    <path d="M 44.815043 61.808177 
L 45.582019 79.405091 
L 45.967108 70.606634 
L 46.352198 70.606634 
L 46.737928 79.405091 
L 47.121736 70.606634 
L 47.506826 79.405091 
L 47.889993 79.405091 
L 48.277005 88.203548 
L 48.659532 79.405091 
L 49.046543 88.203548 
L 49.428429 88.203548 
L 49.812878 97.002005 
L 50.197327 88.203548 
L 50.581776 88.203548 
L 50.966225 97.002005 
L 51.349392 88.203548 
L 52.889109 88.203548 
L 53.272277 97.002005 
L 53.657366 88.203548 
L 54.041174 97.002005 
L 55.195162 97.002005 
L 55.581533 88.203548 
L 56.346586 88.203548 
L 56.732316 97.002005 
L 57.116124 88.203548 
L 57.499932 97.002005 
L 57.88374 97.002005 
L 58.268189 88.203548 
L 58.651997 88.203548 
L 59.038368 79.405091 
L 60.959972 79.405091 
L 61.34378 70.606634 
L 62.881575 70.606634 
L 63.265383 79.405091 
L 63.651114 70.606634 
L 65.957166 70.606634 
L 66.340974 79.405091 
L 66.726704 70.606634 
L 67.110512 79.405091 
L 67.87941 79.405091 
L 68.263859 88.203548 
L 68.648308 88.203548 
L 69.032756 79.405091 
L 69.801654 79.405091 
L 70.570552 61.808177 
L 70.955641 70.606634 
L 72.108347 70.606634 
L 72.493437 79.405091 
L 72.877885 79.405091 
L 73.261053 88.203548 
L 74.02995 88.203548 
L 74.413758 97.002005 
L 74.798848 97.002005 
L 75.183297 88.203548 
L 76.337284 88.203548 
L 76.721733 97.002005 
L 77.105541 97.002005 
L 77.490631 88.203548 
L 78.643977 88.203548 
L 79.028426 79.405091 
L 79.412875 79.405091 
L 79.797964 88.203548 
L 80.181132 79.405091 
L 80.95067 79.405091 
L 81.334478 70.606634 
L 81.719568 70.606634 
L 82.104657 61.808177 
L 82.489106 70.606634 
L 83.258004 70.606634 
L 83.643093 79.405091 
L 84.026261 70.606634 
L 85.56726 70.606634 
L 85.950427 79.405091 
L 86.335517 70.606634 
L 86.719325 70.606634 
L 87.104414 79.405091 
L 88.259683 79.405091 
L 88.643491 88.203548 
L 89.411107 88.203548 
L 89.797478 79.405091 
L 91.334633 79.405091 
L 91.719082 61.808177 
L 92.48862 79.405091 
L 92.87371 70.606634 
L 93.256877 79.405091 
L 93.641326 70.606634 
L 94.025134 88.203548 
L 94.411505 79.405091 
L 94.795954 88.203548 
L 95.566133 88.203548 
L 95.9493 97.002005 
L 97.487095 97.002005 
L 97.871544 88.203548 
L 98.254712 97.002005 
L 99.023609 97.002005 
L 99.408699 88.203548 
L 100.943931 88.203548 
L 101.327098 79.405091 
L 102.483008 79.405091 
L 102.866816 88.203548 
L 103.251265 79.405091 
L 103.637636 79.405091 
L 104.019522 70.606634 
L 106.709382 70.606634 
L 107.095112 61.808177 
L 107.47892 70.606634 
L 107.86401 70.606634 
L 108.247818 79.405091 
L 108.632267 70.606634 
L 109.017356 70.606634 
L 109.401805 79.405091 
L 110.170062 79.405091 
L 110.556433 70.606634 
L 110.941523 79.405091 
L 111.706576 79.405091 
L 112.092947 70.606634 
L 112.861845 70.606634 
L 113.246294 79.405091 
L 113.629461 70.606634 
L 114.400281 70.606634 
L 114.783448 79.405091 
L 115.168538 70.606634 
L 116.708255 70.606634 
L 117.08886 61.808177 
L 117.47459 70.606634 
L 117.859039 70.606634 
L 118.242847 61.808177 
L 118.627296 70.606634 
L 119.012385 61.808177 
L 119.396193 70.606634 
L 119.780001 70.606634 
L 120.163809 79.405091 
L 120.548258 70.606634 
L 120.932707 79.405091 
L 121.318437 70.606634 
L 121.702886 88.203548 
L 122.086054 79.405091 
L 122.85431 79.405091 
L 123.2394 88.203548 
L 124.776555 88.203548 
L 125.162926 97.002005 
L 127.852786 97.002005 
L 128.239157 88.203548 
L 130.16076 88.203548 
L 130.54585 79.405091 
L 130.929658 79.405091 
L 131.314107 88.203548 
L 131.698556 70.606634 
L 132.466813 88.203548 
L 134.389057 88.203548 
L 134.773506 79.405091 
L 135.157954 79.405091 
L 135.543044 88.203548 
L 135.926852 88.203548 
L 135.926852 88.203548 
" clip-path="url(#paf4e74d58c)" style="fill: none; stroke: #8c3bff; stroke-opacity: 0.7; stroke-width: 2; stroke-linecap: square"/>
   </g>
   <g id="line2d_13">
    <path d="M 44.815043 61.808177 
L 45.582019 79.405091 
L 45.967108 70.606634 
L 46.352198 70.606634 
L 46.737928 79.405091 
L 47.121736 79.405091 
L 47.506826 88.203548 
L 48.277005 88.203548 
L 48.659532 79.405091 
L 49.046543 88.203548 
L 49.428429 88.203548 
L 49.812878 97.002005 
L 50.197327 88.203548 
L 51.349392 88.203548 
L 51.735763 79.405091 
L 52.11893 88.203548 
L 52.505301 79.405091 
L 52.889109 79.405091 
L 53.272277 88.203548 
L 53.657366 79.405091 
L 55.195162 79.405091 
L 55.581533 70.606634 
L 55.962778 79.405091 
L 56.346586 70.606634 
L 56.732316 79.405091 
L 57.116124 70.606634 
L 57.499932 79.405091 
L 57.88374 79.405091 
L 58.268189 70.606634 
L 58.651997 70.606634 
L 59.038368 61.808177 
L 60.959972 61.808177 
L 61.34378 53.00972 
L 61.728229 53.00972 
L 62.113318 61.808177 
L 62.497126 61.808177 
L 62.881575 53.00972 
L 63.265383 70.606634 
L 63.651114 61.808177 
L 64.035562 61.808177 
L 64.41937 70.606634 
L 65.957166 70.606634 
L 66.340974 79.405091 
L 66.726704 70.606634 
L 67.110512 79.405091 
L 68.648308 79.405091 
L 69.032756 70.606634 
L 70.186103 70.606634 
L 70.570552 61.808177 
L 71.723898 61.808177 
L 72.493437 79.405091 
L 72.877885 70.606634 
L 73.261053 79.405091 
L 74.798848 79.405091 
L 75.183297 70.606634 
L 75.569027 79.405091 
L 75.952194 70.606634 
L 77.875079 70.606634 
L 78.260169 61.808177 
L 79.797964 61.808177 
L 80.181132 53.00972 
L 80.566862 53.00972 
L 80.95067 61.808177 
L 81.334478 53.00972 
L 81.719568 61.808177 
L 82.104657 53.00972 
L 82.872914 70.606634 
L 83.258004 61.808177 
L 83.643093 70.606634 
L 84.026261 61.808177 
L 84.41135 70.606634 
L 85.56726 70.606634 
L 85.950427 79.405091 
L 86.335517 79.405091 
L 86.719325 70.606634 
L 87.104414 79.405091 
L 89.028581 79.405091 
L 89.411107 88.203548 
L 89.797478 79.405091 
L 90.183849 88.203548 
L 90.566376 79.405091 
L 91.334633 79.405091 
L 91.719082 61.808177 
L 92.104812 61.808177 
L 92.48862 79.405091 
L 93.256877 79.405091 
L 93.641326 70.606634 
L 94.025134 88.203548 
L 94.411505 79.405091 
L 94.795954 79.405091 
L 95.180403 88.203548 
L 95.566133 79.405091 
L 95.9493 88.203548 
L 96.333108 88.203548 
L 96.717557 79.405091 
L 97.871544 79.405091 
L 98.254712 70.606634 
L 98.63852 79.405091 
L 99.023609 79.405091 
L 99.408699 70.606634 
L 100.943931 70.606634 
L 101.327098 61.808177 
L 102.483008 61.808177 
L 102.866816 70.606634 
L 103.251265 61.808177 
L 105.558599 61.808177 
L 105.941125 70.606634 
L 106.326215 61.808177 
L 106.709382 70.606634 
L 107.095112 61.808177 
L 107.47892 70.606634 
L 107.86401 70.606634 
L 108.247818 79.405091 
L 108.632267 70.606634 
L 109.017356 53.00972 
L 109.401805 53.00972 
L 109.786254 61.808177 
L 110.170062 53.00972 
L 110.941523 53.00972 
L 111.325972 61.808177 
L 111.706576 53.00972 
L 112.476755 53.00972 
L 112.861845 61.808177 
L 113.246294 53.00972 
L 114.400281 53.00972 
L 114.783448 61.808177 
L 115.168538 61.808177 
L 115.553627 53.00972 
L 115.936795 61.808177 
L 116.708255 61.808177 
L 117.08886 53.00972 
L 117.47459 70.606634 
L 117.859039 70.606634 
L 118.242847 61.808177 
L 118.627296 70.606634 
L 119.012385 61.808177 
L 119.396193 79.405091 
L 120.163809 79.405091 
L 120.548258 70.606634 
L 120.932707 79.405091 
L 121.318437 79.405091 
L 121.702886 88.203548 
L 122.086054 79.405091 
L 122.85431 79.405091 
L 123.2394 88.203548 
L 123.623208 79.405091 
L 124.008938 88.203548 
L 124.392747 88.203548 
L 124.776555 79.405091 
L 125.162926 88.203548 
L 125.930542 88.203548 
L 126.315631 79.405091 
L 127.468337 79.405091 
L 127.852786 70.606634 
L 128.239157 70.606634 
L 128.621684 61.808177 
L 129.006132 70.606634 
L 129.774389 70.606634 
L 130.16076 61.808177 
L 130.54585 70.606634 
L 130.929658 61.808177 
L 131.314107 61.808177 
L 131.698556 53.00972 
L 132.084286 61.808177 
L 135.157954 61.808177 
L 135.543044 70.606634 
L 135.926852 61.808177 
L 135.926852 61.808177 
" clip-path="url(#paf4e74d58c)" style="fill: none; stroke: #018700; stroke-opacity: 0.7; stroke-width: 2; stroke-linecap: square"/>
   </g>
   <g id="line2d_14">
    <path d="M 44.815043 53.00972 
L 45.19757 70.606634 
L 45.582019 79.405091 
L 45.967108 61.808177 
L 46.352198 70.606634 
L 47.121736 70.606634 
L 47.506826 79.405091 
L 49.046543 79.405091 
L 49.812878 97.002005 
L 50.197327 79.405091 
L 50.581776 79.405091 
L 50.966225 88.203548 
L 51.735763 70.606634 
L 52.505301 70.606634 
L 52.889109 61.808177 
L 53.272277 70.606634 
L 54.041174 70.606634 
L 54.426264 61.808177 
L 54.810072 70.606634 
L 55.195162 61.808177 
L 55.581533 70.606634 
L 57.88374 70.606634 
L 58.268189 61.808177 
L 60.191715 61.808177 
L 60.574882 70.606634 
L 60.959972 70.606634 
L 61.34378 61.808177 
L 62.113318 61.808177 
L 62.497126 70.606634 
L 62.881575 61.808177 
L 63.265383 70.606634 
L 63.651114 70.606634 
L 64.035562 61.808177 
L 64.41937 70.606634 
L 64.803819 61.808177 
L 65.188268 70.606634 
L 65.572076 70.606634 
L 65.957166 61.808177 
L 66.340974 70.606634 
L 66.726704 61.808177 
L 67.110512 70.606634 
L 67.49432 70.606634 
L 67.87941 79.405091 
L 68.648308 61.808177 
L 69.801654 61.808177 
L 70.570552 44.211263 
L 70.955641 53.00972 
L 71.339449 53.00972 
L 71.723898 44.211263 
L 72.493437 61.808177 
L 72.877885 53.00972 
L 73.261053 61.808177 
L 73.646783 53.00972 
L 74.02995 61.808177 
L 74.798848 61.808177 
L 75.183297 53.00972 
L 75.569027 61.808177 
L 75.952194 61.808177 
L 76.337284 53.00972 
L 76.721733 61.808177 
L 79.797964 61.808177 
L 80.181132 53.00972 
L 80.95067 70.606634 
L 81.334478 61.808177 
L 82.489106 61.808177 
L 82.872914 70.606634 
L 83.258004 61.808177 
L 83.643093 70.606634 
L 84.026261 61.808177 
L 86.719325 61.808177 
L 87.104414 70.606634 
L 87.489504 61.808177 
L 88.259683 61.808177 
L 88.643491 70.606634 
L 90.183849 70.606634 
L 90.566376 79.405091 
L 90.951465 70.606634 
L 91.334633 79.405091 
L 91.719082 61.808177 
L 92.104812 61.808177 
L 92.48862 70.606634 
L 93.256877 70.606634 
L 93.641326 61.808177 
L 94.025134 70.606634 
L 96.333108 70.606634 
L 96.717557 61.808177 
L 97.100084 70.606634 
L 97.487095 61.808177 
L 97.871544 70.606634 
L 99.408699 70.606634 
L 99.791225 53.00972 
L 100.176315 53.00972 
L 100.560123 61.808177 
L 101.327098 61.808177 
L 101.712188 53.00972 
L 102.096637 61.808177 
L 102.483008 61.808177 
L 102.866816 70.606634 
L 103.251265 70.606634 
L 103.637636 61.808177 
L 104.787779 61.808177 
L 105.172868 70.606634 
L 105.558599 61.808177 
L 105.941125 70.606634 
L 106.326215 61.808177 
L 106.709382 70.606634 
L 107.095112 61.808177 
L 107.86401 61.808177 
L 108.247818 70.606634 
L 109.017356 53.00972 
L 110.941523 53.00972 
L 111.325972 61.808177 
L 111.706576 53.00972 
L 112.476755 53.00972 
L 112.861845 61.808177 
L 113.246294 61.808177 
L 113.629461 53.00972 
L 114.013269 61.808177 
L 114.783448 61.808177 
L 115.168538 70.606634 
L 115.553627 53.00972 
L 115.936795 61.808177 
L 116.321884 61.808177 
L 116.708255 70.606634 
L 117.08886 53.00972 
L 117.47459 70.606634 
L 117.859039 61.808177 
L 119.396193 61.808177 
L 119.780001 70.606634 
L 120.163809 70.606634 
L 120.548258 61.808177 
L 120.932707 70.606634 
L 121.318437 61.808177 
L 121.702886 70.606634 
L 123.2394 70.606634 
L 123.623208 61.808177 
L 124.008938 70.606634 
L 124.392747 70.606634 
L 124.776555 61.808177 
L 125.162926 61.808177 
L 125.546093 70.606634 
L 125.930542 70.606634 
L 126.315631 61.808177 
L 128.239157 61.808177 
L 128.621684 53.00972 
L 129.006132 61.808177 
L 130.16076 61.808177 
L 130.54585 70.606634 
L 130.929658 61.808177 
L 131.314107 70.606634 
L 131.698556 61.808177 
L 132.084286 61.808177 
L 132.466813 53.00972 
L 133.622081 53.00972 
L 134.004608 61.808177 
L 134.773506 61.808177 
L 135.157954 53.00972 
L 135.543044 61.808177 
L 135.926852 61.808177 
L 135.926852 61.808177 
" clip-path="url(#paf4e74d58c)" style="fill: none; stroke: #00acc6; stroke-opacity: 0.7; stroke-width: 2; stroke-linecap: square"/>
   </g>
   <g id="line2d_15">
    <path d="M 44.815043 61.808177 
L 45.19757 70.606634 
L 45.582019 88.203548 
L 45.967108 70.606634 
L 46.352198 70.606634 
L 46.737928 79.405091 
L 47.121736 79.405091 
L 47.506826 88.203548 
L 48.277005 88.203548 
L 48.659532 79.405091 
L 49.046543 88.203548 
L 49.428429 88.203548 
L 49.812878 97.002005 
L 50.197327 88.203548 
L 51.349392 88.203548 
L 51.735763 79.405091 
L 52.505301 79.405091 
L 52.889109 70.606634 
L 53.272277 79.405091 
L 53.657366 70.606634 
L 55.581533 70.606634 
L 55.962778 61.808177 
L 56.346586 61.808177 
L 56.732316 70.606634 
L 57.88374 70.606634 
L 58.268189 61.808177 
L 58.651997 61.808177 
L 59.038368 53.00972 
L 59.424739 53.00972 
L 59.805985 61.808177 
L 62.113318 61.808177 
L 62.497126 70.606634 
L 62.881575 61.808177 
L 63.265383 70.606634 
L 64.035562 70.606634 
L 64.41937 79.405091 
L 64.803819 70.606634 
L 65.957166 70.606634 
L 66.340974 79.405091 
L 66.726704 70.606634 
L 67.110512 79.405091 
L 67.49432 79.405091 
L 67.87941 88.203548 
L 68.648308 70.606634 
L 69.801654 70.606634 
L 70.570552 53.00972 
L 70.955641 61.808177 
L 72.108347 61.808177 
L 72.493437 70.606634 
L 74.02995 70.606634 
L 74.413758 79.405091 
L 74.798848 61.808177 
L 75.183297 61.808177 
L 75.569027 70.606634 
L 75.952194 61.808177 
L 77.105541 61.808177 
L 77.490631 53.00972 
L 78.643977 53.00972 
L 79.028426 61.808177 
L 79.797964 61.808177 
L 80.181132 53.00972 
L 80.566862 61.808177 
L 80.95067 61.808177 
L 81.334478 53.00972 
L 81.719568 61.808177 
L 82.489106 61.808177 
L 82.872914 70.606634 
L 83.258004 61.808177 
L 83.643093 70.606634 
L 89.028581 70.606634 
L 89.411107 79.405091 
L 89.797478 70.606634 
L 90.183849 70.606634 
L 90.566376 79.405091 
L 91.334633 79.405091 
L 91.719082 61.808177 
L 92.48862 79.405091 
L 92.87371 70.606634 
L 93.256877 79.405091 
L 93.641326 70.606634 
L 94.025134 79.405091 
L 94.411505 70.606634 
L 94.795954 79.405091 
L 95.566133 79.405091 
L 95.9493 70.606634 
L 97.487095 70.606634 
L 97.871544 61.808177 
L 98.254712 61.808177 
L 98.63852 70.606634 
L 99.023609 61.808177 
L 99.408699 61.808177 
L 99.791225 53.00972 
L 102.483008 53.00972 
L 102.866816 61.808177 
L 106.326215 61.808177 
L 106.709382 70.606634 
L 107.095112 61.808177 
L 107.47892 70.606634 
L 107.86401 61.808177 
L 108.247818 70.606634 
L 108.632267 70.606634 
L 109.017356 44.211263 
L 109.401805 53.00972 
L 109.786254 53.00972 
L 110.170062 44.211263 
L 110.556433 44.211263 
L 110.941523 53.00972 
L 112.476755 53.00972 
L 112.861845 61.808177 
L 113.246294 53.00972 
L 114.013269 53.00972 
L 114.400281 61.808177 
L 114.783448 53.00972 
L 115.168538 61.808177 
L 115.553627 53.00972 
L 115.936795 61.808177 
L 116.708255 61.808177 
L 117.08886 53.00972 
L 117.47459 70.606634 
L 118.242847 53.00972 
L 118.627296 70.606634 
L 119.012385 61.808177 
L 119.396193 70.606634 
L 120.163809 70.606634 
L 120.548258 61.808177 
L 120.932707 70.606634 
L 121.318437 61.808177 
L 121.702886 79.405091 
L 122.086054 70.606634 
L 122.470502 79.405091 
L 122.85431 70.606634 
L 123.2394 79.405091 
L 123.623208 70.606634 
L 124.008938 79.405091 
L 124.392747 79.405091 
L 124.776555 70.606634 
L 125.930542 70.606634 
L 126.315631 61.808177 
L 127.852786 61.808177 
L 128.239157 53.00972 
L 129.006132 53.00972 
L 129.390581 61.808177 
L 129.774389 61.808177 
L 130.16076 53.00972 
L 130.54585 61.808177 
L 130.929658 53.00972 
L 131.314107 61.808177 
L 131.698556 53.00972 
L 132.084286 61.808177 
L 132.850621 44.211263 
L 133.236351 44.211263 
L 133.622081 53.00972 
L 135.543044 53.00972 
L 135.926852 61.808177 
L 135.926852 61.808177 
" clip-path="url(#paf4e74d58c)" style="fill: none; stroke: #97ff00; stroke-opacity: 0.7; stroke-width: 2; stroke-linecap: square"/>
   </g>
   <g id="line2d_16">
    <path d="M 44.815043 61.808177 
L 45.19757 70.606634 
L 45.582019 88.203548 
L 45.967108 70.606634 
L 46.352198 70.606634 
L 46.737928 88.203548 
L 47.121736 79.405091 
L 47.506826 88.203548 
L 49.046543 88.203548 
L 49.812878 105.800462 
L 50.197327 97.002005 
L 51.735763 97.002005 
L 52.11893 88.203548 
L 52.889109 88.203548 
L 53.272277 97.002005 
L 53.657366 88.203548 
L 54.041174 88.203548 
L 54.426264 79.405091 
L 54.810072 88.203548 
L 55.195162 79.405091 
L 55.581533 88.203548 
L 55.962778 79.405091 
L 56.346586 79.405091 
L 56.732316 88.203548 
L 57.88374 88.203548 
L 58.268189 79.405091 
L 58.651997 79.405091 
L 59.424739 61.808177 
L 59.805985 61.808177 
L 60.191715 70.606634 
L 60.959972 70.606634 
L 61.34378 61.808177 
L 62.113318 61.808177 
L 62.497126 70.606634 
L 62.881575 61.808177 
L 63.265383 70.606634 
L 63.651114 70.606634 
L 64.035562 61.808177 
L 64.41937 70.606634 
L 65.957166 70.606634 
L 66.340974 88.203548 
L 66.726704 70.606634 
L 67.110512 79.405091 
L 67.49432 79.405091 
L 67.87941 88.203548 
L 68.263859 88.203548 
L 68.648308 79.405091 
L 69.801654 79.405091 
L 70.570552 61.808177 
L 70.955641 70.606634 
L 71.723898 70.606634 
L 72.108347 79.405091 
L 72.877885 79.405091 
L 73.261053 88.203548 
L 73.646783 79.405091 
L 74.413758 97.002005 
L 74.798848 88.203548 
L 75.569027 88.203548 
L 75.952194 79.405091 
L 77.490631 79.405091 
L 77.875079 70.606634 
L 79.797964 70.606634 
L 80.181132 61.808177 
L 80.566862 70.606634 
L 81.334478 53.00972 
L 81.719568 53.00972 
L 82.104657 61.808177 
L 82.489106 61.808177 
L 82.872914 70.606634 
L 83.258004 61.808177 
L 83.643093 70.606634 
L 84.026261 61.808177 
L 84.41135 70.606634 
L 85.56726 70.606634 
L 85.950427 79.405091 
L 88.259683 79.405091 
L 88.643491 88.203548 
L 89.797478 88.203548 
L 90.183849 79.405091 
L 91.334633 79.405091 
L 91.719082 61.808177 
L 92.104812 61.808177 
L 92.48862 79.405091 
L 92.87371 70.606634 
L 93.256877 88.203548 
L 93.641326 70.606634 
L 94.025134 88.203548 
L 97.100084 88.203548 
L 97.487095 79.405091 
L 98.254712 79.405091 
L 98.63852 88.203548 
L 99.023609 79.405091 
L 99.408699 79.405091 
L 99.791225 61.808177 
L 101.327098 61.808177 
L 101.712188 53.00972 
L 102.483008 53.00972 
L 102.866816 61.808177 
L 103.251265 53.00972 
L 104.787779 53.00972 
L 105.172868 61.808177 
L 105.558599 53.00972 
L 105.941125 61.808177 
L 106.326215 61.808177 
L 106.709382 70.606634 
L 107.095112 61.808177 
L 107.47892 70.606634 
L 107.86401 61.808177 
L 108.247818 79.405091 
L 108.632267 70.606634 
L 109.017356 44.211263 
L 109.401805 53.00972 
L 109.786254 53.00972 
L 110.170062 44.211263 
L 110.556433 44.211263 
L 110.941523 53.00972 
L 111.706576 53.00972 
L 112.092947 44.211263 
L 112.476755 53.00972 
L 114.400281 53.00972 
L 114.783448 61.808177 
L 115.168538 61.808177 
L 115.553627 53.00972 
L 116.321884 53.00972 
L 116.708255 61.808177 
L 117.08886 53.00972 
L 117.47459 70.606634 
L 118.242847 53.00972 
L 118.627296 70.606634 
L 119.012385 61.808177 
L 119.396193 70.606634 
L 119.780001 70.606634 
L 120.163809 79.405091 
L 120.548258 61.808177 
L 120.932707 79.405091 
L 121.318437 70.606634 
L 121.702886 88.203548 
L 122.086054 79.405091 
L 122.470502 88.203548 
L 122.85431 79.405091 
L 123.2394 97.002005 
L 123.623208 88.203548 
L 125.930542 88.203548 
L 126.315631 79.405091 
L 127.852786 79.405091 
L 128.239157 70.606634 
L 128.621684 70.606634 
L 129.006132 79.405091 
L 129.390581 70.606634 
L 129.774389 79.405091 
L 130.16076 61.808177 
L 130.54585 70.606634 
L 130.929658 61.808177 
L 131.314107 70.606634 
L 131.698556 53.00972 
L 132.084286 61.808177 
L 133.622081 61.808177 
L 134.004608 70.606634 
L 134.773506 70.606634 
L 135.157954 61.808177 
L 135.543044 70.606634 
L 135.926852 70.606634 
L 135.926852 70.606634 
" clip-path="url(#paf4e74d58c)" style="fill: none; stroke: #ff7ed1; stroke-opacity: 0.7; stroke-width: 2; stroke-linecap: square"/>
   </g>
   <g id="patch_3">
    <path d="M 44.815043 114.598919 
L 44.815043 9.017435 
" style="fill: none; stroke: #000000; stroke-width: 0.8; stroke-linejoin: miter; stroke-linecap: square"/>
   </g>
   <g id="patch_4">
    <path d="M 135.926852 114.598919 
L 135.926852 9.017435 
" style="fill: none; stroke: #000000; stroke-width: 0.8; stroke-linejoin: miter; stroke-linecap: square"/>
   </g>
   <g id="patch_5">
    <path d="M 44.815043 114.598919 
L 135.926852 114.598919 
" style="fill: none; stroke: #000000; stroke-width: 0.8; stroke-linejoin: miter; stroke-linecap: square"/>
   </g>
   <g id="patch_6">
    <path d="M 44.815043 9.017435 
L 135.926852 9.017435 
" style="fill: none; stroke: #000000; stroke-width: 0.8; stroke-linejoin: miter; stroke-linecap: square"/>
   </g>
   <g id="legend_1">
    <g id="patch_7">
     <path d="M 147.438033 109.319844 
L 193.721265 109.319844 
Q 196.121265 109.319844 196.121265 106.919844 
L 196.121265 0.388836 
Q 196.121265 -2.011164 193.721265 -2.011164 
L 147.438033 -2.011164 
Q 145.038033 -2.011164 145.038033 0.388836 
L 145.038033 106.919844 
Q 145.038033 109.319844 147.438033 109.319844 
z
" style="fill: #ffffff; opacity: 0.8; stroke: #cccccc; stroke-linejoin: miter"/>
    </g>
    <g id="line2d_17">
     <path d="M 149.838033 7.555212 
L 150.438033 7.555212 
L 151.038033 7.555212 
" style="fill: none; stroke: #d60000; stroke-opacity: 0.7; stroke-width: 2; stroke-linecap: square"/>
    </g>
    <g id="text_13">
     <!-- $\Delta z (0)$ -->
     <g transform="translate(160.638033 11.755212)scale(0.12 -0.12)">
      <defs>
       <path id="CMR17-1" d="M 2598 4403 
C 2547 4512 2522 4512 2470 4512 
C 2394 4512 2387 4499 2342 4409 
L 269 109 
C 262 96 237 38 237 32 
C 237 6 243 0 358 0 
L 4576 0 
C 4691 0 4698 6 4698 32 
C 4698 38 4672 96 4666 109 
L 2598 4403 
z
M 2310 4038 
L 4083 358 
L 531 358 
L 2310 4038 
z
" transform="scale(0.015625)"/>
       <path id="CMMI12-7a" d="M 813 486 
C 1088 803 1312 1004 1632 1296 
C 2016 1632 2182 1793 2272 1891 
C 2720 2338 2944 2713 2944 2764 
C 2944 2816 2893 2816 2880 2816 
C 2835 2816 2822 2793 2790 2750 
C 2630 2494 2477 2367 2310 2367 
C 2176 2367 2106 2421 1984 2565 
C 1850 2715 1741 2816 1555 2816 
C 1088 2816 806 2257 806 2128 
C 806 2108 813 2068 870 2068 
C 922 2068 928 2091 947 2133 
C 1056 2372 1363 2414 1485 2414 
C 1619 2414 1747 2376 1882 2327 
C 2125 2240 2227 2240 2291 2240 
C 2336 2240 2362 2240 2394 2246 
C 2182 1994 1837 1683 1549 1418 
L 902 816 
C 512 415 275 33 275 -12 
C 275 -51 307 -64 346 -64 
C 384 -64 390 -57 435 14 
C 538 163 742 384 979 384 
C 1114 384 1178 342 1306 193 
C 1427 61 1536 -64 1741 -64 
C 2368 -64 2726 732 2726 876 
C 2726 903 2720 942 2656 942 
C 2605 942 2598 917 2579 855 
C 2438 488 2061 338 1811 338 
C 1677 338 1549 376 1414 425 
C 1158 512 1088 512 1005 512 
C 941 512 870 512 813 486 
z
" transform="scale(0.015625)"/>
       <path id="CMR17-28" d="M 1958 -1561 
C 1958 -1555 1958 -1542 1939 -1523 
C 1645 -1224 858 -407 858 1581 
C 858 3569 1632 4379 1946 4697 
C 1946 4704 1958 4717 1958 4736 
C 1958 4755 1939 4768 1914 4768 
C 1843 4768 1299 4296 986 3594 
C 666 2887 576 2199 576 1588 
C 576 1128 621 351 1005 -471 
C 1312 -1135 1837 -1600 1914 -1600 
C 1946 -1600 1958 -1587 1958 -1561 
z
" transform="scale(0.015625)"/>
       <path id="CMR17-29" d="M 1683 1581 
C 1683 2040 1638 2817 1254 3639 
C 947 4303 422 4768 346 4768 
C 326 4768 301 4761 301 4729 
C 301 4717 307 4710 314 4697 
C 621 4378 1402 3568 1402 1584 
C 1402 -407 627 -1217 314 -1537 
C 307 -1549 301 -1556 301 -1568 
C 301 -1600 326 -1600 346 -1600 
C 416 -1600 960 -1128 1274 -426 
C 1594 281 1683 969 1683 1581 
z
" transform="scale(0.015625)"/>
      </defs>
      <use xlink:href="#CMR17-1" transform="scale(0.996264)"/>
      <use xlink:href="#CMMI12-7a" transform="translate(76.91959 0)scale(0.996264)"/>
      <use xlink:href="#CMR17-28" transform="translate(126.674735 0)scale(0.996264)"/>
      <use xlink:href="#CMR17-30" transform="translate(161.955503 0)scale(0.996264)"/>
      <use xlink:href="#CMR17-29" transform="translate(207.64598 0)scale(0.996264)"/>
     </g>
    </g>
    <g id="line2d_18">
     <path d="M 149.838033 25.51038 
L 150.438033 25.51038 
L 151.038033 25.51038 
" style="fill: none; stroke: #8c3bff; stroke-opacity: 0.7; stroke-width: 2; stroke-linecap: square"/>
    </g>
    <g id="text_14">
     <!-- $\Delta z (1)$ -->
     <g transform="translate(160.638033 29.71038)scale(0.12 -0.12)">
      <use xlink:href="#CMR17-1" transform="scale(0.996264)"/>
      <use xlink:href="#CMMI12-7a" transform="translate(76.91959 0)scale(0.996264)"/>
      <use xlink:href="#CMR17-28" transform="translate(126.674735 0)scale(0.996264)"/>
      <use xlink:href="#CMR17-31" transform="translate(161.955503 0)scale(0.996264)"/>
      <use xlink:href="#CMR17-29" transform="translate(207.64598 0)scale(0.996264)"/>
     </g>
    </g>
    <g id="line2d_19">
     <path d="M 149.838033 43.465548 
L 150.438033 43.465548 
L 151.038033 43.465548 
" style="fill: none; stroke: #018700; stroke-opacity: 0.7; stroke-width: 2; stroke-linecap: square"/>
    </g>
    <g id="text_15">
     <!-- $\Delta z (2)$ -->
     <g transform="translate(160.638033 47.665548)scale(0.12 -0.12)">
      <use xlink:href="#CMR17-1" transform="scale(0.996264)"/>
      <use xlink:href="#CMMI12-7a" transform="translate(76.91959 0)scale(0.996264)"/>
      <use xlink:href="#CMR17-28" transform="translate(126.674735 0)scale(0.996264)"/>
      <use xlink:href="#CMR17-32" transform="translate(161.955503 0)scale(0.996264)"/>
      <use xlink:href="#CMR17-29" transform="translate(207.64598 0)scale(0.996264)"/>
     </g>
    </g>
    <g id="line2d_20">
     <path d="M 149.838033 61.420716 
L 150.438033 61.420716 
L 151.038033 61.420716 
" style="fill: none; stroke: #00acc6; stroke-opacity: 0.7; stroke-width: 2; stroke-linecap: square"/>
    </g>
    <g id="text_16">
     <!-- $\Delta z (3)$ -->
     <g transform="translate(160.638033 65.620716)scale(0.12 -0.12)">
      <use xlink:href="#CMR17-1" transform="scale(0.996264)"/>
      <use xlink:href="#CMMI12-7a" transform="translate(76.91959 0)scale(0.996264)"/>
      <use xlink:href="#CMR17-28" transform="translate(126.674735 0)scale(0.996264)"/>
      <use xlink:href="#CMR17-33" transform="translate(161.955503 0)scale(0.996264)"/>
      <use xlink:href="#CMR17-29" transform="translate(207.64598 0)scale(0.996264)"/>
     </g>
    </g>
    <g id="line2d_21">
     <path d="M 149.838033 79.375884 
L 150.438033 79.375884 
L 151.038033 79.375884 
" style="fill: none; stroke: #97ff00; stroke-opacity: 0.7; stroke-width: 2; stroke-linecap: square"/>
    </g>
    <g id="text_17">
     <!-- $\Delta z (4)$ -->
     <g transform="translate(160.638033 83.575884)scale(0.12 -0.12)">
      <use xlink:href="#CMR17-1" transform="scale(0.996264)"/>
      <use xlink:href="#CMMI12-7a" transform="translate(76.91959 0)scale(0.996264)"/>
      <use xlink:href="#CMR17-28" transform="translate(126.674735 0)scale(0.996264)"/>
      <use xlink:href="#CMR17-34" transform="translate(161.955503 0)scale(0.996264)"/>
      <use xlink:href="#CMR17-29" transform="translate(207.64598 0)scale(0.996264)"/>
     </g>
    </g>
    <g id="line2d_22">
     <path d="M 149.838033 97.331052 
L 150.438033 97.331052 
L 151.038033 97.331052 
" style="fill: none; stroke: #ff7ed1; stroke-opacity: 0.7; stroke-width: 2; stroke-linecap: square"/>
    </g>
    <g id="text_18">
     <!-- $\Delta z (5)$ -->
     <g transform="translate(160.638033 101.531052)scale(0.12 -0.12)">
      <use xlink:href="#CMR17-1" transform="scale(0.996264)"/>
      <use xlink:href="#CMMI12-7a" transform="translate(76.91959 0)scale(0.996264)"/>
      <use xlink:href="#CMR17-28" transform="translate(126.674735 0)scale(0.996264)"/>
      <use xlink:href="#CMR17-35" transform="translate(161.955503 0)scale(0.996264)"/>
      <use xlink:href="#CMR17-29" transform="translate(207.64598 0)scale(0.996264)"/>
     </g>
    </g>
   </g>
  </g>
 </g>
 <defs>
  <clipPath id="paf4e74d58c">
   <rect x="44.815043" y="9.017435" width="91.111809" height="105.581484"/>
  </clipPath>
 </defs>
</svg>
