<?xml version="1.0" encoding="utf-8" standalone="no"?>
<!DOCTYPE svg PUBLIC "-//W3C//DTD SVG 1.1//EN"
  "http://www.w3.org/Graphics/SVG/1.1/DTD/svg11.dtd">
<svg xmlns:xlink="http://www.w3.org/1999/xlink" width="141.732283pt" height="151.181102pt" viewBox="0 0 141.732283 151.181102" xmlns="http://www.w3.org/2000/svg" version="1.1">
 <metadata>
  <rdf:RDF xmlns:dc="http://purl.org/dc/elements/1.1/" xmlns:cc="http://creativecommons.org/ns#" xmlns:rdf="http://www.w3.org/1999/02/22-rdf-syntax-ns#">
   <cc:Work>
    <dc:type rdf:resource="http://purl.org/dc/dcmitype/StillImage"/>
    <dc:date>2024-11-29T23:01:57.992755</dc:date>
    <dc:format>image/svg+xml</dc:format>
    <dc:creator>
     <cc:Agent>
      <dc:title>Matplotlib v3.5.3, https://matplotlib.org/</dc:title>
     </cc:Agent>
    </dc:creator>
   </cc:Work>
  </rdf:RDF>
 </metadata>
 <defs>
  <style type="text/css">*{stroke-linejoin: round; stroke-linecap: butt}</style>
 </defs>
 <g id="figure_1">
  <g id="patch_1">
   <path d="M 0 151.181102 
L 141.732283 151.181102 
L 141.732283 0 
L 0 0 
z
" style="fill: #ffffff"/>
  </g>
  <g id="axes_1">
   <g id="patch_2">
    <path d="M 30.480006 114.598919 
L 136.939566 114.598919 
L 136.939566 14.30242 
L 30.480006 14.30242 
z
" style="fill: #ffffff"/>
   </g>
   <g id="matplotlib.axis_1">
    <g id="xtick_1">
     <g id="line2d_1">
      <defs>
       <path id="m1b33db15b4" d="M 0 0 
L 0 3.5 
" style="stroke: #000000; stroke-width: 0.8"/>
      </defs>
      <g>
       <use xlink:href="#m1b33db15b4" x="30.480006" y="114.598919" style="stroke: #000000; stroke-width: 0.8"/>
      </g>
     </g>
     <g id="text_1">
      <!-- $\mathdefault{0}$ -->
      <g transform="translate(27.553511 129.901098)scale(0.12 -0.12)">
       <defs>
        <path id="CMR17-30" d="M 2688 2025 
C 2688 2416 2682 3080 2413 3591 
C 2176 4039 1798 4198 1466 4198 
C 1158 4198 768 4058 525 3597 
C 269 3118 243 2524 243 2025 
C 243 1661 250 1106 448 619 
C 723 -39 1216 -128 1466 -128 
C 1760 -128 2208 -7 2470 600 
C 2662 1042 2688 1559 2688 2025 
z
M 1466 -26 
C 1056 -26 813 325 723 812 
C 653 1188 653 1738 653 2096 
C 653 2588 653 2997 736 3387 
C 858 3929 1216 4096 1466 4096 
C 1728 4096 2067 3923 2189 3400 
C 2272 3036 2278 2607 2278 2096 
C 2278 1680 2278 1169 2202 792 
C 2067 95 1690 -26 1466 -26 
z
" transform="scale(0.015625)"/>
       </defs>
       <use xlink:href="#CMR17-30" transform="scale(0.996264)"/>
      </g>
     </g>
    </g>
    <g id="xtick_2">
     <g id="line2d_2">
      <g>
       <use xlink:href="#m1b33db15b4" x="50.960761" y="114.598919" style="stroke: #000000; stroke-width: 0.8"/>
      </g>
     </g>
     <g id="text_2">
      <!-- $\mathdefault{5}$ -->
      <g transform="translate(48.034266 129.901098)scale(0.12 -0.12)">
       <defs>
        <path id="CMR17-35" d="M 730 3692 
C 794 3666 1056 3584 1325 3584 
C 1920 3584 2246 3911 2432 4100 
C 2432 4157 2432 4192 2394 4192 
C 2387 4192 2374 4192 2323 4163 
C 2099 4058 1837 3973 1517 3973 
C 1325 3973 1037 3999 723 4139 
C 653 4171 640 4171 634 4171 
C 602 4171 595 4164 595 4037 
L 595 2203 
C 595 2089 595 2057 659 2057 
C 691 2057 704 2070 736 2114 
C 941 2401 1222 2522 1542 2522 
C 1766 2522 2246 2382 2246 1289 
C 2246 1085 2246 715 2054 421 
C 1894 159 1645 25 1370 25 
C 947 25 518 320 403 814 
C 429 807 480 795 506 795 
C 589 795 749 840 749 1038 
C 749 1210 627 1280 506 1280 
C 358 1280 262 1190 262 1011 
C 262 454 704 -128 1382 -128 
C 2042 -128 2669 440 2669 1264 
C 2669 2030 2170 2624 1549 2624 
C 1222 2624 947 2503 730 2274 
L 730 3692 
z
" transform="scale(0.015625)"/>
       </defs>
       <use xlink:href="#CMR17-35" transform="scale(0.996264)"/>
      </g>
     </g>
    </g>
    <g id="xtick_3">
     <g id="line2d_3">
      <g>
       <use xlink:href="#m1b33db15b4" x="71.441517" y="114.598919" style="stroke: #000000; stroke-width: 0.8"/>
      </g>
     </g>
     <g id="text_3">
      <!-- $\mathdefault{10}$ -->
      <g transform="translate(65.588526 129.901098)scale(0.12 -0.12)">
       <defs>
        <path id="CMR17-31" d="M 1702 4058 
C 1702 4192 1696 4192 1606 4192 
C 1357 3916 979 3827 621 3827 
C 602 3827 570 3827 563 3808 
C 557 3795 557 3782 557 3648 
C 755 3648 1088 3686 1344 3839 
L 1344 461 
C 1344 236 1331 160 781 160 
L 589 160 
L 589 0 
C 896 0 1216 0 1523 0 
C 1830 0 2150 0 2458 0 
L 2458 160 
L 2266 160 
C 1715 160 1702 230 1702 458 
L 1702 4058 
z
" transform="scale(0.015625)"/>
       </defs>
       <use xlink:href="#CMR17-31" transform="scale(0.996264)"/>
       <use xlink:href="#CMR17-30" transform="translate(45.690477 0)scale(0.996264)"/>
      </g>
     </g>
    </g>
    <g id="xtick_4">
     <g id="line2d_4">
      <g>
       <use xlink:href="#m1b33db15b4" x="91.922272" y="114.598919" style="stroke: #000000; stroke-width: 0.8"/>
      </g>
     </g>
     <g id="text_4">
      <!-- $\mathdefault{15}$ -->
      <g transform="translate(86.069282 129.901098)scale(0.12 -0.12)">
       <use xlink:href="#CMR17-31" transform="scale(0.996264)"/>
       <use xlink:href="#CMR17-35" transform="translate(45.690477 0)scale(0.996264)"/>
      </g>
     </g>
    </g>
    <g id="xtick_5">
     <g id="line2d_5">
      <g>
       <use xlink:href="#m1b33db15b4" x="112.403028" y="114.598919" style="stroke: #000000; stroke-width: 0.8"/>
      </g>
     </g>
     <g id="text_5">
      <!-- $\mathdefault{20}$ -->
      <g transform="translate(106.550037 129.901098)scale(0.12 -0.12)">
       <defs>
        <path id="CMR17-32" d="M 2669 989 
L 2554 989 
C 2490 536 2438 459 2413 420 
C 2381 369 1920 369 1830 369 
L 602 369 
C 832 619 1280 1072 1824 1597 
C 2214 1967 2669 2402 2669 3035 
C 2669 3790 2067 4224 1395 4224 
C 691 4224 262 3604 262 3030 
C 262 2780 448 2748 525 2748 
C 589 2748 781 2787 781 3010 
C 781 3207 614 3264 525 3264 
C 486 3264 448 3258 422 3245 
C 544 3790 915 4058 1306 4058 
C 1862 4058 2227 3617 2227 3035 
C 2227 2479 1901 2000 1536 1584 
L 262 146 
L 262 0 
L 2515 0 
L 2669 989 
z
" transform="scale(0.015625)"/>
       </defs>
       <use xlink:href="#CMR17-32" transform="scale(0.996264)"/>
       <use xlink:href="#CMR17-30" transform="translate(45.690477 0)scale(0.996264)"/>
      </g>
     </g>
    </g>
    <g id="xtick_6">
     <g id="line2d_6">
      <g>
       <use xlink:href="#m1b33db15b4" x="132.883783" y="114.598919" style="stroke: #000000; stroke-width: 0.8"/>
      </g>
     </g>
     <g id="text_6">
      <!-- $\mathdefault{25}$ -->
      <g transform="translate(127.030793 129.901098)scale(0.12 -0.12)">
       <use xlink:href="#CMR17-32" transform="scale(0.996264)"/>
       <use xlink:href="#CMR17-35" transform="translate(45.690477 0)scale(0.996264)"/>
      </g>
     </g>
    </g>
    <g id="text_7">
     <!-- time [h] -->
     <g transform="translate(63.874653 145.19207)scale(0.12 -0.12)">
      <defs>
       <path id="CMR17-74" d="M 966 2560 
L 1862 2560 
L 1862 2725 
L 966 2725 
L 966 3904 
L 851 3904 
C 838 3245 614 2668 70 2668 
L 70 2560 
L 627 2560 
L 627 771 
C 627 650 627 -64 1370 -64 
C 1747 -64 1965 306 1965 777 
L 1965 1140 
L 1850 1140 
L 1850 783 
C 1850 344 1677 51 1408 51 
C 1222 51 966 178 966 758 
L 966 2560 
z
" transform="scale(0.015625)"/>
       <path id="CMR17-69" d="M 992 3909 
C 992 4049 877 4170 730 4170 
C 589 4170 467 4056 467 3909 
C 467 3769 582 3648 730 3648 
C 870 3648 992 3763 992 3909 
z
M 243 2706 
L 243 2541 
C 602 2541 653 2502 653 2197 
L 653 427 
C 653 184 627 153 218 153 
L 218 -13 
C 371 0 646 0 806 0 
C 960 0 1222 0 1370 -13 
L 1370 153 
C 992 153 979 191 979 420 
L 979 2776 
L 243 2706 
z
" transform="scale(0.015625)"/>
       <path id="CMR17-6d" d="M 4326 1933 
C 4326 2252 4269 2790 3507 2790 
C 3072 2790 2771 2496 2656 2151 
L 2650 2151 
C 2573 2676 2195 2790 1837 2790 
C 1331 2790 1069 2400 973 2144 
L 966 2144 
L 966 2790 
L 211 2720 
L 211 2554 
C 589 2554 646 2515 646 2208 
L 646 428 
C 646 184 621 153 211 153 
L 211 -13 
C 365 0 646 0 813 0 
C 979 0 1267 0 1421 -13 
L 1421 153 
C 1011 153 986 178 986 428 
L 986 1658 
C 986 2247 1344 2688 1792 2688 
C 2266 2688 2317 2266 2317 1958 
L 2317 428 
C 2317 184 2291 153 1882 153 
L 1882 -13 
C 2035 0 2317 0 2483 0 
C 2650 0 2938 0 3091 -13 
L 3091 153 
C 2682 153 2656 178 2656 428 
L 2656 1658 
C 2656 2247 3014 2688 3462 2688 
C 3936 2688 3987 2266 3987 1958 
L 3987 428 
C 3987 184 3962 153 3552 153 
L 3552 -13 
C 3706 0 3987 0 4154 0 
C 4320 0 4608 0 4762 -13 
L 4762 153 
C 4352 153 4326 178 4326 428 
L 4326 1933 
z
" transform="scale(0.015625)"/>
       <path id="CMR17-65" d="M 2438 1472 
C 2464 1498 2464 1511 2464 1576 
C 2464 2238 2118 2816 1389 2816 
C 710 2816 173 2169 173 1383 
C 173 551 781 -64 1459 -64 
C 2176 -64 2458 607 2458 740 
C 2458 784 2419 784 2406 784 
C 2362 784 2355 771 2330 696 
C 2189 265 1837 51 1504 51 
C 1229 51 954 203 781 480 
C 582 803 582 1176 582 1472 
L 2438 1472 
z
M 589 1568 
C 634 2505 1126 2714 1382 2714 
C 1818 2714 2112 2297 2118 1568 
L 589 1568 
z
" transform="scale(0.015625)"/>
       <path id="CMR17-5b" d="M 1504 -1600 
L 1504 -1377 
L 902 -1377 
L 902 4544 
L 1504 4544 
L 1504 4767 
L 678 4767 
L 678 -1600 
L 1504 -1600 
z
" transform="scale(0.015625)"/>
       <path id="CMR17-68" d="M 2656 1933 
C 2656 2259 2592 2790 1837 2790 
C 1312 2790 1056 2368 979 2157 
L 973 2157 
L 973 4396 
L 211 4326 
L 211 4160 
C 589 4160 646 4122 646 3817 
L 646 426 
C 646 184 621 153 211 153 
L 211 -13 
C 365 0 646 0 813 0 
C 979 0 1267 0 1421 -13 
L 1421 153 
C 1011 153 986 178 986 428 
L 986 1658 
C 986 2247 1344 2688 1792 2688 
C 2266 2688 2317 2266 2317 1958 
L 2317 428 
C 2317 184 2291 153 1882 153 
L 1882 -13 
C 2035 0 2317 0 2483 0 
C 2650 0 2938 0 3091 -13 
L 3091 153 
C 2682 153 2656 178 2656 428 
L 2656 1933 
z
" transform="scale(0.015625)"/>
       <path id="CMR17-5d" d="M 915 4767 
L 90 4767 
L 90 4544 
L 691 4544 
L 691 -1377 
L 90 -1377 
L 90 -1600 
L 915 -1600 
L 915 4767 
z
" transform="scale(0.015625)"/>
      </defs>
      <use xlink:href="#CMR17-74" transform="scale(0.996264)"/>
      <use xlink:href="#CMR17-69" transform="translate(35.280768 0)scale(0.996264)"/>
      <use xlink:href="#CMR17-6d" transform="translate(60.151826 0)scale(0.996264)"/>
      <use xlink:href="#CMR17-65" transform="translate(137.071416 0)scale(0.996264)"/>
      <use xlink:href="#CMR17-5b" transform="translate(207.633043 0)scale(0.996264)"/>
      <use xlink:href="#CMR17-68" transform="translate(232.504101 0)scale(0.996264)"/>
      <use xlink:href="#CMR17-5d" transform="translate(283.399471 0)scale(0.996264)"/>
     </g>
    </g>
   </g>
   <g id="matplotlib.axis_2">
    <g id="ytick_1">
     <g id="line2d_7">
      <defs>
       <path id="m0c2e9032d6" d="M 0 0 
L -3.5 0 
" style="stroke: #000000; stroke-width: 0.8"/>
      </defs>
      <g>
       <use xlink:href="#m0c2e9032d6" x="30.480006" y="73.449562" style="stroke: #000000; stroke-width: 0.8"/>
      </g>
     </g>
     <g id="text_8">
      <!-- $\mathdefault{1}$ -->
      <g transform="translate(17.627016 77.600652)scale(0.12 -0.12)">
       <use xlink:href="#CMR17-31" transform="scale(0.996264)"/>
      </g>
     </g>
    </g>
    <g id="ytick_2">
     <g id="line2d_8">
      <g>
       <use xlink:href="#m0c2e9032d6" x="30.480006" y="28.416517" style="stroke: #000000; stroke-width: 0.8"/>
      </g>
     </g>
     <g id="text_9">
      <!-- $\mathdefault{2}$ -->
      <g transform="translate(17.627016 32.567607)scale(0.12 -0.12)">
       <use xlink:href="#CMR17-32" transform="scale(0.996264)"/>
      </g>
     </g>
    </g>
    <g id="text_10">
     <!-- $S_\mathrm{max}$ -->
     <g transform="translate(11.30242 75.930622)rotate(-90)scale(0.12 -0.12)">
      <defs>
       <path id="CMMI12-53" d="M 4064 4423 
C 4064 4480 4019 4480 4006 4480 
C 3981 4480 3974 4474 3898 4378 
C 3859 4333 3597 4001 3590 3995 
C 3379 4410 2957 4480 2688 4480 
C 1875 4480 1139 3743 1139 3025 
C 1139 2549 1427 2269 1741 2161 
C 1811 2135 2189 2033 2381 1989 
C 2707 1900 2790 1875 2925 1735 
C 2950 1703 3078 1557 3078 1258 
C 3078 667 2528 57 1888 57 
C 1363 57 781 280 781 991 
C 781 1112 806 1265 826 1328 
C 826 1348 832 1378 832 1391 
C 832 1417 819 1449 768 1449 
C 710 1449 704 1436 678 1328 
L 352 24 
C 352 18 326 -64 326 -71 
C 326 -128 378 -128 390 -128 
C 416 -128 422 -122 499 -26 
L 794 356 
C 947 126 1280 -128 1875 -128 
C 2701 -128 3456 666 3456 1460 
C 3456 1728 3392 1963 3149 2197 
C 3014 2331 2899 2363 2310 2516 
C 1882 2630 1824 2649 1709 2751 
C 1600 2858 1517 3011 1517 3227 
C 1517 3761 2061 4308 2669 4308 
C 3296 4308 3590 3926 3590 3323 
C 3590 3158 3558 2986 3558 2961 
C 3558 2903 3610 2903 3629 2903 
C 3686 2903 3693 2922 3718 3024 
L 4064 4423 
z
" transform="scale(0.015625)"/>
       <path id="CMR17-61" d="M 2304 1653 
C 2304 2072 2304 2294 2035 2543 
C 1798 2752 1523 2816 1306 2816 
C 800 2816 435 2407 435 1971 
C 435 1728 627 1728 666 1728 
C 749 1728 896 1778 896 1954 
C 896 2112 774 2181 666 2181 
C 640 2181 608 2174 589 2168 
C 723 2592 1069 2714 1293 2714 
C 1613 2714 1965 2429 1965 1885 
L 1965 1600 
C 1587 1600 1133 1549 774 1357 
C 371 1133 256 813 256 570 
C 256 77 832 -64 1171 -64 
C 1523 -64 1850 139 1990 511 
C 2003 233 2182 -18 2464 -18 
C 2598 -18 2938 70 2938 567 
L 2938 920 
L 2822 920 
L 2822 562 
C 2822 178 2650 128 2566 128 
C 2304 128 2304 458 2304 738 
L 2304 1653 
z
M 1965 870 
C 1965 317 1568 38 1216 38 
C 896 38 646 275 646 570 
C 646 761 730 1100 1101 1305 
C 1408 1478 1760 1504 1965 1504 
L 1965 870 
z
" transform="scale(0.015625)"/>
       <path id="CMR17-78" d="M 1664 1477 
C 1856 1726 2074 2006 2253 2216 
C 2464 2458 2707 2560 2989 2560 
L 2989 2726 
C 2880 2726 2656 2726 2541 2726 
C 2368 2726 2170 2726 2022 2732 
L 2022 2566 
C 2112 2553 2163 2489 2163 2400 
C 2163 2285 2099 2215 2067 2171 
L 1594 1573 
L 1030 2306 
C 973 2376 973 2388 973 2420 
C 973 2497 1037 2560 1146 2560 
L 1146 2732 
C 992 2726 717 2726 557 2726 
C 384 2726 179 2726 38 2732 
L 38 2560 
C 384 2560 461 2534 614 2343 
L 1350 1395 
C 1363 1382 1395 1344 1395 1325 
C 1395 1299 838 619 768 530 
C 480 185 179 160 6 160 
L 6 0 
C 115 0 339 0 454 0 
C 582 0 864 0 979 -6 
L 979 160 
C 941 166 838 179 838 325 
C 838 440 890 510 947 586 
L 1478 1236 
L 2035 512 
C 2086 442 2163 346 2163 301 
C 2163 211 2086 160 1984 160 
L 1984 -6 
C 2138 0 2413 0 2573 0 
C 2746 0 2950 0 3091 -6 
L 3091 160 
C 2771 160 2675 172 2522 370 
L 1664 1477 
z
" transform="scale(0.015625)"/>
      </defs>
      <use xlink:href="#CMMI12-53" transform="scale(0.996264)"/>
      <use xlink:href="#CMR17-6d" transform="translate(59.994488 -14.943915)scale(0.697382)"/>
      <use xlink:href="#CMR17-61" transform="translate(113.837954 -14.943915)scale(0.697382)"/>
      <use xlink:href="#CMR17-78" transform="translate(145.821136 -14.943915)scale(0.697382)"/>
     </g>
    </g>
    <g id="text_11">
     <!-- $\times\mathdefault{10^{11}}\mathdefault{}$ -->
     <g transform="translate(30.480006 11.30242)scale(0.12 -0.12)">
      <defs>
       <path id="CMSY10-2" d="M 2490 1785 
L 1210 3059 
C 1133 3136 1120 3148 1069 3148 
C 1005 3148 941 3091 941 3020 
C 941 2976 954 2963 1024 2892 
L 2304 1606 
L 1024 320 
C 954 249 941 236 941 192 
C 941 121 1005 64 1069 64 
C 1120 64 1133 76 1210 153 
L 2483 1427 
L 3808 102 
C 3821 96 3866 64 3904 64 
C 3981 64 4032 121 4032 192 
C 4032 204 4032 230 4013 262 
C 4006 275 2989 1280 2669 1606 
L 3840 2777 
C 3872 2816 3968 2899 4000 2937 
C 4006 2950 4032 2976 4032 3020 
C 4032 3091 3981 3148 3904 3148 
C 3853 3148 3827 3123 3757 3052 
L 2490 1785 
z
" transform="scale(0.015625)"/>
      </defs>
      <use xlink:href="#CMSY10-2" transform="scale(0.996264)"/>
      <use xlink:href="#CMR17-31" transform="translate(77.487468 0)scale(0.996264)"/>
      <use xlink:href="#CMR17-30" transform="translate(123.177945 0)scale(0.996264)"/>
      <use xlink:href="#CMR17-31" transform="translate(168.868422 36.153639)scale(0.697382)"/>
      <use xlink:href="#CMR17-31" transform="translate(200.851604 36.153639)scale(0.697382)"/>
     </g>
    </g>
   </g>
   <g id="line2d_9">
    <path d="M 30.480006 98.211584 
L 30.900357 98.232174 
L 31.180658 98.495253 
L 31.426278 98.331502 
L 31.663655 98.321713 
L 31.89786 98.583976 
L 32.403406 99.906543 
L 32.64773 100.055331 
L 33.104855 101.039697 
L 33.329336 100.816495 
L 33.802798 100.058765 
L 34.057475 99.079914 
L 34.307121 98.856751 
L 34.544169 98.862319 
L 34.986102 99.000761 
L 35.407608 99.098486 
L 36.678345 99.399499 
L 38.563571 99.509559 
L 38.982631 99.549576 
L 39.194485 99.685845 
L 39.403201 99.556495 
L 42.205328 100.278504 
L 42.85399 100.383658 
L 43.724092 100.354744 
L 44.385516 100.222948 
L 44.607428 98.514304 
L 44.826054 99.503336 
L 45.267513 99.879487 
L 45.487119 99.846012 
L 45.936337 99.977464 
L 46.383216 100.008299 
L 47.505413 100.029425 
L 47.95944 99.996611 
L 48.65243 100.00633 
L 49.815984 100.049994 
L 50.522218 100.014447 
L 50.754154 100.069454 
L 51.229261 99.692011 
L 51.459477 99.120011 
L 51.689336 98.110715 
L 52.588105 98.28555 
L 53.255539 99.713999 
L 53.47816 99.890225 
L 54.57337 100.075032 
L 54.791634 100.159514 
L 55.443559 100.158987 
L 57.557557 100.302867 
L 57.970082 100.212932 
L 58.996864 100.263613 
L 59.396225 100.296651 
L 61.176378 100.225986 
L 61.570736 100.152292 
L 61.767795 99.873962 
L 61.962289 100.257966 
L 62.746245 100.416236 
L 63.527476 100.402 
L 63.721593 102.915553 
L 64.115614 99.742813 
L 64.511594 99.705432 
L 68.637121 100.159444 
L 68.83483 99.723988 
L 71.055435 100.061021 
L 71.675469 98.79363 
L 72.297965 99.169679 
L 72.922138 99.370569 
L 73.748005 99.475101 
L 73.957039 99.401333 
L 74.161148 100.251588 
L 74.371408 99.150027 
L 74.58273 98.94301 
L 75.003453 99.513354 
L 75.627856 99.636358 
L 76.68167 99.599129 
L 77.513776 99.597626 
L 79.817028 99.704732 
L 81.274259 99.530524 
L 81.47825 102.333745 
L 81.689711 108.409684 
L 82.10455 104.465473 
L 82.512977 99.342296 
L 82.715455 98.574382 
L 83.954722 98.982031 
L 84.576799 99.188827 
L 84.990841 99.265067 
L 86.019572 99.490909 
L 89.064723 99.801862 
L 90.666501 99.800319 
L 90.865661 98.594774 
L 91.268922 98.899397 
L 91.665859 99.169388 
L 92.068287 99.356883 
L 92.470479 99.31819 
L 93.268115 99.454223 
L 94.455779 99.550195 
L 95.440915 99.680406 
L 96.030071 99.651448 
L 98.980723 99.785121 
L 99.180102 100.007283 
L 99.378465 99.347889 
L 99.976543 99.527204 
L 102.820567 99.643167 
L 103.024812 99.817222 
L 103.64798 99.719624 
L 103.855803 99.817884 
L 104.276183 99.394059 
L 104.482276 99.473705 
L 104.689891 99.386169 
L 104.900036 97.358566 
L 105.111877 98.814252 
L 105.322721 98.543 
L 106.170919 98.755117 
L 107.244252 98.749906 
L 113.347103 98.418755 
L 113.797083 98.502722 
L 114.248666 98.757932 
L 114.697935 100.651334 
L 114.923619 96.914446 
L 115.151033 99.175509 
L 115.384099 98.989929 
L 116.11611 100.013805 
L 116.349866 99.368941 
L 120.080173 100.200048 
L 121.461671 100.265793 
L 123.761413 100.203893 
L 124.666051 100.200358 
L 124.891753 99.995145 
L 125.78124 99.951949 
L 126.890837 99.790184 
L 127.328463 99.011552 
L 127.762324 99.345517 
L 129.28124 99.86134 
L 129.494981 106.582473 
L 129.706594 105.192103 
L 130.137049 100.016461 
L 130.356993 98.821353 
L 131.67619 99.264774 
L 133.16675 99.465826 
L 133.800814 99.518234 
L 134.221552 99.541942 
L 136.113314 99.653205 
L 136.746996 99.671416 
L 136.746996 99.671416 
" clip-path="url(#pfa2533d009)" style="fill: none; stroke: #d60000; stroke-linecap: square"/>
   </g>
   <g id="line2d_10">
    <path d="M 30.49213 104.415686 
L 30.94539 104.473999 
L 31.193831 104.738936 
L 31.442445 104.490203 
L 31.915343 104.535192 
L 32.416857 105.287979 
L 32.889232 105.423099 
L 33.118767 105.62047 
L 33.344939 105.504326 
L 34.32022 104.518413 
L 35.211016 104.529456 
L 38.784924 104.53365 
L 41.347588 104.529655 
L 43.736961 104.531746 
L 45.501602 104.527773 
L 47.29694 104.540938 
L 61.973939 104.550209 
L 63.344122 104.542933 
L 63.539129 104.573954 
L 63.733202 104.991019 
L 63.932522 104.560442 
L 65.110716 104.569385 
L 67.461132 104.54836 
L 69.245834 104.556327 
L 73.9687 104.577686 
L 74.172687 104.735281 
L 74.383626 104.580962 
L 76.693078 104.556152 
L 79.620812 104.576629 
L 81.28774 104.56735 
L 81.702422 108.885115 
L 82.3215 104.811467 
L 82.527118 104.5963 
L 83.967057 104.609326 
L 85.410524 104.581319 
L 88.056945 104.573997 
L 88.670386 104.578322 
L 91.481029 104.597269 
L 94.271084 104.586497 
L 102.422787 104.586703 
L 103.449449 104.589387 
L 109.28989 104.555398 
L 110.429215 104.576219 
L 112.686201 104.580889 
L 114.941623 104.663735 
L 115.168201 104.802057 
L 115.640847 104.665107 
L 118.945887 104.634896 
L 120.326597 104.630603 
L 122.863224 104.655423 
L 124.002165 104.622297 
L 125.351859 104.624957 
L 129.295689 104.644329 
L 129.509049 107.800076 
L 129.721986 107.920851 
L 130.593673 104.677422 
L 134.656368 104.681312 
L 135.0768 104.673314 
L 136.127473 104.69084 
L 136.761152 104.671137 
L 136.761152 104.671137 
" clip-path="url(#pfa2533d009)" style="fill: none; stroke: #8c3bff; stroke-linecap: square"/>
   </g>
   <g id="line2d_11">
    <path d="M 30.504423 90.813325 
L 30.710264 90.429765 
L 30.962851 90.634795 
L 31.210702 92.197019 
L 31.45755 90.691166 
L 31.696723 90.657801 
L 31.933435 91.96493 
L 32.674226 100.120807 
L 32.902113 99.516177 
L 33.358755 97.250118 
L 33.592517 96.206606 
L 33.836607 96.057043 
L 34.5702 90.759882 
L 36.488558 90.736878 
L 36.910074 90.804351 
L 37.959307 90.742802 
L 39.427416 90.799904 
L 40.279927 90.784515 
L 40.497198 90.856373 
L 40.713418 90.76345 
L 40.926427 90.81551 
L 41.359897 90.744909 
L 42.229716 90.807998 
L 42.664358 90.788468 
L 42.879863 90.714146 
L 43.313796 90.800051 
L 43.750197 90.793301 
L 43.970458 90.832637 
L 44.191935 90.72765 
L 45.069651 90.82729 
L 45.516401 90.799079 
L 45.742327 90.837381 
L 45.96415 90.726705 
L 46.633874 90.798595 
L 47.08875 90.754557 
L 47.532984 90.81777 
L 49.380291 90.799659 
L 49.844659 90.784096 
L 50.552106 90.803315 
L 51.027364 90.791547 
L 51.942295 90.866017 
L 52.165049 90.786355 
L 52.389979 90.891586 
L 52.840548 90.798241 
L 53.944975 90.83241 
L 55.471687 90.803265 
L 56.112695 90.852775 
L 56.539907 90.813672 
L 56.962762 90.813008 
L 57.790486 90.771391 
L 58.408843 90.825981 
L 58.614119 90.743704 
L 59.221182 90.815237 
L 59.618862 90.835413 
L 60.21457 90.819577 
L 60.805625 90.830373 
L 61.593963 90.816166 
L 66.099816 90.872138 
L 66.491408 90.788603 
L 67.080894 90.848819 
L 67.472797 90.793701 
L 69.458306 90.80302 
L 69.861208 90.845848 
L 70.877498 90.82704 
L 71.70053 90.858121 
L 72.113485 90.907859 
L 72.529417 90.877663 
L 73.981311 90.88203 
L 74.185457 91.053577 
L 74.607565 90.889317 
L 75.234212 90.90433 
L 76.069083 90.895247 
L 76.705444 90.841677 
L 78.803622 90.815998 
L 81.301129 90.837017 
L 81.717144 97.99081 
L 82.333435 91.002959 
L 83.152089 90.971086 
L 84.601497 90.894942 
L 84.808654 90.968571 
L 85.015216 90.836805 
L 85.423544 90.945663 
L 85.841347 90.854659 
L 86.044539 90.921038 
L 86.449563 90.881673 
L 87.058556 90.871928 
L 87.869561 90.906178 
L 88.479145 90.850912 
L 90.090283 90.799751 
L 90.49154 90.875475 
L 90.893164 90.882365 
L 91.294758 90.88032 
L 91.893678 90.867531 
L 92.496861 90.890501 
L 93.492944 90.894703 
L 93.891988 90.878853 
L 94.878022 90.932976 
L 95.075634 90.842514 
L 95.466441 90.862012 
L 96.055434 90.818321 
L 96.640383 90.837087 
L 97.034477 90.837081 
L 97.231411 91.497961 
L 97.430988 90.821039 
L 98.025862 90.824426 
L 98.614028 90.804305 
L 99.405114 90.924596 
L 100.002176 90.860536 
L 102.233845 90.84795 
L 102.846409 90.88513 
L 103.461239 90.798863 
L 105.560198 90.873832 
L 105.985972 90.792674 
L 107.047615 90.840935 
L 111.569794 90.850022 
L 111.795214 91.855381 
L 112.026858 90.816144 
L 112.481676 90.842595 
L 113.154819 90.848615 
L 113.601382 90.97174 
L 113.82579 90.893774 
L 114.051496 91.008388 
L 114.501984 90.926663 
L 115.181851 91.030008 
L 116.380142 91.018187 
L 117.316817 90.913811 
L 117.552413 91.049974 
L 118.020615 90.8904 
L 118.729023 91.000661 
L 119.188886 90.932055 
L 120.338783 90.926266 
L 121.717466 90.9632 
L 126.256437 90.930105 
L 127.140783 90.964682 
L 129.307806 91.077206 
L 129.521035 93.099352 
L 129.733306 91.456065 
L 129.94508 91.150913 
L 130.831112 91.167615 
L 131.486188 91.14369 
L 132.1297 91.111186 
L 133.193878 91.04667 
L 133.614164 91.126852 
L 134.24839 91.120492 
L 135.299407 91.056459 
L 135.50571 91.113006 
L 135.713913 91.033011 
L 135.926212 91.095295 
L 136.139747 91.03968 
L 136.350185 91.134338 
L 136.773981 91.09561 
L 136.773981 91.09561 
" clip-path="url(#pfa2533d009)" style="fill: none; stroke: #018700; stroke-linecap: square"/>
   </g>
   <g id="line2d_12">
    <path d="M 30.516154 85.823204 
L 30.722538 85.844273 
L 30.975968 86.063072 
L 31.225112 86.682134 
L 31.473674 86.041042 
L 31.946893 85.98614 
L 32.193665 86.096714 
L 32.444315 87.055177 
L 32.919564 90.563725 
L 33.147438 91.847078 
L 33.376621 91.177888 
L 33.850871 88.408902 
L 34.100606 86.299904 
L 34.347556 86.15273 
L 34.809137 86.212074 
L 35.236976 86.209779 
L 37.973687 86.280714 
L 38.812312 86.244841 
L 39.232723 86.257239 
L 40.940449 86.250972 
L 43.982891 86.291059 
L 44.426097 86.240764 
L 45.528441 86.311171 
L 49.158888 86.279245 
L 49.624943 86.315288 
L 49.85653 86.228085 
L 50.335428 86.24058 
L 50.564894 86.202327 
L 51.040012 86.288216 
L 51.503898 86.25427 
L 51.731883 86.309116 
L 51.955022 86.216964 
L 52.403265 86.296066 
L 52.854886 86.317729 
L 54.177871 86.297583 
L 57.598683 86.256809 
L 57.806046 86.333257 
L 58.215545 86.242333 
L 58.83316 86.286297 
L 59.037071 86.232426 
L 59.235049 86.314573 
L 59.633672 86.221384 
L 60.029957 86.276532 
L 60.228223 86.209622 
L 60.621873 86.280099 
L 62.195628 86.243896 
L 63.367509 86.30684 
L 64.153677 86.37681 
L 64.938681 86.333258 
L 65.916001 86.367674 
L 67.28668 86.294014 
L 69.672483 86.324323 
L 69.872456 86.39322 
L 70.481117 86.300975 
L 72.124702 86.406752 
L 73.16221 86.363695 
L 73.576775 86.352183 
L 73.992647 86.39281 
L 74.406588 86.446377 
L 76.080172 86.363978 
L 77.343549 86.408087 
L 77.549775 86.293046 
L 78.815286 86.379651 
L 79.856218 86.354204 
L 80.065363 86.274502 
L 80.691766 86.317498 
L 81.517027 86.448948 
L 81.934811 86.626099 
L 82.959336 86.549197 
L 83.372811 86.59812 
L 83.785177 86.577894 
L 85.853631 86.461738 
L 93.306684 86.428792 
L 93.5057 86.352108 
L 93.904202 86.360358 
L 94.493349 86.385337 
L 95.477739 86.358265 
L 96.45674 86.345606 
L 96.651984 86.268935 
L 97.046291 86.36863 
L 97.245021 88.674593 
L 97.444983 86.690631 
L 97.645347 86.411744 
L 98.237553 86.284249 
L 98.627566 86.375617 
L 99.418507 86.318611 
L 99.618049 86.384787 
L 100.015579 86.341965 
L 102.041679 86.380342 
L 103.265996 86.366201 
L 103.685988 86.381179 
L 104.31326 86.306545 
L 104.728774 86.314513 
L 108.635938 86.261893 
L 108.860214 86.372732 
L 109.776867 86.28257 
L 110.231322 86.349019 
L 111.131383 86.35901 
L 111.357378 87.416495 
L 111.810456 94.135714 
L 112.044647 88.873466 
L 112.271037 86.449884 
L 112.71761 86.444982 
L 113.618115 86.425378 
L 113.842366 86.490079 
L 114.068483 86.410556 
L 114.520888 86.510686 
L 114.970446 86.493914 
L 115.197722 86.627895 
L 116.63661 86.6031 
L 116.869233 86.522838 
L 117.331406 86.596266 
L 118.279646 86.496086 
L 118.510104 86.627043 
L 119.443857 86.506509 
L 120.12257 86.639244 
L 120.578687 86.560251 
L 120.807212 86.635561 
L 121.502384 86.487416 
L 121.729684 86.625908 
L 121.96307 86.472375 
L 122.42402 86.60433 
L 122.888756 86.569401 
L 123.345482 86.521157 
L 123.572826 86.604026 
L 124.028766 86.467213 
L 124.931205 86.576621 
L 125.155249 86.488877 
L 125.379294 86.590592 
L 125.599434 86.546283 
L 125.820393 86.628722 
L 126.043232 86.531252 
L 126.931266 86.577022 
L 127.152626 86.519855 
L 127.585685 86.583903 
L 128.456147 86.671072 
L 128.669467 86.541031 
L 129.956871 86.856053 
L 130.177335 86.793803 
L 130.398089 86.889744 
L 131.281385 86.787087 
L 131.498388 86.90414 
L 132.141983 86.786769 
L 132.78138 86.774164 
L 136.787678 86.783782 
L 136.787678 86.783782 
" clip-path="url(#pfa2533d009)" style="fill: none; stroke: #00acc6; stroke-linecap: square"/>
   </g>
   <g id="line2d_13">
    <path d="M 30.528832 90.653353 
L 30.736434 90.663198 
L 30.995291 90.996165 
L 31.240771 92.185855 
L 31.487394 90.942344 
L 31.725324 90.830568 
L 31.962882 91.600042 
L 32.703101 100.087917 
L 32.935379 100.263482 
L 33.161219 99.710786 
L 33.62171 96.10071 
L 34.364045 94.357832 
L 34.822398 91.012918 
L 35.249989 90.950773 
L 38.40528 91.042833 
L 38.824891 90.987765 
L 39.455098 90.964096 
L 39.667445 91.041493 
L 40.30886 90.961429 
L 41.172346 90.992159 
L 42.473306 90.956227 
L 46.213378 91.011655 
L 46.66157 90.967897 
L 47.786877 91.015238 
L 48.245034 91.004283 
L 50.580963 90.999822 
L 51.28949 90.968691 
L 57.404877 90.989622 
L 57.610247 90.919761 
L 58.022239 90.987361 
L 59.445562 90.961137 
L 59.841042 91.024374 
L 60.437722 91.032367 
L 62.794509 90.940321 
L 63.185915 90.955636 
L 63.968911 90.948039 
L 64.952433 90.956842 
L 65.930763 90.980446 
L 66.124193 91.321491 
L 66.320497 91.002693 
L 71.308932 90.995571 
L 71.517745 90.911785 
L 72.141251 90.975946 
L 72.556158 90.967451 
L 72.970337 90.981603 
L 73.591762 90.950379 
L 74.21139 90.979414 
L 75.052876 90.954844 
L 75.678892 90.985688 
L 77.565308 90.975672 
L 78.200249 90.983514 
L 79.660255 90.973292 
L 80.496747 90.962851 
L 81.327044 91.027652 
L 81.529531 90.951917 
L 81.946874 90.965814 
L 85.448176 91.023064 
L 86.273543 91.012937 
L 87.083969 91.051635 
L 88.097867 90.986899 
L 89.11669 91.046601 
L 91.518996 90.945403 
L 91.920666 90.994632 
L 93.519691 90.913275 
L 93.91737 90.943051 
L 95.490718 90.940056 
L 96.07899 90.905562 
L 99.430352 90.978503 
L 100.43536 90.940399 
L 100.839058 90.974857 
L 101.450094 90.955815 
L 101.853602 90.982781 
L 104.117281 90.954381 
L 104.534466 90.943067 
L 104.951853 90.948229 
L 106.649849 90.912287 
L 106.864556 90.957799 
L 107.075839 92.000315 
L 107.296048 93.742687 
L 107.524224 91.031803 
L 107.745295 90.941986 
L 108.196588 91.003105 
L 108.87236 90.945268 
L 109.331485 90.972788 
L 111.373198 91.077368 
L 111.596537 91.316681 
L 111.825468 91.319802 
L 112.286328 91.10012 
L 112.731455 91.199635 
L 113.180921 91.118799 
L 113.630967 91.188667 
L 114.080648 91.140337 
L 114.307576 91.169164 
L 114.533958 91.025946 
L 114.759442 91.199001 
L 114.983441 91.058392 
L 115.44605 91.219518 
L 116.410277 91.085665 
L 117.114646 91.098325 
L 117.349253 91.010002 
L 117.813987 91.036677 
L 124.946545 91.028222 
L 125.173745 91.117417 
L 125.395641 91.052069 
L 125.615381 91.158717 
L 125.837973 91.060951 
L 126.283754 91.091455 
L 126.50992 91.012688 
L 126.728033 91.105957 
L 126.94899 91.004422 
L 127.819642 91.02085 
L 128.472558 91.068409 
L 128.685597 91.112273 
L 128.904907 91.019834 
L 129.120796 91.108434 
L 129.547838 91.089873 
L 130.191761 91.106034 
L 131.730087 91.188103 
L 132.795954 91.108859 
L 133.431493 91.106178 
L 134.907447 91.124117 
L 135.326376 91.18237 
L 136.801336 91.166649 
L 136.801336 91.166649 
" clip-path="url(#pfa2533d009)" style="fill: none; stroke: #97ff00; stroke-linecap: square"/>
   </g>
   <g id="line2d_14">
    <path d="M 30.541083 80.706671 
L 30.750317 80.720787 
L 31.013497 81.079448 
L 31.257766 82.043579 
L 31.50195 81.039452 
L 31.738291 80.883313 
L 31.979808 81.028283 
L 32.483051 87.158923 
L 32.718725 90.10194 
L 32.948568 90.274375 
L 33.173469 88.757369 
L 33.401934 86.060719 
L 33.635608 84.66526 
L 33.883521 84.216965 
L 34.380278 81.284728 
L 34.612928 80.662463 
L 36.951549 80.842357 
L 37.164899 80.732693 
L 37.793845 80.729101 
L 39.047529 80.743889 
L 39.258278 80.805008 
L 39.680328 80.746511 
L 40.107058 80.796117 
L 40.53941 80.71524 
L 40.753377 80.824192 
L 42.055243 80.67244 
L 42.270121 80.777652 
L 42.705369 80.680414 
L 42.921263 80.782212 
L 43.136784 80.621398 
L 43.568816 80.661884 
L 44.456934 80.715709 
L 45.333056 80.758544 
L 45.558009 80.614395 
L 46.00537 80.725554 
L 47.129678 80.668918 
L 47.351203 80.779819 
L 48.032091 80.677442 
L 51.531992 80.653268 
L 51.758635 80.774876 
L 52.882317 80.689911 
L 53.10449 80.791379 
L 53.324083 80.608725 
L 53.543912 80.749389 
L 53.763746 80.686503 
L 54.423057 80.84177 
L 55.08102 80.805663 
L 55.293306 80.670711 
L 55.510279 80.811646 
L 55.725215 80.702187 
L 55.937455 80.815071 
L 56.149816 80.684157 
L 56.366627 80.795982 
L 56.578735 80.684123 
L 57.209532 80.791323 
L 57.416186 80.670666 
L 57.829629 80.765569 
L 58.239401 80.701561 
L 58.652588 80.80186 
L 58.85661 80.697716 
L 59.852488 80.829441 
L 60.053118 80.595847 
L 60.44943 80.758964 
L 63.000698 80.762157 
L 63.198468 80.591765 
L 63.782623 80.695268 
L 64.770575 80.639206 
L 64.964654 80.622726 
L 65.160317 80.72602 
L 65.746915 80.666214 
L 66.529219 80.769672 
L 66.92143 80.687101 
L 67.511461 80.780565 
L 67.705324 80.684036 
L 68.296949 80.722681 
L 69.701343 80.643984 
L 69.899597 80.737044 
L 71.116992 80.645602 
L 71.531377 80.610591 
L 74.859374 80.701768 
L 75.06637 80.675237 
L 75.272758 80.776071 
L 75.691665 80.699468 
L 75.899571 80.789389 
L 76.53244 80.685164 
L 76.952747 80.719962 
L 77.578041 80.686566 
L 77.791152 80.789214 
L 78.212662 80.683509 
L 78.419542 80.764279 
L 79.048019 80.727133 
L 79.256139 80.73112 
L 79.464879 80.861026 
L 79.881628 80.626286 
L 80.298013 80.817257 
L 80.714935 80.690189 
L 80.923481 80.771532 
L 81.541062 80.676167 
L 82.573652 80.812456 
L 83.395849 80.900754 
L 83.603251 80.76812 
L 84.219137 80.807866 
L 84.428652 80.760467 
L 84.637618 80.870515 
L 85.050695 80.747242 
L 85.254246 80.93715 
L 85.45975 80.785286 
L 88.92569 80.763652 
L 89.129101 80.683687 
L 89.930414 80.800887 
L 90.933597 80.646682 
L 91.133683 80.73916 
L 91.334174 80.604582 
L 91.531403 80.76917 
L 91.731475 80.683579 
L 92.13348 80.708165 
L 92.535663 80.742735 
L 94.916691 80.666643 
L 95.309341 80.642936 
L 95.699152 80.590777 
L 96.092628 80.606531 
L 96.676874 80.628723 
L 97.072834 80.653953 
L 97.271133 80.829372 
L 97.866007 80.782552 
L 98.261849 80.835989 
L 98.458139 80.717406 
L 98.651668 80.801191 
L 98.84787 80.71903 
L 99.044267 80.757614 
L 99.24519 80.650824 
L 99.443964 80.7542 
L 100.041749 80.655606 
L 100.449126 80.670271 
L 100.650044 80.637545 
L 100.85265 80.751369 
L 101.257972 80.655806 
L 101.463326 80.725709 
L 101.868212 80.618099 
L 102.069527 80.699803 
L 102.681613 80.646143 
L 103.296161 80.674738 
L 103.924733 80.576923 
L 104.341175 80.724321 
L 104.548943 80.634542 
L 104.967806 80.651136 
L 105.603678 80.675338 
L 106.029543 80.693723 
L 106.241934 80.585807 
L 106.455078 80.692755 
L 106.880334 80.665664 
L 107.760412 80.907441 
L 108.211758 80.739619 
L 108.663372 80.818519 
L 109.802977 80.725782 
L 110.031275 80.80128 
L 110.260367 80.721378 
L 110.709641 80.751188 
L 111.388403 80.807487 
L 111.612783 81.040306 
L 112.299504 81.02647 
L 112.744089 80.994899 
L 114.095144 80.931663 
L 114.548234 80.866167 
L 114.998793 81.059953 
L 115.463717 80.935605 
L 115.70443 81.138798 
L 115.95329 80.805739 
L 117.131561 80.959714 
L 117.364756 80.850598 
L 117.600392 80.943252 
L 117.83001 80.837833 
L 118.544117 80.95777 
L 118.774605 80.870958 
L 119.003571 80.970852 
L 119.23988 80.817039 
L 119.476043 80.940901 
L 119.702287 80.810566 
L 120.383972 80.972678 
L 120.839348 80.852984 
L 121.300789 80.953403 
L 121.994783 80.769729 
L 122.22589 80.862229 
L 122.92359 80.842833 
L 123.377586 80.900583 
L 124.062301 80.804403 
L 124.288802 80.911886 
L 124.959279 80.937965 
L 125.187532 80.94897 
L 125.409045 81.091522 
L 125.850537 80.88124 
L 126.073713 80.839697 
L 126.295966 80.954982 
L 127.180872 80.952579 
L 127.615858 80.961149 
L 128.697542 80.764211 
L 129.13351 80.876288 
L 129.347824 80.775434 
L 129.774415 80.9992 
L 131.311325 80.92135 
L 131.743635 81.028692 
L 131.958005 80.910616 
L 132.171482 81.001438 
L 132.597541 80.851133 
L 132.80923 80.955596 
L 133.445009 80.895574 
L 133.65682 80.965782 
L 133.866904 80.886891 
L 134.078646 80.956029 
L 134.501245 80.899081 
L 135.132251 80.939638 
L 136.182156 80.8082 
L 136.393018 80.964742 
L 136.605489 80.807948 
L 136.81502 80.967431 
L 136.81502 80.967431 
" clip-path="url(#pfa2533d009)" style="fill: none; stroke: #ff7ed1; stroke-linecap: square"/>
   </g>
   <g id="line2d_15">
    <path d="M 30.55453 97.884599 
L 30.764788 97.899643 
L 31.274527 98.283143 
L 31.517228 97.96112 
L 31.752005 97.875263 
L 31.998754 98.110339 
L 32.735555 103.300375 
L 32.963287 103.152171 
L 33.650483 100.301482 
L 34.15672 99.391222 
L 34.628942 97.751366 
L 35.27544 97.811846 
L 35.909188 97.761386 
L 36.965345 97.815707 
L 39.480958 97.762219 
L 39.907522 97.811597 
L 40.553132 97.796581 
L 41.852115 97.771189 
L 43.367349 97.784173 
L 45.126424 97.765071 
L 48.048315 97.772737 
L 49.205506 97.739006 
L 51.082415 97.799197 
L 51.994588 97.766967 
L 55.305354 97.791342 
L 55.949772 97.797025 
L 58.251033 97.729317 
L 58.45876 97.79957 
L 58.86876 97.735884 
L 59.470127 97.759531 
L 79.477052 97.803178 
L 79.684663 97.717658 
L 80.310019 97.798412 
L 81.143078 97.816315 
L 81.5529 97.834079 
L 82.38177 97.853746 
L 83.408295 97.803236 
L 83.822105 97.854072 
L 85.682845 97.824851 
L 86.09222 97.791971 
L 88.324469 97.81151 
L 90.140042 97.779506 
L 90.542273 97.788288 
L 91.14605 97.761038 
L 93.346232 97.752193 
L 94.730808 97.739256 
L 95.908106 97.768615 
L 97.08662 97.759429 
L 97.284365 97.862693 
L 97.879115 97.817114 
L 106.895941 97.774548 
L 107.332261 97.863892 
L 107.778914 97.791108 
L 109.3651 97.86935 
L 109.821921 97.792597 
L 115.016185 97.925483 
L 115.242053 97.865999 
L 115.481367 97.965058 
L 116.20925 97.952825 
L 116.914058 97.920492 
L 121.55079 97.884554 
L 122.240917 97.887596 
L 122.707229 97.86009 
L 123.168319 97.8886 
L 124.076278 97.856787 
L 129.575276 97.913046 
L 130.219972 97.94369 
L 136.828563 97.858636 
L 136.828563 97.858636 
" clip-path="url(#pfa2533d009)" style="fill: none; stroke: #6b004f; stroke-linecap: square"/>
   </g>
   <g id="line2d_16">
    <path d="M 30.567615 89.660847 
L 30.778942 89.639324 
L 31.046382 89.89003 
L 31.768831 89.830023 
L 32.013497 90.901982 
L 32.512621 94.034604 
L 32.747767 93.43194 
L 33.202768 93.956817 
L 33.432999 93.829754 
L 34.408773 89.90606 
L 34.641662 89.979284 
L 35.077396 89.906508 
L 35.496759 89.948442 
L 36.343359 89.948927 
L 38.232186 90.032568 
L 38.442078 89.932575 
L 39.073286 89.96961 
L 40.349255 89.89648 
L 40.565519 90.033521 
L 42.732201 89.968933 
L 42.949601 90.032176 
L 43.380148 89.929827 
L 44.263192 89.991166 
L 44.485547 89.898965 
L 44.705081 89.975945 
L 44.917789 89.931897 
L 45.139367 90.005429 
L 45.811143 89.964475 
L 47.607659 89.990985 
L 51.097607 89.979266 
L 51.332124 89.931481 
L 51.561423 90.039155 
L 52.00982 89.975643 
L 52.686989 89.939468 
L 52.911359 90.035874 
L 53.354439 89.988589 
L 54.232406 90.025601 
L 55.752397 89.992623 
L 57.026392 89.977147 
L 60.076844 89.970202 
L 60.671559 90.000017 
L 63.223088 89.987478 
L 63.416482 90.072088 
L 64.0065 90.012614 
L 64.402825 90.061414 
L 67.731686 89.983036 
L 67.929609 90.060341 
L 68.323938 89.94991 
L 68.724638 90.010844 
L 69.524099 90.071555 
L 70.535665 89.979364 
L 71.350732 90.019091 
L 81.364345 90.005653 
L 81.779714 98.755485 
L 81.984716 97.427008 
L 82.393369 90.158604 
L 83.009132 90.192479 
L 83.211843 90.093508 
L 83.628913 90.148638 
L 83.834129 90.063806 
L 84.243653 90.095288 
L 85.48415 90.070344 
L 85.902058 90.05026 
L 86.308371 90.099847 
L 86.713524 90.091641 
L 87.321033 90.059561 
L 87.727004 90.115509 
L 88.745578 90.075567 
L 88.951713 90.141934 
L 89.355179 90.115495 
L 89.95515 90.005932 
L 90.153882 90.132932 
L 93.160038 90.096968 
L 93.558441 90.122234 
L 93.757017 90.052932 
L 93.956068 90.143735 
L 94.347709 90.118203 
L 95.528634 90.119718 
L 96.313369 90.132667 
L 96.507826 90.027494 
L 96.702676 90.165891 
L 96.899939 90.037427 
L 97.295801 90.075343 
L 97.89123 90.069008 
L 98.088555 90.129011 
L 98.48278 90.028029 
L 99.669146 90.176442 
L 100.067851 90.078124 
L 100.878446 90.111337 
L 101.893406 90.030825 
L 102.095242 90.13791 
L 102.300745 90.049155 
L 102.708478 90.144399 
L 103.32343 90.104091 
L 103.742854 90.169475 
L 103.953735 90.037065 
L 104.160625 90.195209 
L 104.368477 90.092776 
L 104.786924 90.136495 
L 104.996 90.005754 
L 106.907783 90.083415 
L 107.792837 90.008283 
L 108.243376 90.140825 
L 109.377466 90.115058 
L 109.606584 90.151897 
L 109.834027 90.073243 
L 110.288006 90.088027 
L 111.418713 90.034047 
L 111.639677 90.203428 
L 111.869021 90.010321 
L 112.09906 90.005956 
L 112.32621 90.140482 
L 112.550036 90.036822 
L 112.769071 90.149057 
L 113.445523 90.064914 
L 113.896417 90.144552 
L 120.639297 90.165769 
L 121.100007 90.092511 
L 121.791177 90.244799 
L 122.023303 90.100036 
L 122.48612 90.272779 
L 123.631835 90.059955 
L 123.861525 90.24454 
L 124.316594 90.138528 
L 125.436289 90.213783 
L 125.876595 90.177726 
L 126.101949 90.249729 
L 126.323283 90.117758 
L 126.766575 90.234541 
L 127.857352 90.302117 
L 128.511089 90.258555 
L 128.72271 90.14334 
L 128.942962 90.299977 
L 129.158573 90.274205 
L 129.373566 90.378803 
L 129.58731 94.281128 
L 130.015272 91.054493 
L 130.234596 90.292211 
L 130.459073 90.415216 
L 130.680565 90.327802 
L 130.901789 90.405779 
L 131.124113 90.282063 
L 131.556718 90.420647 
L 132.411176 90.289823 
L 132.62644 90.365435 
L 133.050478 90.239631 
L 133.263055 90.417858 
L 133.684692 90.329326 
L 134.316989 90.386577 
L 134.738786 90.320865 
L 135.998349 90.372261 
L 136.208927 90.236256 
L 136.420682 90.29877 
L 136.841333 90.292835 
L 136.841333 90.292835 
" clip-path="url(#pfa2533d009)" style="fill: none; stroke: #ffa52f; stroke-linecap: square"/>
   </g>
   <g id="line2d_17">
    <path d="M 30.580413 75.293045 
L 30.792532 74.743791 
L 31.306807 75.962725 
L 31.549481 75.165736 
L 31.782675 74.979618 
L 32.030356 76.464215 
L 32.280075 79.663211 
L 32.528146 85.002017 
L 32.761407 85.920748 
L 33.215471 81.198113 
L 33.449406 79.982653 
L 33.684671 79.80788 
L 34.42608 74.420867 
L 34.874395 74.452859 
L 35.509348 74.380682 
L 35.723095 74.415941 
L 36.147104 74.327573 
L 36.56871 74.351474 
L 36.989635 74.348275 
L 37.201889 74.37325 
L 37.830685 74.172994 
L 38.664798 74.37537 
L 39.085481 74.166563 
L 39.296288 74.269087 
L 39.932022 74.241374 
L 40.147158 74.283125 
L 40.361747 74.169774 
L 40.578756 74.269566 
L 41.224207 74.079351 
L 41.442983 74.06409 
L 41.659258 74.168856 
L 42.745797 74.015518 
L 42.962833 74.167921 
L 43.393618 74.067565 
L 44.054126 73.987705 
L 44.277493 74.146689 
L 44.49987 73.998408 
L 45.155968 74.046323 
L 47.848221 73.922647 
L 48.541555 74.002858 
L 49.468568 73.935937 
L 50.409467 73.901171 
L 54.90075 74.006393 
L 55.550809 73.969046 
L 57.247657 73.942321 
L 57.453593 73.853914 
L 58.276116 73.948497 
L 58.482668 73.834001 
L 58.892668 73.969958 
L 59.096729 73.847427 
L 59.494341 73.937159 
L 59.692508 73.826293 
L 60.088344 73.896006 
L 60.287397 73.81233 
L 60.683291 73.858112 
L 60.878971 73.924301 
L 61.275935 73.818542 
L 61.667209 73.81551 
L 63.624186 73.880783 
L 63.820754 73.969532 
L 64.218403 73.916398 
L 64.414516 74.001365 
L 64.613125 73.889809 
L 64.806898 73.977438 
L 65.196767 73.965684 
L 71.363503 73.848924 
L 71.780537 73.962553 
L 71.987041 73.960508 
L 72.193609 74.140245 
L 72.401037 73.955994 
L 72.817795 73.974494 
L 73.646717 73.969425 
L 73.85074 73.905771 
L 74.900102 74.16771 
L 75.522124 74.015378 
L 76.358415 73.952275 
L 76.573063 74.057387 
L 76.993799 73.961889 
L 79.087362 73.917624 
L 79.293984 73.813311 
L 79.503904 73.891009 
L 79.921201 73.810565 
L 80.753635 73.80569 
L 81.580434 73.925962 
L 81.996904 74.36514 
L 82.407242 74.436957 
L 82.816427 74.28674 
L 83.022327 74.386925 
L 83.848764 74.209429 
L 84.055248 74.321756 
L 84.466477 74.180902 
L 84.676581 74.240666 
L 84.882867 74.11905 
L 85.088904 74.228185 
L 85.4986 74.13352 
L 87.942472 73.990273 
L 88.147097 73.954533 
L 88.349409 74.046973 
L 89.366687 73.939632 
L 89.766712 73.951138 
L 93.370572 74.026764 
L 93.570002 73.953853 
L 93.967668 74.036299 
L 95.345972 73.846809 
L 95.540495 73.960139 
L 96.130192 73.794807 
L 97.507375 73.977827 
L 97.707257 74.062152 
L 98.298656 73.944715 
L 99.483002 74.059892 
L 99.879797 73.978168 
L 100.080723 74.064829 
L 100.283966 73.913927 
L 100.890762 73.973574 
L 101.297598 73.931968 
L 101.70403 74.024802 
L 101.907154 73.937043 
L 102.108349 74.053458 
L 102.516743 73.885428 
L 102.721396 73.992937 
L 103.129071 73.840446 
L 103.337064 73.969347 
L 104.381982 73.827155 
L 104.591958 73.93675 
L 105.010092 73.7927 
L 105.432446 73.856864 
L 105.646415 73.773303 
L 105.856494 73.816124 
L 106.071073 74.007392 
L 106.495836 73.78128 
L 106.705611 73.933634 
L 107.3594 73.838549 
L 107.583485 73.933788 
L 108.030118 73.842768 
L 108.259352 73.759056 
L 108.48469 73.944268 
L 108.709963 73.862762 
L 108.933563 74.007048 
L 109.622301 73.898035 
L 109.848883 74.002975 
L 110.077382 73.763688 
L 110.303439 73.96554 
L 111.206173 73.798292 
L 111.434035 73.91295 
L 111.65651 73.892057 
L 112.114208 74.151128 
L 112.564622 74.296666 
L 112.783288 74.151699 
L 113.010275 74.30414 
L 113.23621 74.125276 
L 114.137583 73.995533 
L 114.589775 74.019958 
L 114.816809 74.092849 
L 115.043833 74.021393 
L 115.271812 74.197958 
L 116.714641 74.313734 
L 117.410349 74.184111 
L 118.116829 74.160321 
L 118.819267 74.220092 
L 119.049585 73.992869 
L 121.578738 73.923062 
L 121.807722 73.866908 
L 122.269821 74.075005 
L 122.501722 73.792348 
L 122.736271 73.882757 
L 122.967746 73.7735 
L 123.875633 73.922245 
L 124.104864 73.916466 
L 124.332321 73.762518 
L 126.780365 73.868172 
L 127.002262 73.737693 
L 127.43857 73.930583 
L 128.310582 73.918627 
L 128.52531 73.99686 
L 128.95777 73.88133 
L 129.388719 73.844241 
L 129.602033 73.937835 
L 129.813186 74.180495 
L 131.784622 74.329356 
L 131.999581 74.133316 
L 132.640689 74.114783 
L 132.850773 73.988406 
L 133.276886 74.123439 
L 133.487239 73.968659 
L 136.645362 73.841054 
L 136.853684 73.943455 
L 136.853684 73.943455 
" clip-path="url(#pfa2533d009)" style="fill: none; stroke: #573b00; stroke-linecap: square"/>
   </g>
   <g id="line2d_18">
    <path d="M 30.59402 23.158202 
L 30.806636 22.815058 
L 31.077833 24.451671 
L 31.322878 24.428144 
L 31.56286 23.289767 
L 31.79752 23.222508 
L 32.04824 27.008174 
L 32.298051 36.554969 
L 32.54481 50.586618 
L 32.776052 52.475935 
L 33.003155 48.452543 
L 33.227747 39.358482 
L 33.699173 33.739174 
L 33.952223 31.711924 
L 34.440905 24.900781 
L 34.669504 23.775974 
L 35.104055 23.893162 
L 35.312703 23.837942 
L 35.521646 23.93683 
L 35.735795 23.767002 
L 36.368151 24.110442 
L 36.581613 23.763875 
L 36.792265 23.882805 
L 37.00311 23.741949 
L 37.424749 23.934272 
L 37.633069 23.90359 
L 37.843555 23.53307 
L 38.04784 23.945887 
L 38.257367 23.91161 
L 38.467426 23.706762 
L 38.677804 23.941701 
L 38.887776 23.726169 
L 39.308741 24.007317 
L 39.519047 23.804176 
L 40.160755 23.805147 
L 40.377335 23.620684 
L 40.593577 23.845623 
L 40.807009 23.856344 
L 41.022884 23.564425 
L 41.457492 23.821028 
L 41.673157 23.649712 
L 42.110217 23.785729 
L 42.760151 23.594515 
L 42.976059 23.997592 
L 43.192327 23.662404 
L 44.0694 23.819339 
L 44.291901 23.580292 
L 44.512791 23.566747 
L 44.94612 23.902285 
L 45.39226 23.844607 
L 45.617124 23.787824 
L 45.841417 24.160815 
L 46.062318 23.762928 
L 46.284857 23.617685 
L 46.509988 23.910529 
L 46.736922 23.756315 
L 47.190072 23.975564 
L 47.410456 24.000296 
L 47.637128 23.797113 
L 48.092136 24.007261 
L 48.324192 23.590767 
L 48.787389 23.767259 
L 49.716729 23.868358 
L 49.949535 23.728523 
L 50.186879 23.87873 
L 50.890095 23.843604 
L 51.127805 23.662134 
L 51.361196 23.636669 
L 51.814523 24.323406 
L 52.038084 24.120942 
L 52.263941 24.309078 
L 52.71516 24.214061 
L 52.939051 24.494015 
L 53.160258 24.589376 
L 53.819443 24.272691 
L 54.478386 24.431287 
L 54.69336 24.450083 
L 55.34516 24.213085 
L 55.776632 24.254168 
L 56.200631 24.195804 
L 56.418093 24.397746 
L 56.839746 24.043027 
L 57.050197 24.181903 
L 58.082498 24.068138 
L 58.287731 24.150652 
L 58.494125 23.964553 
L 58.699353 24.150711 
L 58.903941 24.171734 
L 59.10806 24.459118 
L 59.505472 24.006884 
L 59.703547 24.152223 
L 59.900267 24.081877 
L 60.100119 24.243533 
L 60.298867 24.021675 
L 60.496101 24.271353 
L 60.694978 24.093675 
L 61.678792 24.178559 
L 61.875282 24.129491 
L 62.268646 24.286642 
L 62.463993 23.952034 
L 62.855043 24.110162 
L 63.440817 24.021125 
L 64.031934 24.486168 
L 64.625466 24.588145 
L 64.819225 24.370631 
L 65.600551 24.750131 
L 65.992669 24.471521 
L 66.38254 24.708733 
L 66.775483 24.397841 
L 66.971996 24.447067 
L 67.167442 24.348597 
L 67.364746 23.998962 
L 67.756223 24.498696 
L 68.15222 24.28178 
L 68.349966 24.293736 
L 68.550424 24.499302 
L 68.750914 24.366361 
L 68.947038 24.487462 
L 69.347479 24.559513 
L 69.753847 24.504702 
L 69.951759 24.369667 
L 70.153952 24.905349 
L 70.358245 24.460251 
L 70.766568 24.413528 
L 71.170967 24.353222 
L 71.585743 24.826763 
L 71.795379 24.943559 
L 72.208205 24.770291 
L 72.415152 24.949035 
L 72.623837 24.748975 
L 72.832665 24.826796 
L 73.038803 24.690088 
L 73.243277 24.916502 
L 73.452976 24.513193 
L 73.66036 24.618713 
L 73.865506 24.565753 
L 74.280966 24.896509 
L 74.491634 25.044847 
L 74.703996 25.014906 
L 74.913361 24.809254 
L 75.11908 24.939877 
L 75.536114 24.80529 
L 75.748073 24.914201 
L 75.955042 24.762526 
L 76.373407 24.89517 
L 76.588463 24.669492 
L 77.423794 24.869313 
L 77.847136 24.764584 
L 78.268243 24.868694 
L 78.473333 24.650443 
L 78.684273 24.800379 
L 78.89491 24.766357 
L 79.099675 24.603664 
L 79.307108 24.701852 
L 79.724122 24.578825 
L 79.934207 24.523019 
L 80.142316 24.604424 
L 80.558976 24.40628 
L 80.76619 24.647967 
L 80.975683 24.543975 
L 81.388498 24.601098 
L 82.00961 26.396841 
L 82.624806 26.399602 
L 83.241458 25.988458 
L 83.449232 26.073019 
L 83.657144 25.905628 
L 83.864095 26.097159 
L 84.069366 25.598011 
L 84.273703 25.863017 
L 84.481425 25.912158 
L 84.691645 25.727653 
L 84.896425 25.819572 
L 85.512134 25.780069 
L 85.723105 25.403077 
L 86.131431 25.580788 
L 86.334623 25.509289 
L 86.535507 25.567047 
L 86.738644 25.356238 
L 86.942197 25.52287 
L 87.344917 25.361404 
L 87.547318 25.463041 
L 87.752024 25.372233 
L 87.954572 25.491311 
L 88.159063 25.474016 
L 88.361102 25.213348 
L 88.565318 25.385452 
L 88.975154 25.307905 
L 89.178081 25.678025 
L 89.577888 25.048619 
L 89.778175 25.34706 
L 89.978272 25.156895 
L 90.176574 25.318946 
L 90.378396 25.08509 
L 90.578234 25.320233 
L 90.778537 25.086158 
L 91.182711 25.762015 
L 91.383026 25.979015 
L 91.983142 25.295406 
L 92.184022 25.650758 
L 92.384947 25.65222 
L 92.584793 25.334787 
L 92.784151 25.576173 
L 92.985757 25.504828 
L 93.183083 25.630357 
L 93.382021 25.528756 
L 93.581062 25.854011 
L 93.779284 25.784361 
L 93.978741 25.555971 
L 94.37034 25.557592 
L 94.568222 25.37277 
L 94.766292 25.602081 
L 95.162072 25.535053 
L 95.356971 25.445053 
L 95.551886 25.556862 
L 96.141764 25.541255 
L 96.33746 25.847201 
L 96.532296 25.302266 
L 96.72758 25.74968 
L 96.923859 25.524538 
L 97.122075 25.519882 
L 97.320067 25.170975 
L 97.519106 25.262713 
L 97.718773 24.999453 
L 97.91619 25.347643 
L 98.310052 24.954337 
L 98.506454 25.239999 
L 98.896156 25.017693 
L 99.095533 25.212122 
L 99.293521 25.836241 
L 99.494689 25.888719 
L 99.891634 25.520341 
L 100.092429 25.735032 
L 100.295826 25.540942 
L 100.499813 25.122893 
L 100.701152 25.478428 
L 101.10782 25.295937 
L 101.715894 25.631006 
L 102.120807 25.070474 
L 102.325111 25.331397 
L 102.529696 25.378048 
L 102.734095 25.295335 
L 102.939247 25.389618 
L 103.141887 25.630672 
L 103.349895 25.229711 
L 103.557846 25.170907 
L 103.768152 24.993606 
L 103.979547 25.333541 
L 104.187386 24.969846 
L 104.394582 25.19522 
L 104.604241 25.089285 
L 104.812973 24.820482 
L 105.024922 25.111463 
L 105.659986 25.503882 
L 105.869535 25.300417 
L 106.084028 25.259481 
L 106.297746 25.014364 
L 106.934549 25.110165 
L 107.375135 25.39177 
L 107.823108 24.78015 
L 108.499789 25.136655 
L 108.950457 24.984556 
L 109.409648 24.947629 
L 109.864046 24.736991 
L 110.095628 24.71112 
L 110.317849 24.953343 
L 110.771771 25.108941 
L 110.995332 24.797493 
L 111.222372 25.145216 
L 111.449008 24.771924 
L 111.672233 24.793625 
L 111.899605 24.679099 
L 112.128365 24.351759 
L 112.356856 24.750209 
L 112.799841 24.243909 
L 113.027273 24.69525 
L 113.701654 24.806661 
L 114.605768 25.679736 
L 114.830335 25.702555 
L 115.288732 26.674516 
L 115.525428 26.728474 
L 115.766513 26.590355 
L 116.014315 26.876586 
L 117.188501 26.119342 
L 117.425106 26.222092 
L 117.658306 26.170244 
L 117.890417 26.255075 
L 118.373168 26.084182 
L 118.603345 26.252999 
L 118.83317 25.851389 
L 119.299427 25.619531 
L 119.535201 25.665661 
L 119.759254 25.860766 
L 119.985585 25.890016 
L 120.217747 25.508863 
L 120.44362 25.800273 
L 120.668777 25.660093 
L 120.89674 25.890636 
L 121.132268 25.567042 
L 121.361328 25.692334 
L 121.592969 25.433856 
L 121.822824 25.519611 
L 122.057742 25.254563 
L 122.518234 25.706517 
L 122.752502 25.294214 
L 122.983992 25.590405 
L 123.435927 25.518005 
L 123.664817 25.413298 
L 124.121058 25.558524 
L 124.346852 25.246151 
L 124.566984 25.451487 
L 125.01529 25.363801 
L 125.464483 25.712201 
L 125.906729 25.397471 
L 126.574638 25.500691 
L 126.795377 25.469569 
L 127.016257 25.591948 
L 127.235753 26.159591 
L 127.451631 26.224133 
L 127.888008 25.996199 
L 128.105329 26.192241 
L 128.53933 26.10583 
L 128.754054 26.263651 
L 128.971873 26.096977 
L 129.187315 26.145007 
L 129.404467 25.930736 
L 129.827052 27.355737 
L 130.04539 27.350077 
L 130.262332 27.188346 
L 130.708674 27.51519 
L 130.929187 27.456644 
L 131.150342 27.080945 
L 131.583266 27.188835 
L 133.500303 26.649184 
L 133.711256 26.92972 
L 133.921717 26.249815 
L 134.133877 26.716816 
L 134.341977 26.384439 
L 134.553421 26.664876 
L 134.76242 26.433565 
L 134.974431 26.738717 
L 135.185223 26.60809 
L 135.393207 26.726599 
L 136.02378 26.299282 
L 136.233871 26.491119 
L 136.866148 26.449831 
L 136.866148 26.449831 
" clip-path="url(#pfa2533d009)" style="fill: none; stroke: #005659; stroke-linecap: square"/>
   </g>
   <g id="line2d_19">
    <path d="M 30.606286 80.175275 
L 30.822048 76.639149 
L 31.094339 75.411018 
L 31.815266 75.146467 
L 32.064476 76.900336 
L 32.313663 80.339475 
L 32.558532 85.621018 
L 32.788955 84.980463 
L 33.015403 81.097431 
L 34.220043 75.355086 
L 34.45545 75.051816 
L 34.683246 75.11432 
L 35.117166 74.940728 
L 35.748316 75.112922 
L 36.172026 74.968888 
L 36.594184 75.076746 
L 37.015345 75.105911 
L 37.437614 75.027148 
L 37.645757 75.120954 
L 37.855732 75.00389 
L 38.060269 75.052295 
L 38.269698 74.933361 
L 38.480062 75.144784 
L 38.689875 74.967588 
L 39.110464 75.048474 
L 39.321401 75.147878 
L 39.743515 75.014452 
L 40.390342 75.106772 
L 40.606842 75.00677 
L 41.035693 75.115951 
L 41.471056 74.975769 
L 41.687081 75.147062 
L 41.90672 74.959968 
L 42.339139 75.022965 
L 42.989866 74.979601 
L 43.205657 74.819712 
L 43.422769 75.199253 
L 43.638104 74.908591 
L 43.863489 75.092496 
L 44.305128 74.98211 
L 44.526329 74.958618 
L 44.746072 75.194366 
L 44.960857 74.963065 
L 45.185386 75.099664 
L 45.406372 74.976543 
L 45.855108 75.238425 
L 46.076006 74.979746 
L 46.298399 75.200873 
L 46.979772 75.154769 
L 47.204538 75.305355 
L 47.423899 75.062413 
L 47.650583 75.292215 
L 47.878519 74.964155 
L 48.106982 75.31877 
L 48.338585 75.27587 
L 48.570536 75.018754 
L 49.032442 75.232772 
L 49.730191 75.245069 
L 49.962943 75.246555 
L 50.202258 74.933909 
L 50.438921 75.379729 
L 50.905856 75.105323 
L 52.05522 75.279809 
L 52.277842 75.209406 
L 52.504029 75.391296 
L 52.953009 75.355933 
L 53.175424 75.353506 
L 53.397548 75.466063 
L 53.614185 75.360837 
L 53.835383 75.435337 
L 54.053516 75.226767 
L 54.928385 75.105662 
L 55.359611 75.221262 
L 56.005538 75.169396 
L 56.432014 75.193048 
L 56.642161 75.18092 
L 56.853261 75.006078 
L 57.064101 75.166018 
L 57.89073 75.0206 
L 58.095108 75.155118 
L 58.301196 75.100515 
L 58.507426 75.18459 
L 58.916965 75.059472 
L 59.31907 75.181754 
L 59.715252 75.180044 
L 59.912298 75.253825 
L 60.112651 75.125027 
L 60.50861 75.172915 
L 60.902126 75.137397 
L 61.099633 75.278686 
L 61.298795 75.072412 
L 61.49531 75.191001 
L 61.690415 75.036702 
L 62.280319 75.221571 
L 62.672474 75.147627 
L 62.866731 75.195838 
L 63.060085 75.112238 
L 63.258982 75.206546 
L 63.845093 75.182045 
L 64.043255 75.21101 
L 64.242219 75.35861 
L 64.438382 75.172536 
L 64.636897 75.149758 
L 64.830667 75.409026 
L 65.025365 75.052104 
L 65.220988 75.279838 
L 65.612611 75.244716 
L 66.199362 75.414063 
L 66.590766 75.253142 
L 66.786819 75.104024 
L 66.983848 75.291838 
L 67.178953 75.15977 
L 67.57244 75.22303 
L 67.767795 75.174816 
L 67.966795 75.281941 
L 68.163938 75.088852 
L 68.361062 75.107616 
L 68.562015 74.970048 
L 68.958459 75.21719 
L 70.165659 75.338382 
L 70.574633 75.109047 
L 70.778233 75.282976 
L 71.182881 75.141704 
L 71.389855 75.355004 
L 71.597971 75.216571 
L 71.807493 75.348293 
L 72.63538 75.253837 
L 73.464764 75.600953 
L 73.672269 75.294753 
L 74.087831 75.226686 
L 74.29239 75.421753 
L 74.715659 75.256908 
L 74.925497 75.433982 
L 75.131348 75.334798 
L 75.547987 75.456439 
L 75.759478 75.246423 
L 76.6008 75.544701 
L 76.811708 75.184972 
L 77.436227 75.394756 
L 78.069096 75.463789 
L 78.486484 75.429574 
L 78.697337 75.556152 
L 78.907996 75.20867 
L 79.112193 75.467558 
L 79.320645 75.336687 
L 79.737291 75.327884 
L 79.947543 75.185406 
L 80.77908 75.568045 
L 80.988194 75.395773 
L 81.400278 75.485679 
L 81.606506 75.958524 
L 81.817525 75.701016 
L 82.022098 75.859264 
L 82.842633 75.546562 
L 83.047659 75.769077 
L 83.875945 75.781309 
L 84.285995 75.642816 
L 84.908848 75.604388 
L 85.319058 75.748668 
L 85.524595 75.461791 
L 85.735424 75.760344 
L 85.941273 75.674023 
L 86.143625 75.318498 
L 86.346747 75.727497 
L 86.548499 75.539611 
L 86.751299 75.677596 
L 86.955005 75.555944 
L 87.764461 75.661736 
L 87.967678 75.462501 
L 88.37398 75.673733 
L 88.782221 75.698161 
L 88.988286 75.728034 
L 89.190508 75.447806 
L 89.590604 75.658705 
L 89.791054 75.610791 
L 89.991136 75.76592 
L 90.189973 75.47817 
L 90.391497 75.672329 
L 90.591651 75.642346 
L 90.791591 75.492373 
L 90.99619 75.727012 
L 91.593425 75.578376 
L 91.793635 75.731454 
L 92.998815 75.672606 
L 93.196214 75.547986 
L 93.991913 75.646347 
L 94.185986 75.592829 
L 94.383019 75.722679 
L 94.581211 75.578206 
L 94.77934 75.637038 
L 94.97852 75.483187 
L 95.17496 75.657313 
L 97.332448 75.545186 
L 97.531163 75.454501 
L 98.125182 75.540942 
L 98.321763 75.494573 
L 98.712375 75.689125 
L 98.908742 75.608318 
L 99.107283 75.789381 
L 99.50796 75.787409 
L 99.705206 75.882789 
L 99.903982 75.600748 
L 100.512179 75.721835 
L 100.713449 75.504872 
L 100.915157 75.649938 
L 101.322287 75.624439 
L 101.525911 75.675555 
L 101.728299 75.594774 
L 102.541717 75.738993 
L 102.746019 75.643778 
L 102.951769 75.723639 
L 103.153679 75.613275 
L 103.99149 75.67843 
L 104.199154 75.598196 
L 104.406292 75.680416 
L 104.615911 75.536467 
L 104.824758 75.689384 
L 105.036821 75.522439 
L 105.246268 75.696665 
L 105.671877 75.409828 
L 106.096061 75.813868 
L 106.309619 75.604724 
L 107.162486 75.72292 
L 107.610673 75.810975 
L 108.057367 75.483603 
L 108.285249 75.799386 
L 108.512184 75.67298 
L 108.736395 75.740853 
L 108.962608 75.485762 
L 109.192182 75.741687 
L 109.42148 75.776837 
L 109.649426 75.558226 
L 110.330219 75.824023 
L 110.556771 75.600385 
L 110.784382 75.813255 
L 111.00764 75.538134 
L 111.234291 75.784153 
L 111.684027 75.713499 
L 112.140397 75.456358 
L 112.368801 75.591742 
L 112.591387 75.528905 
L 113.040633 75.657392 
L 113.264259 75.600814 
L 113.488126 75.695339 
L 113.71336 75.986195 
L 114.164781 75.869347 
L 114.618677 76.236927 
L 115.302274 76.277072 
L 115.539733 76.186 
L 115.782866 76.362179 
L 116.02878 76.049969 
L 116.269207 76.093517 
L 116.508935 75.895383 
L 116.743224 76.016794 
L 116.97008 75.715277 
L 117.202913 75.94346 
L 117.903955 75.8534 
L 118.386549 75.784741 
L 118.616683 75.979675 
L 119.99848 75.748137 
L 120.230093 75.959288 
L 120.909625 75.658489 
L 121.144193 75.820607 
L 121.373959 75.691641 
L 121.605307 75.750538 
L 122.070417 75.600269 
L 122.765557 75.886481 
L 123.224172 75.667919 
L 123.676813 75.873759 
L 123.903045 75.703918 
L 124.133893 75.794266 
L 124.578826 75.633435 
L 125.028355 75.822361 
L 125.254595 75.824081 
L 125.477374 75.571385 
L 125.696866 75.852218 
L 126.365796 75.55986 
L 127.247942 75.716238 
L 127.463872 75.877485 
L 127.90071 75.867804 
L 128.117332 75.811072 
L 128.550777 75.85196 
L 128.765819 75.863946 
L 129.199487 76.000547 
L 129.416225 75.893868 
L 129.629318 76.145816 
L 129.839178 76.10243 
L 130.057395 76.227973 
L 130.274102 76.182709 
L 130.50027 76.275992 
L 130.721499 76.180641 
L 130.9426 76.224519 
L 131.163189 76.012928 
L 131.379349 76.334046 
L 131.810695 75.992223 
L 132.451505 76.204456 
L 132.876634 75.934388 
L 133.090017 76.072671 
L 134.775647 76.131202 
L 134.988068 75.920144 
L 135.613101 76.141401 
L 135.824181 76.084921 
L 136.03662 76.229231 
L 136.248775 75.944784 
L 136.671122 76.028681 
L 136.880118 75.872435 
L 136.880118 75.872435 
" clip-path="url(#pfa2533d009)" style="fill: none; stroke: #0000dd; stroke-linecap: square"/>
   </g>
   <g id="line2d_20">
    <path d="M 30.61878 109.08728 
L 30.835859 109.087064 
L 31.110278 109.274855 
L 31.829156 109.284279 
L 32.33061 109.611287 
L 32.574156 109.927467 
L 32.803756 110.039987 
L 33.029011 109.997199 
L 33.253084 109.740024 
L 34.23719 109.562272 
L 34.697913 109.489955 
L 37.027831 109.49385 
L 41.919832 109.478011 
L 49.048632 109.477257 
L 50.218187 109.457905 
L 54.942663 109.465169 
L 56.865587 109.47466 
L 58.928814 109.460506 
L 61.310321 109.45976 
L 64.450009 109.468007 
L 68.774768 109.455509 
L 71.19614 109.46044 
L 74.517856 109.470978 
L 75.980131 109.485107 
L 79.542882 109.442616 
L 81.208457 109.467105 
L 83.061461 109.510491 
L 87.980256 109.491826 
L 92.809282 109.51185 
L 98.724572 109.478894 
L 102.555587 109.473636 
L 106.535066 109.467894 
L 109.437666 109.455934 
L 114.859201 109.477231 
L 120.695082 109.490859 
L 122.31395 109.485621 
L 123.692032 109.488309 
L 125.711758 109.493038 
L 136.891896 109.560464 
L 136.891896 109.560464 
" clip-path="url(#pfa2533d009)" style="fill: none; stroke: #00fdcf; stroke-linecap: square"/>
   </g>
   <g id="line2d_21">
    <path d="M 30.6325 84.289197 
L 30.84986 84.346752 
L 31.127379 85.495534 
L 31.369651 84.573414 
L 31.842536 84.628088 
L 32.093955 86.154358 
L 32.591699 94.654608 
L 32.817761 95.93686 
L 33.044468 96.16193 
L 33.265882 94.093544 
L 33.504223 90.450167 
L 33.745642 89.722069 
L 34.252815 87.541168 
L 34.488244 85.30835 
L 34.713166 85.075051 
L 35.775429 85.082665 
L 35.985174 85.164475 
L 36.407627 85.11054 
L 37.041524 85.074048 
L 37.463818 85.058488 
L 40.633456 85.116721 
L 41.063875 85.02982 
L 41.715107 85.102782 
L 42.151883 84.982714 
L 42.585704 85.073463 
L 42.8005 84.996768 
L 43.019164 85.060213 
L 43.23299 84.944515 
L 43.450572 85.025116 
L 43.668402 84.936106 
L 44.110126 85.007652 
L 44.554165 84.964453 
L 45.213824 85.050066 
L 45.436042 84.947439 
L 47.231802 85.133985 
L 47.452484 85.054686 
L 47.67917 85.135678 
L 49.064961 84.908789 
L 50.469511 84.985977 
L 50.940746 84.850634 
L 51.406541 85.0022 
L 53.86354 84.99085 
L 54.301285 84.926553 
L 55.603265 84.968813 
L 56.030458 84.925572 
L 56.24094 85.075578 
L 56.667498 84.902888 
L 58.32555 84.953377 
L 58.531461 85.024326 
L 59.144293 84.886822 
L 59.540933 84.950901 
L 60.531721 84.896528 
L 60.92481 84.981931 
L 61.321412 84.89657 
L 61.910172 84.94436 
L 62.106062 84.805223 
L 62.303091 84.942317 
L 63.867746 84.825789 
L 65.048013 84.957744 
L 67.792126 84.883846 
L 68.385866 84.881286 
L 68.586739 84.93213 
L 68.786772 84.835896 
L 69.182634 84.931411 
L 69.38479 84.965637 
L 69.587875 84.853646 
L 69.790231 84.943643 
L 70.190567 84.8405 
L 70.600658 84.898627 
L 71.007011 84.864069 
L 72.453638 84.955285 
L 73.07579 84.898461 
L 73.280854 85.003259 
L 73.491364 84.937875 
L 73.698031 85.0185 
L 74.113311 84.86332 
L 74.531177 84.961002 
L 75.5743 84.950882 
L 75.785507 84.876357 
L 76.203191 84.974796 
L 76.413531 84.886185 
L 77.257192 84.957356 
L 77.675465 84.929181 
L 78.096545 84.969918 
L 80.183756 84.909948 
L 82.255023 84.995366 
L 82.460151 85.112544 
L 82.870298 85.09492 
L 83.282517 85.104607 
L 84.314133 85.105725 
L 84.731016 85.000323 
L 85.553028 85.014495 
L 88.399325 84.969955 
L 89.014117 85.115374 
L 89.815166 84.996414 
L 91.418603 85.051157 
L 91.817003 84.922939 
L 92.019585 85.114438 
L 92.420927 84.959456 
L 92.620824 84.958523 
L 92.820567 85.127492 
L 93.021547 84.992591 
L 95.980927 85.106585 
L 97.355501 85.036498 
L 97.554376 85.136362 
L 97.753231 85.034778 
L 97.951874 85.161953 
L 98.344899 85.079493 
L 98.93226 85.084141 
L 99.131195 84.990549 
L 99.329443 85.082932 
L 99.532186 84.986342 
L 99.728591 85.130587 
L 100.128653 85.033203 
L 100.332793 85.10396 
L 100.535995 84.962842 
L 101.753317 85.053606 
L 101.955419 84.985856 
L 102.360853 85.283394 
L 102.566922 84.974486 
L 102.975771 85.085761 
L 105.908795 85.037164 
L 106.334758 84.962997 
L 108.541057 85.053305 
L 108.989784 85.105468 
L 109.451281 84.976959 
L 110.8134 84.955924 
L 111.037544 84.910768 
L 111.261889 85.092047 
L 111.939334 84.938986 
L 113.968054 85.09364 
L 114.194149 85.059709 
L 114.647176 85.206514 
L 114.872969 85.096822 
L 115.32955 85.112698 
L 115.56829 85.095548 
L 115.811585 85.33389 
L 116.057568 85.249177 
L 116.537306 85.275231 
L 125.50551 85.03084 
L 125.725613 85.184885 
L 126.1734 84.996048 
L 126.616486 85.092946 
L 127.056595 85.113412 
L 127.275736 85.083861 
L 127.710056 85.197549 
L 128.148303 85.138999 
L 128.363297 85.076378 
L 128.795303 85.164865 
L 131.190612 85.286745 
L 131.622968 85.455029 
L 132.264768 85.348829 
L 132.691338 85.363043 
L 132.901658 85.385665 
L 133.115754 85.145248 
L 133.329179 85.355543 
L 133.749696 85.326579 
L 133.959405 85.298533 
L 134.170806 85.389159 
L 134.380151 85.34357 
L 134.798998 85.464726 
L 135.012102 85.249731 
L 135.221715 85.402876 
L 135.847175 85.323127 
L 136.060605 85.430002 
L 136.483644 85.393864 
L 136.902945 85.415856 
L 136.902945 85.415856 
" clip-path="url(#pfa2533d009)" style="fill: none; stroke: #a17569; stroke-linecap: square"/>
   </g>
   <g id="line2d_22">
    <path d="M 30.644834 71.490854 
L 30.86208 71.556688 
L 31.140597 71.981652 
L 31.381489 72.022184 
L 31.854456 71.738403 
L 32.106874 72.143756 
L 32.36316 74.653965 
L 32.609267 79.198183 
L 33.059951 81.816656 
L 33.280218 79.967868 
L 33.757783 71.977628 
L 34.016525 70.378159 
L 34.266925 70.10742 
L 34.731908 70.237668 
L 34.946192 70.063588 
L 35.159813 70.200772 
L 35.368438 70.059734 
L 35.790597 70.235127 
L 36.00255 70.034715 
L 36.638459 70.138801 
L 36.846767 70.004367 
L 37.479458 70.118734 
L 37.688597 69.982618 
L 37.897121 70.084664 
L 38.102366 70.032835 
L 38.313499 70.099169 
L 38.523125 69.897171 
L 38.943512 70.020849 
L 40.002997 69.988256 
L 40.433274 69.963467 
L 40.863671 70.000514 
L 41.082202 70.121649 
L 41.296887 69.908332 
L 41.515892 70.054048 
L 41.731912 69.954565 
L 41.952073 70.046176 
L 42.602638 69.876746 
L 43.03441 69.924915 
L 43.250816 69.877248 
L 43.466367 69.948568 
L 43.686511 69.839246 
L 44.128143 69.930648 
L 46.121519 69.964185 
L 46.346623 69.750695 
L 46.569748 69.963341 
L 46.796215 69.848607 
L 47.24668 69.823462 
L 47.468754 70.206236 
L 47.692952 69.905623 
L 47.92241 69.830028 
L 48.150209 69.938149 
L 48.384281 69.876032 
L 48.614621 69.997863 
L 49.07946 69.821384 
L 50.009744 70.011593 
L 51.187671 69.853034 
L 52.548852 69.971815 
L 52.771645 69.940459 
L 52.996085 70.152199 
L 53.87544 70.036011 
L 54.095835 70.223097 
L 54.313274 69.967986 
L 54.531824 70.052931 
L 54.748042 69.922882 
L 54.968393 70.081321 
L 55.18661 69.945951 
L 57.102323 70.003299 
L 57.311366 69.824664 
L 57.720148 69.930873 
L 57.928706 69.7338 
L 58.337535 70.079657 
L 58.542982 69.801766 
L 58.952056 69.882297 
L 59.552115 69.993556 
L 59.947405 69.843288 
L 60.147553 69.992131 
L 60.543566 69.868972 
L 60.740182 69.988215 
L 60.936574 69.841854 
L 61.135037 69.951813 
L 61.332916 69.8374 
L 61.725248 70.017828 
L 61.921377 70.035503 
L 62.117664 69.9008 
L 63.094791 69.962139 
L 63.293228 69.878436 
L 63.487141 69.978297 
L 63.682367 69.854535 
L 64.276692 70.162489 
L 64.47286 69.950318 
L 67.019554 70.065779 
L 67.214565 70.143524 
L 67.803941 69.851045 
L 68.199584 70.023866 
L 68.398478 69.867399 
L 68.599083 70.014578 
L 68.799318 69.879005 
L 69.195428 70.010116 
L 69.397563 69.959099 
L 69.80203 70.047153 
L 70.408835 70.007917 
L 70.817273 70.032135 
L 71.01872 69.821201 
L 71.222127 70.029728 
L 71.429532 70.043841 
L 71.637513 70.227652 
L 71.846475 70.011689 
L 72.884387 70.171331 
L 73.088356 70.06374 
L 73.293067 70.215145 
L 73.504041 70.084403 
L 73.917086 70.200842 
L 74.125606 70.336148 
L 74.332731 70.052855 
L 74.543947 70.174487 
L 74.756354 70.164153 
L 74.965732 70.027779 
L 75.170492 70.083005 
L 75.378421 70.271381 
L 75.587835 70.292219 
L 75.798482 70.1322 
L 76.216392 70.134436 
L 77.061996 70.098694 
L 77.270684 70.160901 
L 77.68879 70.059972 
L 77.900617 70.157938 
L 78.110617 70.010749 
L 78.740276 69.99102 
L 78.949603 70.006801 
L 79.155883 70.139162 
L 79.570883 69.918125 
L 79.989563 70.109236 
L 80.197591 69.917666 
L 80.405842 70.086999 
L 80.614123 70.009402 
L 81.237521 70.213936 
L 81.440944 70.125758 
L 81.650071 70.552905 
L 82.061796 70.531179 
L 82.676981 70.444591 
L 83.50304 70.709836 
L 83.710356 70.563405 
L 84.121308 70.620425 
L 84.327574 70.467318 
L 84.949473 70.741551 
L 85.565781 70.388956 
L 85.777033 70.556101 
L 85.980243 70.516685 
L 86.183772 70.361323 
L 86.386732 70.500609 
L 86.589561 70.258407 
L 86.791868 70.400727 
L 86.994921 70.279648 
L 87.196693 70.559588 
L 87.804124 70.397232 
L 88.007028 70.484116 
L 88.211718 70.390764 
L 88.413404 70.489698 
L 89.027795 70.337414 
L 89.228901 70.614921 
L 89.428538 70.456425 
L 89.629259 70.44495 
L 89.828169 70.27634 
L 90.028827 70.616225 
L 90.427898 70.417557 
L 90.629855 70.621497 
L 90.82828 70.472168 
L 91.232073 70.797322 
L 91.430927 70.642216 
L 91.829671 70.735551 
L 92.03266 70.39889 
L 92.434285 70.680737 
L 92.633541 70.52292 
L 92.832966 70.722473 
L 93.03398 70.689575 
L 93.231559 70.42337 
L 93.430167 70.34332 
L 93.828497 70.695476 
L 94.02653 70.540032 
L 94.22161 70.673545 
L 94.418613 70.484309 
L 94.814782 70.692394 
L 95.013987 70.591401 
L 95.405325 70.732401 
L 95.599219 70.288172 
L 95.795705 70.3518 
L 95.994321 70.727005 
L 96.384447 70.68912 
L 96.580042 70.252615 
L 96.973015 70.524642 
L 98.15991 70.593831 
L 98.553222 70.706364 
L 98.748126 70.482163 
L 98.944139 70.606955 
L 99.142876 70.875606 
L 99.341496 70.801001 
L 99.543833 70.849901 
L 99.939774 70.657069 
L 100.141196 70.847528 
L 100.345271 70.824113 
L 100.548311 70.586102 
L 101.359453 70.561913 
L 101.56076 70.324304 
L 101.764928 70.664067 
L 102.578672 70.637557 
L 102.782869 70.538583 
L 102.987792 70.83767 
L 103.189335 70.629622 
L 103.397777 70.638939 
L 103.607736 70.369894 
L 103.817941 70.572006 
L 104.027129 70.538047 
L 104.237351 70.895367 
L 104.442555 70.274095 
L 104.652145 70.629419 
L 104.861224 70.643146 
L 105.074027 70.408289 
L 105.284725 70.547859 
L 105.495628 70.46499 
L 105.709716 70.602311 
L 105.920418 70.521317 
L 106.13359 70.614109 
L 106.346683 70.430857 
L 106.559226 70.617216 
L 106.769792 70.503854 
L 106.98237 70.675857 
L 107.202509 70.436408 
L 107.426851 70.652892 
L 107.875594 70.244178 
L 108.100726 70.355699 
L 108.552913 70.403922 
L 109.001546 70.597168 
L 109.235022 70.284938 
L 109.691976 70.241278 
L 109.91716 70.491631 
L 110.148887 70.224821 
L 110.373378 70.392048 
L 110.598367 70.280651 
L 110.825489 70.31983 
L 111.050016 70.545788 
L 111.501675 70.460187 
L 111.724899 70.17581 
L 111.95145 70.454785 
L 112.40913 70.451009 
L 112.631501 70.568946 
L 113.083609 70.423197 
L 113.529865 70.484826 
L 113.753989 70.643387 
L 113.980491 70.600697 
L 114.43004 70.83583 
L 114.885917 71.099122 
L 115.112705 71.12682 
L 115.342958 71.312453 
L 115.581514 71.297922 
L 115.82557 71.444527 
L 116.07153 71.073963 
L 117.010467 70.966453 
L 117.242705 70.779685 
L 117.94476 70.825053 
L 118.188685 70.744502 
L 118.426571 70.542886 
L 118.656224 70.761293 
L 119.118175 70.78528 
L 119.354958 70.578718 
L 119.587939 70.769108 
L 120.269067 70.640838 
L 120.497523 70.785218 
L 120.951551 70.655508 
L 121.416305 70.530905 
L 121.647227 70.59907 
L 121.879445 70.445543 
L 122.111757 70.692505 
L 122.341085 70.458834 
L 122.573069 70.672268 
L 123.038768 70.486372 
L 123.946216 70.557624 
L 124.175168 70.487385 
L 124.400203 70.595454 
L 124.620812 70.414402 
L 125.739794 70.549548 
L 125.962099 70.502139 
L 126.186568 70.224087 
L 126.628916 70.411266 
L 126.849972 70.331458 
L 127.070918 70.533784 
L 127.288309 70.345695 
L 127.723017 70.478316 
L 128.160947 70.434197 
L 128.37593 70.590038 
L 129.022629 70.244146 
L 129.456728 70.60769 
L 129.669166 70.583452 
L 130.096591 70.787009 
L 130.314646 70.537113 
L 130.538673 70.772114 
L 130.981899 70.572482 
L 131.202657 70.745972 
L 131.417839 70.558015 
L 131.848598 70.671351 
L 132.063262 70.51458 
L 132.488691 70.704983 
L 132.703181 70.436979 
L 132.914024 70.680785 
L 133.127931 70.47487 
L 133.763047 70.430007 
L 134.183764 70.515914 
L 134.392964 70.357704 
L 135.441389 70.26957 
L 135.649671 70.435944 
L 135.85972 70.290266 
L 136.074457 70.335017 
L 136.285197 70.187479 
L 136.49694 70.315714 
L 136.707674 70.076353 
L 136.915702 70.092608 
L 136.915702 70.092608 
" clip-path="url(#pfa2533d009)" style="fill: none; stroke: #bcb6ff; stroke-linecap: square"/>
   </g>
   <g id="line2d_23">
    <path d="M 30.656281 91.096639 
L 30.873564 91.113243 
L 31.152188 91.875727 
L 31.394313 91.27038 
L 32.12013 91.376124 
L 32.376122 91.846689 
L 32.622853 94.372119 
L 33.077539 96.192384 
L 33.531972 94.724606 
L 34.029177 91.475493 
L 34.279708 91.556509 
L 34.961208 91.474645 
L 36.018729 91.576981 
L 36.439395 91.521183 
L 40.662604 91.532114 
L 40.877373 91.459227 
L 41.528125 91.517831 
L 42.181886 91.499701 
L 43.04759 91.522999 
L 43.699491 91.460454 
L 46.358571 91.427822 
L 46.807772 91.455585 
L 47.934279 91.449779 
L 48.62709 91.410265 
L 49.325607 91.467743 
L 49.789017 91.361424 
L 50.262652 91.444786 
L 50.728085 91.38328 
L 50.967807 91.466209 
L 51.432492 91.368587 
L 52.333478 91.462583 
L 52.784738 91.429545 
L 53.009539 91.499879 
L 53.453108 91.424166 
L 54.328406 91.444672 
L 54.545648 91.395009 
L 54.982536 91.432272 
L 55.841535 91.341476 
L 56.483299 91.372697 
L 57.116862 91.382924 
L 57.529119 91.3982 
L 58.145168 91.411738 
L 58.558427 91.355184 
L 59.169731 91.38462 
L 59.567539 91.351205 
L 81.869121 91.457186 
L 83.099873 91.541796 
L 84.133214 91.486333 
L 85.167809 91.551995 
L 85.372205 91.432634 
L 85.992154 91.447571 
L 87.007056 91.443867 
L 88.224133 91.441252 
L 89.642503 91.425524 
L 90.041082 91.428741 
L 90.841602 91.360366 
L 91.045866 91.485246 
L 91.44392 91.413578 
L 95.026894 91.382726 
L 95.418055 91.346947 
L 95.808497 91.389652 
L 97.182651 91.318391 
L 97.579164 91.373217 
L 98.369039 91.416884 
L 98.565575 91.343132 
L 98.955886 91.420938 
L 99.155391 91.353522 
L 99.354222 91.455771 
L 99.952386 91.415892 
L 100.357791 91.430877 
L 100.761824 91.378506 
L 101.979698 91.403119 
L 102.590574 91.386201 
L 103.620462 91.352268 
L 103.830659 91.45733 
L 104.663753 91.339868 
L 105.085747 91.389997 
L 108.112661 91.355112 
L 109.929523 91.344191 
L 110.160971 91.449462 
L 111.062415 91.35682 
L 111.513895 91.434785 
L 111.736954 91.34493 
L 111.963347 91.444981 
L 112.865614 91.402733 
L 113.095579 91.475297 
L 113.54166 91.419911 
L 113.992936 91.378642 
L 115.355252 91.537192 
L 115.593598 91.507061 
L 115.837814 91.593304 
L 116.798861 91.502733 
L 117.256697 91.536262 
L 118.20313 91.507674 
L 125.75173 91.411927 
L 126.420104 91.462234 
L 127.300679 91.397053 
L 127.518557 91.526759 
L 127.955193 91.424542 
L 128.82007 91.449371 
L 129.68087 91.546728 
L 130.108353 91.694142 
L 131.429827 91.613375 
L 132.7147 91.657692 
L 136.928269 91.572703 
L 136.928269 91.572703 
" clip-path="url(#pfa2533d009)" style="fill: none; stroke: #95b577; stroke-linecap: square"/>
   </g>
   <g id="line2d_24">
    <path d="M 30.668777 18.861352 
L 30.885642 18.945744 
L 31.165557 25.495987 
L 31.408172 21.688111 
L 31.647235 19.741935 
L 31.884614 20.136396 
L 32.134956 27.37714 
L 32.635114 51.628031 
L 32.8627 46.336734 
L 33.089686 47.355846 
L 33.787913 41.531088 
L 34.293606 25.530478 
L 34.53185 21.414225 
L 34.757788 21.557315 
L 34.973195 20.967726 
L 35.608789 21.567193 
L 35.81974 21.184628 
L 36.030428 21.31475 
L 36.242231 21.295742 
L 36.450584 21.425783 
L 36.665707 21.287667 
L 37.086104 21.262852 
L 37.297136 21.612942 
L 37.506811 21.251114 
L 37.922848 21.353423 
L 38.340946 21.023911 
L 38.550775 21.029434 
L 38.760068 21.521938 
L 38.969962 21.320171 
L 39.182489 21.507986 
L 39.60307 21.20762 
L 39.813865 21.480608 
L 40.0281 21.120891 
L 40.242759 21.48797 
L 40.459032 21.118024 
L 40.674386 21.21854 
L 40.888988 20.825217 
L 41.1086 20.990411 
L 41.322799 21.573263 
L 41.540434 21.163321 
L 41.757028 21.139614 
L 41.977093 21.319024 
L 42.193086 21.343562 
L 42.408762 21.14202 
L 42.626382 21.157481 
L 42.841127 20.945407 
L 43.059198 20.893982 
L 43.275019 21.219733 
L 43.93083 21.024833 
L 44.595036 21.105239 
L 44.813583 20.813074 
L 45.030118 20.82199 
L 45.255097 21.235297 
L 45.475005 20.628424 
L 45.701385 20.969564 
L 45.924111 20.975074 
L 46.145787 20.847244 
L 46.370345 20.850085 
L 46.593314 21.159494 
L 46.819854 20.831239 
L 47.048749 20.8905 
L 47.269931 20.824073 
L 47.492664 20.9725 
L 48.174872 20.504555 
L 48.639644 20.89826 
L 48.870037 20.734149 
L 49.103694 20.866183 
L 49.338961 20.499699 
L 50.035473 20.630693 
L 50.508377 20.588038 
L 50.740682 20.319294 
L 50.980977 20.674453 
L 51.214443 20.49737 
L 51.445187 20.780831 
L 51.675391 20.438862 
L 52.123852 20.710377 
L 52.574853 20.445141 
L 52.798248 20.698923 
L 53.466049 20.717786 
L 53.683747 20.818651 
L 54.12367 20.601678 
L 54.34151 20.84545 
L 54.777371 20.419934 
L 55.215871 20.615714 
L 55.43014 20.570474 
L 55.644209 20.69624 
L 55.855442 20.347023 
L 56.282987 20.42894 
L 56.498676 20.484292 
L 56.919397 20.37052 
L 57.956834 20.294865 
L 58.15868 20.578716 
L 58.365946 20.375201 
L 58.980204 20.554429 
L 59.182281 20.422032 
L 59.381088 20.472543 
L 59.580088 20.294712 
L 59.776983 20.275681 
L 60.174963 20.513584 
L 60.373777 20.423402 
L 60.570036 20.153972 
L 60.766948 20.476651 
L 60.963513 20.190172 
L 61.16114 20.300877 
L 61.358528 20.211507 
L 61.556939 20.44167 
L 61.75229 20.242267 
L 62.340285 20.400098 
L 62.731715 19.989336 
L 63.121233 20.271371 
L 63.318714 20.204176 
L 63.512784 20.456484 
L 63.70717 20.187012 
L 64.102301 20.104704 
L 64.300595 20.327567 
L 64.496962 20.211089 
L 64.695463 20.416444 
L 64.890435 20.379935 
L 65.084033 20.528774 
L 65.281516 20.226042 
L 65.476459 20.493395 
L 66.061385 20.227061 
L 66.257948 20.400497 
L 66.45352 20.252488 
L 66.846679 20.46507 
L 67.237911 20.10618 
L 67.434232 20.440867 
L 67.631482 20.13255 
L 67.827678 20.47658 
L 68.026305 20.302878 
L 68.222613 20.414643 
L 68.421619 20.199398 
L 68.622279 20.301543 
L 69.019405 20.176194 
L 69.218674 20.471014 
L 70.025472 20.218724 
L 70.226035 20.482052 
L 70.431977 20.185353 
L 70.636032 20.167326 
L 71.041664 20.484493 
L 71.452679 20.113015 
L 71.661143 20.314474 
L 71.869074 20.197729 
L 72.075365 20.262952 
L 72.282402 20.022392 
L 72.489181 20.230405 
L 72.699255 20.162946 
L 72.907825 20.597244 
L 73.111924 20.558658 
L 73.317126 20.404375 
L 73.526934 20.432964 
L 73.94116 20.191501 
L 74.989443 20.699696 
L 75.194664 20.45517 
L 75.402519 20.544692 
L 75.611839 20.404193 
L 75.821356 20.62214 
L 76.240839 20.376582 
L 76.451656 20.330239 
L 76.666767 20.162095 
L 76.876581 20.483886 
L 77.085265 20.328237 
L 77.294752 20.409771 
L 77.712655 20.318684 
L 77.92425 20.567019 
L 78.135272 20.326939 
L 78.553618 20.414967 
L 78.764938 20.119229 
L 78.97328 20.163234 
L 79.180379 19.90021 
L 79.38869 20.342635 
L 79.804944 19.81821 
L 80.014166 20.03785 
L 80.431169 19.897457 
L 81.262264 20.012759 
L 81.466266 19.845688 
L 82.294316 20.377997 
L 82.498586 20.246481 
L 82.908779 20.68952 
L 83.11322 20.486247 
L 83.320521 20.448026 
L 83.529092 20.616968 
L 83.735667 20.390467 
L 83.941238 20.744024 
L 84.145844 20.566563 
L 84.352765 20.748256 
L 84.562018 20.542991 
L 84.974967 20.708654 
L 85.180733 20.488197 
L 85.385283 20.469992 
L 85.592064 20.590807 
L 86.411165 20.346062 
L 86.614425 20.611092 
L 87.222279 20.391213 
L 87.625585 20.464771 
L 87.830155 20.467379 
L 88.23718 20.292868 
L 88.438027 20.44162 
L 88.644003 20.372041 
L 88.847618 20.491512 
L 89.052412 20.383243 
L 89.253275 20.442171 
L 89.452632 20.308838 
L 90.05341 20.386189 
L 90.252675 20.60381 
L 90.452979 20.571178 
L 90.853617 20.08313 
L 91.057374 20.424994 
L 91.256801 20.432637 
L 91.45552 20.605462 
L 91.654164 20.336904 
L 91.855033 20.294775 
L 92.056368 20.370382 
L 92.258557 20.219603 
L 92.458154 20.223551 
L 92.657721 20.35151 
L 92.85903 20.317936 
L 93.058779 20.598688 
L 93.256209 20.359236 
L 93.854264 20.381155 
L 94.051442 20.277685 
L 94.839249 20.485012 
L 95.038071 20.425116 
L 95.234835 20.237294 
L 95.428986 20.432602 
L 95.623214 20.233548 
L 95.819564 20.377526 
L 96.60354 20.141141 
L 96.997079 20.225273 
L 97.193948 20.113735 
L 97.988009 20.265199 
L 98.183307 20.584498 
L 98.771375 20.122267 
L 98.967347 20.264165 
L 99.365677 20.190576 
L 99.763503 20.244676 
L 100.368921 20.185035 
L 100.57224 20.103384 
L 100.772405 20.214233 
L 100.974157 20.147736 
L 101.384086 20.419415 
L 101.586443 20.069452 
L 101.789382 20.255462 
L 101.990938 20.162874 
L 102.194314 20.310342 
L 103.213647 20.183731 
L 103.42217 20.40463 
L 103.632451 20.135997 
L 103.841959 20.049708 
L 104.050957 20.21065 
L 104.26135 19.944419 
L 104.466866 20.145244 
L 104.675172 19.875619 
L 104.885743 20.139111 
L 105.097828 19.916257 
L 105.308903 20.110141 
L 105.519556 19.99854 
L 105.733924 20.064832 
L 105.94437 19.856494 
L 106.157967 19.964471 
L 106.371035 19.945949 
L 106.582857 19.813746 
L 106.794537 20.067598 
L 107.228077 19.946388 
L 107.451802 20.323828 
L 107.675516 19.815409 
L 108.125977 20.284757 
L 108.577645 20.087453 
L 108.801899 20.404098 
L 109.026463 20.080447 
L 109.489072 19.999614 
L 109.717325 20.31153 
L 110.174146 20.049427 
L 110.398083 20.32818 
L 110.850389 20.128177 
L 111.07473 20.454929 
L 111.300371 20.14606 
L 111.749396 20.427376 
L 111.977316 20.255019 
L 112.208389 20.324253 
L 112.433279 20.623268 
L 112.878397 20.509995 
L 113.108809 20.558373 
L 113.330726 20.720545 
L 114.006134 20.687377 
L 114.455042 20.138801 
L 114.910532 20.456605 
L 115.138537 20.135103 
L 115.368765 20.09713 
L 115.606304 20.589944 
L 115.85249 20.487543 
L 116.098429 20.640503 
L 116.336732 20.495075 
L 116.577577 20.641912 
L 116.812261 20.54615 
L 117.506263 20.740843 
L 117.738336 20.906477 
L 117.973497 20.643656 
L 118.217078 20.828243 
L 118.453213 20.32081 
L 118.684457 20.651166 
L 118.912439 20.412407 
L 119.382491 20.401583 
L 119.613921 20.191347 
L 120.066247 20.5235 
L 120.523886 20.378445 
L 120.748613 20.544858 
L 121.211169 20.258032 
L 121.443209 20.441748 
L 121.673587 20.355933 
L 121.90528 20.474027 
L 122.137567 20.328727 
L 122.368533 20.425519 
L 122.599582 20.246554 
L 123.065283 20.391874 
L 123.290213 20.370478 
L 123.516304 20.096446 
L 123.745616 20.461428 
L 123.971891 20.193181 
L 124.425558 20.33678 
L 124.646384 19.959325 
L 124.875862 20.289218 
L 125.544568 20.236732 
L 125.990271 20.292075 
L 126.212714 19.992215 
L 126.434673 20.341653 
L 126.875241 20.057437 
L 127.096445 20.138102 
L 127.315378 19.909676 
L 127.532873 20.17854 
L 127.749429 20.080468 
L 128.186466 20.165562 
L 128.403567 20.536964 
L 128.617093 20.385096 
L 128.834166 19.869105 
L 129.04828 20.162443 
L 129.693541 20.319135 
L 130.123058 20.612166 
L 130.34035 20.830507 
L 130.786007 20.680161 
L 131.227464 21.16483 
L 131.442771 21.041643 
L 131.660274 21.098637 
L 131.872976 21.29838 
L 132.087339 20.961116 
L 132.300703 21.37708 
L 132.513484 20.668904 
L 132.938531 21.215026 
L 133.152024 20.933272 
L 133.365518 21.011512 
L 133.575053 20.909307 
L 133.787548 21.008949 
L 133.996755 20.82298 
L 134.628653 21.177502 
L 134.836985 20.953737 
L 135.260256 21.192191 
L 135.885175 21.161579 
L 136.099346 20.802081 
L 136.309432 21.21291 
L 136.732743 21.276417 
L 136.939566 21.093603 
L 136.939566 21.093603 
" clip-path="url(#pfa2533d009)" style="fill: none; stroke: #bf03b8; stroke-linecap: square"/>
   </g>
   <g id="patch_3">
    <path d="M 30.480006 114.598919 
L 30.480006 14.30242 
" style="fill: none; stroke: #000000; stroke-width: 0.8; stroke-linejoin: miter; stroke-linecap: square"/>
   </g>
   <g id="patch_4">
    <path d="M 136.939566 114.598919 
L 136.939566 14.30242 
" style="fill: none; stroke: #000000; stroke-width: 0.8; stroke-linejoin: miter; stroke-linecap: square"/>
   </g>
   <g id="patch_5">
    <path d="M 30.480006 114.598919 
L 136.939566 114.598919 
" style="fill: none; stroke: #000000; stroke-width: 0.8; stroke-linejoin: miter; stroke-linecap: square"/>
   </g>
   <g id="patch_6">
    <path d="M 30.480006 14.30242 
L 136.939566 14.30242 
" style="fill: none; stroke: #000000; stroke-width: 0.8; stroke-linejoin: miter; stroke-linecap: square"/>
   </g>
  </g>
 </g>
 <defs>
  <clipPath id="pfa2533d009">
   <rect x="30.480006" y="14.30242" width="106.459561" height="100.296499"/>
  </clipPath>
 </defs>
</svg>
