<?xml version="1.0" encoding="utf-8" standalone="no"?>
<!DOCTYPE svg PUBLIC "-//W3C//DTD SVG 1.1//EN"
  "http://www.w3.org/Graphics/SVG/1.1/DTD/svg11.dtd">
<svg xmlns:xlink="http://www.w3.org/1999/xlink" width="141.732283pt" height="151.181102pt" viewBox="0 0 141.732283 151.181102" xmlns="http://www.w3.org/2000/svg" version="1.1">
 <metadata>
  <rdf:RDF xmlns:dc="http://purl.org/dc/elements/1.1/" xmlns:cc="http://creativecommons.org/ns#" xmlns:rdf="http://www.w3.org/1999/02/22-rdf-syntax-ns#">
   <cc:Work>
    <dc:type rdf:resource="http://purl.org/dc/dcmitype/StillImage"/>
    <dc:date>2024-11-20T22:24:18.462031</dc:date>
    <dc:format>image/svg+xml</dc:format>
    <dc:creator>
     <cc:Agent>
      <dc:title>Matplotlib v3.5.3, https://matplotlib.org/</dc:title>
     </cc:Agent>
    </dc:creator>
   </cc:Work>
  </rdf:RDF>
 </metadata>
 <defs>
  <style type="text/css">*{stroke-linejoin: round; stroke-linecap: butt}</style>
 </defs>
 <g id="figure_1">
  <g id="patch_1">
   <path d="M 0 151.181102 
L 141.732283 151.181102 
L 141.732283 0 
L 0 0 
z
" style="fill: #ffffff"/>
  </g>
  <g id="axes_1">
   <g id="patch_2">
    <path d="M 40.91305 114.598919 
L 138.732043 114.598919 
L 138.732043 3.00024 
L 40.91305 3.00024 
z
" style="fill: #ffffff"/>
   </g>
   <g id="matplotlib.axis_1">
    <g id="xtick_1">
     <g id="line2d_1">
      <defs>
       <path id="m10f7696a96" d="M 0 0 
L 0 3.5 
" style="stroke: #000000; stroke-width: 0.8"/>
      </defs>
      <g>
       <use xlink:href="#m10f7696a96" x="48.738569" y="114.598919" style="stroke: #000000; stroke-width: 0.8"/>
      </g>
     </g>
     <g id="text_1">
      <!-- $\mathdefault{−1}$ -->
      <g transform="translate(41.16283 129.901098)scale(0.12 -0.12)">
       <defs>
        <path id="CMSY10-0" d="M 4218 1472 
C 4326 1472 4442 1472 4442 1600 
C 4442 1728 4326 1728 4218 1728 
L 755 1728 
C 646 1728 531 1728 531 1600 
C 531 1472 646 1472 755 1472 
L 4218 1472 
z
" transform="scale(0.015625)"/>
        <path id="CMR17-31" d="M 1702 4058 
C 1702 4192 1696 4192 1606 4192 
C 1357 3916 979 3827 621 3827 
C 602 3827 570 3827 563 3808 
C 557 3795 557 3782 557 3648 
C 755 3648 1088 3686 1344 3839 
L 1344 461 
C 1344 236 1331 160 781 160 
L 589 160 
L 589 0 
C 896 0 1216 0 1523 0 
C 1830 0 2150 0 2458 0 
L 2458 160 
L 2266 160 
C 1715 160 1702 230 1702 458 
L 1702 4058 
z
" transform="scale(0.015625)"/>
       </defs>
       <use xlink:href="#CMSY10-0" transform="scale(0.996264)"/>
       <use xlink:href="#CMR17-31" transform="translate(77.487468 0)scale(0.996264)"/>
      </g>
     </g>
    </g>
    <g id="xtick_2">
     <g id="line2d_2">
      <g>
       <use xlink:href="#m10f7696a96" x="87.866167" y="114.598919" style="stroke: #000000; stroke-width: 0.8"/>
      </g>
     </g>
     <g id="text_2">
      <!-- $\mathdefault{0}$ -->
      <g transform="translate(84.939672 129.901098)scale(0.12 -0.12)">
       <defs>
        <path id="CMR17-30" d="M 2688 2025 
C 2688 2416 2682 3080 2413 3591 
C 2176 4039 1798 4198 1466 4198 
C 1158 4198 768 4058 525 3597 
C 269 3118 243 2524 243 2025 
C 243 1661 250 1106 448 619 
C 723 -39 1216 -128 1466 -128 
C 1760 -128 2208 -7 2470 600 
C 2662 1042 2688 1559 2688 2025 
z
M 1466 -26 
C 1056 -26 813 325 723 812 
C 653 1188 653 1738 653 2096 
C 653 2588 653 2997 736 3387 
C 858 3929 1216 4096 1466 4096 
C 1728 4096 2067 3923 2189 3400 
C 2272 3036 2278 2607 2278 2096 
C 2278 1680 2278 1169 2202 792 
C 2067 95 1690 -26 1466 -26 
z
" transform="scale(0.015625)"/>
       </defs>
       <use xlink:href="#CMR17-30" transform="scale(0.996264)"/>
      </g>
     </g>
    </g>
    <g id="xtick_3">
     <g id="line2d_3">
      <g>
       <use xlink:href="#m10f7696a96" x="126.993764" y="114.598919" style="stroke: #000000; stroke-width: 0.8"/>
      </g>
     </g>
     <g id="text_3">
      <!-- $\mathdefault{1}$ -->
      <g transform="translate(124.067269 129.901098)scale(0.12 -0.12)">
       <use xlink:href="#CMR17-31" transform="scale(0.996264)"/>
      </g>
     </g>
    </g>
    <g id="text_4">
     <!-- $z-z_\mathrm{focus}$ [\mum] -->
     <g transform="translate(53.528869 145.19207)scale(0.12 -0.12)">
      <defs>
       <path id="CMMI12-7a" d="M 813 486 
C 1088 803 1312 1004 1632 1296 
C 2016 1632 2182 1793 2272 1891 
C 2720 2338 2944 2713 2944 2764 
C 2944 2816 2893 2816 2880 2816 
C 2835 2816 2822 2793 2790 2750 
C 2630 2494 2477 2367 2310 2367 
C 2176 2367 2106 2421 1984 2565 
C 1850 2715 1741 2816 1555 2816 
C 1088 2816 806 2257 806 2128 
C 806 2108 813 2068 870 2068 
C 922 2068 928 2091 947 2133 
C 1056 2372 1363 2414 1485 2414 
C 1619 2414 1747 2376 1882 2327 
C 2125 2240 2227 2240 2291 2240 
C 2336 2240 2362 2240 2394 2246 
C 2182 1994 1837 1683 1549 1418 
L 902 816 
C 512 415 275 33 275 -12 
C 275 -51 307 -64 346 -64 
C 384 -64 390 -57 435 14 
C 538 163 742 384 979 384 
C 1114 384 1178 342 1306 193 
C 1427 61 1536 -64 1741 -64 
C 2368 -64 2726 732 2726 876 
C 2726 903 2720 942 2656 942 
C 2605 942 2598 917 2579 855 
C 2438 488 2061 338 1811 338 
C 1677 338 1549 376 1414 425 
C 1158 512 1088 512 1005 512 
C 941 512 870 512 813 486 
z
" transform="scale(0.015625)"/>
       <path id="CMR17-66" d="M 979 2560 
L 1709 2560 
L 1709 2725 
L 966 2725 
L 966 3494 
C 966 4022 1235 4352 1510 4352 
C 1594 4352 1690 4327 1754 4282 
C 1702 4269 1568 4225 1568 4067 
C 1568 3901 1696 3850 1786 3850 
C 1875 3850 2003 3901 2003 4067 
C 2003 4308 1773 4454 1517 4454 
C 1152 4454 653 4156 653 3481 
L 653 2725 
L 141 2725 
L 141 2560 
L 653 2560 
L 653 427 
C 653 184 627 153 218 153 
L 218 -13 
C 371 0 666 0 832 0 
C 1018 0 1344 0 1517 -13 
L 1517 153 
C 1056 153 979 153 979 439 
L 979 2560 
z
" transform="scale(0.015625)"/>
       <path id="CMR17-6f" d="M 2758 1356 
C 2758 2176 2163 2816 1466 2816 
C 768 2816 173 2176 173 1356 
C 173 551 768 -64 1466 -64 
C 2163 -64 2758 551 2758 1356 
z
M 1466 51 
C 1165 51 909 230 762 480 
C 602 767 582 1126 582 1408 
C 582 1677 595 2010 762 2298 
C 890 2509 1139 2714 1466 2714 
C 1754 2714 1997 2554 2150 2330 
C 2349 2029 2349 1607 2349 1408 
C 2349 1158 2336 775 2163 467 
C 1984 173 1709 51 1466 51 
z
" transform="scale(0.015625)"/>
       <path id="CMR17-63" d="M 2234 2240 
C 2112 2240 1933 2240 1933 2017 
C 1933 1838 2080 1787 2163 1787 
C 2208 1787 2394 1807 2394 2024 
C 2394 2467 1958 2803 1466 2803 
C 787 2803 211 2178 211 1363 
C 211 516 813 -64 1466 -64 
C 2259 -64 2458 677 2458 748 
C 2458 774 2451 793 2406 793 
C 2362 793 2355 787 2330 703 
C 2163 180 1798 51 1523 51 
C 1114 51 621 427 621 1369 
C 621 2338 1094 2688 1472 2688 
C 1722 2688 2093 2573 2234 2240 
z
" transform="scale(0.015625)"/>
       <path id="CMR17-75" d="M 1882 2693 
L 1882 2528 
C 2259 2528 2317 2489 2317 2186 
L 2317 1032 
C 2317 500 2029 38 1555 38 
C 1030 38 986 348 986 678 
L 986 2763 
L 211 2693 
L 211 2528 
C 467 2528 640 2528 646 2274 
L 646 1058 
C 646 633 646 361 813 183 
C 896 101 1056 -64 1517 -64 
C 2061 -64 2272 377 2323 506 
L 2330 506 
L 2330 -63 
L 3091 -63 
L 3091 128 
C 2714 128 2656 166 2656 473 
L 2656 2763 
L 1882 2693 
z
" transform="scale(0.015625)"/>
       <path id="CMR17-73" d="M 1978 2697 
C 1978 2813 1971 2819 1933 2819 
C 1907 2819 1901 2813 1824 2717 
C 1805 2691 1747 2626 1728 2601 
C 1523 2819 1235 2819 1126 2819 
C 416 2819 160 2447 160 2076 
C 160 1498 813 1365 998 1325 
C 1402 1243 1542 1217 1677 1101 
C 1760 1025 1901 884 1901 654 
C 1901 384 1747 38 1158 38 
C 602 38 403 460 288 1021 
C 269 1110 269 1117 218 1117 
C 166 1117 160 1110 160 983 
L 160 63 
C 160 -51 166 -58 205 -58 
C 237 -58 243 -51 275 0 
C 314 57 410 211 448 276 
C 576 103 800 -64 1158 -64 
C 1792 -64 2131 283 2131 784 
C 2131 1112 1958 1285 1875 1362 
C 1683 1561 1459 1606 1190 1657 
C 838 1735 390 1825 390 2217 
C 390 2383 480 2737 1126 2737 
C 1811 2737 1850 2094 1862 1888 
C 1869 1856 1901 1849 1920 1849 
C 1978 1849 1978 1869 1978 1978 
L 1978 2697 
z
" transform="scale(0.015625)"/>
       <path id="CMR17-5b" d="M 1504 -1600 
L 1504 -1377 
L 902 -1377 
L 902 4544 
L 1504 4544 
L 1504 4767 
L 678 4767 
L 678 -1600 
L 1504 -1600 
z
" transform="scale(0.015625)"/>
       <path id="CMMI12-16" d="M 922 140 
C 1082 -6 1318 -64 1536 -64 
C 1946 -64 2227 208 2374 405 
C 2438 69 2707 -64 2931 -64 
C 3123 -64 3277 50 3392 277 
C 3494 493 3584 879 3584 903 
C 3584 935 3558 960 3520 960 
C 3462 960 3456 928 3430 834 
C 3334 461 3213 64 2950 64 
C 2765 64 2752 229 2752 358 
C 2752 504 2810 735 2854 926 
L 3034 1615 
C 3059 1737 3130 2023 3162 2139 
C 3200 2292 3270 2567 3270 2592 
C 3270 2688 3194 2752 3098 2752 
C 3040 2752 2906 2726 2854 2535 
L 2406 760 
C 2374 632 2374 619 2291 517 
C 2214 409 1965 64 1562 64 
C 1203 64 1088 326 1088 625 
C 1088 811 1146 1034 1171 1143 
L 1459 2293 
C 1491 2414 1542 2618 1542 2657 
C 1542 2759 1459 2816 1376 2816 
C 1318 2816 1178 2797 1126 2592 
L 198 -1107 
C 192 -1139 179 -1177 179 -1216 
C 179 -1312 256 -1376 352 -1376 
C 538 -1376 576 -1228 621 -1050 
L 922 140 
z
" transform="scale(0.015625)"/>
       <path id="CMR17-6d" d="M 4326 1933 
C 4326 2252 4269 2790 3507 2790 
C 3072 2790 2771 2496 2656 2151 
L 2650 2151 
C 2573 2676 2195 2790 1837 2790 
C 1331 2790 1069 2400 973 2144 
L 966 2144 
L 966 2790 
L 211 2720 
L 211 2554 
C 589 2554 646 2515 646 2208 
L 646 428 
C 646 184 621 153 211 153 
L 211 -13 
C 365 0 646 0 813 0 
C 979 0 1267 0 1421 -13 
L 1421 153 
C 1011 153 986 178 986 428 
L 986 1658 
C 986 2247 1344 2688 1792 2688 
C 2266 2688 2317 2266 2317 1958 
L 2317 428 
C 2317 184 2291 153 1882 153 
L 1882 -13 
C 2035 0 2317 0 2483 0 
C 2650 0 2938 0 3091 -13 
L 3091 153 
C 2682 153 2656 178 2656 428 
L 2656 1658 
C 2656 2247 3014 2688 3462 2688 
C 3936 2688 3987 2266 3987 1958 
L 3987 428 
C 3987 184 3962 153 3552 153 
L 3552 -13 
C 3706 0 3987 0 4154 0 
C 4320 0 4608 0 4762 -13 
L 4762 153 
C 4352 153 4326 178 4326 428 
L 4326 1933 
z
" transform="scale(0.015625)"/>
       <path id="CMR17-5d" d="M 915 4767 
L 90 4767 
L 90 4544 
L 691 4544 
L 691 -1377 
L 90 -1377 
L 90 -1600 
L 915 -1600 
L 915 4767 
z
" transform="scale(0.015625)"/>
      </defs>
      <use xlink:href="#CMMI12-7a" transform="scale(0.996264)"/>
      <use xlink:href="#CMSY10-0" transform="translate(71.894352 0)scale(0.996264)"/>
      <use xlink:href="#CMMI12-7a" transform="translate(171.521026 0)scale(0.996264)"/>
      <use xlink:href="#CMR17-66" transform="translate(216.83678 -14.943915)scale(0.697382)"/>
      <use xlink:href="#CMR17-6f" transform="translate(236.068144 -14.943915)scale(0.697382)"/>
      <use xlink:href="#CMR17-63" transform="translate(269.873032 -14.943915)scale(0.697382)"/>
      <use xlink:href="#CMR17-75" transform="translate(298.212863 -14.943915)scale(0.697382)"/>
      <use xlink:href="#CMR17-73" transform="translate(333.839472 -14.943915)scale(0.697382)"/>
      <use xlink:href="#CMR17-5b" transform="translate(389.474392 0)scale(0.996264)"/>
      <use xlink:href="#CMMI12-16" transform="translate(414.345451 0)scale(0.996264)"/>
      <use xlink:href="#CMR17-6d" transform="translate(473.036872 0)scale(0.996264)"/>
      <use xlink:href="#CMR17-5d" transform="translate(549.956462 0)scale(0.996264)"/>
     </g>
    </g>
   </g>
   <g id="matplotlib.axis_2">
    <g id="ytick_1">
     <g id="line2d_4">
      <defs>
       <path id="maedaf84a4b" d="M 0 0 
L -3.5 0 
" style="stroke: #000000; stroke-width: 0.8"/>
      </defs>
      <g>
       <use xlink:href="#maedaf84a4b" x="40.91305" y="102.714987" style="stroke: #000000; stroke-width: 0.8"/>
      </g>
     </g>
     <g id="text_5">
      <!-- $\mathdefault{0.8}$ -->
      <g transform="translate(18.955408 106.866077)scale(0.12 -0.12)">
       <defs>
        <path id="CMMI12-3a" d="M 1178 307 
C 1178 492 1024 619 870 619 
C 685 619 557 466 557 313 
C 557 128 710 0 864 0 
C 1050 0 1178 153 1178 307 
z
" transform="scale(0.015625)"/>
        <path id="CMR17-38" d="M 1741 2264 
C 2144 2467 2554 2773 2554 3263 
C 2554 3841 1990 4179 1472 4179 
C 890 4179 378 3759 378 3180 
C 378 3021 416 2747 666 2505 
C 730 2442 998 2251 1171 2130 
C 883 1983 211 1634 211 934 
C 211 279 838 -128 1459 -128 
C 2144 -128 2720 362 2720 1010 
C 2720 1590 2330 1857 2074 2029 
L 1741 2264 
z
M 902 2822 
C 851 2854 595 3051 595 3351 
C 595 3739 998 4032 1459 4032 
C 1965 4032 2336 3676 2336 3262 
C 2336 2669 1670 2331 1638 2331 
C 1632 2331 1626 2331 1574 2370 
L 902 2822 
z
M 2080 1519 
C 2176 1449 2483 1240 2483 851 
C 2483 381 2010 25 1472 25 
C 890 25 448 438 448 940 
C 448 1443 838 1862 1280 2060 
L 2080 1519 
z
" transform="scale(0.015625)"/>
       </defs>
       <use xlink:href="#CMR17-30" transform="scale(0.996264)"/>
       <use xlink:href="#CMMI12-3a" transform="translate(45.690477 0)scale(0.996264)"/>
       <use xlink:href="#CMR17-38" transform="translate(72.787654 0)scale(0.996264)"/>
      </g>
     </g>
    </g>
    <g id="ytick_2">
     <g id="line2d_5">
      <g>
       <use xlink:href="#maedaf84a4b" x="40.91305" y="55.393947" style="stroke: #000000; stroke-width: 0.8"/>
      </g>
     </g>
     <g id="text_6">
      <!-- $\mathdefault{0.9}$ -->
      <g transform="translate(18.955408 59.545037)scale(0.12 -0.12)">
       <defs>
        <path id="CMR17-39" d="M 2253 1864 
C 2253 464 1670 31 1190 31 
C 1043 31 685 31 538 294 
C 704 268 826 357 826 518 
C 826 692 685 749 595 749 
C 538 749 365 723 365 506 
C 365 71 742 -128 1203 -128 
C 1939 -128 2688 674 2688 2073 
C 2688 3817 1971 4179 1485 4179 
C 851 4179 243 3628 243 2778 
C 243 1991 762 1408 1414 1408 
C 1952 1408 2189 1903 2253 2112 
L 2253 1864 
z
M 1427 1510 
C 1254 1510 1011 1542 813 1922 
C 678 2169 678 2461 678 2771 
C 678 3146 678 3405 858 3684 
C 947 3817 1114 4032 1485 4032 
C 2240 4032 2240 2885 2240 2632 
C 2240 2182 2035 1510 1427 1510 
z
" transform="scale(0.015625)"/>
       </defs>
       <use xlink:href="#CMR17-30" transform="scale(0.996264)"/>
       <use xlink:href="#CMMI12-3a" transform="translate(45.690477 0)scale(0.996264)"/>
       <use xlink:href="#CMR17-39" transform="translate(72.787654 0)scale(0.996264)"/>
      </g>
     </g>
    </g>
    <g id="ytick_3">
     <g id="line2d_6">
      <g>
       <use xlink:href="#maedaf84a4b" x="40.91305" y="8.072907" style="stroke: #000000; stroke-width: 0.8"/>
      </g>
     </g>
     <g id="text_7">
      <!-- $\mathdefault{1.0}$ -->
      <g transform="translate(18.955408 12.223997)scale(0.12 -0.12)">
       <use xlink:href="#CMR17-31" transform="scale(0.996264)"/>
       <use xlink:href="#CMMI12-3a" transform="translate(45.690477 0)scale(0.996264)"/>
       <use xlink:href="#CMR17-30" transform="translate(72.787654 0)scale(0.996264)"/>
      </g>
     </g>
    </g>
    <g id="text_8">
     <!-- $S/S_{\rm max}$ -->
     <g transform="translate(11.966616 76.828521)rotate(-90)scale(0.12 -0.12)">
      <defs>
       <path id="CMMI12-53" d="M 4064 4423 
C 4064 4480 4019 4480 4006 4480 
C 3981 4480 3974 4474 3898 4378 
C 3859 4333 3597 4001 3590 3995 
C 3379 4410 2957 4480 2688 4480 
C 1875 4480 1139 3743 1139 3025 
C 1139 2549 1427 2269 1741 2161 
C 1811 2135 2189 2033 2381 1989 
C 2707 1900 2790 1875 2925 1735 
C 2950 1703 3078 1557 3078 1258 
C 3078 667 2528 57 1888 57 
C 1363 57 781 280 781 991 
C 781 1112 806 1265 826 1328 
C 826 1348 832 1378 832 1391 
C 832 1417 819 1449 768 1449 
C 710 1449 704 1436 678 1328 
L 352 24 
C 352 18 326 -64 326 -71 
C 326 -128 378 -128 390 -128 
C 416 -128 422 -122 499 -26 
L 794 356 
C 947 126 1280 -128 1875 -128 
C 2701 -128 3456 666 3456 1460 
C 3456 1728 3392 1963 3149 2197 
C 3014 2331 2899 2363 2310 2516 
C 1882 2630 1824 2649 1709 2751 
C 1600 2858 1517 3011 1517 3227 
C 1517 3761 2061 4308 2669 4308 
C 3296 4308 3590 3926 3590 3323 
C 3590 3158 3558 2986 3558 2961 
C 3558 2903 3610 2903 3629 2903 
C 3686 2903 3693 2922 3718 3024 
L 4064 4423 
z
" transform="scale(0.015625)"/>
       <path id="CMMI12-3d" d="M 2746 4562 
C 2746 4569 2784 4666 2784 4678 
C 2784 4755 2720 4800 2669 4800 
C 2637 4800 2579 4800 2528 4659 
L 384 -1363 
C 384 -1370 346 -1465 346 -1478 
C 346 -1555 410 -1600 461 -1600 
C 499 -1600 557 -1593 602 -1459 
L 2746 4562 
z
" transform="scale(0.015625)"/>
       <path id="CMR17-61" d="M 2304 1653 
C 2304 2072 2304 2294 2035 2543 
C 1798 2752 1523 2816 1306 2816 
C 800 2816 435 2407 435 1971 
C 435 1728 627 1728 666 1728 
C 749 1728 896 1778 896 1954 
C 896 2112 774 2181 666 2181 
C 640 2181 608 2174 589 2168 
C 723 2592 1069 2714 1293 2714 
C 1613 2714 1965 2429 1965 1885 
L 1965 1600 
C 1587 1600 1133 1549 774 1357 
C 371 1133 256 813 256 570 
C 256 77 832 -64 1171 -64 
C 1523 -64 1850 139 1990 511 
C 2003 233 2182 -18 2464 -18 
C 2598 -18 2938 70 2938 567 
L 2938 920 
L 2822 920 
L 2822 562 
C 2822 178 2650 128 2566 128 
C 2304 128 2304 458 2304 738 
L 2304 1653 
z
M 1965 870 
C 1965 317 1568 38 1216 38 
C 896 38 646 275 646 570 
C 646 761 730 1100 1101 1305 
C 1408 1478 1760 1504 1965 1504 
L 1965 870 
z
" transform="scale(0.015625)"/>
       <path id="CMR17-78" d="M 1664 1477 
C 1856 1726 2074 2006 2253 2216 
C 2464 2458 2707 2560 2989 2560 
L 2989 2726 
C 2880 2726 2656 2726 2541 2726 
C 2368 2726 2170 2726 2022 2732 
L 2022 2566 
C 2112 2553 2163 2489 2163 2400 
C 2163 2285 2099 2215 2067 2171 
L 1594 1573 
L 1030 2306 
C 973 2376 973 2388 973 2420 
C 973 2497 1037 2560 1146 2560 
L 1146 2732 
C 992 2726 717 2726 557 2726 
C 384 2726 179 2726 38 2732 
L 38 2560 
C 384 2560 461 2534 614 2343 
L 1350 1395 
C 1363 1382 1395 1344 1395 1325 
C 1395 1299 838 619 768 530 
C 480 185 179 160 6 160 
L 6 0 
C 115 0 339 0 454 0 
C 582 0 864 0 979 -6 
L 979 160 
C 941 166 838 179 838 325 
C 838 440 890 510 947 586 
L 1478 1236 
L 2035 512 
C 2086 442 2163 346 2163 301 
C 2163 211 2086 160 1984 160 
L 1984 -6 
C 2138 0 2413 0 2573 0 
C 2746 0 2950 0 3091 -6 
L 3091 160 
C 2771 160 2675 172 2522 370 
L 1664 1477 
z
" transform="scale(0.015625)"/>
      </defs>
      <use xlink:href="#CMMI12-53" transform="scale(0.996264)"/>
      <use xlink:href="#CMMI12-3d" transform="translate(60.375004 0)scale(0.996264)"/>
      <use xlink:href="#CMMI12-53" transform="translate(109.149922 0)scale(0.996264)"/>
      <use xlink:href="#CMR17-6d" transform="translate(169.14441 -14.943915)scale(0.697382)"/>
      <use xlink:href="#CMR17-61" transform="translate(222.987877 -14.943915)scale(0.697382)"/>
      <use xlink:href="#CMR17-78" transform="translate(254.971059 -14.943915)scale(0.697382)"/>
     </g>
    </g>
   </g>
   <g id="line2d_7">
    <path d="M 48.738569 21.798565 
L 52.651329 18.967288 
L 56.564089 15.945591 
L 60.476849 14.316914 
L 64.389608 13.31155 
L 68.302368 11.708295 
L 72.215128 11.928816 
L 76.127888 9.647672 
L 80.040647 9.089455 
L 83.953407 9.197658 
L 87.866167 8.072907 
L 91.778927 8.476369 
L 95.691686 8.461866 
L 99.604446 10.466747 
L 103.517206 10.880928 
L 107.429966 12.518284 
L 111.342725 13.472392 
L 115.255485 17.206966 
L 119.168245 22.216216 
L 123.081004 27.051297 
L 126.993764 32.51513 
" clip-path="url(#pe1e3934913)" style="fill: none; stroke: #d60000; stroke-linecap: square"/>
   </g>
   <g id="line2d_8">
    <path d="M 40.91305 27.9149 
L 44.82581 24.774507 
L 48.738569 22.140448 
L 52.651329 19.040383 
L 56.564089 17.134837 
L 60.476849 16.412918 
L 64.389608 13.954584 
L 68.302368 11.93511 
L 72.215128 11.267923 
L 76.127888 9.467587 
L 80.040647 9.737772 
L 83.953407 9.083389 
L 87.866167 8.072907 
L 91.778927 9.25785 
L 95.691686 9.442092 
L 99.604446 10.262412 
L 103.517206 10.239002 
L 107.429966 11.042859 
L 111.342725 10.63084 
L 115.255485 12.112379 
L 119.168245 13.490642 
" clip-path="url(#pe1e3934913)" style="fill: none; stroke: #8c3bff; stroke-linecap: square"/>
   </g>
   <g id="line2d_9">
    <path d="M 44.82581 46.761059 
L 48.738569 41.280183 
L 52.651329 38.711251 
L 56.564089 33.422097 
L 60.476849 26.898105 
L 64.389608 22.224495 
L 68.302368 17.683346 
L 72.215128 15.73903 
L 76.127888 13.972452 
L 80.040647 11.836879 
L 83.953407 8.864588 
L 87.866167 8.072907 
L 91.778927 9.980264 
L 95.691686 11.607736 
L 99.604446 15.30363 
L 103.517206 19.386989 
L 107.429966 25.837098 
L 111.342725 34.780808 
L 115.255485 44.417093 
L 119.168245 52.062611 
L 123.081004 60.954279 
" clip-path="url(#pe1e3934913)" style="fill: none; stroke: #018700; stroke-linecap: square"/>
   </g>
   <g id="line2d_10">
    <path d="M 48.738569 21.109603 
L 52.651329 19.284231 
L 56.564089 17.3229 
L 60.476849 17.173422 
L 64.389608 14.210245 
L 68.302368 13.310007 
L 72.215128 14.030783 
L 76.127888 10.346567 
L 80.040647 10.641199 
L 83.953407 8.997417 
L 87.866167 8.072907 
L 91.778927 9.071068 
L 95.691686 8.224227 
L 99.604446 8.943766 
L 103.517206 11.578046 
L 107.429966 12.496789 
L 111.342725 13.949686 
L 115.255485 14.970531 
L 119.168245 16.395707 
L 123.081004 20.464319 
L 126.993764 21.471923 
" clip-path="url(#pe1e3934913)" style="fill: none; stroke: #00acc6; stroke-linecap: square"/>
   </g>
   <g id="line2d_11">
    <path d="M 56.564089 35.309147 
L 60.476849 30.634373 
L 64.389608 26.798752 
L 68.302368 19.238675 
L 72.215128 14.179358 
L 76.127888 14.290618 
L 80.040647 10.592209 
L 83.953407 9.819774 
L 87.866167 8.072907 
L 91.778927 9.487205 
L 95.691686 9.770178 
L 99.604446 9.605785 
L 103.517206 9.871967 
L 107.429966 10.66351 
L 111.342725 11.101244 
L 115.255485 15.784772 
L 119.168245 15.63045 
L 123.081004 21.276323 
L 126.993764 23.217069 
L 130.906524 29.343801 
L 134.819284 33.826814 
" clip-path="url(#pe1e3934913)" style="fill: none; stroke: #97ff00; stroke-linecap: square"/>
   </g>
   <g id="line2d_12">
    <path d="M 48.738569 27.354404 
L 52.651329 23.93291 
L 56.564089 20.811835 
L 60.476849 14.996025 
L 64.389608 12.617423 
L 68.302368 10.417009 
L 72.215128 10.974176 
L 76.127888 10.364892 
L 80.040647 9.37837 
L 83.953407 10.425639 
L 87.866167 8.072907 
L 91.778927 12.188407 
L 95.691686 10.377462 
L 99.604446 11.594998 
L 103.517206 14.935684 
L 107.429966 16.776089 
L 111.342725 18.515427 
L 115.255485 25.791206 
L 119.168245 27.739952 
L 123.081004 28.059148 
L 126.993764 31.850448 
" clip-path="url(#pe1e3934913)" style="fill: none; stroke: #ff7ed1; stroke-linecap: square"/>
   </g>
   <g id="line2d_13">
    <path d="M 56.564089 26.981805 
L 60.476849 21.962571 
L 64.389608 19.886494 
L 68.302368 16.382132 
L 72.215128 15.31592 
L 76.127888 11.473335 
L 80.040647 10.367107 
L 83.953407 8.930765 
L 87.866167 8.072907 
L 91.778927 8.1415 
L 95.691686 9.361656 
L 99.604446 11.05316 
L 103.517206 12.833489 
L 107.429966 14.391676 
L 111.342725 17.734889 
L 115.255485 21.03173 
L 119.168245 24.084228 
L 123.081004 28.500675 
L 126.993764 33.06092 
L 130.906524 37.622382 
L 134.819284 41.959714 
" clip-path="url(#pe1e3934913)" style="fill: none; stroke: #6b004f; stroke-linecap: square"/>
   </g>
   <g id="line2d_14">
    <path d="M 48.738569 22.70649 
L 52.651329 20.543912 
L 56.564089 16.392859 
L 60.476849 13.050465 
L 64.389608 14.530665 
L 68.302368 15.68218 
L 72.215128 11.220363 
L 76.127888 12.865889 
L 80.040647 10.152855 
L 83.953407 10.812297 
L 87.866167 8.072907 
L 91.778927 9.87865 
L 95.691686 12.377901 
L 99.604446 13.793155 
L 103.517206 16.093291 
L 107.429966 19.353445 
L 111.342725 23.498371 
L 115.255485 28.310053 
L 119.168245 35.525925 
L 123.081004 43.892236 
L 126.993764 54.952103 
" clip-path="url(#pe1e3934913)" style="fill: none; stroke: #ffa52f; stroke-linecap: square"/>
   </g>
   <g id="line2d_15">
    <path d="M 48.738569 44.878603 
L 52.651329 38.288198 
L 56.564089 30.722869 
L 60.476849 25.76903 
L 64.389608 20.46949 
L 68.302368 16.366173 
L 72.215128 13.301007 
L 76.127888 10.472897 
L 80.040647 10.317224 
L 83.953407 9.574583 
L 87.866167 8.072907 
L 91.778927 10.020438 
L 95.691686 9.882413 
L 99.604446 10.262558 
L 103.517206 9.830084 
L 107.429966 14.252954 
L 111.342725 17.201201 
L 115.255485 18.783994 
L 119.168245 26.474714 
L 123.081004 29.018646 
L 126.993764 33.818882 
" clip-path="url(#pe1e3934913)" style="fill: none; stroke: #573b00; stroke-linecap: square"/>
   </g>
   <g id="line2d_16">
    <path d="M 52.651329 39.242433 
L 56.564089 31.617157 
L 60.476849 27.296084 
L 64.389608 20.963677 
L 68.302368 19.07232 
L 72.215128 15.361614 
L 76.127888 11.328719 
L 80.040647 10.475274 
L 83.953407 9.795228 
L 87.866167 8.072907 
L 91.778927 8.243416 
L 95.691686 9.045803 
L 99.604446 11.457929 
L 103.517206 13.783714 
L 107.429966 16.269909 
L 111.342725 16.084898 
L 115.255485 18.652891 
L 119.168245 22.972297 
L 123.081004 25.974413 
L 126.993764 27.493869 
L 130.906524 31.874023 
" clip-path="url(#pe1e3934913)" style="fill: none; stroke: #005659; stroke-linecap: square"/>
   </g>
   <g id="line2d_17">
    <path d="M 44.82581 28.149491 
L 48.738569 26.8514 
L 52.651329 21.680429 
L 56.564089 22.09534 
L 60.476849 22.483923 
L 64.389608 17.42629 
L 68.302368 13.127378 
L 72.215128 12.693048 
L 76.127888 10.247624 
L 80.040647 9.206039 
L 83.953407 10.501007 
L 87.866167 8.072907 
L 91.778927 9.381937 
L 95.691686 8.86742 
L 99.604446 12.427059 
L 103.517206 14.080801 
L 107.429966 17.782062 
L 111.342725 18.137561 
L 115.255485 23.725035 
L 119.168245 24.309966 
L 123.081004 33.405672 
" clip-path="url(#pe1e3934913)" style="fill: none; stroke: #0000dd; stroke-linecap: square"/>
   </g>
   <g id="line2d_18">
    <path d="M 60.476849 20.806964 
L 64.389608 17.755808 
L 68.302368 16.124042 
L 72.215128 13.375232 
L 76.127888 11.536838 
L 80.040647 10.295059 
L 83.953407 8.689473 
L 87.866167 8.072907 
L 91.778927 8.945547 
L 95.691686 8.163663 
L 99.604446 9.224219 
L 103.517206 9.589653 
L 107.429966 10.661501 
L 111.342725 11.539554 
L 115.255485 11.738463 
L 119.168245 12.108081 
L 123.081004 12.90593 
L 126.993764 13.966327 
L 130.906524 13.596702 
L 134.819284 16.105067 
L 138.732043 17.180695 
" clip-path="url(#pe1e3934913)" style="fill: none; stroke: #00fdcf; stroke-linecap: square"/>
   </g>
   <g id="line2d_19">
    <path d="M 52.651329 108.628391 
L 56.564089 92.795377 
L 60.476849 78.214345 
L 64.389608 65.451283 
L 68.302368 53.085289 
L 72.215128 40.04041 
L 76.127888 30.826169 
L 80.040647 19.110909 
L 83.953407 14.031442 
L 87.866167 8.072907 
L 91.778927 8.091766 
L 95.691686 9.629945 
L 99.604446 16.04397 
L 103.517206 23.224741 
L 107.429966 29.095395 
L 111.342725 35.358558 
L 115.255485 46.293115 
L 119.168245 57.984796 
L 123.081004 65.794315 
L 126.993764 75.026436 
L 130.906524 86.844305 
" clip-path="url(#pe1e3934913)" style="fill: none; stroke: #a17569; stroke-linecap: square"/>
   </g>
   <g id="line2d_20">
    <path d="M 44.82581 32.899737 
L 48.738569 24.6409 
L 52.651329 21.675371 
L 56.564089 20.159784 
L 60.476849 17.200602 
L 64.389608 15.954207 
L 68.302368 13.000068 
L 72.215128 14.879824 
L 76.127888 12.840787 
L 80.040647 12.791375 
L 83.953407 8.875574 
L 87.866167 8.072907 
L 91.778927 10.19366 
L 95.691686 10.016417 
L 99.604446 11.512456 
L 103.517206 11.985121 
L 107.429966 10.823119 
L 111.342725 15.378678 
L 115.255485 18.756689 
L 119.168245 18.120631 
L 123.081004 24.120795 
" clip-path="url(#pe1e3934913)" style="fill: none; stroke: #bcb6ff; stroke-linecap: square"/>
   </g>
   <g id="line2d_21">
    <path d="M 56.564089 35.312984 
L 60.476849 31.409283 
L 64.389608 28.020371 
L 68.302368 23.060035 
L 72.215128 19.056057 
L 76.127888 15.76762 
L 80.040647 11.875229 
L 83.953407 10.941164 
L 87.866167 8.072907 
L 91.778927 10.625282 
L 95.691686 9.972578 
L 99.604446 10.915454 
L 103.517206 12.329953 
L 107.429966 12.607791 
L 111.342725 14.865989 
L 115.255485 17.368783 
L 119.168245 18.969676 
L 123.081004 24.71397 
L 126.993764 27.767178 
L 130.906524 32.442705 
L 134.819284 38.557957 
" clip-path="url(#pe1e3934913)" style="fill: none; stroke: #95b577; stroke-linecap: square"/>
   </g>
   <g id="line2d_22">
    <path d="M 52.651329 109.526251 
L 56.564089 87.212088 
L 60.476849 68.114582 
L 64.389608 53.127352 
L 68.302368 38.449095 
L 72.215128 28.148703 
L 76.127888 17.403619 
L 80.040647 11.336929 
L 83.953407 9.941099 
L 87.866167 8.072907 
L 91.778927 8.924342 
L 95.691686 13.820427 
L 99.604446 21.716209 
L 103.517206 27.297333 
L 107.429966 35.034762 
L 111.342725 43.840523 
L 115.255485 60.415258 
L 119.168245 65.610914 
L 123.081004 76.949903 
L 126.993764 89.404037 
L 130.906524 99.360582 
" clip-path="url(#pe1e3934913)" style="fill: none; stroke: #bf03b8; stroke-linecap: square"/>
   </g>
   <g id="patch_3">
    <path d="M 40.91305 114.598919 
L 40.91305 3.00024 
" style="fill: none; stroke: #000000; stroke-width: 0.8; stroke-linejoin: miter; stroke-linecap: square"/>
   </g>
   <g id="patch_4">
    <path d="M 138.732043 114.598919 
L 138.732043 3.00024 
" style="fill: none; stroke: #000000; stroke-width: 0.8; stroke-linejoin: miter; stroke-linecap: square"/>
   </g>
   <g id="patch_5">
    <path d="M 40.91305 114.598919 
L 138.732043 114.598919 
" style="fill: none; stroke: #000000; stroke-width: 0.8; stroke-linejoin: miter; stroke-linecap: square"/>
   </g>
   <g id="patch_6">
    <path d="M 40.91305 3.00024 
L 138.732043 3.00024 
" style="fill: none; stroke: #000000; stroke-width: 0.8; stroke-linejoin: miter; stroke-linecap: square"/>
   </g>
  </g>
 </g>
 <defs>
  <clipPath id="pe1e3934913">
   <rect x="40.91305" y="3.00024" width="97.818994" height="111.598679"/>
  </clipPath>
 </defs>
</svg>
