<?xml version="1.0" encoding="utf-8" standalone="no"?>
<!DOCTYPE svg PUBLIC "-//W3C//DTD SVG 1.1//EN"
  "http://www.w3.org/Graphics/SVG/1.1/DTD/svg11.dtd">
<svg xmlns:xlink="http://www.w3.org/1999/xlink" width="198.425197pt" height="151.181102pt" viewBox="0 0 198.425197 151.181102" xmlns="http://www.w3.org/2000/svg" version="1.1">
 <metadata>
  <rdf:RDF xmlns:dc="http://purl.org/dc/elements/1.1/" xmlns:cc="http://creativecommons.org/ns#" xmlns:rdf="http://www.w3.org/1999/02/22-rdf-syntax-ns#">
   <cc:Work>
    <dc:type rdf:resource="http://purl.org/dc/dcmitype/StillImage"/>
    <dc:date>2024-11-19T22:39:06.554077</dc:date>
    <dc:format>image/svg+xml</dc:format>
    <dc:creator>
     <cc:Agent>
      <dc:title>Matplotlib v3.5.3, https://matplotlib.org/</dc:title>
     </cc:Agent>
    </dc:creator>
   </cc:Work>
  </rdf:RDF>
 </metadata>
 <defs>
  <style type="text/css">*{stroke-linejoin: round; stroke-linecap: butt}</style>
 </defs>
 <g id="figure_1">
  <g id="patch_1">
   <path d="M 0 151.181102 
L 198.425197 151.181102 
L 198.425197 0 
L 0 0 
z
" style="fill: #ffffff"/>
  </g>
  <g id="axes_1">
   <g id="patch_2">
    <path d="M 43.514379 53.897383 
L 193.180899 53.897383 
L 193.180899 3.00024 
L 43.514379 3.00024 
z
" style="fill: #ffffff"/>
   </g>
   <g id="matplotlib.axis_1">
    <g id="xtick_1"/>
    <g id="xtick_2"/>
    <g id="xtick_3"/>
    <g id="xtick_4"/>
    <g id="xtick_5"/>
    <g id="xtick_6"/>
    <g id="xtick_7"/>
   </g>
   <g id="matplotlib.axis_2">
    <g id="ytick_1">
     <g id="line2d_1">
      <defs>
       <path id="m1200373aa7" d="M 0 0 
L -3.5 0 
" style="stroke: #000000; stroke-width: 0.8"/>
      </defs>
      <g>
       <use xlink:href="#m1200373aa7" x="43.514379" y="40.574461" style="stroke: #000000; stroke-width: 0.8"/>
      </g>
     </g>
     <g id="text_1">
      <!-- $\mathdefault{890}$ -->
      <g transform="translate(18.955408 44.72555)scale(0.12 -0.12)">
       <defs>
        <path id="CMR17-38" d="M 1741 2264 
C 2144 2467 2554 2773 2554 3263 
C 2554 3841 1990 4179 1472 4179 
C 890 4179 378 3759 378 3180 
C 378 3021 416 2747 666 2505 
C 730 2442 998 2251 1171 2130 
C 883 1983 211 1634 211 934 
C 211 279 838 -128 1459 -128 
C 2144 -128 2720 362 2720 1010 
C 2720 1590 2330 1857 2074 2029 
L 1741 2264 
z
M 902 2822 
C 851 2854 595 3051 595 3351 
C 595 3739 998 4032 1459 4032 
C 1965 4032 2336 3676 2336 3262 
C 2336 2669 1670 2331 1638 2331 
C 1632 2331 1626 2331 1574 2370 
L 902 2822 
z
M 2080 1519 
C 2176 1449 2483 1240 2483 851 
C 2483 381 2010 25 1472 25 
C 890 25 448 438 448 940 
C 448 1443 838 1862 1280 2060 
L 2080 1519 
z
" transform="scale(0.015625)"/>
        <path id="CMR17-39" d="M 2253 1864 
C 2253 464 1670 31 1190 31 
C 1043 31 685 31 538 294 
C 704 268 826 357 826 518 
C 826 692 685 749 595 749 
C 538 749 365 723 365 506 
C 365 71 742 -128 1203 -128 
C 1939 -128 2688 674 2688 2073 
C 2688 3817 1971 4179 1485 4179 
C 851 4179 243 3628 243 2778 
C 243 1991 762 1408 1414 1408 
C 1952 1408 2189 1903 2253 2112 
L 2253 1864 
z
M 1427 1510 
C 1254 1510 1011 1542 813 1922 
C 678 2169 678 2461 678 2771 
C 678 3146 678 3405 858 3684 
C 947 3817 1114 4032 1485 4032 
C 2240 4032 2240 2885 2240 2632 
C 2240 2182 2035 1510 1427 1510 
z
" transform="scale(0.015625)"/>
        <path id="CMR17-30" d="M 2688 2025 
C 2688 2416 2682 3080 2413 3591 
C 2176 4039 1798 4198 1466 4198 
C 1158 4198 768 4058 525 3597 
C 269 3118 243 2524 243 2025 
C 243 1661 250 1106 448 619 
C 723 -39 1216 -128 1466 -128 
C 1760 -128 2208 -7 2470 600 
C 2662 1042 2688 1559 2688 2025 
z
M 1466 -26 
C 1056 -26 813 325 723 812 
C 653 1188 653 1738 653 2096 
C 653 2588 653 2997 736 3387 
C 858 3929 1216 4096 1466 4096 
C 1728 4096 2067 3923 2189 3400 
C 2272 3036 2278 2607 2278 2096 
C 2278 1680 2278 1169 2202 792 
C 2067 95 1690 -26 1466 -26 
z
" transform="scale(0.015625)"/>
       </defs>
       <use xlink:href="#CMR17-38" transform="scale(0.996264)"/>
       <use xlink:href="#CMR17-39" transform="translate(45.690477 0)scale(0.996264)"/>
       <use xlink:href="#CMR17-30" transform="translate(91.380954 0)scale(0.996264)"/>
      </g>
     </g>
    </g>
    <g id="ytick_2">
     <g id="line2d_2">
      <g>
       <use xlink:href="#m1200373aa7" x="43.514379" y="25.283604" style="stroke: #000000; stroke-width: 0.8"/>
      </g>
     </g>
     <g id="text_2">
      <!-- $\mathdefault{900}$ -->
      <g transform="translate(18.955408 29.434694)scale(0.12 -0.12)">
       <use xlink:href="#CMR17-39" transform="scale(0.996264)"/>
       <use xlink:href="#CMR17-30" transform="translate(45.690477 0)scale(0.996264)"/>
       <use xlink:href="#CMR17-30" transform="translate(91.380954 0)scale(0.996264)"/>
      </g>
     </g>
    </g>
    <g id="ytick_3">
     <g id="line2d_3">
      <g>
       <use xlink:href="#m1200373aa7" x="43.514379" y="9.992748" style="stroke: #000000; stroke-width: 0.8"/>
      </g>
     </g>
     <g id="text_3">
      <!-- $\mathdefault{910}$ -->
      <g transform="translate(18.955408 14.143838)scale(0.12 -0.12)">
       <defs>
        <path id="CMR17-31" d="M 1702 4058 
C 1702 4192 1696 4192 1606 4192 
C 1357 3916 979 3827 621 3827 
C 602 3827 570 3827 563 3808 
C 557 3795 557 3782 557 3648 
C 755 3648 1088 3686 1344 3839 
L 1344 461 
C 1344 236 1331 160 781 160 
L 589 160 
L 589 0 
C 896 0 1216 0 1523 0 
C 1830 0 2150 0 2458 0 
L 2458 160 
L 2266 160 
C 1715 160 1702 230 1702 458 
L 1702 4058 
z
" transform="scale(0.015625)"/>
       </defs>
       <use xlink:href="#CMR17-39" transform="scale(0.996264)"/>
       <use xlink:href="#CMR17-31" transform="translate(45.690477 0)scale(0.996264)"/>
       <use xlink:href="#CMR17-30" transform="translate(91.380954 0)scale(0.996264)"/>
      </g>
     </g>
    </g>
    <g id="text_4">
     <!-- $\mathrm{z [\mu m]}$ -->
     <g transform="translate(11.966616 70.694208)rotate(-90)scale(0.12 -0.12)">
      <defs>
       <path id="CMR17-7a" d="M 2310 2605 
C 2362 2670 2362 2682 2362 2695 
C 2362 2752 2336 2752 2221 2752 
L 275 2752 
L 211 1760 
L 326 1760 
C 371 2381 442 2650 1178 2650 
L 1958 2650 
L 128 96 
C 128 0 134 0 269 0 
L 2291 0 
L 2381 1152 
L 2266 1152 
C 2214 442 2131 115 1350 115 
L 531 115 
L 2310 2605 
z
" transform="scale(0.015625)"/>
       <path id="CMR17-5b" d="M 1504 -1600 
L 1504 -1377 
L 902 -1377 
L 902 4544 
L 1504 4544 
L 1504 4767 
L 678 4767 
L 678 -1600 
L 1504 -1600 
z
" transform="scale(0.015625)"/>
       <path id="CMMI12-16" d="M 922 140 
C 1082 -6 1318 -64 1536 -64 
C 1946 -64 2227 208 2374 405 
C 2438 69 2707 -64 2931 -64 
C 3123 -64 3277 50 3392 277 
C 3494 493 3584 879 3584 903 
C 3584 935 3558 960 3520 960 
C 3462 960 3456 928 3430 834 
C 3334 461 3213 64 2950 64 
C 2765 64 2752 229 2752 358 
C 2752 504 2810 735 2854 926 
L 3034 1615 
C 3059 1737 3130 2023 3162 2139 
C 3200 2292 3270 2567 3270 2592 
C 3270 2688 3194 2752 3098 2752 
C 3040 2752 2906 2726 2854 2535 
L 2406 760 
C 2374 632 2374 619 2291 517 
C 2214 409 1965 64 1562 64 
C 1203 64 1088 326 1088 625 
C 1088 811 1146 1034 1171 1143 
L 1459 2293 
C 1491 2414 1542 2618 1542 2657 
C 1542 2759 1459 2816 1376 2816 
C 1318 2816 1178 2797 1126 2592 
L 198 -1107 
C 192 -1139 179 -1177 179 -1216 
C 179 -1312 256 -1376 352 -1376 
C 538 -1376 576 -1228 621 -1050 
L 922 140 
z
" transform="scale(0.015625)"/>
       <path id="CMR17-6d" d="M 4326 1933 
C 4326 2252 4269 2790 3507 2790 
C 3072 2790 2771 2496 2656 2151 
L 2650 2151 
C 2573 2676 2195 2790 1837 2790 
C 1331 2790 1069 2400 973 2144 
L 966 2144 
L 966 2790 
L 211 2720 
L 211 2554 
C 589 2554 646 2515 646 2208 
L 646 428 
C 646 184 621 153 211 153 
L 211 -13 
C 365 0 646 0 813 0 
C 979 0 1267 0 1421 -13 
L 1421 153 
C 1011 153 986 178 986 428 
L 986 1658 
C 986 2247 1344 2688 1792 2688 
C 2266 2688 2317 2266 2317 1958 
L 2317 428 
C 2317 184 2291 153 1882 153 
L 1882 -13 
C 2035 0 2317 0 2483 0 
C 2650 0 2938 0 3091 -13 
L 3091 153 
C 2682 153 2656 178 2656 428 
L 2656 1658 
C 2656 2247 3014 2688 3462 2688 
C 3936 2688 3987 2266 3987 1958 
L 3987 428 
C 3987 184 3962 153 3552 153 
L 3552 -13 
C 3706 0 3987 0 4154 0 
C 4320 0 4608 0 4762 -13 
L 4762 153 
C 4352 153 4326 178 4326 428 
L 4326 1933 
z
" transform="scale(0.015625)"/>
       <path id="CMR17-5d" d="M 915 4767 
L 90 4767 
L 90 4544 
L 691 4544 
L 691 -1377 
L 90 -1377 
L 90 -1600 
L 915 -1600 
L 915 4767 
z
" transform="scale(0.015625)"/>
      </defs>
      <use xlink:href="#CMR17-7a" transform="scale(0.996264)"/>
      <use xlink:href="#CMR17-5b" transform="translate(40.48566 0)scale(0.996264)"/>
      <use xlink:href="#CMMI12-16" transform="translate(65.356719 0)scale(0.996264)"/>
      <use xlink:href="#CMR17-6d" transform="translate(124.04814 0)scale(0.996264)"/>
      <use xlink:href="#CMR17-5d" transform="translate(200.96773 0)scale(0.996264)"/>
     </g>
    </g>
   </g>
   <g id="line2d_4">
    <path d="M 43.514379 50.054791 
L 44.144826 50.788752 
L 44.775274 49.229085 
L 45.407826 49.259667 
L 46.038273 50.115955 
L 46.671878 48.556287 
L 47.302326 49.259667 
L 47.933825 48.495124 
L 48.564273 49.290248 
L 49.197878 48.556287 
L 51.091325 48.464542 
L 51.723877 47.669418 
L 54.248824 47.669418 
L 54.880324 46.99662 
L 55.511824 47.761163 
L 56.143324 46.99662 
L 58.036771 46.966038 
L 58.669323 46.170914 
L 59.300823 46.170914 
L 59.93127 45.436953 
L 60.563823 45.406371 
L 61.196375 44.611247 
L 62.45727 44.733573 
L 63.089822 44.67241 
L 65.614769 44.825318 
L 66.246269 44.825318 
L 67.511374 43.479723 
L 68.140768 43.41856 
L 68.772268 43.510305 
L 69.403768 42.042383 
L 70.666768 42.134128 
L 72.561268 40.02399 
L 73.192767 40.880278 
L 73.824267 40.085153 
L 74.45682 39.993408 
L 76.350267 37.822106 
L 76.981767 38.556068 
L 77.614319 37.760943 
L 78.245819 37.760943 
L 78.876266 36.262439 
L 79.509871 37.088145 
L 80.140318 36.293021 
L 83.929318 36.445929 
L 84.560817 37.17989 
L 85.192317 37.271636 
L 85.823817 37.944433 
L 86.455317 37.118727 
L 87.086817 37.088145 
L 87.718317 36.293021 
L 88.982369 36.293021 
L 89.612816 36.323603 
L 90.243264 35.528478 
L 90.876868 35.528478 
L 91.506263 34.733354 
L 92.769263 34.763935 
L 94.033315 34.85568 
L 94.663763 34.060556 
L 95.296315 34.029974 
L 95.927815 33.296013 
L 97.189762 33.326595 
L 98.453814 31.950418 
L 99.085314 32.042163 
L 99.716814 31.27762 
L 100.978761 31.247038 
L 102.242814 29.84028 
L 102.874313 29.075737 
L 103.504761 29.932025 
L 104.135208 28.402939 
L 104.768813 28.464103 
L 106.031813 26.965599 
L 106.66226 27.730141 
L 107.294812 26.965599 
L 107.926312 26.99618 
L 108.557812 25.436513 
L 109.189312 26.292801 
L 110.453364 24.947206 
L 111.083812 25.069533 
L 111.715311 24.396735 
L 112.978311 24.48848 
L 113.609811 23.907427 
L 114.242363 23.938009 
L 114.874916 23.846264 
L 115.506416 23.112303 
L 116.137915 23.785101 
L 116.76731 23.05114 
L 117.400915 23.938009 
L 118.032415 23.999173 
L 118.662862 24.763715 
L 119.294362 24.824879 
L 119.92481 26.537455 
L 121.188862 26.568036 
L 121.820362 25.834075 
L 122.451862 25.834075 
L 123.083361 24.243826 
L 124.978914 24.213245 
L 126.240861 22.714741 
L 126.873413 22.714741 
L 127.50386 21.919616 
L 128.76686 21.98078 
L 129.396255 21.246818 
L 130.02986 21.338564 
L 130.66136 20.543439 
L 133.818859 20.421112 
L 134.449306 21.185655 
L 135.080806 19.687151 
L 136.975306 19.717733 
L 138.240411 18.310974 
L 138.870858 17.607595 
L 139.502358 18.463883 
L 140.13491 18.433301 
L 140.765358 16.934797 
L 141.396857 16.904215 
L 142.027305 16.231418 
L 142.659857 16.261999 
L 143.29241 15.528038 
L 144.554357 15.619783 
L 145.185857 14.824659 
L 145.817356 14.885822 
L 146.447804 13.448482 
L 147.080356 13.509645 
L 147.710804 12.867429 
L 148.343356 13.081501 
L 148.974856 16.995961 
L 149.606356 17.791085 
L 150.237855 17.760503 
L 150.869355 18.525046 
L 152.132355 18.58621 
L 152.764907 17.88283 
L 153.395355 17.913412 
L 154.026855 17.148869 
L 154.658355 17.210033 
L 155.289854 16.476071 
L 155.921354 17.240614 
L 157.183301 17.424104 
L 157.816906 17.393523 
L 158.447354 17.485268 
L 159.079906 16.81247 
L 159.711406 16.873634 
L 160.341853 16.261999 
L 160.973353 16.261999 
L 161.605905 16.44549 
L 162.867853 14.916404 
L 163.499353 14.916404 
L 164.130852 15.619783 
L 164.762352 14.090698 
L 165.393852 14.090698 
L 166.025352 13.4179 
L 166.655799 13.387318 
L 167.288352 12.653357 
L 167.918799 12.775684 
L 168.550299 12.011141 
L 169.814351 12.16405 
L 170.445851 12.072305 
L 171.077351 11.338344 
L 171.707798 11.27718 
L 172.340351 11.430089 
L 173.60335 11.399507 
L 174.23485 10.634964 
L 176.12935 10.573801 
L 176.76085 9.83984 
L 177.39235 10.512638 
L 178.023849 9.748095 
L 178.655349 9.809258 
L 179.286849 9.014134 
L 179.918349 9.075297 
L 180.550901 8.371918 
L 182.444348 8.341336 
L 183.074796 7.576793 
L 183.707348 7.576793 
L 184.338848 6.81225 
L 184.970348 6.81225 
L 186.2344 5.313747 
L 186.8659 6.078289 
L 187.495295 8.341336 
L 188.126795 7.576793 
L 188.7604 8.371918 
L 189.391899 7.637957 
L 190.022347 7.637957 
L 190.653847 6.81225 
L 191.285346 7.546211 
L 191.916846 6.781669 
L 192.548346 7.546211 
L 193.180899 7.546211 
L 193.180899 7.546211 
" clip-path="url(#p3419b0c5e2)" style="fill: none; stroke: #008000; stroke-linecap: square"/>
   </g>
   <g id="line2d_5">
    <path d="M 43.514379 51.583877 
L 44.144826 50.788752 
L 44.775274 49.229085 
L 45.407826 50.02421 
L 46.038273 50.115955 
L 46.671878 48.556287 
L 47.302326 49.259667 
L 47.933825 48.495124 
L 48.564273 48.525706 
L 49.197878 47.791745 
L 49.827272 48.556287 
L 50.460877 47.730581 
L 51.091325 47.699999 
L 51.723877 46.904875 
L 52.985824 46.904875 
L 53.617324 46.201496 
L 54.248824 46.904875 
L 54.880324 46.232077 
L 55.511824 46.99662 
L 56.143324 46.232077 
L 56.775876 46.232077 
L 57.406323 44.67241 
L 58.036771 45.436953 
L 58.669323 44.641828 
L 59.300823 44.641828 
L 59.93127 43.907867 
L 60.563823 43.877285 
L 61.196375 43.082161 
L 62.45727 43.204488 
L 63.089822 43.143324 
L 65.614769 43.296233 
L 66.246269 43.296233 
L 67.511374 43.479723 
L 68.140768 42.654017 
L 68.772268 42.745762 
L 69.403768 42.042383 
L 70.666768 42.134128 
L 71.298268 42.195291 
L 72.561268 40.788533 
L 73.192767 41.64482 
L 73.824267 40.085153 
L 74.45682 40.757951 
L 75.718767 39.259447 
L 76.350267 39.351192 
L 76.981767 39.32061 
L 77.614319 38.525486 
L 78.245819 38.525486 
L 78.876266 37.026982 
L 79.509871 37.852688 
L 80.140318 37.057564 
L 80.771818 37.088145 
L 81.402266 36.354184 
L 82.665265 36.415348 
L 83.297818 37.17989 
L 83.929318 37.210472 
L 85.823817 39.473519 
L 86.455317 38.647813 
L 87.086817 38.617231 
L 87.718317 37.822106 
L 88.349817 37.791525 
L 88.982369 36.293021 
L 89.612816 36.323603 
L 90.243264 35.528478 
L 90.876868 35.528478 
L 92.137763 33.938229 
L 94.033315 34.091138 
L 94.663763 33.296013 
L 95.296315 33.265431 
L 95.927815 32.53147 
L 97.821262 32.653797 
L 98.453814 31.950418 
L 99.085314 32.042163 
L 99.716814 31.27762 
L 100.978761 31.247038 
L 101.610261 31.369365 
L 102.874313 29.84028 
L 103.504761 30.696568 
L 104.135208 29.932025 
L 104.768813 29.993188 
L 106.031813 28.494684 
L 106.66226 29.259227 
L 107.294812 27.730141 
L 107.926312 28.525266 
L 108.557812 27.730141 
L 109.189312 27.821887 
L 109.820812 27.210252 
L 110.453364 27.240834 
L 111.083812 26.598618 
L 112.346811 26.720945 
L 112.978311 26.017566 
L 113.609811 26.201056 
L 114.242363 25.467095 
L 114.874916 25.37535 
L 115.506416 24.641389 
L 116.137915 24.549643 
L 116.76731 24.580225 
L 117.400915 25.467095 
L 118.032415 25.528258 
L 118.662862 27.057344 
L 119.294362 27.118507 
L 119.92481 28.831083 
L 120.556309 29.656789 
L 121.188862 29.626208 
L 121.820362 28.127704 
L 122.451862 28.127704 
L 123.083361 26.537455 
L 123.713809 27.301997 
L 124.346361 25.74233 
L 124.978914 25.74233 
L 126.240861 24.243826 
L 126.873413 24.243826 
L 127.50386 22.684159 
L 128.76686 22.745322 
L 129.396255 22.011361 
L 130.02986 22.103106 
L 130.66136 21.307982 
L 133.186307 21.216237 
L 133.818859 21.950198 
L 134.449306 21.950198 
L 135.080806 21.216237 
L 136.975306 21.246818 
L 137.605753 20.482276 
L 138.240411 20.604603 
L 138.870858 19.901223 
L 139.502358 19.992968 
L 140.13491 19.962387 
L 140.765358 19.228426 
L 141.396857 19.197844 
L 142.027305 19.289589 
L 142.659857 18.555628 
L 143.29241 18.58621 
L 143.922857 17.913412 
L 144.554357 18.677955 
L 145.185857 17.118287 
L 145.817356 17.943994 
L 146.447804 16.506653 
L 147.080356 17.332359 
L 147.710804 15.925601 
L 148.343356 16.904215 
L 148.974856 20.818675 
L 150.237855 20.818675 
L 150.869355 21.583217 
L 152.132355 21.644381 
L 152.764907 20.941001 
L 154.658355 21.032747 
L 155.289854 20.298785 
L 155.921354 21.063328 
L 157.183301 21.246818 
L 157.816906 21.216237 
L 158.447354 21.307982 
L 159.079906 20.635184 
L 159.711406 21.46089 
L 160.341853 20.849256 
L 160.973353 20.849256 
L 161.605905 20.268204 
L 162.2353 21.09391 
L 162.867853 19.503661 
L 163.499353 19.503661 
L 164.130852 20.20704 
L 164.762352 18.677955 
L 165.393852 19.442497 
L 166.025352 18.005157 
L 166.655799 17.974575 
L 167.288352 17.240614 
L 167.918799 18.127484 
L 168.550299 16.598398 
L 169.182851 17.485268 
L 169.814351 15.986764 
L 170.445851 16.659562 
L 171.077351 15.925601 
L 171.707798 15.864437 
L 172.340351 15.252803 
L 173.60335 15.222221 
L 174.23485 14.457678 
L 174.865298 14.427097 
L 175.49785 13.723717 
L 176.12935 13.631972 
L 176.76085 12.898011 
L 177.39235 13.570809 
L 178.023849 12.806266 
L 178.655349 12.867429 
L 179.286849 12.072305 
L 181.181349 12.194632 
L 181.812849 11.399507 
L 183.707348 11.399507 
L 184.338848 10.634964 
L 184.970348 10.634964 
L 185.601848 9.931585 
L 186.8659 9.901003 
L 187.495295 11.399507 
L 188.126795 11.399507 
L 188.7604 12.194632 
L 189.391899 11.460671 
L 190.022347 11.460671 
L 190.653847 10.634964 
L 191.285346 11.368926 
L 192.548346 11.368926 
L 193.180899 10.604383 
L 193.180899 10.604383 
" clip-path="url(#p3419b0c5e2)" style="fill: none; stroke: #ff0000; stroke-linecap: square"/>
   </g>
   <g id="line2d_6">
    <path d="M 41.269381 54.660841 
L 45.759377 53.133926 
" style="fill: none; stroke: #000000; stroke-linecap: square"/>
   </g>
   <g id="line2d_7">
    <path d="M 190.935901 54.660841 
L 195.425896 53.133926 
" style="fill: none; stroke: #000000; stroke-linecap: square"/>
   </g>
   <g id="patch_3">
    <path d="M 43.514379 53.897383 
L 43.514379 3.00024 
" style="fill: none; stroke: #000000; stroke-width: 0.8; stroke-linejoin: miter; stroke-linecap: square"/>
   </g>
   <g id="patch_4">
    <path d="M 193.180899 53.897383 
L 193.180899 3.00024 
" style="fill: none; stroke: #000000; stroke-width: 0.8; stroke-linejoin: miter; stroke-linecap: square"/>
   </g>
   <g id="patch_5">
    <path d="M 43.514379 3.00024 
L 193.180899 3.00024 
" style="fill: none; stroke: #000000; stroke-width: 0.8; stroke-linejoin: miter; stroke-linecap: square"/>
   </g>
  </g>
  <g id="axes_2">
   <g id="patch_6">
    <path d="M 43.514379 114.598919 
L 193.180899 114.598919 
L 193.180899 63.701775 
L 43.514379 63.701775 
z
" style="fill: #ffffff"/>
   </g>
   <g id="matplotlib.axis_3">
    <g id="xtick_8">
     <g id="line2d_8">
      <defs>
       <path id="mc7c9ec9eae" d="M 0 0 
L 0 3.5 
" style="stroke: #000000; stroke-width: 0.8"/>
      </defs>
      <g>
       <use xlink:href="#mc7c9ec9eae" x="43.514379" y="114.598919" style="stroke: #000000; stroke-width: 0.8"/>
      </g>
     </g>
     <g id="text_5">
      <!-- 00 -->
      <g transform="translate(37.661389 129.901098)scale(0.12 -0.12)">
       <use xlink:href="#CMR17-30" transform="scale(0.996264)"/>
       <use xlink:href="#CMR17-30" transform="translate(45.690477 0)scale(0.996264)"/>
      </g>
     </g>
    </g>
    <g id="xtick_9">
     <g id="line2d_9">
      <g>
       <use xlink:href="#mc7c9ec9eae" x="66.248374" y="114.598919" style="stroke: #000000; stroke-width: 0.8"/>
      </g>
     </g>
     <g id="text_6">
      <!-- 06 -->
      <g transform="translate(60.395384 129.901098)scale(0.12 -0.12)">
       <defs>
        <path id="CMR17-36" d="M 678 2176 
C 678 3690 1395 4032 1811 4032 
C 1946 4032 2272 4009 2400 3776 
C 2298 3776 2106 3776 2106 3553 
C 2106 3381 2246 3323 2336 3323 
C 2394 3323 2566 3348 2566 3560 
C 2566 3954 2246 4179 1805 4179 
C 1043 4179 243 3390 243 1984 
C 243 253 966 -128 1478 -128 
C 2099 -128 2688 427 2688 1283 
C 2688 2081 2170 2662 1517 2662 
C 1126 2662 838 2407 678 1960 
L 678 2176 
z
M 1478 25 
C 691 25 691 1200 691 1436 
C 691 1896 909 2560 1504 2560 
C 1613 2560 1926 2560 2138 2120 
C 2253 1870 2253 1609 2253 1289 
C 2253 944 2253 690 2118 434 
C 1978 171 1773 25 1478 25 
z
" transform="scale(0.015625)"/>
       </defs>
       <use xlink:href="#CMR17-30" transform="scale(0.996264)"/>
       <use xlink:href="#CMR17-36" transform="translate(45.690477 0)scale(0.996264)"/>
      </g>
     </g>
    </g>
    <g id="xtick_10">
     <g id="line2d_10">
      <g>
       <use xlink:href="#mc7c9ec9eae" x="88.982369" y="114.598919" style="stroke: #000000; stroke-width: 0.8"/>
      </g>
     </g>
     <g id="text_7">
      <!-- 12 -->
      <g transform="translate(83.129379 129.901098)scale(0.12 -0.12)">
       <defs>
        <path id="CMR17-32" d="M 2669 989 
L 2554 989 
C 2490 536 2438 459 2413 420 
C 2381 369 1920 369 1830 369 
L 602 369 
C 832 619 1280 1072 1824 1597 
C 2214 1967 2669 2402 2669 3035 
C 2669 3790 2067 4224 1395 4224 
C 691 4224 262 3604 262 3030 
C 262 2780 448 2748 525 2748 
C 589 2748 781 2787 781 3010 
C 781 3207 614 3264 525 3264 
C 486 3264 448 3258 422 3245 
C 544 3790 915 4058 1306 4058 
C 1862 4058 2227 3617 2227 3035 
C 2227 2479 1901 2000 1536 1584 
L 262 146 
L 262 0 
L 2515 0 
L 2669 989 
z
" transform="scale(0.015625)"/>
       </defs>
       <use xlink:href="#CMR17-31" transform="scale(0.996264)"/>
       <use xlink:href="#CMR17-32" transform="translate(45.690477 0)scale(0.996264)"/>
      </g>
     </g>
    </g>
    <g id="xtick_11">
     <g id="line2d_11">
      <g>
       <use xlink:href="#mc7c9ec9eae" x="111.716364" y="114.598919" style="stroke: #000000; stroke-width: 0.8"/>
      </g>
     </g>
     <g id="text_8">
      <!-- 18 -->
      <g transform="translate(105.863374 129.901098)scale(0.12 -0.12)">
       <use xlink:href="#CMR17-31" transform="scale(0.996264)"/>
       <use xlink:href="#CMR17-38" transform="translate(45.690477 0)scale(0.996264)"/>
      </g>
     </g>
    </g>
    <g id="xtick_12">
     <g id="line2d_12">
      <g>
       <use xlink:href="#mc7c9ec9eae" x="134.450359" y="114.598919" style="stroke: #000000; stroke-width: 0.8"/>
      </g>
     </g>
     <g id="text_9">
      <!-- 24 -->
      <g transform="translate(128.597369 129.901098)scale(0.12 -0.12)">
       <defs>
        <path id="CMR17-34" d="M 2150 4122 
C 2150 4256 2144 4256 2029 4256 
L 128 1254 
L 128 1088 
L 1779 1088 
L 1779 457 
C 1779 224 1766 160 1318 160 
L 1197 160 
L 1197 0 
C 1402 0 1747 0 1965 0 
C 2182 0 2528 0 2733 0 
L 2733 160 
L 2611 160 
C 2163 160 2150 224 2150 457 
L 2150 1088 
L 2803 1088 
L 2803 1254 
L 2150 1254 
L 2150 4122 
z
M 1798 3703 
L 1798 1254 
L 256 1254 
L 1798 3703 
z
" transform="scale(0.015625)"/>
       </defs>
       <use xlink:href="#CMR17-32" transform="scale(0.996264)"/>
       <use xlink:href="#CMR17-34" transform="translate(45.690477 0)scale(0.996264)"/>
      </g>
     </g>
    </g>
    <g id="xtick_13">
     <g id="line2d_13">
      <g>
       <use xlink:href="#mc7c9ec9eae" x="157.184354" y="114.598919" style="stroke: #000000; stroke-width: 0.8"/>
      </g>
     </g>
     <g id="text_10">
      <!-- 30 -->
      <g transform="translate(151.331364 129.901098)scale(0.12 -0.12)">
       <defs>
        <path id="CMR17-33" d="M 1414 2157 
C 1984 2157 2234 1662 2234 1090 
C 2234 320 1824 25 1453 25 
C 1114 25 563 194 390 693 
C 422 680 454 680 486 680 
C 640 680 755 782 755 948 
C 755 1133 614 1216 486 1216 
C 378 1216 211 1165 211 926 
C 211 335 787 -128 1466 -128 
C 2176 -128 2720 430 2720 1085 
C 2720 1707 2208 2157 1600 2227 
C 2086 2328 2554 2756 2554 3329 
C 2554 3820 2048 4179 1472 4179 
C 890 4179 378 3829 378 3329 
C 378 3110 544 3072 627 3072 
C 762 3072 877 3155 877 3321 
C 877 3486 762 3569 627 3569 
C 602 3569 570 3569 544 3557 
C 730 3959 1235 4032 1459 4032 
C 1683 4032 2106 3925 2106 3320 
C 2106 3143 2080 2828 1862 2550 
C 1670 2304 1453 2304 1242 2284 
C 1210 2284 1062 2269 1037 2269 
C 992 2263 966 2257 966 2208 
C 966 2163 973 2157 1101 2157 
L 1414 2157 
z
" transform="scale(0.015625)"/>
       </defs>
       <use xlink:href="#CMR17-33" transform="scale(0.996264)"/>
       <use xlink:href="#CMR17-30" transform="translate(45.690477 0)scale(0.996264)"/>
      </g>
     </g>
    </g>
    <g id="xtick_14">
     <g id="line2d_14">
      <g>
       <use xlink:href="#mc7c9ec9eae" x="179.918349" y="114.598919" style="stroke: #000000; stroke-width: 0.8"/>
      </g>
     </g>
     <g id="text_11">
      <!-- 36 -->
      <g transform="translate(174.065359 129.901098)scale(0.12 -0.12)">
       <use xlink:href="#CMR17-33" transform="scale(0.996264)"/>
       <use xlink:href="#CMR17-36" transform="translate(45.690477 0)scale(0.996264)"/>
      </g>
     </g>
    </g>
    <g id="text_12">
     <!-- time [h] -->
     <g transform="translate(98.512505 145.19207)scale(0.12 -0.12)">
      <defs>
       <path id="CMR17-74" d="M 966 2560 
L 1862 2560 
L 1862 2725 
L 966 2725 
L 966 3904 
L 851 3904 
C 838 3245 614 2668 70 2668 
L 70 2560 
L 627 2560 
L 627 771 
C 627 650 627 -64 1370 -64 
C 1747 -64 1965 306 1965 777 
L 1965 1140 
L 1850 1140 
L 1850 783 
C 1850 344 1677 51 1408 51 
C 1222 51 966 178 966 758 
L 966 2560 
z
" transform="scale(0.015625)"/>
       <path id="CMR17-69" d="M 992 3909 
C 992 4049 877 4170 730 4170 
C 589 4170 467 4056 467 3909 
C 467 3769 582 3648 730 3648 
C 870 3648 992 3763 992 3909 
z
M 243 2706 
L 243 2541 
C 602 2541 653 2502 653 2197 
L 653 427 
C 653 184 627 153 218 153 
L 218 -13 
C 371 0 646 0 806 0 
C 960 0 1222 0 1370 -13 
L 1370 153 
C 992 153 979 191 979 420 
L 979 2776 
L 243 2706 
z
" transform="scale(0.015625)"/>
       <path id="CMR17-65" d="M 2438 1472 
C 2464 1498 2464 1511 2464 1576 
C 2464 2238 2118 2816 1389 2816 
C 710 2816 173 2169 173 1383 
C 173 551 781 -64 1459 -64 
C 2176 -64 2458 607 2458 740 
C 2458 784 2419 784 2406 784 
C 2362 784 2355 771 2330 696 
C 2189 265 1837 51 1504 51 
C 1229 51 954 203 781 480 
C 582 803 582 1176 582 1472 
L 2438 1472 
z
M 589 1568 
C 634 2505 1126 2714 1382 2714 
C 1818 2714 2112 2297 2118 1568 
L 589 1568 
z
" transform="scale(0.015625)"/>
       <path id="CMR17-68" d="M 2656 1933 
C 2656 2259 2592 2790 1837 2790 
C 1312 2790 1056 2368 979 2157 
L 973 2157 
L 973 4396 
L 211 4326 
L 211 4160 
C 589 4160 646 4122 646 3817 
L 646 426 
C 646 184 621 153 211 153 
L 211 -13 
C 365 0 646 0 813 0 
C 979 0 1267 0 1421 -13 
L 1421 153 
C 1011 153 986 178 986 428 
L 986 1658 
C 986 2247 1344 2688 1792 2688 
C 2266 2688 2317 2266 2317 1958 
L 2317 428 
C 2317 184 2291 153 1882 153 
L 1882 -13 
C 2035 0 2317 0 2483 0 
C 2650 0 2938 0 3091 -13 
L 3091 153 
C 2682 153 2656 178 2656 428 
L 2656 1933 
z
" transform="scale(0.015625)"/>
      </defs>
      <use xlink:href="#CMR17-74" transform="scale(0.996264)"/>
      <use xlink:href="#CMR17-69" transform="translate(35.280768 0)scale(0.996264)"/>
      <use xlink:href="#CMR17-6d" transform="translate(60.151826 0)scale(0.996264)"/>
      <use xlink:href="#CMR17-65" transform="translate(137.071416 0)scale(0.996264)"/>
      <use xlink:href="#CMR17-5b" transform="translate(207.633043 0)scale(0.996264)"/>
      <use xlink:href="#CMR17-68" transform="translate(232.504101 0)scale(0.996264)"/>
      <use xlink:href="#CMR17-5d" transform="translate(283.399471 0)scale(0.996264)"/>
     </g>
    </g>
   </g>
   <g id="matplotlib.axis_4">
    <g id="ytick_4">
     <g id="line2d_15">
      <g>
       <use xlink:href="#m1200373aa7" x="43.514379" y="103.987635" style="stroke: #000000; stroke-width: 0.8"/>
      </g>
     </g>
     <g id="text_13">
      <!-- $\mathdefault{790}$ -->
      <g transform="translate(18.955408 108.138725)scale(0.12 -0.12)">
       <defs>
        <path id="CMR17-37" d="M 2886 3941 
L 2886 4081 
L 1382 4081 
C 634 4081 621 4165 595 4288 
L 480 4288 
L 294 3094 
L 410 3094 
C 429 3215 474 3540 550 3661 
C 589 3712 1062 3712 1171 3712 
L 2579 3712 
L 1869 2661 
C 1395 1954 1069 999 1069 165 
C 1069 89 1069 -128 1299 -128 
C 1530 -128 1530 89 1530 171 
L 1530 465 
C 1530 1508 1709 2196 2003 2636 
L 2886 3941 
z
" transform="scale(0.015625)"/>
       </defs>
       <use xlink:href="#CMR17-37" transform="scale(0.996264)"/>
       <use xlink:href="#CMR17-39" transform="translate(45.690477 0)scale(0.996264)"/>
       <use xlink:href="#CMR17-30" transform="translate(91.380954 0)scale(0.996264)"/>
      </g>
     </g>
    </g>
    <g id="ytick_5">
     <g id="line2d_16">
      <g>
       <use xlink:href="#m1200373aa7" x="43.514379" y="88.564259" style="stroke: #000000; stroke-width: 0.8"/>
      </g>
     </g>
     <g id="text_14">
      <!-- $\mathdefault{800}$ -->
      <g transform="translate(18.955408 92.715349)scale(0.12 -0.12)">
       <use xlink:href="#CMR17-38" transform="scale(0.996264)"/>
       <use xlink:href="#CMR17-30" transform="translate(45.690477 0)scale(0.996264)"/>
       <use xlink:href="#CMR17-30" transform="translate(91.380954 0)scale(0.996264)"/>
      </g>
     </g>
    </g>
    <g id="ytick_6">
     <g id="line2d_17">
      <g>
       <use xlink:href="#m1200373aa7" x="43.514379" y="73.140882" style="stroke: #000000; stroke-width: 0.8"/>
      </g>
     </g>
     <g id="text_15">
      <!-- $\mathdefault{810}$ -->
      <g transform="translate(18.955408 77.291972)scale(0.12 -0.12)">
       <use xlink:href="#CMR17-38" transform="scale(0.996264)"/>
       <use xlink:href="#CMR17-31" transform="translate(45.690477 0)scale(0.996264)"/>
       <use xlink:href="#CMR17-30" transform="translate(91.380954 0)scale(0.996264)"/>
      </g>
     </g>
    </g>
   </g>
   <g id="line2d_18">
    <path d="M 43.514379 112.285412 
L 44.145879 110.743074 
L 44.777379 111.514243 
L 45.408878 111.514243 
L 46.040378 109.971906 
L 46.671878 110.743074 
L 47.303378 109.971906 
L 47.933825 109.971906 
L 48.566378 109.200737 
L 49.197878 109.971906 
L 49.829377 109.200737 
L 50.460877 109.200737 
L 51.092377 108.429568 
L 52.355377 108.429568 
L 52.986877 107.658399 
L 53.618377 108.429568 
L 54.249877 107.658399 
L 54.881376 108.429568 
L 55.512876 107.658399 
L 56.144376 107.658399 
L 56.775876 106.116061 
L 57.407376 106.88723 
L 58.038876 106.116061 
L 58.670376 106.116061 
L 59.301875 105.344893 
L 59.933375 105.344893 
L 60.564875 104.573724 
L 66.879874 104.573724 
L 67.511374 103.802555 
L 68.142873 103.802555 
L 68.774373 103.031386 
L 70.668873 103.031386 
L 71.931873 101.489048 
L 72.563373 102.260217 
L 73.194872 100.71788 
L 73.826372 101.489048 
L 75.089372 99.946711 
L 76.352372 99.946711 
L 76.983872 99.175542 
L 77.615371 99.175542 
L 78.246871 97.633204 
L 78.878371 98.404373 
L 79.509871 97.633204 
L 80.141371 97.633204 
L 80.772871 96.862035 
L 82.03587 96.862035 
L 82.66737 97.633204 
L 83.29887 97.633204 
L 85.19337 99.946711 
L 85.82487 99.175542 
L 86.456369 99.175542 
L 87.087869 98.404373 
L 87.719369 98.404373 
L 88.350869 96.862035 
L 88.982369 96.862035 
L 89.613869 96.090867 
L 90.244316 96.090867 
L 91.508368 94.548529 
L 93.402868 94.548529 
L 94.034368 93.77736 
L 94.665868 93.77736 
L 95.297368 93.006191 
L 97.191867 93.006191 
L 97.823367 92.235022 
L 98.454867 92.235022 
L 99.086367 91.463854 
L 100.980866 91.463854 
L 102.243866 89.921516 
L 102.875366 90.692685 
L 103.506866 89.921516 
L 104.138366 89.921516 
L 105.401365 88.379178 
L 106.032865 89.150347 
L 106.664365 87.608009 
L 107.295865 88.379178 
L 107.927365 87.608009 
L 108.558865 87.608009 
L 109.190364 86.83684 
L 109.821864 86.83684 
L 110.453364 86.065672 
L 111.715311 86.065672 
L 112.347864 85.294503 
L 112.979364 85.294503 
L 113.610864 84.523334 
L 114.242363 84.523334 
L 114.873863 83.752165 
L 116.13581 83.752165 
L 116.768363 84.523334 
L 117.399863 84.523334 
L 118.031363 86.065672 
L 118.662862 86.065672 
L 119.294362 87.608009 
L 119.925862 88.379178 
L 120.557362 88.379178 
L 121.188862 86.83684 
L 121.820362 86.83684 
L 122.451862 85.294503 
L 123.083361 86.065672 
L 123.714861 84.523334 
L 124.345309 84.523334 
L 125.609361 82.980996 
L 126.240861 82.980996 
L 126.872361 81.438659 
L 128.13536 81.438659 
L 128.76686 80.66749 
L 129.39836 80.66749 
L 130.02986 79.896321 
L 132.555859 79.896321 
L 133.187359 80.66749 
L 133.818859 80.66749 
L 134.450359 79.896321 
L 136.344859 79.896321 
L 136.976358 79.125152 
L 137.608911 79.125152 
L 138.240411 78.353983 
L 139.50341 78.353983 
L 140.13491 77.582814 
L 141.39791 77.582814 
L 142.030462 76.811646 
L 142.66091 76.811646 
L 143.29241 76.040477 
L 143.923909 76.811646 
L 144.556462 75.269308 
L 145.186909 76.040477 
L 145.818409 74.498139 
L 146.449909 75.269308 
L 147.081409 73.72697 
L 147.712909 74.498139 
L 148.344408 78.353983 
L 149.607408 78.353983 
L 150.238908 79.125152 
L 151.501908 79.125152 
L 152.133408 78.353983 
L 154.027907 78.353983 
L 154.659407 77.582814 
L 155.290907 78.353983 
L 157.816906 78.353983 
L 158.448406 77.582814 
L 159.079906 78.353983 
L 159.711406 77.582814 
L 160.342906 77.582814 
L 160.975458 76.811646 
L 161.606958 77.582814 
L 162.238458 76.040477 
L 162.868905 76.040477 
L 163.500405 76.811646 
L 164.131905 75.269308 
L 164.763405 76.040477 
L 165.394905 74.498139 
L 166.026405 74.498139 
L 166.657904 73.72697 
L 167.289404 74.498139 
L 167.920904 72.955801 
L 168.553456 73.72697 
L 169.183904 72.184633 
L 169.815404 72.955801 
L 170.446904 72.184633 
L 171.078403 72.184633 
L 171.709903 71.413464 
L 172.972903 71.413464 
L 173.604403 70.642295 
L 174.235903 70.642295 
L 174.867403 69.871126 
L 175.498902 69.871126 
L 176.130402 69.099957 
L 176.762955 69.871126 
L 177.393402 69.099957 
L 178.024902 69.099957 
L 178.656402 68.328788 
L 180.551954 68.328788 
L 181.182401 67.557619 
L 183.076901 67.557619 
L 183.708401 66.786451 
L 184.339901 66.786451 
L 184.9714 66.015282 
L 186.2344 66.015282 
L 186.8659 67.557619 
L 187.4974 67.557619 
L 188.129952 68.328788 
L 188.7604 67.557619 
L 189.391899 67.557619 
L 190.023399 66.786451 
L 190.654899 67.557619 
L 191.917899 67.557619 
L 192.549399 66.786451 
L 193.180899 67.557619 
L 196.338398 67.557619 
L 196.969898 66.786451 
L 197.601398 66.786451 
L 198.232897 66.015282 
L 199.425197 66.015282 
L 199.425197 66.015282 
" clip-path="url(#p0b2cee69f2)" style="fill: none; stroke: #000000; stroke-linecap: square"/>
   </g>
   <g id="line2d_19">
    <path d="M 41.269381 64.465232 
L 45.759377 62.938318 
" style="fill: none; stroke: #000000; stroke-linecap: square"/>
   </g>
   <g id="line2d_20">
    <path d="M 190.935901 64.465232 
L 195.425896 62.938318 
" style="fill: none; stroke: #000000; stroke-linecap: square"/>
   </g>
   <g id="patch_7">
    <path d="M 43.514379 114.598919 
L 43.514379 63.701775 
" style="fill: none; stroke: #000000; stroke-width: 0.8; stroke-linejoin: miter; stroke-linecap: square"/>
   </g>
   <g id="patch_8">
    <path d="M 193.180899 114.598919 
L 193.180899 63.701775 
" style="fill: none; stroke: #000000; stroke-width: 0.8; stroke-linejoin: miter; stroke-linecap: square"/>
   </g>
   <g id="patch_9">
    <path d="M 43.514379 114.598919 
L 193.180899 114.598919 
" style="fill: none; stroke: #000000; stroke-width: 0.8; stroke-linejoin: miter; stroke-linecap: square"/>
   </g>
  </g>
 </g>
 <defs>
  <clipPath id="p3419b0c5e2">
   <rect x="43.514379" y="3.00024" width="149.66652" height="50.897143"/>
  </clipPath>
  <clipPath id="p0b2cee69f2">
   <rect x="43.514379" y="63.701775" width="149.66652" height="50.897143"/>
  </clipPath>
 </defs>
</svg>
