<?xml version="1.0" encoding="utf-8" standalone="no"?>
<!DOCTYPE svg PUBLIC "-//W3C//DTD SVG 1.1//EN"
  "http://www.w3.org/Graphics/SVG/1.1/DTD/svg11.dtd">
<svg xmlns:xlink="http://www.w3.org/1999/xlink" width="432pt" height="288pt" viewBox="0 0 432 288" xmlns="http://www.w3.org/2000/svg" version="1.1">
 <metadata>
  <rdf:RDF xmlns:dc="http://purl.org/dc/elements/1.1/" xmlns:cc="http://creativecommons.org/ns#" xmlns:rdf="http://www.w3.org/1999/02/22-rdf-syntax-ns#">
   <cc:Work>
    <dc:type rdf:resource="http://purl.org/dc/dcmitype/StillImage"/>
    <dc:date>2024-06-14T17:19:37.317790</dc:date>
    <dc:format>image/svg+xml</dc:format>
    <dc:creator>
     <cc:Agent>
      <dc:title>Matplotlib v3.7.0, https://matplotlib.org/</dc:title>
     </cc:Agent>
    </dc:creator>
   </cc:Work>
  </rdf:RDF>
 </metadata>
 <defs>
  <style type="text/css">*{stroke-linejoin: round; stroke-linecap: butt}</style>
 </defs>
 <g id="figure_1">
  <g id="patch_1">
   <path d="M 0 288 
L 432 288 
L 432 0 
L 0 0 
z
" style="fill: #ffffff"/>
  </g>
  <g id="axes_1">
   <g id="patch_2">
    <path d="M 80.13149 235.28726 
L 413.096635 235.28726 
L 413.096635 3.00024 
L 80.13149 3.00024 
z
" style="fill: #ffffff"/>
   </g>
   <g id="matplotlib.axis_1">
    <g id="xtick_1">
     <g id="line2d_1">
      <defs>
       <path id="m69206e49ef" d="M 0 0 
L 0 3.5 
" style="stroke: #000000; stroke-width: 0.8"/>
      </defs>
      <g>
       <use xlink:href="#m69206e49ef" x="80.13149" y="235.28726" style="stroke: #000000; stroke-width: 0.8"/>
      </g>
     </g>
     <g id="text_1">
      <!-- −1.0 -->
      <g transform="translate(55.848678 257.484135) scale(0.2 -0.2)">
       <defs>
        <path id="DejaVuSans-2212" d="M 678 2272 
L 4684 2272 
L 4684 1741 
L 678 1741 
L 678 2272 
z
" transform="scale(0.015625)"/>
        <path id="DejaVuSans-31" d="M 794 531 
L 1825 531 
L 1825 4091 
L 703 3866 
L 703 4441 
L 1819 4666 
L 2450 4666 
L 2450 531 
L 3481 531 
L 3481 0 
L 794 0 
L 794 531 
z
" transform="scale(0.015625)"/>
        <path id="DejaVuSans-2e" d="M 684 794 
L 1344 794 
L 1344 0 
L 684 0 
L 684 794 
z
" transform="scale(0.015625)"/>
        <path id="DejaVuSans-30" d="M 2034 4250 
Q 1547 4250 1301 3770 
Q 1056 3291 1056 2328 
Q 1056 1369 1301 889 
Q 1547 409 2034 409 
Q 2525 409 2770 889 
Q 3016 1369 3016 2328 
Q 3016 3291 2770 3770 
Q 2525 4250 2034 4250 
z
M 2034 4750 
Q 2819 4750 3233 4129 
Q 3647 3509 3647 2328 
Q 3647 1150 3233 529 
Q 2819 -91 2034 -91 
Q 1250 -91 836 529 
Q 422 1150 422 2328 
Q 422 3509 836 4129 
Q 1250 4750 2034 4750 
z
" transform="scale(0.015625)"/>
       </defs>
       <use xlink:href="#DejaVuSans-2212"/>
       <use xlink:href="#DejaVuSans-31" x="83.789062"/>
       <use xlink:href="#DejaVuSans-2e" x="147.412109"/>
       <use xlink:href="#DejaVuSans-30" x="179.199219"/>
      </g>
     </g>
    </g>
    <g id="xtick_2">
     <g id="line2d_2">
      <g>
       <use xlink:href="#m69206e49ef" x="163.372776" y="235.28726" style="stroke: #000000; stroke-width: 0.8"/>
      </g>
     </g>
     <g id="text_2">
      <!-- −0.5 -->
      <g transform="translate(139.089964 257.484135) scale(0.2 -0.2)">
       <defs>
        <path id="DejaVuSans-35" d="M 691 4666 
L 3169 4666 
L 3169 4134 
L 1269 4134 
L 1269 2991 
Q 1406 3038 1543 3061 
Q 1681 3084 1819 3084 
Q 2600 3084 3056 2656 
Q 3513 2228 3513 1497 
Q 3513 744 3044 326 
Q 2575 -91 1722 -91 
Q 1428 -91 1123 -41 
Q 819 9 494 109 
L 494 744 
Q 775 591 1075 516 
Q 1375 441 1709 441 
Q 2250 441 2565 725 
Q 2881 1009 2881 1497 
Q 2881 1984 2565 2268 
Q 2250 2553 1709 2553 
Q 1456 2553 1204 2497 
Q 953 2441 691 2322 
L 691 4666 
z
" transform="scale(0.015625)"/>
       </defs>
       <use xlink:href="#DejaVuSans-2212"/>
       <use xlink:href="#DejaVuSans-30" x="83.789062"/>
       <use xlink:href="#DejaVuSans-2e" x="147.412109"/>
       <use xlink:href="#DejaVuSans-35" x="179.199219"/>
      </g>
     </g>
    </g>
    <g id="xtick_3">
     <g id="line2d_3">
      <g>
       <use xlink:href="#m69206e49ef" x="246.614063" y="235.28726" style="stroke: #000000; stroke-width: 0.8"/>
      </g>
     </g>
     <g id="text_3">
      <!-- 0.0 -->
      <g transform="translate(230.710938 257.484135) scale(0.2 -0.2)">
       <use xlink:href="#DejaVuSans-30"/>
       <use xlink:href="#DejaVuSans-2e" x="63.623047"/>
       <use xlink:href="#DejaVuSans-30" x="95.410156"/>
      </g>
     </g>
    </g>
    <g id="xtick_4">
     <g id="line2d_4">
      <g>
       <use xlink:href="#m69206e49ef" x="329.855349" y="235.28726" style="stroke: #000000; stroke-width: 0.8"/>
      </g>
     </g>
     <g id="text_4">
      <!-- 0.5 -->
      <g transform="translate(313.952224 257.484135) scale(0.2 -0.2)">
       <use xlink:href="#DejaVuSans-30"/>
       <use xlink:href="#DejaVuSans-2e" x="63.623047"/>
       <use xlink:href="#DejaVuSans-35" x="95.410156"/>
      </g>
     </g>
    </g>
    <g id="xtick_5">
     <g id="line2d_5">
      <g>
       <use xlink:href="#m69206e49ef" x="413.096635" y="235.28726" style="stroke: #000000; stroke-width: 0.8"/>
      </g>
     </g>
     <g id="text_5">
      <!-- 1.0 -->
      <g transform="translate(397.19351 257.484135) scale(0.2 -0.2)">
       <use xlink:href="#DejaVuSans-31"/>
       <use xlink:href="#DejaVuSans-2e" x="63.623047"/>
       <use xlink:href="#DejaVuSans-30" x="95.410156"/>
      </g>
     </g>
    </g>
    <g id="text_6">
     <!-- $z-z_{focus}$ -->
     <g transform="translate(204.814063 280.840385) scale(0.2 -0.2)">
      <defs>
       <path id="DejaVuSans-Oblique-7a" d="M 744 3500 
L 3475 3500 
L 3372 2975 
L 738 459 
L 2913 459 
L 2822 0 
L -19 0 
L 84 525 
L 2719 3041 
L 653 3041 
L 744 3500 
z
" transform="scale(0.015625)"/>
       <path id="DejaVuSans-Oblique-66" d="M 3059 4863 
L 2969 4384 
L 2419 4384 
Q 2106 4384 1964 4261 
Q 1822 4138 1753 3809 
L 1691 3500 
L 2638 3500 
L 2553 3053 
L 1606 3053 
L 1013 0 
L 434 0 
L 1031 3053 
L 481 3053 
L 563 3500 
L 1113 3500 
L 1159 3744 
Q 1278 4363 1576 4613 
Q 1875 4863 2516 4863 
L 3059 4863 
z
" transform="scale(0.015625)"/>
       <path id="DejaVuSans-Oblique-6f" d="M 1625 -91 
Q 1009 -91 651 289 
Q 294 669 294 1325 
Q 294 1706 417 2101 
Q 541 2497 738 2766 
Q 1047 3184 1428 3384 
Q 1809 3584 2291 3584 
Q 2888 3584 3255 3212 
Q 3622 2841 3622 2241 
Q 3622 1825 3500 1412 
Q 3378 1000 3181 728 
Q 2875 309 2494 109 
Q 2113 -91 1625 -91 
z
M 891 1344 
Q 891 869 1089 633 
Q 1288 397 1691 397 
Q 2269 397 2648 901 
Q 3028 1406 3028 2181 
Q 3028 2634 2825 2865 
Q 2622 3097 2228 3097 
Q 1903 3097 1650 2945 
Q 1397 2794 1197 2484 
Q 1050 2253 970 1956 
Q 891 1659 891 1344 
z
" transform="scale(0.015625)"/>
       <path id="DejaVuSans-Oblique-63" d="M 3431 3366 
L 3316 2797 
Q 3109 2947 2876 3022 
Q 2644 3097 2394 3097 
Q 2119 3097 1870 3000 
Q 1622 2903 1453 2725 
Q 1184 2453 1037 2087 
Q 891 1722 891 1331 
Q 891 859 1127 628 
Q 1363 397 1844 397 
Q 2081 397 2348 469 
Q 2616 541 2906 684 
L 2797 116 
Q 2547 13 2283 -39 
Q 2019 -91 1741 -91 
Q 1044 -91 669 257 
Q 294 606 294 1253 
Q 294 1797 489 2255 
Q 684 2713 1069 3078 
Q 1331 3328 1684 3456 
Q 2038 3584 2456 3584 
Q 2700 3584 2940 3529 
Q 3181 3475 3431 3366 
z
" transform="scale(0.015625)"/>
       <path id="DejaVuSans-Oblique-75" d="M 428 1388 
L 838 3500 
L 1416 3500 
L 1006 1409 
Q 975 1256 961 1147 
Q 947 1038 947 966 
Q 947 700 1109 554 
Q 1272 409 1569 409 
Q 2031 409 2368 721 
Q 2706 1034 2809 1563 
L 3194 3500 
L 3769 3500 
L 3091 0 
L 2516 0 
L 2631 550 
Q 2388 244 2052 76 
Q 1716 -91 1338 -91 
Q 878 -91 622 161 
Q 366 413 366 863 
Q 366 956 381 1097 
Q 397 1238 428 1388 
z
" transform="scale(0.015625)"/>
       <path id="DejaVuSans-Oblique-73" d="M 3200 3397 
L 3091 2853 
Q 2863 2978 2609 3040 
Q 2356 3103 2088 3103 
Q 1634 3103 1373 2948 
Q 1113 2794 1113 2528 
Q 1113 2219 1719 2053 
Q 1766 2041 1788 2034 
L 1972 1978 
Q 2547 1819 2739 1644 
Q 2931 1469 2931 1166 
Q 2931 609 2489 259 
Q 2047 -91 1331 -91 
Q 1053 -91 747 -37 
Q 441 16 72 128 
L 184 722 
Q 500 559 806 475 
Q 1113 391 1394 391 
Q 1816 391 2080 572 
Q 2344 753 2344 1031 
Q 2344 1331 1650 1516 
L 1591 1531 
L 1394 1581 
Q 956 1697 753 1886 
Q 550 2075 550 2369 
Q 550 2928 970 3256 
Q 1391 3584 2113 3584 
Q 2397 3584 2667 3537 
Q 2938 3491 3200 3397 
z
" transform="scale(0.015625)"/>
      </defs>
      <use xlink:href="#DejaVuSans-Oblique-7a" transform="translate(0 0.3125)"/>
      <use xlink:href="#DejaVuSans-2212" transform="translate(71.972656 0.3125)"/>
      <use xlink:href="#DejaVuSans-Oblique-7a" transform="translate(175.244141 0.3125)"/>
      <use xlink:href="#DejaVuSans-Oblique-66" transform="translate(227.734375 -16.09375) scale(0.7)"/>
      <use xlink:href="#DejaVuSans-Oblique-6f" transform="translate(252.37793 -16.09375) scale(0.7)"/>
      <use xlink:href="#DejaVuSans-Oblique-63" transform="translate(295.205078 -16.09375) scale(0.7)"/>
      <use xlink:href="#DejaVuSans-Oblique-75" transform="translate(333.691406 -16.09375) scale(0.7)"/>
      <use xlink:href="#DejaVuSans-Oblique-73" transform="translate(378.056641 -16.09375) scale(0.7)"/>
     </g>
    </g>
   </g>
   <g id="matplotlib.axis_2">
    <g id="ytick_1">
     <g id="line2d_6">
      <defs>
       <path id="m5db37b1de5" d="M 0 0 
L -3.5 0 
" style="stroke: #000000; stroke-width: 0.8"/>
      </defs>
      <g>
       <use xlink:href="#m5db37b1de5" x="80.13149" y="224.728759" style="stroke: #000000; stroke-width: 0.8"/>
      </g>
     </g>
     <g id="text_7">
      <!-- 0.00 -->
      <g transform="translate(28.60024 232.327197) scale(0.2 -0.2)">
       <use xlink:href="#DejaVuSans-30"/>
       <use xlink:href="#DejaVuSans-2e" x="63.623047"/>
       <use xlink:href="#DejaVuSans-30" x="95.410156"/>
       <use xlink:href="#DejaVuSans-30" x="159.033203"/>
      </g>
     </g>
    </g>
    <g id="ytick_2">
     <g id="line2d_7">
      <g>
       <use xlink:href="#m5db37b1de5" x="80.13149" y="171.936255" style="stroke: #000000; stroke-width: 0.8"/>
      </g>
     </g>
     <g id="text_8">
      <!-- 0.25 -->
      <g transform="translate(28.60024 179.534692) scale(0.2 -0.2)">
       <defs>
        <path id="DejaVuSans-32" d="M 1228 531 
L 3431 531 
L 3431 0 
L 469 0 
L 469 531 
Q 828 903 1448 1529 
Q 2069 2156 2228 2338 
Q 2531 2678 2651 2914 
Q 2772 3150 2772 3378 
Q 2772 3750 2511 3984 
Q 2250 4219 1831 4219 
Q 1534 4219 1204 4116 
Q 875 4013 500 3803 
L 500 4441 
Q 881 4594 1212 4672 
Q 1544 4750 1819 4750 
Q 2544 4750 2975 4387 
Q 3406 4025 3406 3419 
Q 3406 3131 3298 2873 
Q 3191 2616 2906 2266 
Q 2828 2175 2409 1742 
Q 1991 1309 1228 531 
z
" transform="scale(0.015625)"/>
       </defs>
       <use xlink:href="#DejaVuSans-30"/>
       <use xlink:href="#DejaVuSans-2e" x="63.623047"/>
       <use xlink:href="#DejaVuSans-32" x="95.410156"/>
       <use xlink:href="#DejaVuSans-35" x="159.033203"/>
      </g>
     </g>
    </g>
    <g id="ytick_3">
     <g id="line2d_8">
      <g>
       <use xlink:href="#m5db37b1de5" x="80.13149" y="119.14375" style="stroke: #000000; stroke-width: 0.8"/>
      </g>
     </g>
     <g id="text_9">
      <!-- 0.50 -->
      <g transform="translate(28.60024 126.742187) scale(0.2 -0.2)">
       <use xlink:href="#DejaVuSans-30"/>
       <use xlink:href="#DejaVuSans-2e" x="63.623047"/>
       <use xlink:href="#DejaVuSans-35" x="95.410156"/>
       <use xlink:href="#DejaVuSans-30" x="159.033203"/>
      </g>
     </g>
    </g>
    <g id="ytick_4">
     <g id="line2d_9">
      <g>
       <use xlink:href="#m5db37b1de5" x="80.13149" y="66.351245" style="stroke: #000000; stroke-width: 0.8"/>
      </g>
     </g>
     <g id="text_10">
      <!-- 0.75 -->
      <g transform="translate(28.60024 73.949683) scale(0.2 -0.2)">
       <defs>
        <path id="DejaVuSans-37" d="M 525 4666 
L 3525 4666 
L 3525 4397 
L 1831 0 
L 1172 0 
L 2766 4134 
L 525 4134 
L 525 4666 
z
" transform="scale(0.015625)"/>
       </defs>
       <use xlink:href="#DejaVuSans-30"/>
       <use xlink:href="#DejaVuSans-2e" x="63.623047"/>
       <use xlink:href="#DejaVuSans-37" x="95.410156"/>
       <use xlink:href="#DejaVuSans-35" x="159.033203"/>
      </g>
     </g>
    </g>
    <g id="ytick_5">
     <g id="line2d_10">
      <g>
       <use xlink:href="#m5db37b1de5" x="80.13149" y="13.558741" style="stroke: #000000; stroke-width: 0.8"/>
      </g>
     </g>
     <g id="text_11">
      <!-- 1.00 -->
      <g transform="translate(28.60024 21.157178) scale(0.2 -0.2)">
       <use xlink:href="#DejaVuSans-31"/>
       <use xlink:href="#DejaVuSans-2e" x="63.623047"/>
       <use xlink:href="#DejaVuSans-30" x="95.410156"/>
       <use xlink:href="#DejaVuSans-30" x="159.033203"/>
      </g>
     </g>
    </g>
    <g id="text_12">
     <!-- $\bar{S}$ [a.u.] -->
     <g transform="translate(20.440865 155.34375) rotate(-90) scale(0.2 -0.2)">
      <defs>
       <path id="DejaVuSans-304" d="M -2522 4769 
L -653 4769 
L -653 4306 
L -2522 4306 
L -2522 4769 
z
" transform="scale(0.015625)"/>
       <path id="DejaVuSans-Oblique-53" d="M 3859 4513 
L 3738 3897 
Q 3422 4066 3111 4152 
Q 2800 4238 2509 4238 
Q 1944 4238 1609 3991 
Q 1275 3744 1275 3334 
Q 1275 3109 1398 2989 
Q 1522 2869 2034 2731 
L 2413 2638 
Q 3053 2472 3303 2217 
Q 3553 1963 3553 1503 
Q 3553 797 2998 353 
Q 2444 -91 1538 -91 
Q 1166 -91 791 -17 
Q 416 56 38 206 
L 166 856 
Q 513 641 861 531 
Q 1209 422 1556 422 
Q 2147 422 2503 684 
Q 2859 947 2859 1369 
Q 2859 1650 2717 1795 
Q 2575 1941 2106 2059 
L 1728 2156 
Q 1081 2325 845 2545 
Q 609 2766 609 3163 
Q 609 3859 1145 4304 
Q 1681 4750 2541 4750 
Q 2875 4750 3203 4690 
Q 3531 4631 3859 4513 
z
" transform="scale(0.015625)"/>
       <path id="DejaVuSans-20" transform="scale(0.015625)"/>
       <path id="DejaVuSans-5b" d="M 550 4863 
L 1875 4863 
L 1875 4416 
L 1125 4416 
L 1125 -397 
L 1875 -397 
L 1875 -844 
L 550 -844 
L 550 4863 
z
" transform="scale(0.015625)"/>
       <path id="DejaVuSans-61" d="M 2194 1759 
Q 1497 1759 1228 1600 
Q 959 1441 959 1056 
Q 959 750 1161 570 
Q 1363 391 1709 391 
Q 2188 391 2477 730 
Q 2766 1069 2766 1631 
L 2766 1759 
L 2194 1759 
z
M 3341 1997 
L 3341 0 
L 2766 0 
L 2766 531 
Q 2569 213 2275 61 
Q 1981 -91 1556 -91 
Q 1019 -91 701 211 
Q 384 513 384 1019 
Q 384 1609 779 1909 
Q 1175 2209 1959 2209 
L 2766 2209 
L 2766 2266 
Q 2766 2663 2505 2880 
Q 2244 3097 1772 3097 
Q 1472 3097 1187 3025 
Q 903 2953 641 2809 
L 641 3341 
Q 956 3463 1253 3523 
Q 1550 3584 1831 3584 
Q 2591 3584 2966 3190 
Q 3341 2797 3341 1997 
z
" transform="scale(0.015625)"/>
       <path id="DejaVuSans-75" d="M 544 1381 
L 544 3500 
L 1119 3500 
L 1119 1403 
Q 1119 906 1312 657 
Q 1506 409 1894 409 
Q 2359 409 2629 706 
Q 2900 1003 2900 1516 
L 2900 3500 
L 3475 3500 
L 3475 0 
L 2900 0 
L 2900 538 
Q 2691 219 2414 64 
Q 2138 -91 1772 -91 
Q 1169 -91 856 284 
Q 544 659 544 1381 
z
M 1991 3584 
L 1991 3584 
z
" transform="scale(0.015625)"/>
       <path id="DejaVuSans-5d" d="M 1947 4863 
L 1947 -844 
L 622 -844 
L 622 -397 
L 1369 -397 
L 1369 4416 
L 622 4416 
L 622 4863 
L 1947 4863 
z
" transform="scale(0.015625)"/>
      </defs>
      <use xlink:href="#DejaVuSans-304" transform="translate(64.275391 19.484375)"/>
      <use xlink:href="#DejaVuSans-Oblique-53" transform="translate(0 0.046875)"/>
      <use xlink:href="#DejaVuSans-20" transform="translate(63.476562 0.046875)"/>
      <use xlink:href="#DejaVuSans-5b" transform="translate(95.263672 0.046875)"/>
      <use xlink:href="#DejaVuSans-61" transform="translate(134.277344 0.046875)"/>
      <use xlink:href="#DejaVuSans-2e" transform="translate(195.556641 0.046875)"/>
      <use xlink:href="#DejaVuSans-75" transform="translate(227.34375 0.046875)"/>
      <use xlink:href="#DejaVuSans-2e" transform="translate(290.722656 0.046875)"/>
      <use xlink:href="#DejaVuSans-5d" transform="translate(322.509766 0.046875)"/>
     </g>
    </g>
   </g>
   <g id="line2d_11">
    <path d="M 80.13149 132.142371 
L 96.779747 107.681386 
L 113.428005 81.575259 
L 130.076262 67.504203 
L 146.724519 58.818304 
L 163.372776 44.966883 
L 180.021034 46.87209 
L 196.669291 27.164011 
L 213.317548 22.341264 
L 229.965805 23.276092 
L 246.614063 13.558741 
L 263.26232 17.044471 
L 279.910577 16.919176 
L 296.558834 34.240461 
L 313.207092 37.818799 
L 329.855349 51.964839 
L 346.503606 60.207905 
L 363.151863 92.47298 
L 379.80012 135.750687 
L 396.448378 177.523657 
L 413.096635 224.728759 
" clip-path="url(#pe5aaf21878)" style="fill: none; stroke: #d60000; stroke-width: 3; stroke-linecap: square"/>
   </g>
   <g id="line2d_12">
    <path d="M 80.13149 224.728759 
L 96.779747 191.306871 
L 113.428005 163.273682 
L 130.076262 130.280993 
L 146.724519 110.00106 
L 163.372776 102.317979 
L 180.021034 76.154959 
L 196.669291 54.662548 
L 213.317548 47.561955 
L 229.965805 28.401731 
L 246.614063 31.277194 
L 263.26232 24.312872 
L 279.910577 13.558741 
L 296.558834 26.169587 
L 313.207092 28.130401 
L 329.855349 36.86072 
L 346.503606 36.611585 
L 363.151863 45.166691 
L 379.80012 40.781743 
L 396.448378 56.549141 
L 413.096635 71.217419 
" clip-path="url(#pe5aaf21878)" style="fill: none; stroke: #8c3bff; stroke-width: 3; stroke-linecap: square"/>
   </g>
   <g id="line2d_13">
    <path d="M 80.13149 168.051284 
L 96.779747 146.164623 
L 113.428005 135.906163 
L 130.076262 114.785103 
L 146.724519 88.73299 
L 163.372776 70.069964 
L 180.021034 51.935896 
L 196.669291 44.171699 
L 213.317548 37.117263 
L 229.965805 28.589325 
L 246.614063 16.720143 
L 263.26232 13.558741 
L 279.910577 21.175346 
L 296.558834 27.674293 
L 313.207091 42.433026 
L 329.855349 58.739016 
L 346.503606 84.496093 
L 363.151863 120.210813 
L 379.80012 158.691178 
L 396.448378 189.221856 
L 413.096635 224.728759 
" clip-path="url(#pe5aaf21878)" style="fill: none; stroke: #018700; stroke-width: 3; stroke-linecap: square"/>
   </g>
   <g id="line2d_14">
    <path d="M 80.13149 219.018558 
L 96.779747 190.250494 
L 113.428005 159.339689 
L 130.076262 156.9839 
L 146.724519 110.283895 
L 163.372776 96.096028 
L 180.021034 107.455542 
L 196.669291 49.391881 
L 213.317548 54.035321 
L 229.965805 28.129119 
L 246.614063 13.558741 
L 263.26232 29.289876 
L 279.910577 15.943551 
L 296.558834 27.283579 
L 313.207092 68.800134 
L 329.855349 83.279621 
L 346.503606 106.177446 
L 363.151863 122.266088 
L 379.80012 144.727022 
L 396.448378 208.848805 
L 413.096635 224.728759 
" clip-path="url(#pe5aaf21878)" style="fill: none; stroke: #00acc6; stroke-width: 3; stroke-linecap: square"/>
   </g>
   <g id="line2d_15">
    <path d="M 80.13149 224.728759 
L 96.779747 188.483957 
L 113.428005 158.745339 
L 130.076262 100.129991 
L 146.724519 60.903727 
L 163.372776 61.766352 
L 180.021034 33.091576 
L 196.669291 27.102674 
L 213.317548 13.558741 
L 229.965805 24.524182 
L 246.614063 26.718145 
L 263.26232 25.443565 
L 279.910577 27.507342 
L 296.558834 33.644393 
L 313.207092 37.038261 
L 329.855349 73.35094 
L 346.503606 72.154436 
L 363.151863 115.928433 
L 379.800121 130.975572 
L 396.448378 178.477796 
L 413.096635 213.235826 
" clip-path="url(#pe5aaf21878)" style="fill: none; stroke: #97ff00; stroke-width: 3; stroke-linecap: square"/>
   </g>
   <g id="line2d_16">
    <path d="M 80.13149 184.799075 
L 96.779747 154.412548 
L 113.428005 126.694062 
L 130.076262 75.043444 
L 146.724519 53.918902 
L 163.372776 34.376871 
L 180.021034 39.325111 
L 196.669291 33.914018 
L 213.317548 25.152652 
L 229.965805 34.453518 
L 246.614063 13.558741 
L 263.26232 50.108789 
L 279.910577 34.025652 
L 296.558834 44.838679 
L 313.207092 74.507546 
L 329.855349 90.852314 
L 346.503606 106.299499 
L 363.151863 170.916204 
L 379.80012 188.223154 
L 396.448378 191.057961 
L 413.096635 224.728759 
" clip-path="url(#pe5aaf21878)" style="fill: none; stroke: #ff7ed1; stroke-width: 3; stroke-linecap: square"/>
   </g>
   <g id="line2d_17">
    <path d="M 80.13149 131.391981 
L 96.779747 100.113975 
L 113.428005 87.176635 
L 130.076262 65.338751 
L 146.724519 58.694511 
L 163.372776 34.748944 
L 180.021034 27.855345 
L 196.669291 18.904595 
L 213.317548 13.558741 
L 229.965805 13.986186 
L 246.614063 21.589744 
L 263.26232 32.130574 
L 279.910577 43.224924 
L 296.558834 52.934968 
L 313.207091 73.768632 
L 329.855349 94.313319 
L 346.503606 113.335358 
L 363.151863 140.857018 
L 379.80012 169.274775 
L 396.448378 197.700112 
L 413.096635 224.728759 
" clip-path="url(#pe5aaf21878)" style="fill: none; stroke: #6b004f; stroke-width: 3; stroke-linecap: square"/>
   </g>
   <g id="line2d_18">
    <path d="M 80.13149 79.476551 
L 96.779747 69.735093 
L 113.428005 51.036441 
L 130.076262 35.980434 
L 146.724519 42.648081 
L 163.372776 47.835148 
L 180.021034 27.736638 
L 196.669291 35.149003 
L 213.317548 22.927987 
L 229.965805 25.89848 
L 246.614063 13.558741 
L 263.26232 21.692812 
L 279.910577 32.950833 
L 296.558834 39.325925 
L 313.207092 49.687019 
L 329.855349 64.372571 
L 346.503606 83.043625 
L 363.151863 104.718122 
L 379.80012 137.222428 
L 396.448378 174.908955 
L 413.096635 224.728759 
" clip-path="url(#pe5aaf21878)" style="fill: none; stroke: #ffa52f; stroke-width: 3; stroke-linecap: square"/>
   </g>
   <g id="line2d_19">
    <path d="M 80.13149 224.728759 
L 96.779747 186.916784 
L 113.428005 143.511257 
L 130.076262 115.088967 
L 146.724519 84.683239 
L 163.372776 61.140754 
L 180.021034 43.554586 
L 196.669291 27.32851 
L 213.317548 26.435344 
L 229.965805 22.174496 
L 246.614063 13.558741 
L 263.26232 24.732557 
L 279.910577 23.940649 
L 296.558834 26.121703 
L 313.207092 23.640413 
L 329.855349 49.016312 
L 346.503606 65.931666 
L 363.151863 75.012826 
L 379.80012 119.137777 
L 396.448378 133.733402 
L 413.096635 161.27441 
" clip-path="url(#pe5aaf21878)" style="fill: none; stroke: #573b00; stroke-width: 3; stroke-linecap: square"/>
   </g>
   <g id="line2d_20">
    <path d="M 80.13149 224.728759 
L 96.779747 173.068379 
L 113.428005 143.793595 
L 130.076262 100.892255 
L 146.724519 88.078522 
L 163.372776 62.938908 
L 180.021034 35.6165 
L 196.669291 29.834507 
L 213.317548 25.227267 
L 229.965805 13.558741 
L 246.614063 14.713921 
L 263.26232 20.149997 
L 279.910577 36.491883 
L 296.558834 52.248812 
L 313.207092 69.092504 
L 329.855349 67.839076 
L 346.503606 85.236934 
L 363.151863 114.500425 
L 379.80012 134.839425 
L 396.448378 145.133564 
L 413.096635 174.808612 
" clip-path="url(#pe5aaf21878)" style="fill: none; stroke: #005659; stroke-width: 3; stroke-linecap: square"/>
   </g>
   <g id="line2d_21">
    <path d="M 80.13149 180.914044 
L 96.779747 170.093354 
L 113.428005 126.988938 
L 130.076262 130.447576 
L 146.724519 133.686745 
L 163.372776 91.527094 
L 180.021034 55.692029 
L 196.669291 52.071518 
L 213.317548 31.686846 
L 229.965805 23.004356 
L 246.614063 33.799004 
L 263.26232 13.558741 
L 279.910577 24.470614 
L 296.558834 20.181676 
L 313.207091 49.85428 
L 329.855349 63.639615 
L 346.503606 94.492754 
L 363.151863 97.456144 
L 379.80012 144.032461 
L 396.448378 148.908358 
L 413.096635 224.728759 
" clip-path="url(#pe5aaf21878)" style="fill: none; stroke: #0000dd; stroke-width: 3; stroke-linecap: square"/>
   </g>
   <g id="line2d_22">
    <path d="M 80.13149 224.728759 
L 96.779747 174.131152 
L 113.428005 147.071435 
L 130.076262 101.487671 
L 146.724519 71.001411 
L 163.372776 50.408892 
L 180.021034 23.783301 
L 196.669291 13.558741 
L 213.317548 28.029802 
L 229.965805 15.063759 
L 246.614063 32.651052 
L 263.26232 38.711072 
L 279.910577 56.485631 
L 296.558834 71.046465 
L 313.207091 74.344978 
L 329.855349 80.474398 
L 346.503606 93.705195 
L 363.151863 111.289847 
L 379.80012 105.160332 
L 396.448378 146.756774 
L 413.096635 164.594009 
" clip-path="url(#pe5aaf21878)" style="fill: none; stroke: #00fdcf; stroke-width: 3; stroke-linecap: square"/>
   </g>
   <g id="line2d_23">
    <path d="M 80.13149 224.728759 
L 96.779747 191.478878 
L 113.428005 160.858204 
L 130.076262 134.055328 
L 146.724519 108.086311 
L 163.372776 80.69161 
L 180.021034 61.341383 
L 196.669291 36.738929 
L 213.317548 26.071872 
L 229.965805 13.558741 
L 246.614062 13.598346 
L 263.26232 16.828574 
L 279.910577 30.29825 
L 296.558834 45.378119 
L 313.207092 57.706698 
L 329.855349 70.859559 
L 346.503606 93.822508 
L 363.151863 118.375445 
L 379.80012 134.775707 
L 396.448378 154.163484 
L 413.096635 178.981421 
" clip-path="url(#pe5aaf21878)" style="fill: none; stroke: #a17569; stroke-width: 3; stroke-linecap: square"/>
   </g>
   <g id="line2d_24">
    <path d="M 80.13149 224.728759 
L 96.779747 154.481425 
L 113.428005 129.257465 
L 130.076262 116.366311 
L 146.724519 91.19634 
L 163.372776 80.594854 
L 180.021034 55.467782 
L 196.669291 71.456457 
L 213.317548 54.112985 
L 229.965805 53.6927 
L 246.614063 20.385998 
L 263.26232 13.558741 
L 279.910577 31.59727 
L 296.558834 30.089685 
L 313.207092 42.814577 
L 329.855349 46.834927 
L 346.503606 36.951272 
L 363.151863 75.699572 
L 379.80012 104.431976 
L 396.448378 99.02185 
L 413.096635 150.057552 
" clip-path="url(#pe5aaf21878)" style="fill: none; stroke: #bcb6ff; stroke-width: 3; stroke-linecap: square"/>
   </g>
   <g id="line2d_25">
    <path d="M 80.13149 202.250824 
L 96.779747 175.209878 
L 113.428005 151.734877 
L 130.076262 117.374617 
L 146.724519 89.63905 
L 163.372776 66.860039 
L 180.021034 39.897436 
L 196.669291 33.42716 
L 213.317548 13.558741 
L 229.965805 31.23905 
L 246.614062 26.717764 
L 263.26232 33.249068 
L 279.910577 43.047308 
L 296.558834 44.971894 
L 313.207092 60.614439 
L 329.855349 77.951299 
L 346.503606 89.040689 
L 363.151863 128.831422 
L 379.80012 149.981002 
L 396.448378 182.36839 
L 413.096635 224.728759 
" clip-path="url(#pe5aaf21878)" style="fill: none; stroke: #95b577; stroke-width: 3; stroke-linecap: square"/>
   </g>
   <g id="line2d_26">
    <path d="M 80.13149 224.728759 
L 96.779747 178.282954 
L 113.428005 138.532459 
L 130.076262 107.337296 
L 146.724519 76.785244 
L 163.372776 55.345497 
L 180.021034 32.980146 
L 196.669291 20.352637 
L 213.317548 17.447288 
L 229.965805 13.558741 
L 246.614063 15.330959 
L 263.26232 25.521913 
L 279.910577 41.956585 
L 296.558834 53.573413 
L 313.207092 69.678481 
L 329.855349 88.007229 
L 346.503606 122.506704 
L 363.151863 133.3212 
L 379.80012 156.922733 
L 396.448378 182.845386 
L 413.096635 203.569432 
" clip-path="url(#pe5aaf21878)" style="fill: none; stroke: #bf03b8; stroke-width: 3; stroke-linecap: square"/>
   </g>
   <g id="patch_3">
    <path d="M 80.13149 235.28726 
L 80.13149 3.00024 
" style="fill: none; stroke: #000000; stroke-width: 0.8; stroke-linejoin: miter; stroke-linecap: square"/>
   </g>
   <g id="patch_4">
    <path d="M 413.096635 235.28726 
L 413.096635 3.00024 
" style="fill: none; stroke: #000000; stroke-width: 0.8; stroke-linejoin: miter; stroke-linecap: square"/>
   </g>
   <g id="patch_5">
    <path d="M 80.13149 235.28726 
L 413.096635 235.28726 
" style="fill: none; stroke: #000000; stroke-width: 0.8; stroke-linejoin: miter; stroke-linecap: square"/>
   </g>
   <g id="patch_6">
    <path d="M 80.13149 3.00024 
L 413.096635 3.00024 
" style="fill: none; stroke: #000000; stroke-width: 0.8; stroke-linejoin: miter; stroke-linecap: square"/>
   </g>
  </g>
 </g>
 <defs>
  <clipPath id="pe5aaf21878">
   <rect x="80.13149" y="3.00024" width="332.965145" height="232.28702"/>
  </clipPath>
 </defs>
</svg>
